<svg xmlns="http://www.w3.org/2000/svg" width="34" height="33" viewBox="0 0 34 33">
    <g fill="#3A4669" fill-rule="evenodd">
        <path d="M24.042 17.437c3.74 0 6.77 3.032 6.77 6.771 0 3.74-3.03 6.771-6.77 6.771-3.74 0-6.771-3.031-6.771-6.77 0-3.74 3.031-6.772 6.77-6.772zm0 1.625c-2.842 0-5.146 2.304-5.146 5.146s2.304 5.146 5.146 5.146 5.146-2.304 5.146-5.146-2.304-5.146-5.146-5.146zm.541 2.438v2.166h2.167v1.084h-2.167v2.167H23.5V24.75h-2.167v-1.083l2.166-.001.001-2.166h1.083zM17 2.27c1.645 0 2.98 1.335 2.98 2.98v.022c.227.039.44.125.627.25l1.81-.001c1.586 0 2.883 1.24 2.974 2.804l.005.175v6.86H23.77V8.5c0-.704-.537-1.282-1.224-1.348l-.13-.006H21.31c-.13.769-.798 1.354-1.603 1.354h-5.416c-.805 0-1.474-.585-1.603-1.354h-1.106c-.704 0-1.282.537-1.348 1.224l-.006.13v15.167c0 .704.537 1.282 1.224 1.348l.13.006h3.718v1.625h-3.718c-1.586 0-2.883-1.24-2.974-2.804l-.005-.175V8.5c0-1.587 1.24-2.883 2.804-2.974l.175-.005h1.81c.186-.124.399-.21.628-.249V5.25c0-1.645 1.334-2.98 2.979-2.98zm1.083 17.063v.892l-.955 1.275h-1.211v-2.167h2.166zm0-8.666v6.5h-2.166v-6.5h2.166zM17 3.896c-.748 0-1.354.606-1.354 1.354h2.708c0-.748-.606-1.354-1.354-1.354z"/>
    </g>
</svg>
