<svg xmlns="http://www.w3.org/2000/svg" width="24" height="21" viewBox="0 0 24 21">
    <g fill="#3A4669" stroke="#3A4669" stroke-linejoin="round">
        <path stroke-width=".2" d="M23.973 18.616l-.015-.03c-.007-.015-.012-.03-.021-.044l-3.75-5.625c-.007-.01-.018-.015-.025-.024-.016-.021-.034-.038-.054-.055-.019-.015-.038-.028-.059-.039-.02-.011-.04-.02-.064-.026-.024-.008-.05-.013-.075-.015-.012-.002-.023-.008-.035-.008h-4.634C16.64 10.89 18 8.45 18 6c0-3.308-2.692-6-6-6S6 2.692 6 6c0 2.45 1.36 4.89 2.76 6.75H4.124c-.012 0-.023.006-.035.007-.026.003-.05.008-.076.016-.023.007-.043.014-.063.025-.021.012-.04.025-.059.04-.02.016-.038.034-.054.054-.008.01-.018.015-.025.025l-3.75 5.625c-.009.013-.014.029-.021.043-.006.01-.01.02-.015.031-.016.04-.025.083-.025.127L0 18.75v1.5c0 .207.168.375.375.375h23.25c.207 0 .375-.168.375-.375v-1.5l-.002-.008c0-.043-.01-.085-.025-.126zm-3.43-.241l-.357-.75h2.239l.5.75h-2.382zm-1.43-3l-.894-1.875h1.455l1.25 1.875h-1.811zM12 .75c2.895 0 5.25 2.355 5.25 5.25 0 4.025-4.179 8.229-5.25 9.24-.11-.103-.252-.241-.418-.407-.036-.07-.091-.125-.16-.162C9.886 13.11 6.75 9.49 6.75 6 6.75 3.105 9.105.75 12 .75zm3.63 14.625l.323 1.125H8.047l.323-1.125h2.686c.386.383.65.616.697.657.07.062.159.093.247.093s.177-.031.247-.093c.047-.041.31-.274.697-.657h2.686zm-5.3-.75H8.088c-.008 0-.015.004-.024.005-.024.001-.047.008-.07.014-.024.006-.048.012-.07.023-.02.01-.038.024-.055.037-.021.015-.04.03-.058.048-.015.017-.025.036-.037.055-.014.023-.028.044-.037.07-.002.007-.008.012-.01.02l-.538 1.875c-.004.017-.001.034-.004.05-.002.019-.01.035-.01.053 0 .008.004.015.004.023.002.026.009.05.015.075.007.022.012.045.022.066.01.02.024.038.039.057.015.02.029.04.047.056.017.015.036.025.055.037.023.014.044.028.07.037.007.002.012.008.02.01.034.01.068.014.102.014h8.901c.035 0 .07-.005.103-.014.008-.003.013-.008.02-.01.026-.009.048-.023.07-.037.02-.012.039-.022.055-.037.018-.017.032-.037.047-.056.014-.019.028-.037.039-.057.01-.02.015-.044.022-.067.006-.024.013-.048.015-.074 0-.008.004-.014.004-.023 0-.018-.008-.034-.01-.052-.003-.017 0-.034-.005-.051l-.537-1.875c-.003-.008-.008-.013-.01-.02-.009-.026-.023-.048-.038-.07-.011-.02-.021-.039-.036-.055-.017-.02-.038-.034-.058-.049-.018-.013-.035-.026-.054-.036-.023-.011-.047-.017-.072-.024-.023-.006-.045-.012-.07-.014-.007 0-.014-.004-.023-.004h-2.243c.305-.329.639-.707.982-1.125h2.737l1.149 2.41c.017.037.04.068.068.096.009.01.02.016.03.024.022.02.046.037.072.05.015.008.03.014.046.02.03.01.062.017.095.02.01 0 .018.005.028.005h2.548l.5.75h-2.333l-.005.001c-.032 0-.062.01-.094.019-.018.005-.036.006-.053.013-.003.002-.007.002-.01.003-.023.01-.04.029-.058.043-.017.013-.036.023-.05.038-.021.023-.036.048-.05.075-.01.015-.02.029-.027.045-.013.032-.017.066-.02.1-.002.013-.008.024-.008.038v.006c.001.029.01.057.018.086.006.02.007.042.015.061.002.003.001.006.003.008l.46.964H4.288l1.71-3.588C6 14.785 6 14.782 6 14.78c.012-.025.015-.054.021-.082.005-.022.012-.042.013-.064l.002-.009c0-.021-.009-.04-.013-.06-.004-.025-.005-.05-.014-.073-.01-.025-.026-.046-.04-.068-.012-.019-.021-.038-.036-.054-.021-.022-.047-.037-.072-.054-.014-.009-.024-.022-.04-.03l-.006-.001c-.024-.01-.05-.013-.075-.02-.025-.005-.048-.013-.072-.014l-.007-.001H3.826l.5-.75h5.023c.343.418.677.796.982 1.125h0zM3.326 15h1.74l-1.608 3.375H1.076L3.325 15zm19.925 4.875H.75v-.75h22.5v.75z"/>
        <path stroke-width=".2" d="M14.247 8.998c.62 0 1.125-.505 1.125-1.125V5.248c0-.62-.504-1.125-1.125-1.125h-3.372c0-.206-.168-.373-.375-.373s-.373.167-.374.373h-.373c-.62 0-1.125.505-1.125 1.125v2.625c0 .62.504 1.125 1.125 1.125h4.494zm-4.87-1.125V5.248c0-.207.169-.375.376-.375h4.494c.207 0 .375.168.375.375v2.625c0 .207-.168.375-.375.375H9.753c-.207 0-.375-.168-.375-.375z"/>
        <path stroke-width=".2" d="M12.563 7.875c.723 0 1.312-.589 1.312-1.313 0-.723-.589-1.312-1.313-1.312-.723 0-1.312.589-1.312 1.313 0 .723.589 1.312 1.313 1.312zm0-1.875c.31 0 .562.252.562.563 0 .31-.252.562-.563.562-.31 0-.562-.252-.562-.563 0-.31.252-.562.563-.562z"/>
        <path stroke-width=".1" d="M10.509 6c.207 0 .375-.168.375-.376 0-.207-.168-.375-.375-.375h-.005c-.207 0-.372.168-.372.375 0 .208.17.375.377.375z"/>
    </g>
</svg>
