<svg xmlns="http://www.w3.org/2000/svg" xmlns:xlink="http://www.w3.org/1999/xlink" width="38" height="38" viewBox="0 0 38 38">
    <defs>
        <path id="prefix__a" d="M0 0.002L21.891 0.002 21.891 19.871 0 19.871z"/>
        <path id="prefix__c" d="M0 19.988L21.891 19.988 21.891 0.118 0 0.118z"/>
    </defs>
    <g fill="none" fill-rule="evenodd" transform="translate(1 1)">
        <circle cx="18" cy="18" r="18" stroke="#7A86A9" stroke-width="2"/>
        <g transform="translate(7 6)">
            <g transform="translate(0 .117)">
                <mask id="prefix__b" fill="#fff">
                    <use xlink:href="#prefix__a"/>
                </mask>
                <path fill="#7A86A9" d="M10.94 18.335v.003h8.452c.485 0 .567-.14.33-.57-2.814-5.117-5.628-10.234-8.449-15.347-.073-.132-.211-.287-.34-.309-.085-.015-.24.172-.31.298-2.82 5.113-5.634 10.23-8.448 15.347-.246.447-.17.577.342.578h8.423zm-.015 1.536l-9.638-.001c-1.072 0-1.607-.927-1.085-1.86C3.155 12.72 6.106 7.427 9.058 2.136c.279-.499.56-.997.837-1.496.23-.415.583-.64 1.056-.64.475 0 .819.234 1.05.648 2.193 3.932 4.388 7.863 6.582 11.794 1.032 1.85 2.063 3.7 3.097 5.548.535.955.006 1.877-1.087 1.877-3.222.002-6.445 0-9.668 0v.003z" mask="url(#prefix__b)"/>
            </g>
            <mask id="prefix__d" fill="#fff">
                <use xlink:href="#prefix__c"/>
            </mask>
            <path fill="#7A86A9" d="M10.201 11.817L11.69 11.817 11.69 7.275 10.201 7.275zM10.195 15.884L11.684 15.884 11.684 14.405 10.195 14.405z" mask="url(#prefix__d)"/>
        </g>
    </g>
</svg>
