<svg xmlns="http://www.w3.org/2000/svg" xmlns:xlink="http://www.w3.org/1999/xlink" width="30px" height="18px" viewBox="0 0 30 18" version="1.1">
  <g id="ATG-Setup-Center" stroke="none" stroke-width="1" fill="none" fill-rule="evenodd">
    <g id="ATG-Setup-Center-Open-setup" transform="translate(-1349.000000, -509.000000)" fill="#616674">
      <g id="Group-3" transform="translate(1342.000000, 502.000000)">
        <g id="download" transform="translate(7.000000, 7.000000)">
          <g id="Icon-/-ATG-command-center">
            <path d="M9,1 C10.2628571,1 11.2857143,1.99698234 11.2857143,3.2278935 C11.2857143,4.26621312 10.5578948,5.13807943 9.57214512,5.38548972 L9.57210599,7.73946297 C10.7854757,7.97960205 11.7189763,8.96865497 11.8430972,10.190506 L12.5946641,10.1898381 C12.9336336,9.37329718 13.7546702,8.79762725 14.7142857,8.79762725 C15.9771429,8.79762725 17,9.79460959 17,11.0255208 C17,12.2564319 15.9771429,13.2534143 14.7142857,13.2534143 C13.5595303,13.2534143 12.605445,12.4198117 12.4505654,11.3360011 L11.716037,11.3357336 C11.4089091,12.2508694 10.6287474,12.9568713 9.65686873,13.1795388 L9.70283083,13.8805898 C9.88093411,13.9632978 10.0393888,14.0920724 10.1576934,14.2630293 C10.5106462,14.7730663 10.3725735,15.4654198 9.84929944,15.8094441 C9.32602538,16.1534684 8.61570314,16.0188885 8.26275033,15.5088515 C7.90979751,14.9988145 8.04787017,14.306461 8.57114424,13.9624367 C8.57473054,13.9600789 8.57832563,13.9577436 8.58192932,13.9554307 L8.53401258,13.2165998 C7.78320684,13.0966766 7.13110507,12.6917373 6.69839312,12.1194148 L5.48981481,12.6609854 C5.54301587,12.8496086 5.57142857,13.0482624 5.57142857,13.2534143 C5.57142857,14.4843254 4.54857143,15.4813078 3.28571429,15.4813078 C2.02285714,15.4813078 1,14.4843254 1,13.2534143 C1,12.0225031 2.02285714,11.0255208 3.28571429,11.0255208 C3.92422619,11.0255208 4.50138439,11.2803898 4.91600139,11.6915 L6.21852256,11.1082712 C6.16903454,10.9028796 6.14285714,10.6887069 6.14285714,10.4685474 C6.14285714,10.1709505 6.190688,9.88429269 6.27926916,9.61547526 L5.57486705,9.20362785 C5.40599324,9.29961152 5.20958498,9.35460063 5,9.35460063 C4.36881743,9.35460063 3.85714286,8.85586968 3.85714286,8.24065388 C3.85714286,7.62543807 4.36881743,7.12670713 5,7.12670713 C5.63118257,7.12670713 6.14285714,7.62543807 6.14285714,8.24065388 L6.142,8.236 L6.84125915,8.64369363 C7.24599076,8.18916795 7.79939812,7.86384915 8.42789401,7.73946297 L8.42785488,5.38548972 C7.44210521,5.13807943 6.71428571,4.26621312 6.71428571,3.2278935 C6.71428571,1.99698234 7.73714286,1 9,1 Z" id="Combined-Shape" />
          </g>
          <g id="Icon-/-Arrow-S-down" transform="translate(22.000000, 5.000000)">
            <path d="M3.46536412,6.75935829 L0.232089994,3.36363636 C-0.00552595224,3.114082 -0.0606867969,2.82442068 0.06660746,2.49465241 C0.193901717,2.16488414 0.427274521,2 0.766725873,2 L7.23327413,2 C7.57272548,2 7.80609828,2.16488414 7.93339254,2.49465241 C8.0606868,2.82442068 8.00552595,3.114082 7.76791001,3.36363636 L4.53463588,6.75935829 C4.44977304,6.84848485 4.3649102,6.91087344 4.28004737,6.94652406 C4.19518453,6.98217469 4.10183541,7 4,7 C3.89816459,7 3.80481547,6.98217469 3.71995263,6.94652406 C3.6350898,6.91087344 3.55022696,6.84848485 3.46536412,6.75935829 L3.46536412,6.75935829 Z" id="Path" />
          </g>
        </g>
      </g>
    </g>
  </g>
</svg>
