<svg xmlns="http://www.w3.org/2000/svg" xmlns:xlink="http://www.w3.org/1999/xlink" width="16px" height="16px" viewBox="0 0 16 16" version="1.1">
    <g id="ATG-Command-Center-(Remote-Monitoring)" stroke="none" stroke-width="1" fill="none" fill-rule="evenodd">
        <g id="ATG-Command-Center-V3" transform="translate(-1193.000000, -807.000000)">
            <g id="main-table" transform="translate(174.000000, 459.000000)">
                <g id="Group-5-Copy-9" transform="translate(62.000000, 340.000000)">
                    <g id="Button-/-Filled-/-Normal" transform="translate(945.000000, 0.000000)">
                        <g id="Icon-/-Loading" transform="translate(12.000000, 8.000000)">
                            <rect id="Rectangle" opacity="0" x="0" y="0" width="16" height="16"/>
                            <path d="M14.6090336,8.36334567 C14.5684174,10.2710262 13.7750101,12.11881 12.473622,13.4004829 C11.179745,14.6929139 9.4054283,15.3959731 7.6542016,15.3416009 C5.90102755,15.2982775 4.20738686,14.5013026 3.03146387,13.1949151 C1.8463605,11.8952151 1.20401221,10.1183769 1.25575616,8.36334567 C1.29776335,6.60656992 2.02941168,4.91376152 3.22814652,3.73734399 C4.4213175,2.55249441 6.04735722,1.91340254 7.6542016,1.96661174 C9.26299334,2.01109811 10.808357,2.74381491 11.883574,3.94291176 C12.9660241,5.13706568 13.5466135,6.7589285 13.4962605,8.36334567 L16,8.36334567 C15.9696769,7.22443627 15.7259796,6.09221436 15.2839305,5.05972335 C14.8432723,4.0260693 14.2087135,3.09272767 13.4325542,2.32395656 C11.8841304,0.778273029 9.74760603,-0.0655143288 7.6542016,0.00397746256 C5.55857162,0.0566051372 3.52247501,1.01756903 2.12149365,2.58098896 C0.706880823,4.13335998 -0.0617672098,6.26957835 0.0038864043,8.36334567 C0.0550739678,10.4594391 0.936112085,12.4904021 2.36741651,13.88867 C3.78954056,15.3003129 5.74106642,16.0638503 7.6542016,15.9958123 C9.56984053,15.9417308 11.420104,15.0607261 12.6947856,13.6319283 C13.9811514,12.2112719 14.6732962,10.2687001 14.6090336,8.36334567" id="Fill-1" fill="#FFFFFF"/>
                        </g>
                    </g>
                </g>
            </g>
        </g>
    </g>
</svg>
