<svg xmlns="http://www.w3.org/2000/svg" xmlns:xlink="http://www.w3.org/1999/xlink" width="18px" height="18px" viewBox="0 0 18 18" version="1.1">
  <g id="ATG-Connection-Center-(Remote-Monitoring)" stroke="none" stroke-width="1" fill="none" fill-rule="evenodd">
    <g id="ATG-Connection-Center-V3---icons-V8" transform="translate(-1188.000000, -766.000000)" fill="#616674" fill-rule="nonzero">
      <g id="Group-7-Copy-10" transform="translate(1172.000000, 660.000000)">
        <g id="Icon-/-ATG-Alarms-V7-Copy" transform="translate(16.000000, 106.000000)">
          <path className="icon-alarms-shape" d="M2.63571429,2.63571429 C2.96894551,2.30248306 3.50922008,2.30248306 3.8424513,2.63571429 C3.84275681,2.63601979 3.84306208,2.63632552 3.84336712,2.63663149 L5.45805494,4.25623216 C5.78906916,4.58825352 5.78866103,5.12562468 5.45714286,5.45714286 C5.12562468,5.78866103 4.58825352,5.78906916 4.25623216,5.45805494 L2.63663149,3.84336712 C2.30289447,3.51064245 2.30207381,2.9703685 2.63479847,2.63663149 C2.63510351,2.63632552 2.63540878,2.63601979 2.63571429,2.63571429 Z M9,3.57142857 C8.52661307,3.57142857 8.14285714,3.18767264 8.14285714,2.71428571 L8.14285714,0.857142857 C8.14285714,0.383755929 8.52661307,8.6959768e-17 9,0 C9.47338693,-8.6959768e-17 9.85714286,0.383755929 9.85714286,0.857142857 L9.85714286,2.71428571 C9.85714286,3.18767264 9.47338693,3.57142857 9,3.57142857 Z M12.5428571,5.45714286 C12.211339,5.12562468 12.2109308,4.58825352 12.5419451,4.25623216 L14.1566329,2.63663149 C14.4893576,2.30289447 15.0296315,2.30207381 15.3633685,2.63479847 C15.3636745,2.63510351 15.3639802,2.63540878 15.3642857,2.63571429 C15.6975169,2.96894551 15.6975169,3.50922008 15.3642857,3.8424513 C15.3639802,3.84275681 15.3636745,3.84306208 15.3633685,3.84336712 L13.7437678,5.45805494 C13.4117465,5.78906916 12.8743753,5.78866103 12.5428571,5.45714286 Z M2.71428571,9.85714286 L0.857142857,9.85714286 C0.383755929,9.85714286 5.79731787e-17,9.47338693 0,9 C-5.79731787e-17,8.52661307 0.383755929,8.14285714 0.857142857,8.14285714 L2.71428571,8.14285714 C3.18767264,8.14285714 3.57142857,8.52661307 3.57142857,9 C3.57142857,9.47338693 3.18767264,9.85714286 2.71428571,9.85714286 Z M18,9 C18,9.47338693 17.6162441,9.85714286 17.1428571,9.85714286 L15.2857143,9.85714286 C14.8123274,9.85714286 14.4285714,9.47338693 14.4285714,9 C14.4285714,8.52661307 14.8123274,8.14285714 15.2857143,8.14285714 L17.1428571,8.14285714 C17.6162441,8.14285714 18,8.52661307 18,9 Z M3.85714286,16.2857143 L14.1428571,16.2857143 C15.089631,16.2857143 15.8571429,17.0532261 15.8571429,18 L2.14285714,18 C2.14285714,17.0532261 2.910369,16.2857143 3.85714286,16.2857143 M9,5.12424142 C11.8403216,5.12424142 14.1428571,7.42677699 14.1428571,10.2670986 L14.1428571,15.4285714 L3.85714286,15.4285714 L3.85714286,10.2670986 C3.85714286,7.42677699 6.15967843,5.12424142 9,5.12424142 Z" id="Shape" />
        </g>
      </g>
    </g>
  </g>
</svg>
