<svg width="10px" height="20px" viewBox="0 0 10 20" version="1.1" xmlns="http://www.w3.org/2000/svg" xmlns:xlink="http://www.w3.org/1999/xlink">
    <g id="Issue-details" stroke="none" stroke-width="1" fill="none" fill-rule="evenodd">
        <g id="Issue-Details-page-Comments-&amp;-Details" transform="translate(-1228.000000, -2129.000000)" fill="#616674">
            <g id="Comments" transform="translate(158.000000, 1714.000000)">
                <g id="Group-11" transform="translate(16.000000, 383.000000)">
                    <g id="Group-7-Copy" transform="translate(1043.000000, 26.000000)">
                        <g id="Icons-/-Attach-file" transform="translate(11.000000, 6.000000)">
                            <path d="M8.63636364,4.54545455 L8.63636364,15 C8.63636364,17.0083082 7.00830818,18.6363636 5,18.6363636 C2.99169182,18.6363636 1.36363636,17.0083082 1.36363636,15 L1.36363636,3.63636364 C1.36363636,2.38117102 2.38117102,1.36363636 3.63636364,1.36363636 C4.89155625,1.36363636 5.90909091,2.38117102 5.90909091,3.63636364 L5.90909091,13.1818182 C5.90909091,13.6838952 5.50207705,14.0909091 5,14.0909091 C4.49792295,14.0909091 4.09090909,13.6838952 4.09090909,13.1818182 L4.09090909,4.54545455 L2.72727273,4.54545455 L2.72727273,13.1818182 C2.72727273,14.4370108 3.74480739,15.4545455 5,15.4545455 C6.25519261,15.4545455 7.27272727,14.4370108 7.27272727,13.1818182 L7.27272727,3.63636364 C7.27272727,1.62805546 5.64467182,0 3.63636364,0 C1.62805546,0 0,1.62805546 0,3.63636364 L0,15 C0,17.7614237 2.23857625,20 5,20 C7.76142375,20 10,17.7614237 10,15 L10,4.54545455 L8.63636364,4.54545455 Z" id="Path"></path>
                        </g>
                    </g>
                </g>
            </g>
        </g>
    </g>
</svg>
