<svg width="32" height="32" xmlns="http://www.w3.org/2000/svg">
    <g fill="none" fill-rule="evenodd">
        <rect fill="#F7F9FA" width="32" height="32" rx="4"/>
        <path d="M18.964 15.94c2.242 0 4.036 1.817 4.036 4.088 0 .799-.225 1.553-.62 2.18l2.763 2.815-1.247 1.263-2.798-2.789a3.996 3.996 0 0 1-2.134.618c-2.242 0-4.036-1.817-4.036-4.087 0-2.271 1.794-4.088 4.036-4.088zm-1.588-9.083c.196 0 .365.125.428.303l.02.079.332 2.407c.471.189.886.435 1.28.717l.236.173 2.233-.909a.438.438 0 0 1 .5.131l.047.07 1.793 3.142a.467.467 0 0 1-.05.525l-.057.056-1.892 1.48.014.128a5.743 5.743 0 0 0-4.068-.984 3.123 3.123 0 0 0-2.61-1.414c-1.733 0-3.138 1.423-3.138 3.18 0 .9.37 1.715.965 2.293a5.944 5.944 0 0 0-.274 1.794 5.917 5.917 0 0 0 2.723 4.997l-2.07-.002a.455.455 0 0 1-.427-.302l-.02-.08-.332-2.406a5.91 5.91 0 0 1-1.281-.723l-.235-.177-2.233.918a.453.453 0 0 1-.5-.131l-.047-.069-1.794-3.143a.451.451 0 0 1 .05-.525l.058-.056 1.892-1.508a7.146 7.146 0 0 1-.063-.88c0-.2.012-.4.031-.603l.032-.306-1.892-1.48a.452.452 0 0 1-.144-.505l.036-.077 1.794-3.143a.44.44 0 0 1 .471-.223l.076.023 2.233.909a6.86 6.86 0 0 1 1.24-.77l.276-.12.331-2.407c.032-.191.18-.34.367-.374l.082-.008h3.587zm1.588 10.9c-1.238 0-2.242 1.016-2.242 2.27 0 1.255 1.004 2.271 2.242 2.271s2.242-1.016 2.242-2.27c0-1.255-1.004-2.271-2.242-2.271z" fill="#616674"/>
    </g>
</svg>
