<?xml version="1.0" encoding="UTF-8"?>
<svg width="18px" height="18px" viewBox="0 0 18 18" version="1.1" xmlns="http://www.w3.org/2000/svg" xmlns:xlink="http://www.w3.org/1999/xlink">
    <g id="Home-page" stroke="none" stroke-width="1" fill="none" fill-rule="evenodd">
        <g id="Calendar-page---Week-V2-7-dyas" transform="translate(-359.000000, -801.000000)">
            <g id="Group-2" transform="translate(174.000000, 487.000000)">
                <g id="Group-16" transform="translate(178.000000, 8.000000)">
                    <g id="Elements-/-Info-input-Lable-Copy-57" transform="translate(1.000000, 300.000000)">
                        <g id="Icon-/-Calendar-/--Inspection-completed-2" transform="translate(6.000000, 6.000000)">
                            <g id="Icon-/-Calendar-Inspection-completed" transform="translate(1.000000, 6.000000)">
                                <path d="M5.49055048,2.0625 C5.92949274,2.87586396 6.09451047,3.72998511 6.12570646,4.61928026 L6.12570646,4.61928026 L5.728,4.0865 L5.72869733,5.79068279 C5.72862754,5.8775884 5.72854903,5.9659596 5.72941268,6.05457943 L5.73578098,6.31996781 C5.74181779,6.46300179 5.80194161,6.52755725 5.94333553,6.54277141 C6.17447899,6.56772122 6.36144557,6.58000421 6.53176732,6.5814349 C6.77993946,6.58419159 6.85203221,6.52239282 6.89641846,6.27017287 C6.89701167,6.26685786 6.89739551,6.26343816 6.89781425,6.26005336 L6.89781425,6.26005336 L6.89969857,6.24630479 C6.98138741,5.74141127 7.08949164,5.14505835 7.27174742,4.54793775 L7.25236504,4.61179881 C7.09815812,4.75372884 6.94714111,4.89270861 6.7930355,5.03453939 C6.89307902,4.23991396 7.61159879,3.27070962 8.25,2.99333048 C8.24068308,3.01890841 8.23342495,3.03869378 8.22634129,3.05847916 C8.0550425,3.53716666 7.88782639,4.01676142 7.74454816,4.50218362 L7.74454816,4.50218362 L7.72464763,4.56964234 C7.47323026,5.42146043 7.34108348,6.14182963 7.30877085,6.83669069 C7.29777897,7.07352201 7.16981957,7.19195512 6.91759963,7.19872472 L6.91759963,7.19872472 L6.86881663,7.20001583 C6.72574776,7.20378447 6.57779362,7.2076578 6.4344107,7.2218949 C6.08497371,7.25665016 5.89057452,7.42041168 5.80413999,7.75288977 C5.76666292,7.89717996 5.74597028,8.05612598 5.74426043,8.21266426 C5.74226445,8.39614136 5.74119527,8.45639778 5.74068218,8.49153438 L5.74087563,8.81118066 L5.74136416,9.13776152 C5.74139905,9.20256125 5.71620498,9.26348765 5.67038804,9.30930458 C5.62460601,9.35512152 5.5636796,9.38035049 5.49894967,9.38035049 C5.43414994,9.38035049 5.37325843,9.35512152 5.32747639,9.30930458 C5.28165946,9.26348765 5.25646538,9.20256125 5.25653517,9.13779642 L5.25653517,9.13779642 L5.2569888,8.81118066 C5.25706557,8.76605464 5.25714269,8.72855559 5.25721436,8.69715069 L5.25715714,8.49153438 C5.25664683,8.45639778 5.25558603,8.39614136 5.253604,8.21266426 C5.25189416,8.05612598 5.23116662,7.89717996 5.19372445,7.75288977 C5.10728991,7.42041168 4.91289073,7.25665016 4.56345374,7.2218949 C4.42003592,7.2076578 4.27208178,7.20378447 4.12897801,7.20001583 L4.12897801,7.20001583 L4.08026481,7.19872472 C3.82804486,7.19195512 3.70008546,7.07352201 3.68909358,6.83669069 C3.65709501,6.14776175 3.5271466,5.43492984 3.28019578,4.59347552 L3.28019578,4.59347552 L3.26166662,4.53017627 L3.1100825,4.04187369 C3.00393755,3.71515713 2.88975386,3.39037916 2.7736936,3.06601994 C2.76660995,3.04619967 2.75931692,3.02644918 2.75,3.00083637 C3.38836631,3.27825039 4.10695588,4.24745474 4.2069645,5.04208017 C4.00237602,4.85378758 3.80326603,4.67051985 3.59483912,4.47870288 L3.74718475,4.61815518 C3.91677615,5.19149205 4.01964835,5.7611467 4.09820076,6.24637458 L4.09820076,6.24637458 L4.10005019,6.26005336 C4.10046892,6.26343816 4.10085277,6.26685786 4.10144598,6.27020776 C4.14579733,6.52239282 4.2156917,6.58356348 4.46613201,6.5814349 C4.63641886,6.58000421 4.82338545,6.56772122 5.05452891,6.54277141 C5.19592282,6.52755725 5.25604664,6.46300179 5.26204856,6.32000271 C5.26944626,6.14416758 5.26930668,5.96449402 5.26913221,5.79068279 L5.26913221,5.79068279 L5.26904339,4.06161422 C5.13029951,4.24749144 4.99155348,4.43337081 4.85277738,4.61928026 C4.88397337,3.72998511 5.04899109,2.87586396 5.48793336,2.0625 L5.48793336,2.0625 Z" id="Combined-Shape" fill="#616674"></path>
                                <circle id="Oval" stroke="#616674" cx="5.5" cy="5.5" r="5"></circle>
                            </g>
                            <g id="Icons-/-Calendar-Inspection-planed-" transform="translate(11.000000, 7.000000) scale(-1, 1) translate(-11.000000, -7.000000) translate(5.000000, 1.000000)">
                                <rect id="Rectangle-Copy-13" fill="#FFFFFF" opacity="0" x="0" y="0" width="12" height="12"></rect>
                                <path d="M3.92332964,11.5 L2.375,11.5 C1.89175084,11.5 1.5,11.0746705 1.5,10.55 L1.5,2.95 C1.5,2.42532949 1.89175084,2 2.375,2 L7.625,2 C8.10824916,2 8.5,2.42532949 8.5,2.95 C8.5,3.54772865 8.5,3.99602514 8.5,4.29488947" id="Path" stroke="#616674" stroke-width="0.90625"></path>
                                <rect id="Rectangle-Copy-15" fill="#616674" x="3" y="4.5" width="4" height="1"></rect>
                                <rect id="Rectangle-Copy-16" fill="#616674" x="3" y="6.5" width="2" height="1"></rect>
                                <rect id="Rectangle-Copy-17" fill="#616674" x="3" y="8.5" width="1" height="1"></rect>
                                <rect id="Rectangle-Copy-18" fill="#616674" x="3" y="1.5" width="4" height="1.5" rx="0.75"></rect>
                                <rect id="Rectangle-Copy-19" stroke="#616674" stroke-width="0.75" x="4" y="0.5" width="2" height="2" rx="1"></rect>
                            </g>
                        </g>
                    </g>
                </g>
            </g>
        </g>
    </g>
</svg>