<svg width="32" height="32" viewBox="0 0 32 32" fill="none" xmlns="http://www.w3.org/2000/svg">
<rect width="32" height="32" rx="4" fill="#F7F9FA"/>
<path d="M18.4993 19.2616C19.6605 19.2616 20.6311 20.0598 20.9105 21.1323H23.4993V22.3794H20.9105C20.6311 23.4519 19.6605 24.25 18.4993 24.25C17.338 24.25 16.3674 23.4519 16.088 22.3794H8.49927V21.1323H16.088C16.3674 20.0598 17.338 19.2616 18.4993 19.2616ZM18.4371 20.4128C17.9682 20.4127 17.5348 20.6685 17.3003 21.084C17.0657 21.4995 17.0656 22.0114 17.2999 22.427C17.5343 22.8426 17.9675 23.0987 18.4364 23.0988C19.1613 23.099 19.7491 22.4979 19.7493 21.7562C19.7494 21.0144 19.162 20.413 18.4371 20.4128ZM13.4993 13.5058C14.6605 13.5058 15.6311 14.304 15.9105 15.3765H23.4993V16.6235H15.9105C15.6311 17.696 14.6605 18.4942 13.4993 18.4942C12.338 18.4942 11.3674 17.696 11.088 16.6235H8.49927V15.3765H11.088C11.3674 14.304 12.338 13.5058 13.4993 13.5058ZM13.5621 14.657C13.0932 14.6569 12.6598 14.9127 12.4253 15.3282C12.1907 15.7437 12.1906 16.2556 12.4249 16.6712C12.6593 17.0868 13.0925 17.3429 13.5614 17.343C14.2863 17.3432 14.8741 16.7421 14.8743 16.0003C14.8744 15.2586 14.287 14.6572 13.5621 14.657ZM18.4993 7.75C19.6605 7.75 20.6311 8.54814 20.9105 9.62064H23.4993V10.8677H20.9105C20.6311 11.9402 19.6605 12.7384 18.4993 12.7384C17.338 12.7384 16.3674 11.9402 16.088 10.8677H8.49927V9.62064H16.088C16.3674 8.54814 17.338 7.75 18.4993 7.75ZM18.4371 8.90116C17.7122 8.90098 17.1244 9.50212 17.1243 10.2439C17.1241 10.9856 17.7116 11.587 18.4364 11.5872C19.1613 11.5874 19.7491 10.9863 19.7493 10.2445C19.7494 9.50279 19.162 8.90135 18.4371 8.90116Z" fill="#3A4669"/>
</svg>
