<svg xmlns="http://www.w3.org/2000/svg" width="15" height="17" viewBox="0 0 15 17">
    <g fill="none" fill-rule="evenodd" transform="translate(.5)">
        <path stroke="#616674" d="M4.33 12.69h0-1.71c-.533 0-.965-.47-.965-1.049V3.255c0-.579.432-1.048.966-1.048h5.793c.533 0 .965.47.965 1.048V6.2h0"/>
        <path fill="#616674" d="M3.31 4.966H7.724V5.966H3.31zM3.31 7.172H5.5169999999999995V8.172H3.31zM3.31 9.379H4.413V10.379H3.31z"/>
        <rect width="4.414" height="1.655" x="3.31" y="1.655" fill="#616674" rx=".828"/>
        <rect width="2.207" height="2.207" x="4.414" y=".552" stroke="#616674" stroke-width=".828" rx="1.103"/>
        <path fill="#616674" d="M11.096 12.567h-.388l-.137-.132c.48-.56.77-1.285.77-2.075 0-1.76-1.427-3.188-3.188-3.188-1.76 0-3.187 1.428-3.187 3.188 0 1.76 1.427 3.188 3.187 3.188.79 0 1.516-.29 2.075-.77l.132.137v.388l2.452 2.447.731-.73-2.447-2.453zm-2.943 0c-1.22 0-2.207-.986-2.207-2.207 0-1.221.986-2.207 2.207-2.207 1.221 0 2.207.986 2.207 2.207 0 1.221-.986 2.207-2.207 2.207z"/>
    </g>
</svg>
