<svg xmlns="http://www.w3.org/2000/svg" width="15" height="16" viewBox="0 0 15 16">
  <g fill="#616674" stroke="#616674" stroke-width=".5">
    <path d="M11.094 11.426l-.386-.096.096-.386c.16-.638-.23-1.287-.87-1.447L8.778 9.21c-.213-.053-.343-.27-.29-.483.166-.668.515-1.293.883-1.955.378-.678.768-1.38.96-2.15.319-1.277-.461-2.575-1.738-2.893-1.277-.319-2.575.461-2.894 1.738-.192.77-.176 1.573-.161 2.35.015.757.028 1.472-.138 2.14-.053.213-.27.343-.482.29l-1.158-.288c-.639-.16-1.288.23-1.447.869l-.096.386-.386-.096c-.214-.054-.43.076-.483.29L.962 10.95c-.053.214.077.43.29.483l9.264 2.31c.213.053.43-.077.483-.29l.385-1.544c.053-.214-.077-.43-.29-.483zM3.084 9.02c.053-.213.27-.343.482-.29l1.212.303c.532.132 1.225-.209 1.393-.883.192-.77.176-1.573.161-2.349-.014-.758-.028-1.473.138-2.141.213-.851 1.078-1.371 1.93-1.16.85.213 1.37 1.078 1.158 1.93-.166.668-.514 1.293-.883 1.955-.378.678-.768 1.38-.96 2.15-.168.674.286 1.301.816 1.433l1.211.302c.213.053.343.27.29.483l-.096.386-6.948-1.733.096-.386zm7.239 3.855L1.83 10.757l.192-.772 8.492 2.117-.192.772zM10.834 14.561H1.287c-.22 0-.398.178-.398.398 0 .22.178.398.398.398h9.547c.22 0 .398-.178.398-.398 0-.22-.178-.398-.398-.398z" transform="translate(.5)" />
  </g>
</svg>
