<?xml version="1.0" encoding="UTF-8"?>
<svg width="22px" height="22px" viewBox="0 0 22 22" version="1.1" xmlns="http://www.w3.org/2000/svg" xmlns:xlink="http://www.w3.org/1999/xlink">
    <g id="All-Inspections" stroke="none" stroke-width="1" fill="none" fill-rule="evenodd">
        <g id="All-Inspections-My-Sites" transform="translate(-1011.000000, -746.000000)">
            <g id="Group-5-Copy-6" transform="translate(198.000000, 741.000000)">
                <g id="Group-2" transform="translate(712.000000, 0.000000)">
                    <g id="Button-/-Symbol-Small-/-Base" transform="translate(96.000000, 0.000000)">
                        <g id="Icon-/-Change-status" transform="translate(5.714286, 5.714286)">
                            <rect id="Rectangle" x="0" y="0" width="20.5714286" height="20.5714286"></rect>
                            <path d="M4.41428571,11.0228571 C4.68,10.7485714 5.14285714,10.9371429 5.14285714,11.3228571 L5.14285714,11.3228571 L5.14285714,12.8571429 L17.1428571,12.8571429 C17.6142857,12.8571429 18,13.2428571 18,13.7142857 L18,13.7142857 L17.9932896,13.8214188 C17.9401522,14.2427726 17.578022,14.5714286 17.1428571,14.5714286 L17.1428571,14.5714286 L5.14285714,14.5714286 L5.14285714,16.1057143 C5.14285714,16.4914286 4.68,16.68 4.40571429,16.4057143 L4.40571429,16.4057143 L2.01428571,14.0142857 C1.85142857,13.8514286 1.85142857,13.5771429 2.02285714,13.4142857 L2.02285714,13.4142857 Z M15.4285714,4.46571429 C15.4285714,4.08 15.8914286,3.89142857 16.1657143,4.16571429 L16.1657143,4.16571429 L18.5571429,6.55714286 C18.72,6.72 18.72,6.99428571 18.5485714,7.15714286 L18.5485714,7.15714286 L16.1571429,9.54857143 C15.8914286,9.82285714 15.4285714,9.63428571 15.4285714,9.24857143 L15.4285714,9.24857143 L15.4285714,7.71428571 L3.42857143,7.71428571 C2.95714286,7.71428571 2.57142857,7.32857143 2.57142857,6.85714286 L2.57142857,6.85714286 L2.57813902,6.75000975 C2.63127642,6.32865596 2.99340659,6 3.42857143,6 L3.42857143,6 L15.4285714,6 Z" id="Combined-Shape" fill="#616674"></path>
                        </g>
                    </g>
                </g>
            </g>
        </g>
    </g>
</svg>