<?xml version="1.0" encoding="UTF-8"?>
<svg width="22px" height="22px" viewBox="0 0 22 22" version="1.1" xmlns="http://www.w3.org/2000/svg" xmlns:xlink="http://www.w3.org/1999/xlink">
    <g id="All-Inspections" stroke="none" stroke-width="1" fill="none" fill-rule="evenodd">
        <g id="All-Inspections-All-Sites-View-in-list-Datepicker-2" transform="translate(-1323.000000, -609.000000)" fill="#616674">
            <g id="Group-5" transform="translate(174.000000, 509.000000)">
                <g id="Group-4" transform="translate(0.000000, 95.000000)">
                    <g id="Button-/-Symbol-Small-/-Base" transform="translate(1144.000000, 0.000000)">
                        <g id="Icon-/-Approve" transform="translate(5.714286, 5.714286)">
                            <path d="M10.2857143,0 C4.608,0 0,4.608 0,10.2857143 C0,15.9634286 4.608,20.5714286 10.2857143,20.5714286 C15.9634286,20.5714286 20.5714286,15.9634286 20.5714286,10.2857143 C20.5714286,4.608 15.9634286,0 10.2857143,0 Z M10.2857143,18.5142857 C5.74971429,18.5142857 2.05714286,14.8217143 2.05714286,10.2857143 C2.05714286,5.74971429 5.74971429,2.05714286 10.2857143,2.05714286 C14.8217143,2.05714286 18.5142857,5.74971429 18.5142857,10.2857143 C18.5142857,14.8217143 14.8217143,18.5142857 10.2857143,18.5142857 Z M14.2765714,6.46971429 L8.22857143,12.5177143 L6.29485714,10.584 C5.89371429,10.1828571 5.24571429,10.1828571 4.84457143,10.584 C4.44342857,10.9851429 4.44342857,11.6331429 4.84457143,12.0342857 L7.50857143,14.6982857 C7.90971429,15.0994286 8.55771429,15.0994286 8.95885714,14.6982857 L15.7371429,7.92 C16.1382857,7.51885714 16.1382857,6.87085714 15.7371429,6.46971429 C15.336,6.06857143 14.6777143,6.06857143 14.2765714,6.46971429 Z" id="Shape"></path>
                        </g>
                    </g>
                </g>
            </g>
        </g>
    </g>
</svg>