<svg xmlns="http://www.w3.org/2000/svg" xmlns:xlink="http://www.w3.org/1999/xlink" width="18px" height="18px" viewBox="0 0 18 18" version="1.1">
  <g id="ATG-Connection-Center-(Remote-Monitoring)" stroke="none" stroke-width="1" fill="none" fill-rule="evenodd">
    <g id="ATG-Connection-Center-V3---icons-V8" transform="translate(-1188.000000, -676.000000)" fill="#616674" fill-rule="nonzero" stroke="#616674" stroke-width="0.5">
      <g id="Group-7-Copy-10" transform="translate(1172.000000, 660.000000)">
        <g id="Group-2-Copy" transform="translate(16.000000, 16.000000)">
          <g id="apple-keyboard-command" transform="translate(1.000000, 1.000000)">
            <path className="icon-cc-shape" d="M3.2,0 C4.9673112,0 6.4,1.4326888 6.4,3.2 L6.4,4.8 L9.6,4.8 L9.6,3.2 C9.6,1.4326888 11.0326888,0 12.8,0 C14.5673112,0 16,1.4326888 16,3.2 C16,4.9673112 14.5673112,6.4 12.8,6.4 L11.2,6.4 L11.2,9.6 L12.8,9.6 C14.5673112,9.6 16,11.0326888 16,12.8 C16,14.5673112 14.5673112,16 12.8,16 C11.0326888,16 9.6,14.5673112 9.6,12.8 L9.6,11.2 L6.4,11.2 L6.4,12.8 C6.4,14.5673112 4.9673112,16 3.2,16 C1.4326888,16 0,14.5673112 0,12.8 C0,11.0326888 1.4326888,9.6 3.2,9.6 L4.8,9.6 L4.8,6.4 L3.2,6.4 C1.4326888,6.4 0,4.9673112 0,3.2 C0,1.4326888 1.4326888,0 3.2,0 M11.2,12.8 C11.2,13.6836556 11.9163444,14.4 12.8,14.4 C13.6836556,14.4 14.4,13.6836556 14.4,12.8 C14.4,11.9163444 13.6836556,11.2 12.8,11.2 L11.2,11.2 L11.2,12.8 M9.6,6.4 L6.4,6.4 L6.4,9.6 L9.6,9.6 L9.6,6.4 M3.2,11.2 C2.3163444,11.2 1.6,11.9163444 1.6,12.8 C1.6,13.6836556 2.3163444,14.4 3.2,14.4 C4.0836556,14.4 4.8,13.6836556 4.8,12.8 L4.8,11.2 L3.2,11.2 M4.8,3.2 C4.8,2.3163444 4.0836556,1.6 3.2,1.6 C2.3163444,1.6 1.6,2.3163444 1.6,3.2 C1.6,4.0836556 2.3163444,4.8 3.2,4.8 L4.8,4.8 L4.8,3.2 M12.8,4.8 C13.6836556,4.8 14.4,4.0836556 14.4,3.2 C14.4,2.3163444 13.6836556,1.6 12.8,1.6 C11.9163444,1.6 11.2,2.3163444 11.2,3.2 L11.2,4.8 L12.8,4.8 Z" id="Shape" />
          </g>
        </g>
      </g>
    </g>
  </g>
</svg>
