<svg xmlns="http://www.w3.org/2000/svg" width="22" height="22" viewBox="0 0 22 22">
  <g fill="none" fill-rule="evenodd">
        <g fill="#616674">
            <g>
                <g>
                    <g>
                        <path d="M10.286 1.143c1.443 0 2.612 1.14 2.612 2.546 0 1.187-.833 2.184-1.96 2.466l.001 2.69c1.387.274 2.454 1.404 2.596 2.8h.86c.387-.933 1.325-1.59 2.421-1.59 1.444 0 2.613 1.139 2.613 2.546 0 1.406-1.17 2.546-2.613 2.546-1.32 0-2.41-.953-2.587-2.193h-.839c-.35 1.047-1.243 1.854-2.354 2.108l.051.8c.205.095.386.243.522.439.403.583.245 1.374-.353 1.767-.598.393-1.41.24-1.813-.344-.403-.582-.245-1.374.353-1.767l.013-.009-.055-.843c-.858-.137-1.603-.6-2.098-1.253l-1.382.618c.06.216.093.442.093.677 0 1.407-1.169 2.546-2.612 2.546s-2.612-1.14-2.612-2.546c0-1.407 1.169-2.546 2.612-2.546.73 0 1.39.29 1.863.76l1.49-.665c-.058-.235-.088-.48-.088-.732 0-.34.055-.668.156-.975l-.805-.47c-.193.11-.417.172-.657.172-.721 0-1.306-.57-1.306-1.273s.585-1.273 1.306-1.273c.722 0 1.306.57 1.306 1.273v-.005l.798.466c.463-.52 1.096-.892 1.814-1.034v-2.69c-1.127-.283-1.959-1.28-1.959-2.466 0-1.407 1.17-2.546 2.613-2.546z" transform="translate(-1341 -1864) translate(1256 1859) translate(80) translate(5.714 5.714)"/>
                    </g>
                </g>
            </g>
        </g>
    </g>
</svg>
