<svg width="22px" height="22px" viewBox="0 0 22 22" version="1.1" xmlns="http://www.w3.org/2000/svg" xmlns:xlink="http://www.w3.org/1999/xlink">
    <g id="Work-Order-Details-" stroke="none" stroke-width="1" fill="none" fill-rule="evenodd">
        <g id="Work-order---Group-details-V3.2" transform="translate(-1285.000000, -734.000000)">
            <g id="Group-info" transform="translate(174.000000, 628.000000)">
                <g id="row" transform="translate(0.000000, 93.000000)">
                    <g id="Group-14" transform="translate(1026.000000, 8.000000)">
                        <g id="Button-/-Symbol-Small-/-Base" transform="translate(80.000000, 0.000000)">
                            <g id="Icon-/-Add-comment-WO" transform="translate(5.714286, 5.714286)">
                                <g id="Icon-/-Download-file" fill="#D8D8D8" opacity="0">
                                    <rect id="Rectangle" x="0" y="0" width="20.5714286" height="20.5714286"></rect>
                                </g>
                                <g id="add_comment_black_24dp" transform="translate(2.285714, 2.285714)" fill="#616674">
                                    <path d="M15.6114286,1.9047619 C15.6114286,1.06666667 14.9333333,0.380952381 14.0952381,0.380952381 L1.9047619,0.380952381 C1.06666667,0.380952381 0.380952381,1.06666667 0.380952381,1.9047619 L0.380952381,11.047619 C0.380952381,11.8857143 1.06666667,12.5714286 1.9047619,12.5714286 L12.5714286,12.5714286 L15.6190476,15.6190476 L15.6114286,1.9047619 Z M11.8095238,7.23809524 L8.76190476,7.23809524 L8.76190476,10.2857143 L7.23809524,10.2857143 L7.23809524,7.23809524 L4.19047619,7.23809524 L4.19047619,5.71428571 L7.23809524,5.71428571 L7.23809524,2.66666667 L8.76190476,2.66666667 L8.76190476,5.71428571 L11.8095238,5.71428571 L11.8095238,7.23809524 Z" id="Shape"></path>
                                </g>
                            </g>
                        </g>
                    </g>
                </g>
            </g>
        </g>
    </g>
</svg>
