<?xml version="1.0" encoding="UTF-8"?>
<svg width="24px" height="24px" viewBox="0 0 24 24" version="1.1" xmlns="http://www.w3.org/2000/svg" xmlns:xlink="http://www.w3.org/1999/xlink">
    <g id="Work-Orders" stroke="none" stroke-width="1" fill="none" fill-rule="evenodd">
        <g id="Work-order---Compliance-Analyst" transform="translate(-165.000000, -165.000000)">
            <g id="Elements-/-Select-User-role" transform="translate(149.000000, 158.000000)">
                <g id="Group-2" transform="translate(16.000000, 7.000000)">
                    <polygon id="Path" points="0 0 24 0 24 24 0 24"></polygon>
                    <g id="google-analytics-copy" transform="translate(11.000000, 10.000000)" fill="#616674">
                        <path d="M6.51041667,1.195 L6.51041667,8.695 C6.51041667,9.53 7.10416667,10 7.75520833,10 C8.34895833,10 9,9.605 9,8.695 L9,1.25 C9,0.48 8.40625,0 7.75520833,0 C7.10416667,0 6.51041667,0.53 6.51041667,1.195 M3.25520833,5 L3.25520833,8.695 C3.25520833,9.535 3.859375,10 4.5,10 C5.09375,10 5.74479167,9.605 5.74479167,8.695 L5.74479167,5.055 C5.74479167,4.285 5.15104167,3.805 4.5,3.805 C3.84895833,3.805 3.25520833,4.335 3.25520833,5 M1.24479167,7.615 C1.93229167,7.615 2.48958333,8.15 2.48958333,8.805 C2.48958333,9.465 1.93229167,10 1.24479167,10 C0.557291667,10 0,9.465 0,8.805 C0,8.15 0.557291667,7.615 1.24479167,7.615 Z" id="Shape"></path>
                    </g>
                    <path d="M11,12 C13.21,12 15,10.21 15,8 C15,5.79 13.21,4 11,4 C8.79,4 7,5.79 7,8 C7,10.21 8.79,12 11,12 Z M13.7337337,14.3234097 C13.5721147,14.288718 13.4113149,14.2568133 13.2520968,14.2276976 C12.4224863,14.0759892 11.635821,14 11,14 C8.33,14 3,15.34 3,18 L3,19 C3,19.55 3.45,20 4,20 C6.58552921,20 8.30533784,20 9.15942589,20 C9.45422974,20 9.725805,20 9.97415166,20 C10.1637063,17.8844746 11.2573919,16.7561413 13.2552083,16.615 C13.1813938,15.6282954 13.3409022,14.864432 13.7337337,14.3234097 Z" id="Shape" fill="#616674"></path>
                </g>
            </g>
        </g>
    </g>
</svg>
