<?xml version="1.0" encoding="UTF-8"?>
<svg width="22px" height="22px" viewBox="0 0 22 22" version="1.1" xmlns="http://www.w3.org/2000/svg" xmlns:xlink="http://www.w3.org/1999/xlink">
    <g id="Vendors" stroke="none" stroke-width="1" fill="none" fill-rule="evenodd">
        <g id="Vendors-page---My-Vendors" transform="translate(-1341.000000, -608.000000)" fill="#616674">
            <g id="Group-5" transform="translate(174.000000, 323.000000)">
                <g id="Group-3-Copy-2" transform="translate(0.000000, 280.000000)">
                    <g id="Group-6-Copy-2" transform="translate(1021.000000, 0.000000)">
                        <g id="Button-/-Symbol-S-/-Base" transform="translate(141.000000, 0.000000)">
                            <g id="download" transform="translate(5.714286, 5.714286)">
                                <g id="Group" transform="translate(3.428571, 4.571429)">
                                    <path d="M6.01085776,7.15631183 C6.75208107,7.15631183 7.47882736,7.2375676 8.19109663,7.40007915 C8.84281196,7.54877468 9.55997588,7.79465173 10.3425884,8.13771027 L10.34308,9.14285714 L8,9.14285714 L7.999,12.571 L0.8165038,12.5714286 C0.584871516,12.5714286 0.390879479,12.4930748 0.234527687,12.3363672 C0.0781758958,12.1796597 0,11.9852262 0,11.7530669 L0,10.4645825 C0,9.97704788 0.127397756,9.53594513 0.382193268,9.14127424 C0.63698878,8.74660335 0.984437206,8.4447962 1.42453855,8.23585279 C2.31632284,7.8411819 3.11834962,7.56259069 3.83061889,7.40007915 C4.54288817,7.2375676 5.26963446,7.15631183 6.01085776,7.15631183 Z M6.01085776,0 C6.90264206,0 7.63228375,0.284395199 8.19978284,0.853185596 C8.76728194,1.42197599 9.05103149,2.15327793 9.05103149,3.04709141 C9.05103149,3.94090489 8.76728194,4.67220683 8.19978284,5.24099723 C7.63228375,5.80978763 6.90264206,6.09418283 6.01085776,6.09418283 C5.10749186,6.09418283 4.37205936,5.80978763 3.80456026,5.24099723 C3.23706117,4.67220683 2.95331162,3.94090489 2.95331162,3.04709141 C2.95331162,2.15327793 3.23706117,1.42197599 3.80456026,0.853185596 C4.37205936,0.284395199 5.10749186,0 6.01085776,0 Z" id="Combined-Shape"></path>
                                    <polygon id="Path" points="11.4521483 14.0308666 11.4521483 11.8717847 9.29796805 11.8717847 9.29796805 10.6181243 11.4521483 10.6181243 11.4521483 8.45904234 12.7029626 8.45904234 12.7029626 10.6181243 14.8571429 10.6181243 14.8571429 11.8717847 12.7029626 11.8717847 12.7029626 14.0308666"></polygon>
                                </g>
                            </g>
                        </g>
                    </g>
                </g>
            </g>
        </g>
    </g>
</svg>
