<?xml version="1.0" encoding="UTF-8"?>
<svg width="22px" height="22px" viewBox="0 0 22 22" version="1.1" xmlns="http://www.w3.org/2000/svg" xmlns:xlink="http://www.w3.org/1999/xlink">
    <g id="Vendors" stroke="none" stroke-width="1" fill="none" fill-rule="evenodd">
        <g id="Vendors-page---My-Vendors" transform="translate(-1348.000000, -665.000000)">
            <g id="Group-5" transform="translate(174.000000, 323.000000)">
                <g id="Group-3-Copy-3" transform="translate(0.000000, 337.000000)">
                    <g id="Group-6-Copy-2" transform="translate(1021.000000, 0.000000)">
                        <g id="Button-/-Symbol-S-/-Base" transform="translate(148.000000, 0.000000)">
                            <g id="Icon-/-Email-Add-another" transform="translate(5.714286, 5.714286)">
                                <path d="M9.43942919,11.7277404 C10.1806525,11.7277404 10.9073988,11.8089962 11.6196681,11.9715077 C12.2713834,12.1202033 12.9885473,12.3660803 13.7711598,12.7091388 L13.7716514,13.7142857 L11.4285714,13.7142857 L11.4275714,17.1424286 L4.24507523,17.1428571 C4.01344295,17.1428571 3.81945091,17.0645034 3.66309912,16.9077958 C3.50674732,16.7510882 3.42857143,16.5566548 3.42857143,16.3244954 L3.42857143,15.0360111 C3.42857143,14.5484765 3.55596918,14.1073737 3.8107647,13.7127028 C4.06556021,13.3180319 4.41300863,13.0162248 4.85310997,12.8072814 C5.74489427,12.4126105 6.54692105,12.1340193 7.25919032,11.9715077 C7.97145959,11.8089962 8.69820588,11.7277404 9.43942919,11.7277404 Z M9.43942919,4.57142857 C10.3312135,4.57142857 11.0608552,4.85582377 11.6283543,5.42461417 C12.1958534,5.99340456 12.4796029,6.7247065 12.4796029,7.61851998 C12.4796029,8.51233347 12.1958534,9.2436354 11.6283543,9.8124258 C11.0608552,10.3812162 10.3312135,10.6656114 9.43942919,10.6656114 C8.53606329,10.6656114 7.80063078,10.3812162 7.23313169,9.8124258 C6.66563259,9.2436354 6.38188305,8.51233347 6.38188305,7.61851998 C6.38188305,6.7247065 6.66563259,5.99340456 7.23313169,5.42461417 C7.80063078,4.85582377 8.53606329,4.57142857 9.43942919,4.57142857 Z" id="Combined-Shape" fill="#616674"></path>
                                <polygon id="Path" fill="#616674" points="14.8807197 18.6022952 14.8807197 16.4432133 12.7265395 16.4432133 12.7265395 15.1895528 14.8807197 15.1895528 14.8807197 13.0304709 16.131534 13.0304709 16.131534 15.1895528 18.2857143 15.1895528 18.2857143 16.4432133 16.131534 16.4432133 16.131534 18.6022952"></polygon>
                                <circle id="Oval" fill="#D96161" cx="16.5714286" cy="4" r="2.85714286"></circle>
                            </g>
                        </g>
                    </g>
                </g>
            </g>
        </g>
    </g>
</svg>
