<svg xmlns="http://www.w3.org/2000/svg" xmlns:xlink="http://www.w3.org/1999/xlink" width="17px" height="16px" viewBox="0 0 17 16" version="1.1">
  <g id="E-cabinet" stroke="none" stroke-width="1" fill="none" fill-rule="evenodd">
    <g id="E-cabinet-Home-Sare-popup-for-24h---empty" transform="translate(-876.000000, -387.000000)">
      <g id="Group-5" transform="translate(304.000000, 190.000000)">
        <g id="Group" transform="translate(32.000000, 161.000000)">
          <g id="Inputs-/-Empty-Copy" transform="translate(0.000000, 23.375000)">
            <g id="Button-/-Secondary-icon-left-/-Base" transform="translate(524.500000, 0.625000)">
              <g id="Icon-/-Upload" transform="translate(16.000000, 12.000000)">
                <rect id="Rectangle" opacity="0" x="0" y="0" width="16" height="16" />
                <path d="M9.71498658,5.92730084 C9.95396813,6.24623538 10.1620547,6.58571479 10.33334,6.93497746 C9.95215078,7.3448964 9.57595928,7.7499237 9.20840021,8.14565689 C9.0607405,7.8903136 8.91762417,7.61393627 8.74906494,7.35712548 C8.41739853,6.85133052 7.99168424,6.47222888 7.4128582,6.35091635 C6.61322411,6.18411163 5.8980968,6.40178935 5.31336437,7.00541699 C4.52826908,7.81596076 3.76679934,8.65243018 3.00214924,9.4849863 C2.55144639,9.9756172 2.38197848,10.5836473 2.42786658,11.262117 C2.46375924,11.7948159 2.64322258,12.2707719 2.97079995,12.6748209 C3.20660114,12.9653839 3.51782236,13.1385478 3.84403673,13.2740461 C4.77224835,13.6595068 5.5859669,13.4178601 6.30291156,12.7178673 C6.5332607,12.4933413 6.74543634,12.2472921 6.96351836,12.0080912 C7.00350006,11.9645556 7.03257767,11.9665123 7.0861895,11.9821655 C7.28655236,12.0389085 7.48873257,12.1083697 7.69318447,12.1235337 C8.09754489,12.1528835 8.50508567,12.1714717 8.92807394,12.0570075 C8.89036392,12.100543 8.86901005,12.1269579 8.84583884,12.1519052 C8.28109726,12.7623811 7.71817303,13.3748137 7.15115977,13.9828438 C6.59641362,14.5776665 5.92081368,14.902471 5.14571381,14.9797589 C4.05984706,15.087864 3.09437977,14.7635486 2.27066578,13.9921379 C1.37334912,13.1517552 0.939911094,12.0844007 1.00669871,10.8027925 C1.06076488,9.76283112 1.46058193,8.88282615 2.14299693,8.14859188 C2.8831128,7.35174468 3.62822639,6.56027829 4.36061852,5.75560448 C4.67502011,5.41025512 5.00986689,5.10354966 5.41740767,4.89614438 C6.80768058,4.18881409 8.54688473,4.36833706 9.71498658,5.92730084 Z M12.3565385,1.34945435 C13.7251555,1.96350132 14.5979622,2.98306008 14.9378605,4.40620423 C15.0797355,5.00002376 14.9619241,5.57361587 14.7533729,6.13324142 C14.4971959,6.81856599 14.0580353,7.38926847 13.5266308,7.89977026 C12.7094712,8.68382395 11.888301,9.4640248 11.0791625,10.2553026 C10.7673384,10.5606404 10.4414772,10.8414164 10.0459319,11.0408011 C8.54747166,11.7964401 6.54568123,11.6991558 5.21867415,10.1469413 C5.08657503,9.9925868 4.96801168,9.82751653 4.85358427,9.65919542 L4.51330997,9.15194446 L4.51330997,9.15194446 C4.49526228,9.12641937 4.49526228,9.06284745 4.51531527,9.04358323 C4.91136197,8.65540923 5.31192058,8.27156968 5.70596198,7.89254618 C5.88393233,8.17765661 6.042351,8.46276704 6.23185182,8.72716844 C6.58979782,9.22659331 7.07056843,9.57190443 7.70173651,9.68074726 C8.59610018,9.83534262 9.39220417,9.61958337 10.0454305,9.01131567 C10.8635928,8.24941582 11.6606995,7.46632534 12.4658273,6.69142215 C12.9521125,6.22330164 13.2233293,5.66078646 13.2082895,4.99665253 C13.1862312,4.01321417 12.7179937,3.30525414 11.7639724,2.90359518 C10.8485531,2.51831081 9.99880733,2.63148809 9.22576429,3.21519392 C8.8357335,3.50945485 8.48731267,3.85476597 8.12435343,4.18177608 C8.06319178,4.23716071 8.01957652,4.24775603 7.93986585,4.21934131 C7.4360343,4.04066568 6.91766433,3.93952853 6.37773738,3.99298674 C6.20628425,4.00984293 6.0363351,4.04355531 5.84382633,4.07245164 C5.8653833,4.04018408 5.8713992,4.02429109 5.88292968,4.01369577 C6.50256729,3.44588293 7.11267972,2.86795638 7.74535178,2.31314688 C8.26823368,1.85417688 8.8497706,1.47081893 9.5195407,1.22857138 C10.4825859,0.880852236 11.4371085,0.936718469 12.3565385,1.34945435 Z" id="Combined-Shape" fill="#3A4669" />
              </g>
            </g>
          </g>
        </g>
      </g>
    </g>
  </g>
</svg>
