<svg xmlns="http://www.w3.org/2000/svg" xmlns:xlink="http://www.w3.org/1999/xlink" width="18px" height="18px" viewBox="0 0 18 18" version="1.1">
  <g id="E-cabinet" stroke="none" stroke-width="1" fill="none" fill-rule="evenodd">
    <g id="E-cabinet-Home---Rename---dropdown" transform="translate(-1348.000000, -518.000000)">
      <g id="main-table" transform="translate(173.000000, 398.000000)">
        <g id="Elements-/-Table-/-Row-5-Copy" transform="translate(1.000000, 113.000000)">
          <g id="Button-/-Symbol-S-/-Base" transform="translate(1169.000000, 2.000000)">
            <g id="Icon-/-More-2" transform="translate(5.000000, 5.000000)">
              <g id="Icon-/-Download-file" fill="#D8D8D8" opacity="0">
                <rect id="Rectangle" x="0" y="0" width="18" height="18" />
              </g>
              <g id="more_vert-24px" transform="translate(9.000000, 9.000000) rotate(-270.000000) translate(-9.000000, -9.000000) translate(7.000000, 2.000000)" fill="#616674">
                <path d="M2,4 C3.1,4 4,3.1 4,2 C4,0.9 3.1,0 2,0 C0.9,0 0,0.9 0,2 C0,3.1 0.9,4 2,4 Z M2,5 C0.9,5 0,5.9 0,7 C0,8.1 0.9,9 2,9 C3.1,9 4,8.1 4,7 C4,5.9 3.1,5 2,5 Z M2,10 C0.9,10 0,10.9 0,12 C0,13.1 0.9,14 2,14 C3.1,14 4,13.1 4,12 C4,10.9 3.1,10 2,10 Z" id="Shape" />
              </g>
            </g>
          </g>
        </g>
      </g>
    </g>
  </g>
</svg>
