<?xml version="1.0" encoding="UTF-8"?>
<svg width="24px" height="24px" viewBox="0 0 24 24" version="1.1" xmlns="http://www.w3.org/2000/svg" xmlns:xlink="http://www.w3.org/1999/xlink">
    <g id="Home-page" stroke="none" stroke-width="1" fill="none" fill-rule="evenodd">
        <g id="Home-page-footer-V1-New-widgets-V2" transform="translate(-1339.000000, -422.000000)">
            <g id="Button-/-Filled-icon-right-/-Base-Copy" transform="translate(1225.000000, 414.000000)">
                <g id="Icons-/-Download-file" transform="translate(126.000000, 20.000000) rotate(-360.000000) translate(-126.000000, -20.000000) translate(114.000000, 8.000000)">
                    <rect id="Rectangle" fill="#D8D8D8" opacity="0" x="0" y="0" width="24" height="24"></rect>
                    <g id="download" transform="translate(4.000000, 4.000000)" fill="#3A4669">
                        <path d="M2.13333333,11.7333333 L2.13333333,14.9333333 L13.8666667,14.9333333 L13.8666667,11.7333333 L16,11.7333333 L16,16 C16,16.5898667 15.5232,17.0666667 14.9333333,17.0666667 L14.9333333,17.0666667 L1.06666667,17.0666667 C0.477866667,17.0666667 0,16.5898667 0,16 L0,16 L0,11.7333333 L2.13333333,11.7333333 Z M9.06666667,7.66794036e-14 C9.36106667,7.66794036e-14 9.6,0.238933333 9.6,0.533333333 L9.6,0.533333333 L9.6,7.46666667 L11.7333333,7.46666667 C11.9424,7.46666667 12.1322667,7.58826667 12.2186667,7.7792 C12.3050667,7.97013333 12.2730667,8.19413333 12.1344,8.35093333 L12.1344,8.35093333 L8.40106667,12.6176 C8.29973333,12.7328 8.1536,12.8 8,12.8 C7.8464,12.8 7.70026667,12.7338667 7.59893333,12.6176 L7.59893333,12.6176 L3.8656,8.35093333 C3.728,8.19306667 3.69386667,7.97013333 3.78133333,7.7792 C3.86773333,7.58933333 4.0576,7.46666667 4.26666667,7.46666667 L4.26666667,7.46666667 L6.4,7.46666667 L6.4,0.533333333 C6.4,0.238933333 6.63893333,7.66794036e-14 6.93333333,7.66794036e-14 L6.93333333,7.66794036e-14 Z" id="Combined-Shape"></path>
                    </g>
                </g>
            </g>
        </g>
    </g>
</svg>