<svg xmlns="http://www.w3.org/2000/svg" width="22" height="22" viewBox="0 0 22 22">
    <g fill="none" fill-rule="evenodd">
        <g>
            <g>
                <g>
                    <g>
                        <g>
                            <g>
                                <g fill="#616674">
                                    <path d="M1.829 10.057V12.8h10.057v-2.743h1.828v3.657c0 .506-.408.915-.914.915H.914c-.504 0-.914-.41-.914-.915v-3.657h1.829zM7.77 0c.253 0 .458.205.458.457V6.4h1.828c.18 0 .342.104.416.268.074.164.047.356-.072.49l-3.2 3.657c-.087.099-.212.156-.344.156-.132 0-.257-.056-.344-.156l-3.2-3.657c-.118-.135-.147-.326-.072-.49.074-.163.237-.268.416-.268h1.829V.457c0-.252.205-.457.457-.457z" transform="translate(-1002 -497) translate(378 355) translate(36 32) translate(0 105) translate(583) translate(5.714 5.714) translate(3.429 3.429)"/>
                                </g>
                            </g>
                        </g>
                    </g>
                </g>
            </g>
        </g>
    </g>
</svg>
