<?xml version="1.0" encoding="UTF-8"?>
<svg width="32px" height="32px" viewBox="0 0 32 32" version="1.1" xmlns="http://www.w3.org/2000/svg" xmlns:xlink="http://www.w3.org/1999/xlink">
    <g id="All-Inspections" stroke="none" stroke-width="1" fill="none" fill-rule="evenodd">
        <g id="All-Inspections-My-Sites-Dispatch-email-p2" transform="translate(-630.000000, -251.000000)">
            <g id="Group-2-Copy-4" transform="translate(380.000000, 84.000000)">
                <g id="main-content" transform="translate(28.000000, 80.000000)">
                    <g transform="translate(7.000000, 0.000000)" id="Group-7">
                        <g id="Group-9-Copy" transform="translate(0.000000, 87.000000)">
                            <g id="Group-6" transform="translate(35.000000, 0.000000)">
                                <g id="Button-/-Symbol-Small-/-Base" transform="translate(180.000000, 0.000000)">
                                    <rect id="Rectangle" fill="#F7F9FA" x="0" y="0" width="32" height="32" rx="4"></rect>
                                    <g id="Icon-/-Download-file" transform="translate(5.714286, 5.714286)">
                                        <rect id="Rectangle" fill="#D8D8D8" opacity="0" x="0" y="0" width="20.5714286" height="20.5714286"></rect>
                                        <g id="create-24px" transform="translate(3.428571, 3.428571)" fill="#616674">
                                            <path d="M0,11.0175174 L0,13.3333862 C0,13.5466899 0.16759577,13.7142857 0.380899478,13.7142857 L2.69676831,13.7142857 C2.79580217,13.7142857 2.89483603,13.6761958 2.96339794,13.6000159 L11.2822425,5.28878926 L8.42549646,2.43204317 L0.114269843,10.7432698 C0.0380899478,10.8194497 0,10.9108656 0,11.0175174 Z M13.4914595,3.07957228 C13.7885611,2.78247069 13.7885611,2.30253735 13.4914595,2.00543575 L11.70885,0.222826195 C11.4117484,-0.0742753983 10.931815,-0.0742753983 10.6347134,0.222826195 L9.24062134,1.61691829 L12.0973674,4.47366437 L13.4914595,3.07957228 Z" id="Shape"></path>
                                        </g>
                                    </g>
                                </g>
                            </g>
                        </g>
                    </g>
                </g>
            </g>
        </g>
    </g>
</svg>
