<?xml version="1.0" encoding="UTF-8"?>
<svg width="22px" height="22px" viewBox="0 0 22 22" version="1.1" xmlns="http://www.w3.org/2000/svg" xmlns:xlink="http://www.w3.org/1999/xlink">
    <g id="Work-Orders.-Deficiences-Analytics" stroke="none" stroke-width="1" fill="none" fill-rule="evenodd">
        <g id="Work-order---Deficiences-Analytics---hover" transform="translate(-1152.000000, -480.000000)">
            <g id="Group-3" transform="translate(174.000000, 423.000000)">
                <g id="Group-6-Copy-2" transform="translate(973.000000, 52.000000)">
                    <g id="email_black_24dp" transform="translate(5.714286, 5.714286)">
                        <polygon id="Path" points="0 0 20.5714286 0 20.5714286 20.5714286 0 20.5714286"></polygon>
                        <path d="M18.8571429,5.14285714 C18.8571429,4.2 18.0857143,3.42857143 17.1428571,3.42857143 L3.42857143,3.42857143 C2.48571429,3.42857143 1.71428571,4.2 1.71428571,5.14285714 L1.71428571,15.4285714 C1.71428571,16.3714286 2.48571429,17.1428571 3.42857143,17.1428571 L17.1428571,17.1428571 C18.0857143,17.1428571 18.8571429,16.3714286 18.8571429,15.4285714 L18.8571429,5.14285714 Z M17.1428571,5.14285714 L10.2857143,9.42857143 L3.42857143,5.14285714 L17.1428571,5.14285714 Z M17.1428571,15.4285714 L3.42857143,15.4285714 L3.42857143,6.85714286 L10.2857143,11.1428571 L17.1428571,6.85714286 L17.1428571,15.4285714 Z" id="Shape" fill="#616674"></path>
                    </g>
                </g>
            </g>
        </g>
    </g>
</svg>