<svg xmlns="http://www.w3.org/2000/svg" xmlns:xlink="http://www.w3.org/1999/xlink" width="22px" height="22px" viewBox="0 0 22 22" version="1.1">
  <defs>
    <path d="M17.1428571,1.71428571 C17.1428571,0.771428571 16.3714286,0 15.4285714,0 L1.71428571,0 C0.771428571,0 0,0.771428571 0,1.71428571 L0,12 C0,12.9428571 0.771428571,13.7142857 1.71428571,13.7142857 L15.4285714,13.7142857 C16.3714286,13.7142857 17.1428571,12.9428571 17.1428571,12 L17.1428571,1.71428571 Z M15.4285714,1.71428571 L8.57142857,6 L1.71428571,1.71428571 L15.4285714,1.71428571 Z M15.4285714,12 L1.71428571,12 L1.71428571,3.42857143 L8.57142857,7.71428571 L15.4285714,3.42857143 L15.4285714,12 Z" id="path-1" />
  </defs>
  <g id="Work-Orders.-Deficiences-Analytics" stroke="none" stroke-width="1" fill="none" fill-rule="evenodd">
    <g id="Work-order---Quick-Dispatch-V2---update-deficiency" transform="translate(-1152.000000, -772.000000)">
      <g id="Group-5" transform="translate(174.000000, 312.000000)">
        <g id="Group-3" transform="translate(0.000000, 111.000000)">
          <g id="Group-6-Copy-2" transform="translate(973.000000, 344.000000)">
            <g id="email_black_24dp" transform="translate(5.714286, 5.714286)">
              <polygon id="Path" points="0 0 20.5714286 0 20.5714286 20.5714286 0 20.5714286" />
              <g id="Oval" transform="translate(1.714286, 3.428571)">
                <mask id="mask-2" fill="white">
                  <use xlink:href="#path-1" />
                </mask>
                <use id="Mask" fill="#616674" xlink:href="#path-1" />
                <circle fill="#FFFFFF" mask="url(#mask-2)" cx="14.8571429" cy="1.14285714" r="5.14285714" />
              </g>
              <circle id="Oval" fill="#A7DC2A" cx="16.5714286" cy="5.14285714" r="2.85714286" />
            </g>
          </g>
        </g>
      </g>
    </g>
  </g>
</svg>
