<svg xmlns="http://www.w3.org/2000/svg" width="17" height="16" viewBox="0 0 17 16">
    <g fill="none" fill-rule="evenodd" transform="translate(.5)">
        <path fill="#616674" d="M7.986 3c.639 1.183.879 2.425.924 3.719l-.652-.874.074.1v2.478c0 .126 0 .255.002.384l.009.386c.009.208.096.302.302.324.336.036.608.054.856.056.36.004.466-.086.53-.453l.002-.014.003-.02c.119-.735.276-1.602.541-2.47l-.027.091-.67.616c.146-1.156 1.191-2.566 2.12-2.97l-.034.096c-.25.696-.493 1.394-.701 2.1l-.001-.002h.001l-.03.1c-.365 1.239-.557 2.287-.604 3.297-.016.345-.202.517-.569.527l-.071.002c-.208.005-.423.01-.632.032-.508.05-.79.288-.917.772-.054.21-.084.441-.087.669-.007.667-.006.214-.005.87l.001.475c0 .095-.037.183-.103.25-.067.066-.155.103-.25.103-.094 0-.182-.037-.249-.103-.067-.067-.103-.155-.103-.25v-.475c.002-.656.003-.203-.004-.87-.003-.228-.033-.46-.087-.67-.126-.483-.409-.72-.917-.771-.209-.021-.424-.027-.632-.032l-.071-.002c-.367-.01-.553-.182-.569-.527-.047-1.002-.236-2.039-.595-3.263l-.026-.087c-.21-.718-.457-1.427-.71-2.134L4 4.365c.929.403 1.974 1.813 2.12 2.969l-.891-.82.221.203c.247.834.397 1.663.511 2.369l.003.02c0 .004 0 .01.002.014.064.367.166.456.53.453.248-.002.52-.02.856-.056.206-.022.293-.116.302-.324.01-.256.01-.517.01-.77V5.907l-.605.812c.045-1.294.285-2.536.923-3.719z"/>
        <circle cx="8" cy="8" r="7.5" stroke="#616674"/>
    </g>
</svg>
