<?xml version="1.0" encoding="UTF-8"?>
<svg width="32px" height="32px" viewBox="0 0 32 32" version="1.1" xmlns="http://www.w3.org/2000/svg" xmlns:xlink="http://www.w3.org/1999/xlink">
    <g id="Work-Orders" stroke="none" stroke-width="1" fill="none" fill-rule="evenodd">
        <g id="Work-order---Project-Manager-V2" transform="translate(-1291.000000, -713.000000)">
            <g id="Elements-/-Header-Test-Tracking-6-WO-Copy" transform="translate(183.000000, 705.000000)">
                <g id="Button-/-Symbol-Small-/-Base" transform="translate(1108.000000, 8.000000)">
                    <rect id="Rectangle" fill="#F7F9FA" x="0" y="0" width="32" height="32" rx="4"></rect>
                    <g id="download" transform="translate(5.714286, 5.714286)" fill="#616674">
                        <g id="eye" transform="translate(1.142857, 4.571429)">
                            <path d="M9.14285714,3.65714286 C7.76573153,3.65714286 6.64935065,4.74871528 6.64935065,6.0952381 C6.64935065,7.44176091 7.76573153,8.53333333 9.14285714,8.53333333 C10.5199828,8.53333333 11.6363636,7.44176091 11.6363636,6.0952381 C11.6363636,4.74871528 10.5199828,3.65714286 9.14285714,3.65714286 M9.14285714,10.1587302 C6.84764779,10.1587302 4.98701299,8.33944279 4.98701299,6.0952381 C4.98701299,3.8510334 6.84764779,2.03174603 9.14285714,2.03174603 C11.4380665,2.03174603 13.2987013,3.8510334 13.2987013,6.0952381 C13.2987013,8.33944279 11.4380665,10.1587302 9.14285714,10.1587302 M9.14285714,0 C4.98701299,0 1.43792208,2.52749206 0,6.0952381 C1.43792208,9.66298413 4.98701299,12.1904762 9.14285714,12.1904762 C13.2987013,12.1904762 16.8477922,9.66298413 18.2857143,6.0952381 C16.8477922,2.52749206 13.2987013,0 9.14285714,0 Z" id="Shape"></path>
                        </g>
                    </g>
                </g>
            </g>
        </g>
    </g>
</svg>