<?xml version="1.0" encoding="UTF-8"?>
<svg width="18px" height="18px" viewBox="0 0 18 18" version="1.1" xmlns="http://www.w3.org/2000/svg" xmlns:xlink="http://www.w3.org/1999/xlink">
    <g id="Facility-Profile" stroke="none" stroke-width="1" fill="none" fill-rule="evenodd">
        <g id="Facility-profile---Reports-V2-(state-forms)" transform="translate(-1247.000000, -1351.000000)" fill="#616674">
            <g id="Group-12" transform="translate(174.000000, 1144.000000)">
                <g id="Group-11" transform="translate(0.000000, 32.000000)">
                    <g id="table-content" transform="translate(0.000000, 55.000000)">
                        <g id="Row-Copy" transform="translate(0.000000, 113.000000)">
                            <g id="Button-/-Symbol-S-/-Base" transform="translate(1068.000000, 2.000000)">
                                <g id="download" transform="translate(5.000000, 5.000000)">
                                    <g id="eye" transform="translate(1.000000, 4.000000)">
                                        <path d="M8,3.2 C6.79501509,3.2 5.81818182,4.15512587 5.81818182,5.33333333 C5.81818182,6.5115408 6.79501509,7.46666667 8,7.46666667 C9.20498491,7.46666667 10.1818182,6.5115408 10.1818182,5.33333333 C10.1818182,4.15512587 9.20498491,3.2 8,3.2 M8,8.88888889 C5.99169182,8.88888889 4.36363636,7.29701244 4.36363636,5.33333333 C4.36363636,3.36965422 5.99169182,1.77777778 8,1.77777778 C10.0083082,1.77777778 11.6363636,3.36965422 11.6363636,5.33333333 C11.6363636,7.29701244 10.0083082,8.88888889 8,8.88888889 M8,0 C4.36363636,0 1.25818182,2.21155556 0,5.33333333 C1.25818182,8.45511111 4.36363636,10.6666667 8,10.6666667 C11.6363636,10.6666667 14.7418182,8.45511111 16,5.33333333 C14.7418182,2.21155556 11.6363636,0 8,0 Z" id="Shape"></path>
                                    </g>
                                </g>
                            </g>
                        </g>
                    </g>
                </g>
            </g>
        </g>
    </g>
</svg>
