<?xml version="1.0" encoding="UTF-8"?>
<svg width="15px" height="19px" viewBox="0 0 15 19" version="1.1" xmlns="http://www.w3.org/2000/svg" xmlns:xlink="http://www.w3.org/1999/xlink">
    <g id="ATG-Connection-Center-(Remote-Monitoring)" stroke="none" stroke-width="1" fill="none" fill-rule="evenodd" stroke-linecap="round" stroke-linejoin="round">
        <g id="ATG-Connection-Center-V3" transform="translate(-416.000000, -589.000000)" stroke="#A4A8B1" stroke-width="1.5">
            <g id="main-table" transform="translate(174.000000, 435.000000)">
                <g id="Group-4-Copy-11" transform="translate(0.000000, 139.000000)">
                    <g id="icon" transform="translate(243.000000, 16.000000)">
                        <path d="M9.625,16.5 L4.81186,13.0625 L0,16.5 L0,3.4375 C0,3.25516 0.07243,3.0803 0.20136,2.95136 C0.3303,2.82243 0.50516,2.75 0.6875,2.75 L8.9375,2.75 C9.1198,2.75 9.2947,2.82243 9.4236,2.95136 C9.5526,3.0803 9.625,3.25516 9.625,3.4375 L9.625,16.5 Z" id="Path"></path>
                        <path d="M2.75,0 L11.6875,0 C11.8698,0 12.0447,0.07243 12.1736,0.20136 C12.3026,0.3303 12.375,0.50516 12.375,0.6875 L12.375,13.75" id="Path"></path>
                    </g>
                </g>
            </g>
        </g>
    </g>
</svg>