<?xml version="1.0" encoding="UTF-8"?>
<svg width="24px" height="24px" viewBox="0 0 24 24" version="1.1" xmlns="http://www.w3.org/2000/svg" xmlns:xlink="http://www.w3.org/1999/xlink">
    <title>031C1606-BBA0-4BC6-9150-EB349F09739B</title>
    <g id="Facility-Profile" stroke="none" stroke-width="1" fill="none" fill-rule="evenodd">
        <g id="Facility-profile---REDESIGN----Tags-new-option" transform="translate(-1132.000000, -486.000000)">
            <g id="Group-12" transform="translate(174.000000, 475.000000)">
                <g id="Icon-/-View-state-forms" className="icon-file-eye-shapes" transform="translate(958.000000, 11.000000)">
                    <rect id="Rectangle" fill="#D8D8D8" opacity="0" x="0" y="0" width="18" height="18"></rect>
                    <g id="add_comment_black_24dp" transform="translate(4.000000, 2.666667)" fill="#A4A8B1">
                        <path d="M9.33333333,0 L14.9333333,5.6 L14.9341852,6.99674283 C14.3299525,6.83736484 13.6956771,6.72911504 13.0667036,6.67073396 L13.0666667,6.53333333 L8.4,6.53333333 L8.4,1.86666667 L1.86666667,1.86666667 L1.86666667,16.8 L9.87317477,16.7999659 C9.97649379,16.8357336 10.0811024,16.8704623 10.1869327,16.9041987 C11.0696649,17.1855944 11.3742782,17.2281703 12.8822635,17.2281703 C13.5511878,17.2281703 14.2323835,17.1388315 14.9258506,16.960154 C14.8443652,17.9127889 14.0392801,18.6666667 13.0666667,18.6666667 L1.85733333,18.6666667 C0.830666667,18.6666667 -8.8817842e-16,17.8266667 -8.8817842e-16,16.8 L-8.8817842e-16,1.86666667 C-8.8817842e-16,0.84 0.84,0 1.86666667,0 L9.33333333,0 Z M6.78327302,14.9339834 L3.73333333,14.9333333 L3.73333333,13.0666667 L5.77327184,13.0670003 C5.96573547,13.7972842 6.31251873,14.4126703 6.78327302,14.9339834 Z M5.61757066,11.2000927 L3.73333333,11.2 L3.73333333,9.33333333 L6.15490339,9.33348094 C5.85755262,9.87864801 5.67287432,10.502001 5.61757066,11.2000927 Z" id="Combined-Shape"></path>
                    </g>
                    <g id="eye" transform="translate(10.666667, 10.666667)" fill="#A4A8B1">
                        <path d="M6,2.4 C5.09626132,2.4 4.36363636,3.1163444 4.36363636,4 C4.36363636,4.8836556 5.09626132,5.6 6,5.6 C6.90373868,5.6 7.63636364,4.8836556 7.63636364,4 C7.63636364,3.1163444 6.90373868,2.4 6,2.4 M6,6.66666667 C4.49376886,6.66666667 3.27272727,5.47275933 3.27272727,4 C3.27272727,2.52724067 4.49376886,1.33333333 6,1.33333333 C7.50623114,1.33333333 8.72727273,2.52724067 8.72727273,4 C8.72727273,5.47275933 7.50623114,6.66666667 6,6.66666667 M6,0 C3.27272727,0 0.943636364,1.65866667 0,4 C0.943636364,6.34133333 3.27272727,8 6,8 C8.72727273,8 11.0563636,6.34133333 12,4 C11.0563636,1.65866667 8.72727273,0 6,0 Z" id="Shape"></path>
                    </g>
                </g>
            </g>
        </g>
    </g>
</svg>
