<?xml version="1.0" encoding="UTF-8"?>
<svg width="22px" height="22px" viewBox="0 0 22 22" version="1.1" xmlns="http://www.w3.org/2000/svg" xmlns:xlink="http://www.w3.org/1999/xlink">
    <g id="All-Inspections" stroke="none" stroke-width="1" fill="none" fill-rule="evenodd">
        <g id="All-Inspections-All-Sites-pdf-Preview" transform="translate(-1091.000000, -762.000000)">
            <g id="Button-/-Symbol-Small-/-Base" transform="translate(1086.000000, 757.000000)">
                <g id="Icon-/-Download-file" transform="translate(5.714286, 5.714286)">
                    <rect id="Rectangle" fill="#D8D8D8" opacity="0" x="0" y="0" width="20.5714286" height="20.5714286"></rect>
                    <path d="M7.75731703,10.8599922 C7.93575038,10.6815589 8.22538131,10.6815589 8.40381466,10.8599922 L8.40381466,10.8599922 L9.69680992,12.1529875 C9.87524326,12.3314208 9.87524326,12.6210517 9.69680992,12.7994851 L9.69680992,12.7994851 L5.49457533,17.0017197 L6.78757059,18.2947149 C6.91428412,18.4214285 6.95565997,18.6102058 6.8923032,18.7782952 C6.82894644,18.9463845 6.673787,19.0627541 6.49470716,19.0737446 L6.49470716,19.0737446 L1.64597495,19.3969934 C1.51473593,19.4053979 1.3854364,19.357557 1.29234075,19.2644614 C1.19924509,19.1713657 1.15075776,19.0427127 1.15980873,18.9108272 L1.15980873,18.9108272 L1.48305755,14.062095 C1.495341,13.8830151 1.60977108,13.7272092 1.77850696,13.6644989 C1.94594985,13.6017886 2.13537365,13.642518 2.26208719,13.7692315 L2.26208719,13.7692315 L3.55508244,15.0622268 Z M18.9318821,1.15519976 C19.0631212,1.14679529 19.1924207,1.19463612 19.2855163,1.28773177 C19.378612,1.38082743 19.4270993,1.50948046 19.4180483,1.64136598 L19.4180483,1.64136598 L19.0947995,6.49009819 C19.0825161,6.66917803 18.968086,6.82498396 18.7993501,6.88769423 C18.6319072,6.9504045 18.4424834,6.90967515 18.3157699,6.78296162 L18.3157699,6.78296162 L17.0227746,5.48996636 L12.82054,9.69220095 C12.6421067,9.87063429 12.3524758,9.87063429 12.1740424,9.69220095 L12.1740424,9.69220095 L10.8810472,8.39920569 C10.7026138,8.22077234 10.7026138,7.93114141 10.8810472,7.75270806 L10.8810472,7.75270806 L15.0832817,3.55047347 L13.7902865,2.25747822 C13.663573,2.13076468 13.6221971,1.94198737 13.6855539,1.77389799 C13.7489106,1.60580861 13.9040701,1.48943904 14.0831499,1.47844858 L14.0831499,1.47844858 Z" id="Combined-Shape" fill="#616674"></path>
                </g>
            </g>
        </g>
    </g>
</svg>