<svg xmlns="http://www.w3.org/2000/svg" xmlns:xlink="http://www.w3.org/1999/xlink" width="15px" height="15px" viewBox="0 0 15 15" version="1.1">
    <g id="Routing-Gantt-Chart" stroke="none" stroke-width="1" fill="none" fill-rule="evenodd">
        <g id="Routing-Gantt-Chart-Week" transform="translate(-312.000000, -440.000000)">
            <g id="Inspections-" transform="translate(178.000000, 439.000000)">
                <g id="Icon-Operations-2-green" transform="translate(134.000000, 1.000000)">
                    <rect id="Rectangle" x="0" y="0" width="15" height="15"/>
                    <path d="M7.4922179,2.4623348 C8.22536906,2.4623348 8.91970954,2.58092801 9.57445733,2.81822748 C10.1359838,3.02174085 10.6414845,3.29738232 11.0904003,3.64501674 L11.202,3.736 L12.0403483,2.90665223 L12.2505814,2.90576902 L13.1844335,3.81546065 L13.1853326,4.02947112 L12.349,4.857 L12.4501242,4.97783833 C12.636842,5.21471786 12.807356,5.47372844 12.9616936,5.75479118 L13.1106401,6.04320171 L13.2488085,6.34629616 C13.5167129,6.97263169 13.65,7.71205239 13.65,8.56387665 C13.65,9.40675296 13.4875407,10.1982537 13.1625976,10.9370434 C12.8384997,11.6739116 12.3969915,12.3168003 11.8385181,12.8647767 C11.2804609,13.4123446 10.6294299,13.8466897 9.88629244,14.1674542 C9.14095396,14.4891687 8.34250596,14.65 7.4922179,14.65 C6.64192984,14.65 5.84348184,14.4891687 5.09814336,14.1674542 C4.35500594,13.8466897 3.70397485,13.4123446 3.14591773,12.8647767 C2.58723401,12.3165939 2.14818719,11.6734147 1.82925699,10.9362106 C1.50973608,10.197641 1.35,9.40643727 1.35,8.56387665 C1.35,7.72131603 1.50973608,6.93011228 1.82925699,6.19154274 C2.148101,5.45453786 2.58697823,4.80897206 3.1454067,4.25577117 C3.70355767,3.70284518 4.35476645,3.26574844 5.09814336,2.94488061 C5.84348184,2.62316609 6.64192984,2.4623348 7.4922179,2.4623348 Z M7.4922179,3.92709251 C6.18706913,3.92709251 5.07771873,4.37679027 4.17264406,5.27339232 C3.26729577,6.17026543 2.81303502,7.26998987 2.81303502,8.56387665 C2.81303502,9.85788434 3.26739398,10.9551832 4.17296071,11.8469645 C5.07803127,12.7382572 6.18725339,13.1852423 7.4922179,13.1852423 C8.79718241,13.1852423 9.90640452,12.7382572 10.8114751,11.8469645 C11.7170418,10.9551832 12.1714008,9.85788434 12.1714008,8.56387665 C12.1714008,7.26998987 11.71714,6.17026543 10.8117917,5.27339232 C9.90671707,4.37679027 8.79736667,3.92709251 7.4922179,3.92709251 Z M8.13035019,5.2685022 L8.28035019,5.4185022 L8.28035019,8.99559471 L8.13035019,9.14559471 L6.8540856,9.14559471 L6.7040856,8.99559471 L6.7040856,5.4185022 L6.8540856,5.2685022 L8.13035019,5.2685022 Z M9.71789883,0.35 L5.26653696,0.35 L5.11653696,0.5 L5.11653696,1.77973568 L5.26653696,1.92973568 L9.71789883,1.92973568 L9.86789883,1.77973568 L9.86789883,0.5 L9.71789883,0.35 Z" id="GanttClock" stroke="#7FAC16" stroke-width="0.3" fill="#7FAC16"/>
                </g>
            </g>
        </g>
    </g>
</svg>
