<?xml version="1.0" encoding="UTF-8"?>
<svg width="27px" height="26px" viewBox="0 0 27 26" version="1.1" xmlns="http://www.w3.org/2000/svg" xmlns:xlink="http://www.w3.org/1999/xlink">
    <title>FA136353-B696-4935-BAFD-0238615004FD</title>
    <g id="Facility-Profile" stroke="none" stroke-width="1" fill="none" fill-rule="evenodd">
        <g id="Facility-profile---REDESIGN----Tags-new-option" transform="translate(-1276.000000, -485.000000)">
            <g id="Group-12" transform="translate(174.000000, 475.000000)">
                <g id="Group-13" transform="translate(1102.000000, 10.000000)">
                    <g id="Icon-/-Add-Issue" transform="translate(0.000000, 0.000000)">
                        <g transform="translate(0.393939, 0.000000)">
                            <g id="Icon-/--Issues-1" fill="#A4A8B1">
                                <rect id="Rectangle" opacity="0" x="-5.55111512e-16" y="0" width="26" height="26"></rect>
                                <g id="Shape" transform="translate(6.385101, 1.789141)">
                                    <path d="M12.1628788,11.9494949 C15.1090948,11.9494949 17.4974747,14.3378749 17.4974747,17.2840909 C17.4974747,20.2303069 15.1090948,22.6186869 12.1628788,22.6186869 C9.21666279,22.6186869 6.82828283,20.2303069 6.82828283,17.2840909 C6.82828283,14.3378749 9.21666279,11.9494949 12.1628788,11.9494949 Z M12.1628788,13.229798 C9.92375463,13.229798 8.10858586,15.0449668 8.10858586,17.2840909 C8.10858586,19.5232151 9.92375463,21.3383838 12.1628788,21.3383838 C14.4020029,21.3383838 16.2171717,19.5232151 16.2171717,17.2840909 C16.2171717,15.0449668 14.4020029,13.229798 12.1628788,13.229798 Z M12.5896465,15.1502525 L12.589,16.857 L14.2967172,16.8573232 L14.2967172,17.7108586 L12.589,17.71 L12.5896465,19.4179293 L11.7361111,19.4179293 L11.736,17.71 L10.0290404,17.7108586 L10.0290404,16.8573232 L11.736,16.857 L11.7361111,15.1502525 L12.5896465,15.1502525 Z M6.61489899,-4.4408921e-16 C7.91123403,-4.4408921e-16 8.96212121,1.05088718 8.96212121,2.34722222 L8.96204413,2.36644657 C9.14167482,2.39613802 9.30861354,2.46334911 9.45458688,2.55976315 L10.8825758,2.56060606 C12.1326131,2.56060606 13.1544215,3.53777029 13.2258134,4.76991115 L13.229798,4.90782828 L13.229798,10.3129188 L11.9494949,10.3129188 L11.9494949,4.90782828 C11.9494949,4.35324645 11.5263633,3.89749231 10.9853272,3.84579315 L10.8825758,3.84090909 L10.0113264,3.84098062 C9.90970957,4.44646759 9.38310175,4.90782828 8.74873737,4.90782828 L4.48106061,4.90782828 C3.84669623,4.90782828 3.32008841,4.44646759 3.21847157,3.84098062 L2.34722222,3.84090909 C1.79264039,3.84090909 1.33688625,4.26404077 1.28518709,4.80507684 L1.28030303,4.90782828 L1.28030303,16.8573232 C1.28030303,17.4119051 1.70343471,17.8676592 2.24447078,17.9193584 L2.34722222,17.9242424 L5.27648158,17.9242424 L5.27648158,19.2045455 L2.34722222,19.2045455 C1.09718486,19.2045455 0.0753764416,18.2273812 0.00398456105,16.9952404 L8.8817842e-16,16.8573232 L8.8817842e-16,4.90782828 C8.8817842e-16,3.65779092 0.977164231,2.6359825 2.20930509,2.56459062 L2.34722222,2.56060606 L3.77415546,2.55990289 C3.92034535,2.46291177 4.08760673,2.39514476 4.26760524,2.36493621 L4.26767677,2.34722222 C4.26767677,1.05088718 5.31856395,-4.4408921e-16 6.61489899,-4.4408921e-16 Z M7.46843434,13.4431818 L7.46843434,14.1454405 L6.71605569,15.1502525 L5.76136364,15.1502525 L5.76136364,13.4431818 L7.46843434,13.4431818 Z M7.46843434,6.61489899 L7.46843434,11.7361111 L5.76136364,11.7361111 L5.76136364,6.61489899 L7.46843434,6.61489899 Z M6.61489899,1.28030303 C6.02565579,1.28030303 5.5479798,1.75797902 5.5479798,2.34722222 L7.68181818,2.34722222 C7.68181818,1.75797902 7.20414219,1.28030303 6.61489899,1.28030303 Z" id="Combined-Shape" className="icon-create-issue"></path>
                                </g>
                            </g>
                            <g id="Group" transform="translate(16.414141, 18.515152)"></g>
                        </g>
                    </g>
                </g>
            </g>
        </g>
    </g>
</svg>
