<svg xmlns="http://www.w3.org/2000/svg" width="22" height="22" viewBox="0 0 22 22">
    <g fill="none" fill-rule="evenodd">
        <g fill="#616674">
            <g>
                <g>
                    <g>
                        <path d="M10.286 0C4.608 0 0 4.608 0 10.286 0 15.963 4.608 20.57 10.286 20.57c5.677 0 10.285-4.608 10.285-10.285C20.571 4.608 15.963 0 10.286 0zm0 18.514c-4.536 0-8.229-3.692-8.229-8.228s3.693-8.229 8.229-8.229 8.228 3.693 8.228 8.229-3.692 8.228-8.228 8.228zm3.99-12.044L8.23 12.518l-1.934-1.934c-.401-.401-1.05-.401-1.45 0-.402.401-.402 1.05 0 1.45l2.664 2.664c.4.401 1.049.401 1.45 0l6.778-6.778c.401-.401.401-1.05 0-1.45-.401-.401-1.06-.401-1.46 0z" transform="translate(-1166 -1191) translate(174 1186) translate(987) translate(5.714 5.714)"/>
                    </g>
                </g>
            </g>
        </g>
    </g>
</svg>
