<svg width="207" height="165" viewBox="0 0 207 165" xmlns="http://www.w3.org/2000/svg" xmlns:xlink="http://www.w3.org/1999/xlink">
    <defs>
        <path id="59b2gvloza" d="M0 0h89.674v50.896H0z"/>
    </defs>
    <g fill="none" fill-rule="evenodd">
        <path d="m190.42 70.495 1.655.413 4.87-4.135.824-3.306s2.598.481 1.218 4.735c-1.38 4.253-.78 3.232-.78 3.232s5.43 1.376 5.764 1.96c.243.425-.955 5.86-1.628 8.803-.339 1.481-1.585 2.626-3.042 2.632a2.439 2.439 0 0 1-.605-.067c-1.355-.337-8.006-3.166-8.006-3.166l-2.86-.714 2.59-10.387m-4.515-2.09-1.806 11.58 2.836.707 2.767-11.098-3.797-1.188M11.583 78.713l-1.15.286-3.37-2.824-.564-2.264s-1.804.336-.856 3.248c.949 2.913.534 2.214.534 2.214s-3.77.956-4.003 1.357c-.17.292.649 4.015 1.11 6.03.231 1.015 1.093 1.798 2.105 1.799.143 0 .285-.014.42-.048.94-.234 5.561-2.188 5.561-2.188l1.987-.495-1.774-7.115m3.405-.957 1.166 7.954-2.142.534-1.896-7.606 2.872-.882M142.924 19.069l-.998-.286-1.308-3.661.571-1.994s-1.516-.537-2.083 2.125c-.566 2.662-.572 1.94-.572 1.94s-3.28-.926-3.635-.72c-.257.15-1.28 3.38-1.82 5.135-.272.884.036 1.866.802 2.313.109.064.223.116.34.149.816.234 5.183.767 5.183.767l1.724.495 1.796-6.263m3.015.272-2.572 6.653-1.71-.49 1.92-6.692 2.362.53" fill="#ECF0F9"/>
        <path d="M31.69 55.787c.581.042 1.156.047 1.729.117.004 0 .01 0 .014.004 1.616.2 3.172.663 4.616 1.392a13.434 13.434 0 0 1 2.977 2.025c2.068 1.854 3.419 4.617 4.071 7.283.647 2.628.824 5.41.727 8.108-.107 2.903-.508 5.802-.96 8.668-.345 2.143-.834 4.267-1.17 6.41a15.694 15.694 0 0 0-.041 2.604c.093.453.21.9.359 1.34v.005c.186.359.386.704.614 1.04 0 .005.005.005.005.01.387.43.801.83 1.24 1.204a18.26 18.26 0 0 0 2.687 1.578c.405.135.81.243 1.23.327.88.07 1.76.046 2.641-.038 1.7-.294 3.359-.784 4.966-1.419.004 0 .004-.004.009-.004a26.3 26.3 0 0 0 4.453-2.549c1.016-.859 1.933-1.83 2.842-2.796a60.035 60.035 0 0 0 3.26-3.795c1.459-1.96 2.777-4.033 3.797-6.256.321-.84.587-1.699.787-2.58.322-1.43 1.38-2.582 2.572-3.352 1.267-.817 2.874-.892 4.304-.566 1.332.309 2.664 1.415 3.34 2.578.768 1.311.894 2.856.563 4.317-.773 3.44-2.46 6.746-4.406 9.668-1.985 2.973-4.277 5.769-6.74 8.356-1.84 1.932-3.844 3.664-6.126 5.06-2.474 1.512-5.218 2.702-7.994 3.524-1.612.476-3.242.732-4.91.943-1.15.145-2.315.21-3.475.112-1.556-.131-3.167-.336-4.63-.929-1.472-.593-2.911-1.26-4.253-2.124-2.464-1.587-4.677-3.604-6.167-6.162-1.463-2.516-2.148-5.42-2.185-8.313-.037-2.563.55-5.093 1.02-7.6.219-1.172.429-2.343.615-3.524.08-.467.149-.938.214-1.41.005-.01.005-.02.005-.028.34-2.755.53-5.56.256-8.328a14.637 14.637 0 0 0-.573-2.264c-.126-.252-.26-.5-.414-.737a5.004 5.004 0 0 0-.27-.276 3.123 3.123 0 0 0-.336-.196 8.44 8.44 0 0 0-.769-.2h-.009a16.116 16.116 0 0 0-1.495-.01c-1.044.052-2.045-.294-2.921-.845-.368-.233-.797-.442-1.083-.766-.265-.3-.881-1.325-.881-1.325-.42-.817-.625-1.75-.667-2.666-.05-1.204.49-2.562 1.263-3.533 0 0 1.586-2.35 5.3-2.082" fill="#6B76A0"/>
        <path d="M71.56 79.276c-9.327-7.034-6.195-16.196-3.593-18.927l-.078-.124c-1.463-3.597-3.397-7.789-3.397-12.504 0-16.967 8.756-30.721 24.8-30.721 16.166 0 24.8 13.754 24.8 30.721 0 4.563-1.882 8.986-3.258 12.504l-.03.124c2.602 2.731 5.735 11.893-3.592 18.927H71.56z" fill="#828DB7"/>
        <path d="m70.145 54.86.09 1.65c-1.146-2.77-2.541-8-2.541-11.596 0-13.374 8.507-24.18 21.944-24.18 6.018 0 10.8 2.207 14.238 5.857-3.183-2.454-7.385-4.044-12.191-4.59-12.95-1.47-23.161 12.223-22.474 25.575.114 2.207.934 7.285.934 7.285" fill="#FFF" opacity=".05"/>
        <path d="M82.88 65.192a3.997 3.997 0 0 1-3.97 4.03 4.01 4.01 0 0 1-4.03-3.98M102.88 65.192a3.997 3.997 0 0 1-3.97 4.03 4.01 4.01 0 0 1-4.03-3.98" stroke="#525F7F" stroke-width="1.5" stroke-linecap="round"/>
        <g transform="translate(93.326 76.176)">
            <mask id="p8tng661cb" fill="#fff">
                <use xlink:href="#59b2gvloza"/>
            </mask>
            <path d="M.24 5.605c-.305 2.571-.279 5.212-.146 7.791a63.88 63.88 0 0 0 1.114 9.044c.656 3.333 1.732 6.492 3.087 9.603 2.885 6.62 8.133 12.451 14.737 15.475 2.124.973 4.297 1.804 6.574 2.332 2.428.562 4.94.893 7.428 1.015 1.899.093 3.763-.03 5.643-.282 1.622-.219 3.209-.508 4.763-1.03 2.708-.911 5.245-2.211 7.647-3.746 1.91-1.22 3.767-2.531 5.785-3.571a23.52 23.52 0 0 1 1.544-.727l-1.335.565a19.582 19.582 0 0 1 4.941-1.363l-1.486.2c2.245-.3 4.515-.222 6.754.077l-1.486-.2c5.202.715 10.22 2.51 15.04 4.54l-1.335-.566c.582.246 1.162.497 1.74.752.641.41 1.334.631 2.078.665a4.227 4.227 0 0 0 2.23-.1c1.295-.358 2.7-1.363 3.34-2.575.685-1.3 1.028-2.875.563-4.316-.418-1.296-1.268-2.775-2.569-3.348-4.773-2.102-9.654-4.084-14.754-5.24-3.458-.783-7.117-1.316-10.668-.997-1.66.149-3.341.378-4.951.824-1.485.412-2.92 1.02-4.317 1.661-1.876.862-3.608 1.988-5.33 3.118-1.984 1.3-3.983 2.58-6.17 3.512l1.335-.564a21.99 21.99 0 0 1-5.588 1.525l1.486-.2c-2.606.345-5.25.255-7.852-.09l1.486.2c-2.598-.354-5.15-1-7.57-2.019l1.335.565a24.7 24.7 0 0 1-5.417-3.167l1.131.876a24.84 24.84 0 0 1-4.327-4.356l.874 1.134c-1.556-2.021-2.809-4.254-3.803-6.603l.563 1.34c-1.465-3.49-2.362-7.193-2.866-10.937l.2 1.489c-.507-3.816-.65-7.715-.338-11.556.02-.25.041-.5.07-.75.158-1.326-.737-3.06-1.637-3.96C8.814.673 7.223-.06 5.831.004c-1.446.065-2.945.54-3.953 1.64l-.874 1.134a5.59 5.59 0 0 0-.763 2.827" fill="#6B76A0" mask="url(#p8tng661cb)"/>
        </g>
        <path d="M98.005 77.92c-.03.679.008 1.364.056 2.04.154 2.189.47 4.392.987 6.526 1.397 5.765 4.397 11.364 8.808 15.37 3.16 2.87 6.775 4.908 10.785 6.332 2.903 1.03 6.12 1.526 9.197 1.29 3.471-.265 6.78-1.14 9.83-2.86 3.043-1.716 5.584-4.232 7.469-7.165 2.133-3.32 3.105-7.149 3.487-11.035.178-1.8.14-3.62-.055-5.417-.276-2.539-.817-4.963-1.322-7.456a45.524 45.524 0 0 1-.505-2.996l.2 1.49c-.36-2.761-.452-5.561-.085-8.325l-.2 1.489c.24-1.727.66-3.424 1.334-5.033l-.563 1.338a14.676 14.676 0 0 1 1.848-3.19l-.875 1.134a12.35 12.35 0 0 1 2.133-2.137l-1.131.876c.789-.603 1.645-1.1 2.559-1.487l-1.336.565a12.778 12.778 0 0 1 3.151-.843l-1.486.2a15.918 15.918 0 0 1 4.124.03l-1.486-.2c1.974.273 3.886.856 5.72 1.631l-1.334-.565a33.217 33.217 0 0 1 4.498 2.374c1.211.755 2.948.94 4.307.565 1.297-.359 2.702-1.363 3.341-2.575 1.45-2.748.648-6.008-2.005-7.664-2.024-1.264-4.15-2.27-6.364-3.156-1.516-.608-3.093-1.08-4.706-1.341-1.909-.31-3.837-.552-5.77-.342-1.112.122-2.246.255-3.334.536-1.06.274-2.057.713-3.058 1.151-3.192 1.4-5.87 4.097-7.606 7.09-2.067 3.563-2.938 7.672-3.142 11.752-.134 2.703.163 5.373.545 8.045.369 2.58 1.102 5.087 1.462 7.668l-.2-1.489c.311 2.327.377 4.68.078 7.011l.2-1.49c-.231 1.707-.656 3.376-1.32 4.966l.564-1.339a16.767 16.767 0 0 1-2.074 3.586c.29-.378.582-.756.874-1.133a15.905 15.905 0 0 1-2.838 2.844l1.131-.876a16.312 16.312 0 0 1-3.476 2.028l1.336-.565c-1.41.596-2.888.994-4.403 1.202l1.486-.2c-1.604.21-3.223.203-4.825-.011l1.486.2c-1.867-.262-3.655-.83-5.391-1.557l1.335.564a24.9 24.9 0 0 1-5.43-3.146l1.131.876a23.248 23.248 0 0 1-4.088-4.088l.875 1.134a25.271 25.271 0 0 1-3.22-5.551l.564 1.338a30.053 30.053 0 0 1-2.043-7.573l.2 1.49c-.173-1.291-.307-2.62-.25-3.926.06-1.396-.667-2.987-1.638-3.96-.97-.972-2.56-1.704-3.952-1.641-3.138.14-5.454 2.461-5.59 5.601" fill="#828DB7"/>
        <path d="m73.589 82.553.044.32-.2-1.489c.292 2.177.483 4.37.626 6.562.268 4.123.334 8.263.16 12.392a91.641 91.641 0 0 1-.704 8.213l.2-1.49c-.52 3.866-1.31 7.708-2.549 11.408a44.661 44.661 0 0 1-1.149 3.06l.564-1.338c-1.083 2.57-2.427 5.03-4.124 7.245l.874-1.134a24.135 24.135 0 0 1-4.26 4.315l1.132-.876a21.759 21.759 0 0 1-4.77 2.797l1.336-.564c-1.953.822-4.01 1.354-6.107 1.637l1.486-.2c-2.032.266-4.125.364-6.16.094l1.485.2a12.83 12.83 0 0 1-3.161-.84l1.335.564a10.383 10.383 0 0 1-2.272-1.324l1.131.876a10.95 10.95 0 0 1-1.883-1.9l.874 1.134c-.833-1.082-1.478-2.289-2.011-3.543l.564 1.338c-1.681-3.998-2.304-8.337-3.651-12.443-.768-2.342-1.703-4.752-3.138-6.774-1.689-2.377-3.778-4.505-6.472-5.72-.981-.443-1.982-.878-3.023-1.164-1.117-.307-2.268-.442-3.414-.587-1.665-.209-3.34-.184-5.008-.021-1.517.148-2.84.525-3.953 1.64-.97.972-1.7 2.566-1.637 3.961.064 1.45.54 2.952 1.637 3.961 1.031.949 2.5 1.783 3.953 1.64 1.684-.164 3.382-.193 5.062.03l-1.486-.2c1.15.16 2.278.44 3.353.887l-1.336-.564c.859.365 1.665.83 2.404 1.4l-1.132-.875a11.466 11.466 0 0 1 1.976 2l-.874-1.133c.86 1.124 1.525 2.376 2.073 3.678l-.563-1.339c1.399 3.354 2.069 6.951 3.043 10.438 1.145 4.097 2.772 8.302 5.877 11.328 3.876 3.777 9.225 4.982 14.491 4.649 4.99-.316 9.974-1.616 14.197-4.376 3.908-2.555 7.083-6.004 9.494-9.998 2.248-3.724 3.843-7.908 4.958-12.105 1.149-4.325 1.795-8.793 2.204-13.244.336-3.671.45-7.362.397-11.048a119.826 119.826 0 0 0-.43-8.557c-.08-.921-.17-1.841-.275-2.76-.11-.97-.18-2.012-.381-2.952-.014-.06-.018-.125-.027-.188-.19-1.29-1.499-2.72-2.569-3.347-1.198-.703-2.964-1-4.307-.565-1.353.439-2.658 1.279-3.34 2.574l-.564 1.338a5.66 5.66 0 0 0 0 2.979" fill="#6B76A0"/>
        <g fill="#FFF" opacity=".1">
            <path d="M71.318 125.043a.645.645 0 1 0-.206 1.274.645.645 0 0 0 .206-1.274M67.467 130.414a.724.724 0 0 0-.484 1.364.724.724 0 0 0 .484-1.364M62.452 134.583a.821.821 0 0 0-.762 1.452c.4.211.895.057 1.106-.344a.821.821 0 0 0-.344-1.108M55.155 136.969a.927.927 0 0 0-1.289.249.931.931 0 0 0 .248 1.291.927.927 0 0 0 1.29-.249.931.931 0 0 0-.25-1.291M46.965 136.52a1.045 1.045 0 0 0-1.472.154 1.05 1.05 0 0 0 .153 1.474c.45.365 1.108.296 1.472-.153a1.05 1.05 0 0 0-.153-1.475M42.291 132.45a1.169 1.169 0 0 0-1.655.059 1.175 1.175 0 0 0 .06 1.658 1.169 1.169 0 0 0 1.653-.059 1.174 1.174 0 0 0-.058-1.658M39.845 126.105a1.298 1.298 0 0 0-1.838-.037 1.305 1.305 0 0 0-.036 1.841c.497.519 1.32.535 1.838.037a1.304 1.304 0 0 0 .036-1.841M38.128 118.914a1.43 1.43 0 0 0-2.02-.131 1.437 1.437 0 0 0-.132 2.024 1.43 1.43 0 0 0 2.021.132c.594-.523.653-1.43.131-2.025M35.643 112.31a1.564 1.564 0 0 0-2.203-.226 1.571 1.571 0 0 0-.227 2.207 1.564 1.564 0 0 0 2.204.227c.67-.547.772-1.535.226-2.208M30.89 107.723a1.7 1.7 0 0 0-2.386-.321 1.709 1.709 0 0 0-.321 2.39 1.7 1.7 0 0 0 2.386.323 1.709 1.709 0 0 0 .322-2.392M22.373 106.584a1.838 1.838 0 0 0-2.57-.417 1.847 1.847 0 0 0-.416 2.575 1.838 1.838 0 0 0 2.57.417 1.847 1.847 0 0 0 .416-2.575"/>
        </g>
        <path d="M70.461 77.108c-.34 2.021-.893 4.021-1.425 5.998-1.78 6.605-3.944 13.11-6.227 19.555-2.049 5.784-4.119 11.6-6.488 17.26l.563-1.34c-.704 1.654-1.652 3.187-2.743 4.611l.874-1.133c-1.641 2.124-3.587 3.994-5.705 5.637l1.131-.876a37.915 37.915 0 0 1-8.305 4.854l1.335-.565c-2.665 1.121-5.455 1.933-8.32 2.33.496-.066.991-.132 1.487-.2-2.256.303-4.54.343-6.799.048l1.486.2a21.352 21.352 0 0 1-5.425-1.47l1.336.564a20.264 20.264 0 0 1-4.34-2.545l1.13.876a22.426 22.426 0 0 1-3.941-3.974l.874 1.134a27.582 27.582 0 0 1-1.564-2.275c-.75-1.218-1.95-2.191-3.34-2.575-1.338-.369-3.12-.202-4.307.565-1.194.771-2.245 1.92-2.57 3.348-.33 1.45-.236 3.02.564 4.316 2.568 4.163 6.103 7.88 10.472 10.153a27.608 27.608 0 0 0 13.133 3.09c4.139-.058 8.338-.906 12.192-2.414 2.163-.846 4.29-1.795 6.306-2.953 1.97-1.132 3.782-2.462 5.568-3.863 3.017-2.367 5.68-5.271 7.713-8.53 1.234-1.979 2.038-4.171 2.882-6.336 1.128-2.89 2.233-5.79 3.312-8.7 2.862-7.723 5.575-15.518 7.837-23.442.778-2.727 1.562-5.484 2.068-8.28l.017-.09c.255-1.527.244-2.934-.564-4.316-.678-1.162-2.008-2.27-3.34-2.575-1.432-.326-3.038-.256-4.308.565-1.152.744-2.332 1.936-2.569 3.348" fill="#828DB7"/>
        <path d="M82.062 83.27c1.293 3.76 2.223 7.675 2.999 11.569.41 2.057.758 4.128 1.039 6.207l-.2-1.488c.754 5.67 1.026 11.455.268 17.14l.2-1.488c-.236 1.71-.608 3.376-1.006 5.052-.413 1.735-.681 3.495-.876 5.267-.26 2.36-.133 4.857.517 7.145 1.067 3.755 3.537 6.556 6.38 9.084 1.272 1.132 2.522 2.286 3.57 3.635l-.874-1.133a15.736 15.736 0 0 1 2.009 3.44l-.564-1.338c.676 1.616 1.085 3.323 1.32 5.056l-.2-1.489c.41 3.14.276 6.327-.07 9.466-.147 1.335.73 3.051 1.637 3.96.97.972 2.56 1.704 3.953 1.641 1.445-.065 2.945-.54 3.953-1.64l.874-1.134a5.59 5.59 0 0 0 .763-2.827c.326-2.97.468-5.984.132-8.96-.178-1.572-.382-3.158-.785-4.692-.36-1.369-.9-2.666-1.473-3.958-1.413-3.194-3.873-5.755-6.447-8.043-1.1-.98-2.207-1.965-3.113-3.134l.874 1.133a10.41 10.41 0 0 1-1.32-2.235l.565 1.337a10.832 10.832 0 0 1-.723-2.692l.2 1.488c-.206-1.544-.134-3.105.066-4.646l-.2 1.489c.209-1.546.581-3.046.936-4.562.534-2.283.855-4.623 1.083-6.955.37-3.807.3-7.65-.032-11.457a107.349 107.349 0 0 0-3.595-19.669 64.389 64.389 0 0 0-1.08-3.547c-.476-1.388-1.277-2.59-2.568-3.348-1.198-.703-2.964-1-4.308-.564-1.352.438-2.657 1.279-3.34 2.574-.678 1.285-1.053 2.894-.564 4.316" fill="#6B76A0"/>
        <path d="M80.386 75.094c-.6 2.315-1.06 4.675-1.444 7.033-.407 2.513-.755 5.05-.907 7.591-.137 2.283-.027 4.57-.1 6.855a67.435 67.435 0 0 1-.549 6.776l.2-1.489c-.455 3.333-1.271 6.573-2.065 9.836-.836 3.443-1.435 6.977-1.456 10.529-.017 2.796.353 5.55.73 8.315l-.2-1.49c.514 3.858.67 7.78.169 11.646l.2-1.488c-.307 2.28-.845 4.528-1.728 6.656l.564-1.338c-.602 1.426-1.355 2.78-2.294 4.013l.874-1.134a14.765 14.765 0 0 1-2.597 2.622l1.131-.876a13.57 13.57 0 0 1-2.893 1.7l1.335-.565a14.268 14.268 0 0 1-3.603.98l1.486-.2a17.33 17.33 0 0 1-4.474-.024l1.486.2c-1.802-.244-3.557-.73-5.255-1.38-1.279-.489-3.17-.102-4.307.565-1.16.68-2.266 2.012-2.569 3.348-.326 1.434-.256 3.043.563 4.316l.875 1.134a5.58 5.58 0 0 0 2.466 1.44c6.182 2.365 13.525 2.523 19.318-1.004 5.953-3.623 9.352-10.274 10.34-17.03.36-2.46.598-4.906.565-7.394-.036-2.825-.39-5.608-.772-8.404l.2 1.49c-.458-3.415-.597-6.86-.138-10.281l-.2 1.49c.44-3.203 1.372-6.302 2.078-9.449 1.096-4.885 1.655-9.9 1.732-14.904.025-1.638-.039-3.277.038-4.915.072-1.523.228-3.042.428-4.553l-.2 1.49c.412-3.066.977-6.133 1.753-9.128.368-1.42.18-3.045-.563-4.317-.679-1.162-2.008-2.27-3.341-2.574-1.431-.327-3.037-.256-4.307.565-1.215.785-2.197 1.914-2.57 3.347" fill="#828DB7"/>
        <g fill="#FFF" opacity=".1">
            <path d="M120.812 117.58a.645.645 0 1 0-.205 1.274.645.645 0 0 0 .205-1.274M127.196 118.16a.725.725 0 0 0-.484 1.364.724.724 0 0 0 .484-1.364M133.06 117.492a.82.82 0 0 0-.762 1.452.82.82 0 0 0 .762-1.452M137.722 115.814a.927.927 0 0 0-1.289.249.931.931 0 0 0 .249 1.292.927.927 0 0 0 1.289-.25.932.932 0 0 0-.25-1.29M141.676 113.571a1.045 1.045 0 0 0-1.471.154 1.05 1.05 0 0 0 .153 1.475c.449.365 1.108.296 1.472-.154a1.05 1.05 0 0 0-.154-1.475M145.415 111.209a1.17 1.17 0 0 0-1.655.058 1.175 1.175 0 0 0 .06 1.659 1.17 1.17 0 0 0 1.653-.06 1.175 1.175 0 0 0-.058-1.657M149.43 109.17a1.297 1.297 0 0 0-1.837-.037 1.304 1.304 0 0 0-.036 1.841c.497.52 1.32.535 1.837.037a1.304 1.304 0 0 0 .037-1.841M154.216 107.9a1.43 1.43 0 0 0-2.02-.133 1.437 1.437 0 0 0-.132 2.025 1.43 1.43 0 0 0 2.02.132c.595-.523.654-1.43.132-2.025M160.264 107.841a1.564 1.564 0 0 0-2.204-.227 1.571 1.571 0 0 0-.226 2.208 1.564 1.564 0 0 0 2.203.227 1.57 1.57 0 0 0 .227-2.208M168.066 109.44a1.7 1.7 0 0 0-2.386-.322 1.709 1.709 0 0 0-.321 2.392 1.7 1.7 0 0 0 2.386.322 1.709 1.709 0 0 0 .321-2.392M178.116 113.141a1.838 1.838 0 0 0-2.57-.417 1.847 1.847 0 0 0-.416 2.575 1.838 1.838 0 0 0 2.57.417 1.847 1.847 0 0 0 .416-2.575"/>
        </g>
        <path d="M52.09 153.918a8.354 8.354 0 0 0-.074 1.139v1.246a6.518 6.518 0 0 1 .074-2.385" fill="#828DB7"/>
        <g fill="#FFF" opacity=".1">
            <path d="M94.483 113.724a.645.645 0 1 0-.205 1.274.645.645 0 0 0 .205-1.274M93.936 118.585a.725.725 0 0 0-.484 1.364.724.724 0 0 0 .484-1.364M93.228 124.003a.82.82 0 0 0-.762 1.452c.4.211.894.057 1.105-.344a.821.821 0 0 0-.343-1.108M93.75 128.936a.927.927 0 0 0-1.29.249.932.932 0 0 0 .25 1.291.927.927 0 0 0 1.288-.249.93.93 0 0 0-.249-1.29M95.47 132.705a1.045 1.045 0 0 0-1.471.154 1.05 1.05 0 0 0 .153 1.475c.449.365 1.108.296 1.471-.154a1.05 1.05 0 0 0-.153-1.475M97.944 135.812a1.17 1.17 0 0 0-1.655.059 1.175 1.175 0 0 0 .059 1.658 1.17 1.17 0 0 0 1.654-.059 1.175 1.175 0 0 0-.058-1.658M100.724 138.757a1.298 1.298 0 0 0-1.837-.036 1.304 1.304 0 0 0-.037 1.84c.497.52 1.32.536 1.838.038a1.304 1.304 0 0 0 .036-1.842M103.364 142.042a1.43 1.43 0 0 0-2.02-.132 1.437 1.437 0 0 0-.132 2.024 1.43 1.43 0 0 0 2.02.132c.594-.523.653-1.43.132-2.024M105.416 146.165a1.564 1.564 0 0 0-2.203-.227 1.572 1.572 0 0 0-.226 2.208 1.564 1.564 0 0 0 2.203.227 1.571 1.571 0 0 0 .226-2.208M106.436 151.63a1.7 1.7 0 0 0-2.386-.322 1.709 1.709 0 0 0-.322 2.391 1.7 1.7 0 0 0 2.386.322 1.709 1.709 0 0 0 .322-2.391M105.975 158.936a1.838 1.838 0 0 0-2.57-.418 1.847 1.847 0 0 0-.415 2.575 1.837 1.837 0 0 0 2.569.418 1.847 1.847 0 0 0 .416-2.575"/>
        </g>
        <path d="M89.768 81.064a57.388 57.388 0 0 0-.294 3.272 103.53 103.53 0 0 0-.23 8.425c.055 4.32.425 8.605 1.006 12.886.574 4.23 1.457 8.427 2.831 12.471 1.515 4.457 3.506 8.864 6.344 12.64 1.55 2.063 3.177 4.028 5.137 5.713 1.987 1.707 4.133 3.263 6.478 4.44 2.497 1.252 5.15 2.26 7.881 2.863 3.004.663 6.16 1.038 9.24.982 5.537-.1 10.77-2.075 14.73-6.001 3.184-3.157 5.335-7.184 7.203-11.212 1.83-3.945 3.484-7.996 5.79-11.696a32.76 32.76 0 0 1 1.812-2.627l-.874 1.133c1.204-1.558 2.568-2.983 4.12-4.197l-1.131.876a20.507 20.507 0 0 1 4.525-2.65l-1.335.564c1.915-.802 3.93-1.313 5.983-1.598l-1.486.2a32.36 32.36 0 0 1 3.561-.272c1.454-.033 2.916-.602 3.953-1.64.97-.972 1.7-2.566 1.637-3.962-.065-1.448-.54-2.95-1.637-3.96-1.08-.993-2.45-1.676-3.953-1.641-4.634.107-9.079 1.03-13.262 3.039-3.066 1.471-5.867 3.724-8.068 6.314-2.202 2.591-4.022 5.425-5.56 8.454-1.348 2.656-2.515 5.398-3.77 8.098-1.305 2.808-2.706 5.611-4.602 8.072l.874-1.133c-.915 1.177-1.943 2.26-3.118 3.18l1.131-.876c-.98.758-2.047 1.39-3.187 1.876l1.335-.565a15.715 15.715 0 0 1-3.898 1.05l1.486-.2c-2.427.325-4.925.178-7.345-.141l1.486.2c-2.642-.358-5.236-1.026-7.695-2.066l1.336.565a26.668 26.668 0 0 1-5.793-3.392l1.131.876a28.807 28.807 0 0 1-5.1-5.143l.875 1.134c-1.964-2.555-3.528-5.39-4.781-8.356l.563 1.339c-1.648-3.923-2.762-8.055-3.519-12.238-.21-1.16-.39-2.324-.548-3.492l.2 1.49c-.584-4.364-.832-8.77-.814-13.17.011-2.822.125-5.647.38-8.457.045-.49.09-.98.152-1.467.167-1.32-.745-3.067-1.637-3.961-.97-.972-2.56-1.704-3.953-1.641-1.446.065-2.945.54-3.952 1.64l-.875 1.134a5.59 5.59 0 0 0-.763 2.828" fill="#828DB7"/>
        <g fill="#FFF" opacity=".1">
            <path d="M63.384 109.71a.645.645 0 1 0-.206 1.274.645.645 0 0 0 .206-1.274M61.587 116.719a.725.725 0 0 0-.484 1.364.724.724 0 0 0 .484-1.364M59.105 121.279a.819.819 0 1 0-.762 1.452c.4.21.895.057 1.106-.344a.821.821 0 0 0-.344-1.108M54.91 126.077a.927.927 0 0 0-1.289.249.931.931 0 0 0 .249 1.291.927.927 0 0 0 1.289-.248.931.931 0 0 0-.25-1.292M50.117 130.17a1.045 1.045 0 0 0-1.472.154 1.05 1.05 0 0 0 .154 1.474c.449.365 1.107.296 1.472-.154a1.05 1.05 0 0 0-.154-1.474M44.844 133.325a1.17 1.17 0 0 0-1.654.058 1.175 1.175 0 0 0 .058 1.659 1.17 1.17 0 0 0 1.655-.06 1.174 1.174 0 0 0-.059-1.657M39.266 135.292a1.298 1.298 0 0 0-1.837-.036 1.304 1.304 0 0 0-.037 1.84c.498.52 1.32.536 1.838.037a1.304 1.304 0 0 0 .036-1.84M33.557 135.823a1.43 1.43 0 0 0-2.02-.131 1.437 1.437 0 0 0-.133 2.025 1.43 1.43 0 0 0 2.021.131c.594-.523.653-1.43.132-2.025M27.889 134.669a1.564 1.564 0 0 0-2.203-.227 1.571 1.571 0 0 0-.227 2.208 1.563 1.563 0 0 0 2.204.226c.67-.546.772-1.535.226-2.207M22.437 131.58a1.7 1.7 0 0 0-2.386-.323 1.708 1.708 0 0 0-.321 2.392 1.7 1.7 0 0 0 2.386.322 1.708 1.708 0 0 0 .321-2.391M17.375 126.306a1.838 1.838 0 0 0-2.57-.417 1.847 1.847 0 0 0-.416 2.575 1.838 1.838 0 0 0 2.57.417 1.847 1.847 0 0 0 .416-2.575"/>
        </g>
        <g fill="#FFF" opacity=".1">
            <path d="M50.196 105.797a.645.645 0 1 0-1.238.366.645.645 0 0 0 1.238-.366M44.853 104.722a.722.722 0 1 0-1.436.155.722.722 0 1 0 1.436-.155M40.836 101.747a.82.82 0 1 0-1.638-.06.82.82 0 0 0 1.638.06M37.944 96.79a.928.928 0 1 0-1.836-.27.928.928 0 1 0 1.836.27M37.241 91.201a1.046 1.046 0 1 0-2.036-.483 1.046 1.046 0 1 0 2.036.483M38.174 85.508a1.17 1.17 0 1 0-2.236-.696 1.17 1.17 0 1 0 2.236.696M39.757 79.963a1.303 1.303 0 0 0-.765-1.675 1.303 1.303 0 0 0-.906 2.441 1.3 1.3 0 0 0 1.67-.766M41.002 74.82a1.436 1.436 0 0 0-.758-1.88 1.435 1.435 0 0 0-1.119 2.641c.727.309 1.568-.031 1.877-.76M40.924 70.335c.368-.785.03-1.72-.752-2.088a1.565 1.565 0 0 0-2.083.754 1.57 1.57 0 0 0 .751 2.087 1.565 1.565 0 0 0 2.084-.753M38.536 66.76a1.707 1.707 0 0 0-.746-2.294 1.701 1.701 0 0 0-2.29.747 1.71 1.71 0 0 0 .747 2.295 1.701 1.701 0 0 0 2.29-.748M32.853 64.35a1.845 1.845 0 0 0-.74-2.5 1.839 1.839 0 0 0-2.496.74 1.847 1.847 0 0 0 .74 2.501c.894.486 2.011.154 2.496-.741"/>
        </g>
        <g fill="#FFF" opacity=".1">
            <path d="M121.6 141.657a.645.645 0 1 1 1.237.367.644.644 0 1 1-1.236-.367M126.296 142.27a.722.722 0 1 1 1.436.155.723.723 0 1 1-1.436-.154M131.881 141.934a.82.82 0 1 1 1.639-.058.82.82 0 0 1-1.639.058M138.088 138.453a.928.928 0 1 1 1.836-.27.928.928 0 1 1-1.836.27M143.743 131.22a1.046 1.046 0 1 1 2.036-.483 1.046 1.046 0 1 1-2.036.483M146.96 125.028a1.17 1.17 0 1 1 2.236-.696 1.17 1.17 0 1 1-2.236.696M149.946 118.718a1.299 1.299 0 1 1 2.436-.908 1.3 1.3 0 1 1-2.436.908M153.185 112.887c-.31-.73.03-1.572.758-1.882a1.435 1.435 0 0 1 1.119 2.641 1.43 1.43 0 0 1-1.877-.76M157.158 108.127a1.571 1.571 0 0 1 .752-2.088 1.565 1.565 0 0 1 2.083.755c.368.784.03 1.72-.752 2.087a1.565 1.565 0 0 1-2.083-.754M162.347 105.036a1.708 1.708 0 0 1 .746-2.294 1.701 1.701 0 0 1 2.29.747c.426.84.092 1.868-.746 2.295a1.701 1.701 0 0 1-2.29-.748M169.236 104.206a1.846 1.846 0 0 1 .74-2.5 1.838 1.838 0 0 1 2.495.74 1.846 1.846 0 0 1-.74 2.501 1.838 1.838 0 0 1-2.495-.74"/>
        </g>
        <g fill="#FFF" opacity=".1">
            <path d="M77.036 115.44a.646.646 0 1 0-.204 1.275.646.646 0 0 0 .204-1.275M77.106 120.026a.725.725 0 0 0-.484 1.364.724.724 0 0 0 .484-1.364M77.622 126.27a.821.821 0 0 0-.762 1.452c.4.212.895.057 1.105-.343a.821.821 0 0 0-.343-1.108M78.704 132.04a.927.927 0 0 0-1.289.249.932.932 0 0 0 .249 1.291.927.927 0 0 0 1.288-.248.931.931 0 0 0-.248-1.292M79.443 138.971a1.045 1.045 0 0 0-1.472.154 1.05 1.05 0 0 0 .154 1.475c.449.365 1.107.296 1.472-.154a1.05 1.05 0 0 0-.154-1.475M78.626 144.531a1.169 1.169 0 0 0-1.654.06 1.175 1.175 0 0 0 .058 1.657 1.17 1.17 0 0 0 1.654-.058 1.175 1.175 0 0 0-.058-1.659M76.463 148.727a1.298 1.298 0 0 0-1.838-.036 1.304 1.304 0 0 0-.036 1.84c.497.52 1.32.536 1.838.037a1.304 1.304 0 0 0 .036-1.84M73.163 151.566a1.43 1.43 0 0 0-2.02-.132 1.437 1.437 0 0 0-.132 2.025 1.43 1.43 0 0 0 2.02.132c.595-.523.654-1.43.132-2.025M68.936 153.056a1.564 1.564 0 0 0-2.203-.227 1.572 1.572 0 0 0-.227 2.208 1.563 1.563 0 0 0 2.204.226 1.57 1.57 0 0 0 .226-2.207M63.992 153.203a1.7 1.7 0 0 0-2.387-.322 1.708 1.708 0 0 0-.32 2.392 1.7 1.7 0 0 0 2.385.322 1.708 1.708 0 0 0 .322-2.392M58.54 152.017a1.838 1.838 0 0 0-2.57-.418 1.847 1.847 0 0 0-.416 2.575 1.838 1.838 0 0 0 2.57.418 1.847 1.847 0 0 0 .416-2.575"/>
        </g>
        <g fill="#FFF" opacity=".1">
            <path d="M143.96 96.855a.645.645 0 1 0-.205 1.274.645.645 0 0 0 .205-1.274M145.65 91.834a.724.724 0 0 0-.484 1.364.724.724 0 0 0 .484-1.364M145.902 86.504a.819.819 0 1 0-.763 1.452c.4.211.896.057 1.106-.344a.821.821 0 0 0-.343-1.108M144.622 78.726a.927.927 0 0 0-1.289.248.931.931 0 0 0 .248 1.292.927.927 0 0 0 1.29-.249.932.932 0 0 0-.25-1.291M143.463 69.822a1.045 1.045 0 0 0-1.472.154 1.05 1.05 0 0 0 .153 1.474c.45.365 1.108.296 1.472-.153a1.05 1.05 0 0 0-.153-1.475M144.463 62.874a1.169 1.169 0 0 0-1.654.058 1.175 1.175 0 0 0 .058 1.658 1.169 1.169 0 0 0 1.654-.058 1.175 1.175 0 0 0-.058-1.658M147.243 57.882a1.298 1.298 0 0 0-1.837-.037 1.304 1.304 0 0 0-.037 1.842c.497.519 1.32.535 1.838.036a1.304 1.304 0 0 0 .036-1.841M151.414 54.873a1.43 1.43 0 0 0-2.02-.132 1.436 1.436 0 0 0-.132 2.025 1.43 1.43 0 0 0 2.02.132c.595-.523.653-1.43.132-2.025M156.586 53.873a1.564 1.564 0 0 0-2.203-.227 1.571 1.571 0 0 0-.227 2.208 1.564 1.564 0 0 0 2.203.227 1.571 1.571 0 0 0 .227-2.208M162.37 54.907a1.7 1.7 0 0 0-2.386-.321 1.708 1.708 0 0 0-.321 2.39 1.7 1.7 0 0 0 2.386.323 1.708 1.708 0 0 0 .322-2.392M168.38 58.003a1.838 1.838 0 0 0-2.57-.418 1.847 1.847 0 0 0-.416 2.575 1.837 1.837 0 0 0 2.569.418 1.847 1.847 0 0 0 .416-2.575"/>
        </g>
        <path d="m53.221 48.171-5.303-9.346a24.88 24.88 0 0 0 3.701-13.092C51.62 11.925 40.427.732 26.62.732c-13.808 0-25 11.193-25 25 0 13.808 11.192 25 25 25 5.765 0 11.07-1.957 15.3-5.235l-.009.01 11.31 2.664" fill="#ECF0F9"/>
        <path d="M9.66 40.153c-2.818-3.047-4.807-8.457-4.33-15.791.717-11.044 9.577-19.694 20.614-20.12 7.048-.273 11.798 1.712 14.851 3.957-3.784-4.754-9.411-5.926-16.186-5.62-11.012.495-21.173 10.336-21.173 21.404 0 7.178.563 12.65 6.224 16.17z" fill="#FFF" opacity=".327"/>
        <path d="m21.119 25.074 3.786 3.488 8.833-8.305a1.967 1.967 0 0 1 2.684-.011 1.715 1.715 0 0 1 .013 2.506l-9.53 9.007a3 3 0 0 1-4.11.01l-4.43-4.143a1.74 1.74 0 0 1 .007-2.549 2.024 2.024 0 0 1 2.747-.003z" fill="#959FC5"/>
    </g>
</svg>
