<svg xmlns="http://www.w3.org/2000/svg" width="16" height="16" viewBox="0 0 16 16">
  <defs>
    <filter id="b10dgi4tda">
      <feColorMatrix in="SourceGraphic" values="0 0 0 0 0.644530 0 0 0 0 0.657201 0 0 0 0 0.692680 0 0 0 1.000000 0" />
    </filter>
  </defs>
  <g fill="none" fill-rule="evenodd">
    <path fill="#A4A8B1" fill-rule="nonzero" d="M7.2 5.6h1.6V4H7.2M8 14.4c-3.528 0-6.4-2.872-6.4-6.4 0-3.528 2.872-6.4 6.4-6.4 3.528 0 6.4 2.872 6.4 6.4 0 3.528-2.872 6.4-6.4 6.4M8 0C3.582 0 0 3.582 0 8c0 2.122.843 4.157 2.343 5.657S5.878 16 8 16s4.157-.843 5.657-2.343S16 10.122 16 8s-.843-4.157-2.343-5.657S10.122 0 8 0m-.8 12h1.6V7.2H7.2V12z" />
  </g>
</svg>
