<svg xmlns="http://www.w3.org/2000/svg" width="38" height="38" viewBox="0 0 38 38">
    <g fill="none" fill-rule="evenodd" transform="translate(1 1)">
        <circle cx="18" cy="18" r="18" stroke="#7A86A9" stroke-width="2"/>
        <g fill="#7A86A9">
            <path fill-rule="nonzero" d="M21.956 8.95c-.076-.163-.239-.267-.419-.267h-1.37c-.871-4.727-5.022-8.32-9.997-8.32C4.562.363 0 4.925 0 10.533c0 5.607 4.562 10.169 10.17 10.169 3.618 0 6.993-1.948 8.807-5.082.256-.443.105-1.008-.338-1.264-.442-.256-1.007-.105-1.262.337-1.485 2.566-4.247 4.16-7.207 4.16-4.588 0-8.321-3.732-8.321-8.32s3.733-8.32 8.32-8.32c3.952 0 7.263 2.771 8.106 6.47h-1.359c-.18 0-.343.105-.42.267-.076.163-.05.354.064.492l2.312 2.774c.088.105.217.166.355.166.137 0 .267-.062.355-.166l2.311-2.774c.115-.138.14-.33.063-.492z" transform="translate(8 7)"/>
            <g>
                <path d="M0.468 0.489H1.8719999999999999V7.489H0.468z" transform="translate(8 7) translate(8.894 3.277)"/>
                <path d="M.589 7.005l.662-.662 3.64 3.64-.993.993-3.31-3.31c-.182-.182-.182-.479 0-.661z" transform="translate(8 7) translate(8.894 3.277)"/>
            </g>
        </g>
    </g>
</svg>
