<svg xmlns="http://www.w3.org/2000/svg" xmlns:xlink="http://www.w3.org/1999/xlink" width="12px" height="14px" viewBox="0 0 12 14" version="1.1">
    <g id="All-Inspections" stroke="none" stroke-width="1" fill="none" fill-rule="evenodd">
        <g id="All-Inspections-My-Sites-Historical-Dashboard---V6---Opened-2-section---notification" transform="translate(-314.000000, -108.000000)" fill="#616674" fill-rule="nonzero" stroke="#616674" stroke-width="0.5">
            <g id="Group-16" transform="translate(45.000000, 108.000000)">
                <g id="Group-14-Copy" transform="translate(23.000000, -1.000000)">
                    <g id="event_available_FILL0_wght400_GRAD0_opsz48" transform="translate(246.500000, 2.000000)">
                        <path d="M4.81538462,9.78 L2.69230769,7.725 L3.33846154,7.095 L4.81538462,8.505 L7.64615385,5.745 L8.29230769,6.39 L4.81538462,9.78 Z M0.923076923,12 C0.676923077,12 0.461538462,11.91 0.276923077,11.73 C0.0923076923,11.55 0,11.34 0,11.1 L0,1.8 C0,1.56 0.0923076923,1.35 0.276923077,1.17 C0.461538462,0.99 0.676923077,0.9 0.923076923,0.9 L1.92307692,0.9 L1.92307692,0 L2.92307692,0 L2.92307692,0.9 L8.15384615,0.9 L8.15384615,0 L9.15384615,0 L9.15384615,0.9 L10.1538462,0.9 C10.4,0.9 10.6153846,0.99 10.8,1.17 C10.9846154,1.35 11.0769231,1.56 11.0769231,1.8 L11.0769231,11.1 C11.0769231,11.34 10.9846154,11.55 10.8,11.73 C10.6153846,11.91 10.4,12 10.1538462,12 L0.923076923,12 Z M0.923076923,11.1 L10.1538462,11.1 L10.1538462,4.65 L0.923076923,4.65 L0.923076923,11.1 Z M0.923076923,3.75 L10.1538462,3.75 L10.1538462,1.8 L0.923076923,1.8 L0.923076923,3.75 Z M0.923076923,3.75 L0.923076923,1.8 L0.923076923,3.75 Z" id="Shape"/>
                    </g>
                </g>
            </g>
        </g>
    </g>
</svg>
