<svg xmlns="http://www.w3.org/2000/svg" width="38" height="38" viewBox="0 0 38 38">
    <g fill="none" fill-rule="evenodd" transform="translate(1 1)">
        <circle cx="18" cy="18" r="18" stroke="#7A86A9" stroke-width="2"/>
        <g fill="#7A86A9" fill-rule="nonzero">
            <path d="M16.537 13.173c-.208-.518-.313-1.064-.313-1.623V7.52c0-2.796-1.86-5.14-4.4-5.931-.15-.882-.915-1.557-1.84-1.557-.924 0-1.69.675-1.84 1.557-2.54.79-4.4 3.135-4.4 5.93v4.031c0 .559-.105 1.105-.313 1.623l-.89 2.227c-.077.193-.053.41.062.582.117.172.31.274.517.274h4.744c.442.752 1.231 1.248 2.12 1.248.89 0 1.678-.496 2.12-1.248h4.744c.207 0 .4-.102.517-.274.116-.172.14-.389.063-.582l-.891-2.227zM4.04 15.008l.55-1.372c.266-.666.401-1.368.401-2.086V7.52c0-2.753 2.24-4.992 4.992-4.992 2.753 0 4.992 2.239 4.992 4.992v4.03c0 .718.135 1.42.402 2.086l.549 1.372H4.04zM1.175 4.07C.406 5.51 0 7.135 0 8.768c0 1.633.406 3.258 1.175 4.698l1.101-.587c-.682-1.279-1.028-2.662-1.028-4.111 0-1.45.346-2.833 1.028-4.111l-1.1-.587zM18.793 4.07l-1.1.587c.681 1.278 1.027 2.662 1.027 4.11 0 1.45-.346 2.833-1.028 4.112l1.1.587c.77-1.44 1.176-3.065 1.176-4.698 0-1.633-.406-3.258-1.175-4.698z" transform="translate(8 9)"/>
        </g>
    </g>
</svg>
