<svg width="32" height="32" viewBox="0 0 32 32" xmlns="http://www.w3.org/2000/svg">
    <g fill="none" fill-rule="evenodd">
        <rect fill="#F7F9FA" width="32" height="32" rx="4"/>
        <path d="M5.714 5.714h20.572v20.572H5.714z"/>
        <path d="M24.571 10.857a1.72 1.72 0 0 0-1.714-1.714H9.143a1.72 1.72 0 0 0-1.714 1.714v10.286a1.72 1.72 0 0 0 1.714 1.714h13.714a1.72 1.72 0 0 0 1.714-1.714V10.857zm-1.714 0L16 15.143l-6.857-4.286h13.714zm0 10.286H9.143V12.57L16 16.857l6.857-4.286v8.572z" fill="#A4A8B1"/>
    </g>
</svg>
