<?xml version="1.0" encoding="UTF-8"?>
<svg width="156px" height="34px" viewBox="0 0 156 34" version="1.1" xmlns="http://www.w3.org/2000/svg" xmlns:xlink="http://www.w3.org/1999/xlink">
    <g id="Symbols" stroke="none" stroke-width="1" fill="none" fill-rule="evenodd">
        <g id="Navigation-/-Header" transform="translate(-28.000000, -19.000000)">
            <g id="Logo-Protean" transform="translate(29.000000, 20.000000)">
                <path d="M52.9233765,20.4115294 C53.8376118,19.8835294 54.5536118,19.1332941 55.0717294,18.1597647 C55.5894941,17.1867059 55.8485529,16.0788235 55.8485529,14.8364706 C55.8485529,13.5941176 55.5894941,12.4915294 55.0717294,11.5287059 C54.5536118,10.5658824 53.8376118,9.81564706 52.9233765,9.27682353 C52.0092588,8.73870588 50.9933765,8.46941176 49.8764353,8.46941176 C48.7385529,8.46941176 47.7177294,8.73870588 46.8140824,9.27682353 C45.9099647,9.81564706 45.1991412,10.5658824 44.6811412,11.5287059 C44.1631412,12.4915294 43.9042,13.5941176 43.9042,14.8364706 C43.9042,16.0788235 44.1631412,17.1867059 44.6811412,18.1597647 C45.1991412,19.1332941 45.9099647,19.8835294 46.8140824,20.4115294 C47.7177294,20.9395294 48.7385529,21.2035294 49.8764353,21.2035294 C50.9933765,21.2035294 52.0092588,20.9395294 52.9233765,20.4115294 M54.1118471,7.58423529 C55.3306706,8.27811765 56.2852588,9.25658824 56.9760824,10.5192941 C57.6663176,11.7824706 58.0119647,13.2214118 58.0119647,14.8364706 C58.0119647,16.4724706 57.6663176,17.922 56.9760824,19.1847059 C56.2852588,20.448 55.3353765,21.4262353 54.1269059,22.1197647 C52.9182,22.8137647 51.5523176,23.1602353 50.0287882,23.1602353 C48.7285529,23.1602353 47.5553765,22.886 46.5093765,22.3371765 C45.4629059,21.7888235 44.6050235,20.9861176 43.9346706,19.9301176 L43.9346706,29.0303529 L41.7712588,29.0303529 L41.7712588,6.668 L43.8431412,6.668 L43.8431412,9.89811765 C44.4931412,8.82164706 45.3514941,7.99329412 46.4179647,7.41341176 C47.4845529,6.834 48.6880824,6.54376471 50.0287882,6.54376471 C51.5318471,6.54376471 52.8930235,6.89070588 54.1118471,7.58423529" id="Fill-1" fill="#FFFFFF"></path>
                <path d="M66.6258118,7.38234118 C67.6313412,6.82328235 68.8754588,6.54375294 70.3586353,6.54375294 L70.3586353,8.68681176 L69.8405176,8.65575294 C68.1540471,8.65575294 66.8339294,9.18375294 65.8793412,10.2397529 C64.9242824,11.2957529 64.4471059,12.7764588 64.4471059,14.6811647 L64.4471059,23.0049294 L62.2839294,23.0049294 L62.2839294,6.66798824 L64.3558118,6.66798824 L64.3558118,9.86704706 C64.8633412,8.76975294 65.6202824,7.9414 66.6258118,7.38234118" id="Fill-3" fill="#FFFFFF"></path>
                <path d="M83.2714941,20.4115294 C84.1751412,19.8835294 84.8812588,19.1332941 85.3891412,18.1597647 C85.8966706,17.1867059 86.1510235,16.0788235 86.1510235,14.8364706 C86.1510235,13.5941176 85.8966706,12.4867059 85.3891412,11.5131765 C84.8812588,10.5402353 84.1751412,9.78941176 83.2714941,9.26141176 C82.3673765,8.73341176 81.3466706,8.46941176 80.2092588,8.46941176 C79.0713765,8.46941176 78.0505529,8.73341176 77.1467882,9.26141176 C76.2427882,9.78941176 75.5320824,10.5402353 75.0140824,11.5131765 C74.4959647,12.4867059 74.2369059,13.5941176 74.2369059,14.8364706 C74.2369059,16.0788235 74.4959647,17.1867059 75.0140824,18.1597647 C75.5320824,19.1332941 76.2427882,19.8835294 77.1467882,20.4115294 C78.0505529,20.9395294 79.0713765,21.2035294 80.2092588,21.2035294 C81.3466706,21.2035294 82.3673765,20.9395294 83.2714941,20.4115294 M76.0346706,22.0887059 C74.7953765,21.3743529 73.8203176,20.3857647 73.1096118,19.1225882 C72.3982,17.8598824 72.0431412,16.4311765 72.0431412,14.8364706 C72.0431412,13.2423529 72.3982,11.8135294 73.1096118,10.5503529 C73.8203176,9.28752941 74.7953765,8.30388235 76.0346706,7.59976471 C77.2736118,6.89611765 78.6652588,6.54376471 80.2092588,6.54376471 C81.7526706,6.54376471 83.1444353,6.89611765 84.3836118,7.59976471 C85.6224353,8.30388235 86.5927882,9.28752941 87.2936118,10.5503529 C87.9945529,11.8135294 88.3449059,13.2423529 88.3449059,14.8364706 C88.3449059,16.4311765 87.9945529,17.8598824 87.2936118,19.1225882 C86.5927882,20.3857647 85.6224353,21.3743529 84.3836118,22.0887059 C83.1444353,22.8030588 81.7526706,23.1602353 80.2092588,23.1602353 C78.6652588,23.1602353 77.2736118,22.8030588 76.0346706,22.0887059" id="Fill-5" fill="#FFFFFF"></path>
                <path d="M100.859153,22.0110235 C100.452447,22.3837294 99.9498588,22.6686706 99.3508,22.8651412 C98.7513882,23.0617294 98.1266824,23.1603176 97.4768,23.1603176 C95.9733882,23.1603176 94.8153882,22.7463176 94.0032706,21.9178471 C93.1904471,21.0899647 92.7844471,19.9199647 92.7844471,18.4082 L92.7844471,8.53149412 L89.9202118,8.53149412 L89.9202118,6.66796471 L92.7844471,6.66796471 L92.7844471,3.09631765 L94.9477412,3.09631765 L94.9477412,6.66796471 L99.8230353,6.66796471 L99.8230353,8.53149412 L94.9477412,8.53149412 L94.9477412,18.2839647 C94.9477412,19.2574941 95.1863294,19.9976118 95.6638588,20.5046706 C96.1410353,21.0123176 96.8265647,21.2656118 97.7205647,21.2656118 C98.1671529,21.2656118 98.5990353,21.1933765 99.0156235,21.0482 C99.4317412,20.9036118 99.7926824,20.6963176 100.097271,20.4270235 L100.859153,22.0110235 Z" id="Fill-7" fill="#FFFFFF"></path>
                <path d="M106.328365,9.94472941 C105.281776,10.9492 104.687776,12.2586118 104.545776,13.8736706 L115.911306,13.8736706 C115.768953,12.2586118 115.174718,10.9492 114.128835,9.94472941 C113.082247,8.94061176 111.777188,8.43825882 110.213306,8.43825882 C108.669306,8.43825882 107.374365,8.94061176 106.328365,9.94472941 L106.328365,9.94472941 Z M117.952953,15.5197882 L104.545776,15.5197882 C104.667659,17.2177882 105.307424,18.5896706 106.465424,19.6350824 C107.623306,20.6808471 109.085894,21.2035529 110.853306,21.2035529 C111.848247,21.2035529 112.762365,21.0224941 113.595541,20.6600235 C114.428365,20.2980235 115.149541,19.7646118 115.758953,19.0603765 L116.977894,20.4892 C116.2666,21.3588471 115.378129,22.0216706 114.311659,22.4768471 C113.245188,22.9326118 112.072012,23.1602588 110.792247,23.1602588 C109.146835,23.1602588 107.688953,22.8030824 106.419776,22.0887294 C105.149894,21.3742588 104.159541,20.3857882 103.448835,19.1226118 C102.737541,17.8597882 102.382365,16.4312 102.382365,14.8364941 C102.382365,13.2422588 102.722365,11.8135529 103.403071,10.5502588 C104.083541,9.28755294 105.018012,8.30390588 106.206365,7.59967059 C107.394718,6.89614118 108.730247,6.54378824 110.213306,6.54378824 C111.695894,6.54378824 113.0266,6.89614118 114.204953,7.59967059 C115.382953,8.30390588 116.307424,9.28225882 116.977894,10.5348471 C117.648247,11.7877882 117.983306,13.2214353 117.983306,14.8364941 L117.952953,15.5197882 Z" id="Fill-9" fill="#FFFFFF"></path>
                <path d="M130.143741,20.5668588 C131.017035,19.9975647 131.667271,19.1745059 132.093976,18.0976824 L132.093976,15.4266235 L127.066212,15.4266235 C124.323859,15.4266235 122.9528,16.4000353 122.9528,18.3461529 C122.9528,19.2987412 123.307976,20.0495647 124.019153,20.5979176 C124.729976,21.1467412 125.725624,21.4209765 127.005388,21.4209765 C128.224212,21.4209765 129.270094,21.1366235 130.143741,20.5668588 M132.581506,8.14321176 C133.698447,9.21003529 134.257388,10.7886235 134.257388,12.8796824 L134.257388,23.0049765 L132.185388,23.0049765 L132.185388,20.4580353 C131.697741,21.3073294 130.981741,21.9698 130.037153,22.4459176 C129.092565,22.9223882 127.969976,23.1602706 126.670212,23.1602706 C124.882329,23.1602706 123.460212,22.7254471 122.404329,21.8558 C121.347741,20.9860353 120.819741,19.8369765 120.819741,18.4081529 C120.819741,17.0212118 121.312094,15.9030941 122.297741,15.0539176 C123.282682,14.2050941 124.851976,13.7803882 127.005388,13.7803882 L132.093976,13.7803882 L132.093976,12.7865059 C132.093976,11.3787412 131.707741,10.3072118 130.935976,9.57203529 C130.163859,8.83732941 129.036329,8.46944706 127.553741,8.46944706 C126.537859,8.46944706 125.5628,8.64027059 124.628565,8.9818 C123.694094,9.32356471 122.891741,9.79474118 122.221388,10.3950941 L121.246329,8.74897647 C122.058565,8.04521176 123.033624,7.50168235 124.171506,7.11827059 C125.309035,6.73544706 126.507271,6.5438 127.767153,6.5438 C129.859035,6.5438 131.463976,7.07709412 132.581506,8.14321176" id="Fill-11" fill="#FFFFFF"></path>
                <path d="M152.609624,8.32961176 C153.798094,9.52055294 154.392212,11.2544353 154.392212,13.5320824 L154.392212,23.0049059 L152.2288,23.0049059 L152.2288,13.7493765 C152.2288,12.0518471 151.812212,10.7576118 150.979506,9.86702353 C150.146329,8.97702353 148.957976,8.53149412 147.414447,8.53149412 C145.687506,8.53149412 144.321741,9.05467059 143.316212,10.0999647 C142.310682,11.1457294 141.807859,12.5900824 141.807859,14.4326706 L141.807859,23.0049059 L139.644447,23.0049059 L139.644447,6.66796471 L141.716447,6.66796471 L141.716447,9.68067059 C142.305388,8.68678824 143.1228,7.91561176 144.169388,7.36678824 C145.215271,6.81843529 146.428918,6.54372941 147.810565,6.54372941 C149.821624,6.54372941 151.421271,7.13925882 152.609624,8.32961176" id="Fill-13" fill="#FFFFFF"></path>
                <path d="M133.377659,3.73171765 C133.377659,4.43230588 132.820482,5.00030588 132.133071,5.00030588 C131.445659,5.00030588 130.888482,4.43230588 130.888482,3.73171765 C130.888482,3.03112941 131.445659,2.46312941 132.133071,2.46312941 C132.820482,2.46312941 133.377659,3.03112941 133.377659,3.73171765" id="Fill-15" fill="#C1E266"></path>
                <path d="M125.162353,3.73171765 C125.162353,4.43230588 124.605176,5.00030588 123.917765,5.00030588 C123.230353,5.00030588 122.673176,4.43230588 122.673176,3.73171765 C122.673176,3.03112941 123.230353,2.46312941 123.917765,2.46312941 C124.605176,2.46312941 125.162353,3.03112941 125.162353,3.73171765" id="Fill-17" fill="#C1E266"></path>
                <path d="M16.2870588,10.2598706 C16.3161176,10.2502235 16.3152941,10.2504588 16.3444706,10.2408118 C16.8483529,10.9158706 17.3523529,11.5909294 17.8562353,12.2661059 C17.7510588,9.26787059 17.1947059,6.38822353 15.7148235,3.64598824 L15.706,3.64598824 C14.2261176,6.38822353 13.6697647,9.26787059 13.5645882,12.2661059 C14.0685882,11.5909294 14.5724706,10.9158706 15.0763529,10.2408118 C15.1055294,10.2504588 15.1047059,10.2502235 15.1337647,10.2598706" id="Fill-19" fill="#FFFFFF"></path>
                <path d="M23.3141176,11.8713176 C23.7971765,10.2347294 24.3609412,8.61778824 24.9384706,7.00390588 C24.9623529,6.9372 24.9868235,6.87049412 25.0182353,6.78425882 C22.8658824,7.71943529 20.4434118,10.9870824 20.1061176,13.6661412 C20.7958824,13.0313176 21.4672941,12.4134353 22.1698824,11.7667294" id="Fill-21" fill="#FFFFFF"></path>
                <path d="M21.7174941,11.7229882 L21.7174941,11.9385176 C21.7174941,11.9692235 21.7185529,11.9932235 21.7194941,12.0129882 C21.7197294,12.0175765 21.7199647,12.0218118 21.7200824,12.0255765 C21.1056118,14.0387529 20.7411412,16.0493412 20.4657294,17.7515765 C20.4631412,17.7669882 20.4612588,17.7824 20.4593765,17.7979294 C20.4579647,17.8093412 20.4566706,17.8208706 20.4546706,17.8320471 C20.3050235,18.6824 20.0619647,18.8907529 19.2252588,18.8814588 C18.6510235,18.8766353 18.0206706,18.8352235 17.2413765,18.7511059 C16.7646706,18.6998118 16.5619647,18.4821647 16.5416118,17.9999294 C16.5166706,17.4072235 16.5172588,16.8014588 16.5177294,16.2154588 L16.5177294,15.7751059 C16.5158471,14.5711059 16.5160824,13.3671059 16.5163176,12.1628706 L16.5164353,10.1488706 L14.9697294,10.1488706 L14.9699647,12.1033412 C14.9700824,13.3273412 14.9704353,14.5512235 14.9683176,15.7751059 L14.9683176,16.2154588 C14.9689059,16.8014588 14.9693765,17.4072235 14.9444353,18.0000471 C14.9242,18.4821647 14.7214941,18.6998118 14.2447882,18.7511059 C13.4654941,18.8352235 12.8351412,18.8766353 12.2610235,18.8814588 C11.4166706,18.8886353 11.1810235,18.6824 11.0314941,17.8321647 C11.0294941,17.8208706 11.0282,17.8093412 11.0267882,17.7979294 C11.0249059,17.7824 11.0229059,17.7669882 11.0205529,17.7518118 C10.7449059,16.0491059 10.3804353,14.0380471 9.76596471,12.0255765 C9.7662,12.0218118 9.76643529,12.0175765 9.76655294,12.0129882 C9.76761176,11.9932235 9.76867059,11.9692235 9.76867059,11.9385176 L9.76867059,11.7065176 L8.2002,11.9656941 L8.26267059,12.1791059 C9.09525882,15.0160471 9.53337647,17.4193412 9.64125882,19.7420471 C9.67831765,20.5405176 10.1097294,20.9398118 10.9600824,20.9626353 L11.1243176,20.9669882 C11.6067882,20.9796941 12.1056118,20.9927529 12.5891412,21.0407529 C13.7672588,21.1579294 14.4226706,21.7100471 14.7140824,22.8309882 C14.8403176,23.3174588 14.9102,23.8533412 14.9159647,24.3811059 C14.9326706,25.9275765 14.9299647,24.8775765 14.9273765,26.3989882 L14.9258471,27.5001647 C14.9256118,27.7185176 15.0105529,27.9239294 15.1650235,28.0784 C15.3193765,28.2328706 15.5246706,28.3179294 15.7431412,28.3179294 C15.9613765,28.3179294 16.1667882,28.2328706 16.3211412,28.0784 C16.4756118,27.9239294 16.5605529,27.7185176 16.5604353,27.5000471 L16.5587882,26.3989882 C16.5560824,24.8775765 16.5533765,25.9275765 16.5702,24.3811059 C16.5759647,23.8533412 16.6457294,23.3174588 16.7720824,22.8309882 C17.0634941,21.7100471 17.7189059,21.1579294 18.8970235,21.0407529 C19.3804353,20.9927529 19.8792588,20.9796941 20.3616118,20.9669882 L20.5260824,20.9626353 C21.3764353,20.9398118 21.8078471,20.5405176 21.8449059,19.7420471 C21.9538471,17.3993412 22.3993765,14.9706353 23.2470235,12.0987529 L23.3149059,11.8689882 L21.7174941,11.7229882 Z" id="Fill-23" fill="#FFFFFF"></path>
                <path d="M9.32348235,11.7921529 C10.0261882,12.4388588 10.6974824,13.0567412 11.3872471,13.6915647 C11.0500706,11.0125059 8.62736471,7.74485882 6.47512941,6.80956471 C6.50654118,6.89591765 6.53112941,6.96250588 6.55501176,7.02932941 C7.14195294,8.66968235 7.71465882,10.3132118 8.20301176,11.9772118" id="Fill-25" fill="#FFFFFF"></path>
                <path d="M31.4070706,15.7466588 C31.4070706,24.3957176 24.3956588,31.4070118 15.7467176,31.4070118 C7.09777647,31.4070118 0.0863647059,24.3957176 0.0863647059,15.7466588 C0.0863647059,7.09771765 7.09777647,0.0864235294 15.7467176,0.0864235294 C24.3956588,0.0864235294 31.4070706,7.09771765 31.4070706,15.7466588 Z" id="Stroke-27" stroke="#C1E266" stroke-width="1.81976471" stroke-linecap="round"></path>
            </g>
        </g>
    </g>
</svg>
