<?xml version="1.0" encoding="UTF-8"?>
<svg width="155px" height="43px" viewBox="0 0 155 43" version="1.1" xmlns="http://www.w3.org/2000/svg" xmlns:xlink="http://www.w3.org/1999/xlink">
    <defs>
        <polygon id="path-1" points="0 0.0339790949 31.2972605 0.0339790949 31.2972605 31.3140679 0 31.3140679"></polygon>
    </defs>
    <g id="All-Inspections" stroke="none" stroke-width="1" fill="none" fill-rule="evenodd">
        <g id="All-Inspections-All-Sites-pdf-Preview" transform="translate(-341.000000, -63.000000)">
            <g id="Logo-Dark" transform="translate(341.000000, 63.000000)">
                <g id="Logo" transform="translate(3.618799, 5.626168)">
                    <path d="M50.7574678,20.1540117 C51.6208529,19.6556516 52.2970287,18.9475317 52.7863284,18.0286526 C53.2752948,17.1102177 53.5199446,16.0645277 53.5199446,14.8919158 C53.5199446,13.7193039 53.2752948,12.6786108 52.7863284,11.7698366 C52.2970287,10.8610624 51.6208529,10.1529425 50.7574678,9.64436647 C49.8941938,9.13645673 48.9348153,8.88227977 47.8799988,8.88227977 C46.805406,8.88227977 45.8413612,9.13645673 44.9879753,9.64436647 C44.1341451,10.1529425 43.4628579,10.8610624 42.9736693,11.7698366 C42.4844807,12.6786108 42.239942,13.7193039 42.239942,14.8919158 C42.239942,16.0645277 42.4844807,17.1102177 42.9736693,18.0286526 C43.4628579,18.9475317 44.1341451,19.6556516 44.9879753,20.1540117 C45.8413612,20.6523718 46.805406,20.9015518 47.8799988,20.9015518 C48.9348153,20.9015518 49.8941938,20.6523718 50.7574678,20.1540117 M51.8798351,8.04679379 C53.0308671,8.70172419 53.9323607,9.62526711 54.5847604,10.8170894 C55.2366045,12.0093559 55.5630265,13.3675203 55.5630265,14.8919158 C55.5630265,16.4360769 55.2366045,17.8042351 54.5847604,18.9960574 C53.9323607,20.188435 53.0353113,21.1117558 51.8940564,21.7663531 C50.7525792,22.4213945 49.4626679,22.7484155 48.0238778,22.7484155 C46.7959622,22.7484155 45.6880384,22.4895748 44.7002173,21.9715601 C43.7119519,21.4539897 42.9017854,20.6963447 42.2687178,19.6996246 L42.2687178,28.2890068 L40.2256359,28.2890068 L40.2256359,7.18199251 L42.1822792,7.18199251 L42.1822792,10.2307835 C42.796126,9.2147419 43.6067369,8.43288958 44.6138899,7.88555965 C45.6211541,7.33867389 46.7577426,7.06473132 48.0238778,7.06473132 C49.4433359,7.06473132 50.7288031,7.39219652 51.8798351,8.04679379" id="Fill-1" fill="#283049"></path>
                    <path d="M63.6977675,7.85624436 C64.6473689,7.328569 65.8222882,7.06473132 67.2229697,7.06473132 L67.2229697,9.08748685 L66.73367,9.05817156 C65.1410017,9.05817156 63.8943095,9.55653162 62.9928159,10.5532517 C62.0908779,11.5499719 61.6402422,12.9475565 61.6402422,14.7453393 L61.6402422,22.601839 L59.5973826,22.601839 L59.5973826,7.18199251 L61.5540259,7.18199251 L61.5540259,10.2014682 C62.0333263,9.16577202 62.7481661,8.38391971 63.6977675,7.85624436" id="Fill-3" fill="#283049"></path>
                    <path d="M79.4176095,20.1540117 C80.2709953,19.6556516 80.9378384,18.9475317 81.4174721,18.0286526 C81.8967725,17.1102177 82.1369782,16.0645277 82.1369782,14.8919158 C82.1369782,13.7193039 81.8967725,12.6740581 81.4174721,11.7551789 C80.9378384,10.836855 80.2709953,10.1281799 79.4176095,9.62981986 C78.5637793,9.1314598 77.5998456,8.88227977 76.5256971,8.88227977 C75.4511043,8.88227977 74.4870594,9.1314598 73.6335625,9.62981986 C72.7798434,10.1281799 72.1086673,10.836855 71.6194787,11.7551789 C71.130179,12.6740581 70.8855291,13.7193039 70.8855291,14.8919158 C70.8855291,16.0645277 71.130179,17.1102177 71.6194787,18.0286526 C72.1086673,18.9475317 72.7798434,19.6556516 73.6335625,20.1540117 C74.4870594,20.6523718 75.4511043,20.9015518 76.5256971,20.9015518 C77.5998456,20.9015518 78.5637793,20.6523718 79.4176095,20.1540117 M72.5833014,21.7370378 C71.4129374,21.0627859 70.4921117,20.1296933 69.8209356,18.9374268 C69.1490929,17.7456045 68.8137826,16.3971008 68.8137826,14.8919158 C68.8137826,13.3872859 69.1490929,12.0386712 69.8209356,10.8464047 C70.4921117,9.65447136 71.4129374,8.72604256 72.5833014,8.06145144 C73.7533321,7.39730449 75.0675751,7.06473132 76.5256971,7.06473132 C77.9832637,7.06473132 79.2976178,7.39730449 80.4678707,8.06145144 C81.6377903,8.72604256 82.5541718,9.65447136 83.2160152,10.8464047 C83.8779697,12.0386712 84.2088359,13.3872859 84.2088359,14.8919158 C84.2088359,16.3971008 83.8779697,17.7456045 83.2160152,18.9374268 C82.5541718,20.1296933 81.6377903,21.0627859 80.4678707,21.7370378 C79.2976178,22.4112896 77.9832637,22.7484155 76.5256971,22.7484155 C75.0675751,22.7484155 73.7533321,22.4112896 72.5833014,21.7370378" id="Fill-5" fill="#283049"></path>
                    <path d="M96.0270349,21.6637162 C95.6429502,22.0154998 95.1683161,22.2844454 94.6025772,22.4698869 C94.036505,22.6554394 93.4465455,22.7484933 92.8328099,22.7484933 C91.4130186,22.7484933 90.3194271,22.3577337 89.5524798,21.5757703 C88.7848659,20.7943622 88.4014478,19.6900416 88.4014478,18.2631417 L88.4014478,8.94087705 L85.6965225,8.94087705 L85.6965225,7.1819592 L88.4014478,7.1819592 L88.4014478,3.81081102 L90.4444185,3.81081102 L90.4444185,7.1819592 L95.0485466,7.1819592 L95.0485466,8.94087705 L90.4444185,8.94087705 L90.4444185,18.1458805 C90.4444185,19.0647596 90.6697364,19.7633298 91.1207054,20.2419243 C91.5713411,20.7210739 92.218741,20.9601491 93.0630163,20.9601491 C93.4847651,20.9601491 93.892626,20.8919688 94.2860434,20.754942 C94.6790164,20.6184704 95.0198819,20.422813 95.3075288,20.168636 L96.0270349,21.6637162 Z" id="Fill-7" fill="#283049"></path>
                    <path d="M101.192047,10.2747786 C100.20367,11.222862 99.6427087,12.4587683 99.5086068,13.9831638 L110.24198,13.9831638 C110.107545,12.4587683 109.546361,11.222862 108.558652,10.2747786 C107.570275,9.32702837 106.337804,8.85287564 104.860906,8.85287564 C103.402784,8.85287564 102.179868,9.32702837 101.192047,10.2747786 L101.192047,10.2747786 Z M112.17007,15.5368745 L99.5086068,15.5368745 C99.62371,17.1395552 100.227891,18.4344252 101.321482,19.4211515 C102.414963,20.4082109 103.796201,20.901574 105.465309,20.901574 C106.404911,20.901574 107.268185,20.7306791 108.05502,20.3885563 C108.841521,20.0468776 109.522585,19.5434096 110.098101,18.8787074 L111.249244,20.2273221 C110.577513,21.0481505 109.738459,21.6737656 108.731306,22.1033902 C107.724153,22.5335699 106.616229,22.7484377 105.407646,22.7484377 C103.853753,22.7484377 102.476958,22.4113118 101.278374,21.73706 C100.079123,21.0626971 99.1438541,20.1297155 98.472678,18.9374491 C97.8009463,17.7455157 97.4655249,16.3971231 97.4655249,14.891938 C97.4655249,13.3871971 97.786614,12.0386934 98.4294587,10.8463159 C99.0720812,9.65449357 99.9545761,8.72606477 101.076832,8.0613626 C102.199089,7.3973267 103.460335,7.06475353 104.860906,7.06475353 C106.261032,7.06475353 107.517723,7.3973267 108.630536,8.0613626 C109.743015,8.72606477 110.616066,9.64949664 111.249244,10.8317693 C111.882312,12.014375 112.198735,13.3675425 112.198735,14.891938 L112.17007,15.5368745 Z" id="Fill-9" fill="#283049"></path>
                    <path d="M123.682801,20.3006215 C124.507522,19.7632854 125.121591,18.98643 125.524564,17.9700553 L125.524564,15.4489397 L120.776445,15.4489397 C118.186623,15.4489397 116.891823,16.3677078 116.891823,18.2045777 C116.891823,19.1036912 117.227245,19.8123663 117.898865,20.3299368 C118.570153,20.8479514 119.510421,21.1067922 120.719005,21.1067922 C121.870037,21.1067922 122.857747,20.8384017 123.682801,20.3006215 M125.984976,8.57439142 C127.039793,9.58132747 127.567645,11.0712997 127.567645,13.0449743 L127.567645,22.6018724 L125.610891,22.6018724 L125.610891,20.1979069 C125.150367,20.9995248 124.474191,21.6248068 123.582141,22.074197 C122.690092,22.5239203 121.629942,22.7484488 120.402471,22.7484488 C118.714032,22.7484488 117.371013,22.3380347 116.373859,21.5172063 C115.376039,20.696267 114.877406,19.611712 114.877406,18.2630973 C114.877406,16.9540138 115.342374,15.8986631 116.273199,15.0971562 C117.203358,14.2959824 118.685367,13.8951179 120.719005,13.8951179 L125.524564,13.8951179 L125.524564,12.9570284 C125.524564,11.6282903 125.159811,10.6169126 124.430972,9.92300615 C123.7018,9.2295439 122.636984,8.88231308 121.236858,8.88231308 C120.27748,8.88231308 119.356654,9.04354722 118.474381,9.36590445 C117.591886,9.68848377 116.834161,10.1332102 116.201093,10.6998615 L115.280267,9.14615076 C116.047326,8.48189277 116.968151,7.96887506 118.042744,7.6069866 C119.117004,7.24565334 120.248593,7.06476463 121.4384,7.06476463 C123.413931,7.06476463 124.929604,7.56812162 125.984976,8.57439142" id="Fill-11" fill="#283049"></path>
                    <path d="M144.89911,8.75032762 C146.021477,9.87441382 146.58255,11.5109625 146.58255,13.660751 L146.58255,22.6018057 L144.539468,22.6018057 L144.539468,13.865847 C144.539468,12.2636106 144.146051,11.0420288 143.35966,10.2014348 C142.572825,9.36139611 141.450569,8.94087705 139.992892,8.94087705 C138.362004,8.94087705 137.072203,9.43468436 136.122602,10.4212996 C135.173001,11.408359 134.698144,12.7716314 134.698144,14.5107836 L134.698144,22.6018057 L132.655062,22.6018057 L132.655062,7.1819592 L134.611817,7.1819592 L134.611817,10.0255431 C135.168001,9.08745354 135.939948,8.35956803 136.928324,7.84155339 C137.916034,7.32398293 139.062178,7.06469801 140.366977,7.06469801 C142.26618,7.06469801 143.776854,7.62679663 144.89911,8.75032762" id="Fill-13" fill="#283049"></path>
                    <path d="M126.736847,4.41055315 C126.736847,5.07192403 126.210661,5.60792759 125.561483,5.60792759 C124.912306,5.60792759 124.38612,5.07192403 124.38612,4.41055315 C124.38612,3.74929331 124.912306,3.2131787 125.561483,3.2131787 C126.210661,3.2131787 126.736847,3.74929331 126.736847,4.41055315" id="Fill-15" fill="#C1E266"></path>
                    <path d="M118.97848,4.41055315 C118.97848,5.07192403 118.452294,5.60792759 117.803116,5.60792759 C117.153939,5.60792759 116.627753,5.07192403 116.627753,4.41055315 C116.627753,3.74929331 117.153939,3.2131787 117.803116,3.2131787 C118.452294,3.2131787 118.97848,3.74929331 118.97848,4.41055315" id="Fill-17" fill="#C1E266"></path>
                    <g id="Group-23" transform="translate(0.000000, 0.077064)">
                        <mask id="mask-2" fill="white">
                            <use xlink:href="#path-1"></use>
                        </mask>
                        <g id="Clip-22"></g>
                        <path d="M15.6485581,1.75163345 C7.96753029,1.75163345 1.71851525,7.99712435 1.71851525,15.6740679 C1.71851525,23.3509004 7.96753029,29.5963913 15.6485581,29.5963913 C23.3296969,29.5963913 29.5786009,23.3509004 29.5786009,15.6740679 C29.5786009,7.99712435 23.3296969,1.75163345 15.6485581,1.75163345 M15.6485581,31.3141123 C7.01992874,31.3141123 -3.3331043e-05,24.2979844 -3.3331043e-05,15.6740679 C-3.3331043e-05,7.0501514 7.01992874,0.0339124693 15.6485581,0.0339124693 C24.2771874,0.0339124693 31.2972605,7.0501514 31.2972605,15.6740679 C31.2972605,24.2979844 24.2771874,31.3141123 15.6485581,31.3141123" id="Fill-21" fill="#C1E266" mask="url(#mask-2)"></path>
                    </g>
                    <path d="M24.4044675,7.29170279 C22.3718294,8.17438196 20.0839866,11.2588176 19.765564,13.7872621 C20.2567525,13.3354289 20.7381639,12.8925903 21.2297968,12.440424 C20.6858341,14.2727412 20.356079,16.0936209 20.1050963,17.6434452 C20.1027631,17.6578807 20.1008743,17.6725384 20.0990967,17.687085 C20.0977634,17.6979672 20.0965413,17.7088494 20.0946525,17.7192874 C19.9533289,18.5219047 19.7237891,18.7185615 18.9336212,18.7097891 C18.3913251,18.7052364 17.7960327,18.6662603 17.0600833,18.5868647 C16.609892,18.538339 16.4184607,18.3330209 16.3993509,17.8777455 C16.375797,17.3184229 16.3762414,16.7465525 16.3767969,16.1934484 L16.3767969,15.7779262 C16.3749081,14.6414032 16.3751303,13.5049913 16.3753526,12.3685793 L16.3754637,10.7716729 C16.7972125,11.3364366 17.2189613,11.9010892 17.6408212,12.4658528 C17.5414946,9.63603826 17.0160863,6.91793275 15.6185157,4.32963626 L15.6101829,4.32963626 C14.2126123,6.91793275 13.6872039,9.63603826 13.5878774,12.4658528 C14.0301804,11.8736616 14.4724833,11.2813593 14.9147863,10.6891681 L14.9150085,12.3122806 C14.9152307,13.4674588 14.9154529,14.6228591 14.9135641,15.7779262 L14.9135641,16.1934484 C14.9140085,16.7465525 14.9144529,17.3184229 14.8910101,17.8779675 C14.8717892,18.3330209 14.6803579,18.538339 14.2301666,18.5868647 C13.4942172,18.6662603 12.8989248,18.7052364 12.3567398,18.7097891 C11.5594613,18.7166738 11.336921,18.5219047 11.1955974,17.7193984 C11.1938197,17.7088494 11.1924865,17.6979672 11.1911532,17.687085 C11.1894867,17.6725384 11.1875979,17.6578807 11.1852647,17.6436673 C10.935393,16.1001724 10.6073045,14.2883982 10.067786,12.4648534 C10.5593078,12.9167976 11.0404969,13.3595252 11.5315743,13.8112473 C11.2131517,11.2825808 8.92530893,8.1983672 6.89267082,7.31568803 C6.92233545,7.3970824 6.94555607,7.46004367 6.96822118,7.52300493 C7.52240532,9.07127461 8.06336815,10.6225424 8.52444758,12.1932428 L8.524892,12.1931317 L8.58088815,12.3836811 C9.36705635,15.0615892 9.7808057,17.3297493 9.88268758,19.5221782 C9.91779628,20.2758256 10.3251016,20.6525938 11.1281576,20.6742472 L11.2833691,20.6783558 C11.7388934,20.6902373 12.2100832,20.7025631 12.6666074,20.7479796 C13.7793087,20.8585782 14.3981551,21.379591 14.6733584,22.4376068 C14.7926835,22.8967687 14.858679,23.4027907 14.864012,23.9007066 C14.8797887,25.3603641 14.8773444,24.3694182 14.8749001,25.8054236 L14.8733447,26.8447842 C14.8731224,27.0507686 14.9533392,27.2446493 15.099218,27.3905595 C15.2450969,27.5362477 15.4389725,27.6165316 15.6451805,27.6165316 C15.8513886,27.6165316 16.0452641,27.5362477 16.191143,27.3905595 C16.3370219,27.2446493 16.4171275,27.0507686 16.4170164,26.8446732 L16.4154609,25.8054236 C16.4130166,24.3694182 16.4104613,25.3603641 16.4262379,23.9007066 C16.431682,23.4027907 16.4975664,22.8967687 16.6168915,22.4376068 C16.8920948,21.379591 17.5110523,20.8585782 18.6236425,20.7479796 C19.0802778,20.7025631 19.5512454,20.6902373 20.0067697,20.6783558 L20.1620924,20.6742472 C20.9651483,20.6525938 21.3725647,20.2758256 21.4075623,19.5221782 C21.5104441,17.310983 21.931193,15.0186156 22.7316936,12.30795 L22.7958003,12.0910834 L22.7958003,12.0910834 C23.2517689,10.5470333 23.7839546,9.02163848 24.3290282,7.49901969 C24.3515823,7.43605842 24.3746918,7.37309716 24.4044675,7.29170279" id="Fill-19" fill="#283049"></path>
                </g>
            </g>
        </g>
    </g>
</svg>
