<svg xmlns="http://www.w3.org/2000/svg" xmlns:xlink="http://www.w3.org/1999/xlink" width="22px" height="22px" viewBox="0 0 22 22" version="1.1">
  <g id="ATG-Release-Detection" stroke="none" stroke-width="1" fill="none" fill-rule="evenodd">
    <g id="ATG-Release-detection" transform="translate(-1175.000000, -442.000000)" fill="#616674">
      <g id="Group-2" transform="translate(1082.000000, 437.000000)">
        <g id="Button-/-Symbol-S-/-Base" transform="translate(88.000000, 0.000000)">
          <g id="download" transform="translate(5.714286, 5.714286)">
            <g id="Icon-/-ATG-command-center" transform="translate(0.000000, -0.000000)">
              <path d="M10.2857143,1.14285714 C11.7289796,1.14285714 12.8979592,2.28226553 12.8979592,3.68902114 C12.8979592,4.87614917 12.0654966,5.87289187 10.9382356,6.15518605 L10.9389891,8.84498963 C12.3255833,9.11916401 13.392501,10.2490723 13.5348493,11.6451234 L14.3941971,11.6448183 C14.7817722,10.7120055 15.7199016,10.0544311 16.8163265,10.0544311 C18.2595918,10.0544311 19.4285714,11.1938395 19.4285714,12.6005951 C19.4285714,14.0073508 18.2595918,15.1467591 16.8163265,15.1467591 C15.4962581,15.1467591 14.4056479,14.193568 14.2290778,12.95445 L13.3899933,12.9544184 C13.0391031,14.0007836 12.1471291,14.8080316 11.0359344,15.0624416 L11.0874255,15.8628247 C11.2915922,15.9573206 11.4732498,16.1047381 11.6087924,16.3006049 C12.012167,16.8835043 11.8543697,17.6747655 11.2563422,18.0679361 C10.6583147,18.4611067 9.84651788,18.3073012 9.44314323,17.7244017 C9.03976859,17.1415023 9.19756591,16.3502411 9.79559341,15.9570705 C9.80013129,15.9540871 9.80468148,15.9511352 9.8092437,15.9482147 L9.75400066,15.1048201 C8.89601954,14.9680034 8.15075664,14.5055288 7.65606322,13.8517604 L6.27416886,14.4700337 C6.33490903,14.6855029 6.36734694,14.9124217 6.36734694,15.1467591 C6.36734694,16.5535148 5.19836735,17.6929231 3.75510204,17.6929231 C2.31183673,17.6929231 1.14285714,16.5535148 1.14285714,15.1467591 C1.14285714,13.7400035 2.31183673,12.6005951 3.75510204,12.6005951 C4.48488298,12.6005951 5.14453521,12.8919164 5.61839064,13.3618167 L7.10705956,12.6958999 C7.05038748,12.4609432 7.02040816,12.2159268 7.02040816,11.9640541 C7.02040816,11.6237575 7.07513181,11.2959762 7.17647376,10.9886105 L6.37079603,10.5187049 C6.1779054,10.6282317 5.95361262,10.6909721 5.71428571,10.6909721 C4.9929342,10.6909721 4.40816327,10.1209939 4.40816327,9.41789014 C4.40816327,8.71478637 4.9929342,8.14480814 5.71428571,8.14480814 C6.43563722,8.14480814 7.02040816,8.71478637 7.02040816,9.41789014 L7.01985714,9.41285714 L7.81847604,9.87862588 C8.28107002,9.35906738 8.91363664,8.98721201 9.63203827,8.845069 L9.63224526,6.15494854 C8.50546546,5.87233317 7.67346939,4.87581647 7.67346939,3.68902114 C7.67346939,2.28226553 8.84244898,1.14285714 10.2857143,1.14285714 Z" id="Combined-Shape" />
            </g>
          </g>
        </g>
      </g>
    </g>
  </g>
</svg>
