<svg xmlns="http://www.w3.org/2000/svg" xmlns:xlink="http://www.w3.org/1999/xlink" width="18px" height="18px" viewBox="0 0 18 18" version="1.1">
  <g id="E-cabinet" stroke="none" stroke-width="1" fill="none" fill-rule="evenodd">
    <g id="E-cabinet-Home---Rename---dropdown" transform="translate(-1281.000000, -584.000000)">
      <g id="Group-23" transform="translate(1265.000000, 542.000000)">
        <g id="Icon-/-Move" transform="translate(16.000000, 42.000000)">
          <g id="Icon-/-Download-file" fill="#D8D8D8" opacity="0">
            <rect id="Rectangle" x="0" y="0" width="18" height="18" />
          </g>
          <g id="folder_open_black_24dp" transform="translate(1.500000, 3.000000)" fill="#616674">
            <path d="M6,0 L7.5,1.5 L13.5,1.5 C14.325,1.5 15,2.175 15,3 L15,3 L15,10.5 C15,11.325 14.325,12 13.5,12 L13.5,12 L1.5,12 C0.675,12 0,11.325 0,10.5 L0,10.5 L0.0075,1.5 C0.0075,0.675 0.675,0 1.5,0 L1.5,0 L6,0 Z M13.5,3 L1.5,3 L1.5,10.5 L13.5,10.5 L13.5,3 Z M8.25425,4.02805047 C8.35866667,3.9774251 8.48116667,3.99617524 8.56691667,4.07742583 L8.56691667,4.07742583 L10.90025,6.26494176 C10.96325,6.32431719 11,6.40994282 11,6.49994347 C11,6.58994413 10.9638333,6.67556975 10.90025,6.73494518 L10.90025,6.73494518 L8.56691667,8.92246112 C8.48058333,9.0030867 8.35866667,9.02308685 8.25425,8.97183648 C8.15041667,8.92121111 8.08333333,8.8099603 8.08333333,8.68745941 L8.08333333,8.68745941 L8.08333333,7.4374503 L4.29166667,7.4374503 C4.13066667,7.4374503 4,7.29744928 4,7.12494802 L4,7.12494802 L4,5.87493892 C4,5.70243766 4.13066667,5.56243664 4.29166667,5.56243664 L4.29166667,5.56243664 L8.08333333,5.56243664 L8.08333333,4.31242754 C8.08333333,4.18992665 8.14983333,4.07867584 8.25425,4.02805047 Z" id="Combined-Shape" />
          </g>
        </g>
      </g>
    </g>
  </g>
</svg>
