<?xml version="1.0" encoding="UTF-8"?>
<svg width="24px" height="24px" viewBox="0 0 24 24" version="1.1" xmlns="http://www.w3.org/2000/svg" xmlns:xlink="http://www.w3.org/1999/xlink">
    <g id="Work-Orders" stroke="none" stroke-width="1" fill="none" fill-rule="evenodd">
        <g id="Work-order---Project-Manager" transform="translate(-165.000000, -165.000000)">
            <g id="Elements-/-Select-User-role" transform="translate(149.000000, 158.000000)">
                <g id="Group-2" transform="translate(16.000000, 7.000000)">
                    <polygon id="Path" points="0 0 24 0 24 24 0 24"></polygon>
                    <path d="M11,11 C13.21,11 15,9.21 15,7 C15,4.79 13.21,3 11,3 C8.79,3 7,4.79 7,7 C7,9.21 8.79,11 11,11 Z M12,13 C11.6021034,13 11.3012509,13 11,13 C10.5788871,13 10.091605,13.0333334 9.5695015,13.0999217 C9.21803523,13.1447472 8.85078923,13.2046425 8.47732641,13.2795838 C5.88807731,13.7991582 3,15.041956 3,17 L3,18 C3,18.55 3.45,19 4,19 C5.71031156,19 6.86543394,19 7.46536716,19 C8.39811914,19 9.05667386,19 9.44103133,19 C9.71401406,19 9.94745287,19 10.1413477,19 C10.4132259,19 10.400193,19 10.6358632,19 L10.6358632,15.0451446 C10.6358632,14.5020901 10.6358632,14.0696929 10.6358632,13.7479531 C10.6358632,13.4123235 11.0905755,13.1630058 12,13 Z" id="Shape" fill="#616674"></path>
                    <g id="folder-open-(1)-copy" transform="translate(12.000000, 13.000000)" fill="#616674">
                        <path d="M8.81659595,8 L1.03724658,8 C0.461574729,8 0,7.55 0,7 L0,1 C0,0.445 0.461574729,0 1.03724658,0 L4.14898633,0 L5.18623291,1 L8.81659595,1 C9.38945141,1 9.85384253,1.44771525 9.85384253,2 L9.85384253,2 L1.03724658,2 L1.03724658,7 L2.14710042,3 L11,3 L9.8175389,7.25 C9.69825554,7.685 9.29372937,8 8.81659595,8 Z" id="Path"></path>
                    </g>
                </g>
            </g>
        </g>
    </g>
</svg>
