<svg
  xmlns="http://www.w3.org/2000/svg"
  width="18px"
  height="18px"
  viewBox="0 0 18 18"
  version="1.1"
>
  <g
    id="Facility-Profile"
    stroke="none"
    stroke-width="1"
    fill="none"
    fill-rule="evenodd"
  >
    <g
      id="Facility-profile---REDESIGN----Tags-new-option"
      transform="translate(-1290.000000, -94.000000)"
      fill="#616674"
      fill-rule="nonzero"
    >
      <g id="Navigation-/-Subnavigation" transform="translate(-1.000000, 72.000000)">
        <g id="Question-fill-22" transform="translate(1291.000000, 22.000000)">
          <path
            d="M9,0 C7.2199693,0 5.47991528,0.527845689 3.99987697,1.51677342 C2.5198286,2.50571122 1.36627762,3.91131259 0.685087006,5.55585331 C0.00389639429,7.20038395 -0.17433133,9.00997085 0.172940341,10.7557949 C0.520201942,12.501619 1.37737468,14.1052557 2.63604568,15.3639972 C3.89471667,16.622638 5.4983634,17.4797906 7.24418749,17.8271025 C8.99003172,18.1743138 10.7995985,17.996076 12.4441191,17.3149458 C14.0887403,16.6337149 15.4943014,15.4802042 16.4832694,14.0001256 C17.4721367,12.520047 18,10.7800635 18,9 C17.9972837,6.61388091 17.0481926,4.32626428 15.3609755,2.63902705 C13.6737584,0.951779752 11.386172,0.00269874174 9,0 Z M10.038513,13.8464584 C10.038513,14.1219718 9.92905287,14.3861061 9.73430038,14.5808586 C9.5394472,14.7756111 9.27531289,14.8849705 8.99979955,14.8849705 C8.72438691,14.8849705 8.4602526,14.7755104 8.26550012,14.5807579 C8.07074764,14.3859047 7.96128748,14.1217704 7.96128748,13.8463577 C7.96128748,13.5708444 8.07074764,13.3067101 8.26550012,13.1119576 C8.4602526,12.9171044 8.72438691,12.807745 8.99979955,12.8076443 C9.27531289,12.8076443 9.5394472,12.9171044 9.73430038,13.1118569 C9.92905287,13.3065087 10.038513,13.5707437 10.038513,13.8461563 L10.038513,13.8464584 Z M11.4478,10.063185 C10.9687733,10.5446285 10.3579313,10.8734117 9.69230877,11.0081474 L9.69230877,11.0769251 C9.69230877,11.2604999 9.61940246,11.436623 9.48950034,11.5664245 C9.35969892,11.6963266 9.18357581,11.7692329 9.00000095,11.7692329 C8.81642609,11.7692329 8.64030298,11.6963266 8.51050156,11.5664245 C8.38059944,11.436623 8.30769313,11.2604999 8.30769313,11.0769251 L8.30769313,10.3846173 C8.30769313,10.2010424 8.38070014,10.0249193 8.51050156,9.89511786 C8.64030298,9.76521574 8.81642609,9.69230944 9.00000095,9.69230944 C9.41075347,9.69230944 9.81224166,9.57046326 10.1538137,9.3422786 C10.4952851,9.11409395 10.7614334,8.78974144 10.9186251,8.41020571 C11.0758167,8.03077068 11.1170027,7.61315046 11.0368461,7.21029277 C10.9566894,6.80744514 10.758916,6.43739528 10.4683984,6.14695831 C10.1779816,5.85651126 9.80791159,5.65871766 9.40511431,5.57858114 C9.00221634,5.49844463 8.58471696,5.53956016 8.20518123,5.69674172 C7.82570591,5.85391322 7.50134334,6.12009173 7.27312847,6.4616034 C7.04492368,6.80312514 6.92310771,7.20463346 6.92308757,7.61538599 C6.92308757,7.79900112 6.85014098,7.97509402 6.72030935,8.10488537 C6.59047772,8.2347875 6.41438482,8.3076938 6.23077975,8.3076938 C6.04716461,8.3076938 5.87107172,8.2347875 5.74124008,8.10488537 C5.61140845,7.97509402 5.53847194,7.79900112 5.53847194,7.61538599 C5.53847194,7.04614281 5.67890721,6.48569068 5.94726082,5.98367436 C6.21561444,5.48165805 6.60363912,5.05356511 7.07695613,4.73732896 C7.55026307,4.42108275 8.09431128,4.22645111 8.66074495,4.17066369 C9.22727931,4.11487627 9.79874795,4.19966509 10.3247005,4.41750793 C10.850653,4.63535076 11.3146755,4.9795209 11.6757833,5.41955678 C12.036891,5.85958259 12.2840071,6.38187975 12.3949778,6.94018698 C12.5060491,7.49848415 12.4777526,8.07558187 12.312505,8.62026449 C12.1472575,9.1650478 11.8502952,9.66058915 11.4478,10.063185 Z"
            id="Shape"
          />
        </g>
      </g>
    </g>
  </g>
</svg>
