<svg xmlns="http://www.w3.org/2000/svg" width="20" height="20" viewBox="0 0 20 20">
  <g fill="none" fill-rule="evenodd">
    <polygon points="0 0 20 0 20 20 0 20"/>
    <path fill="#3A4669" d="M10,5 L10,6.49166667 C10,6.86666667 10.45,7.05 10.7083333,6.78333333 L13.0333333,4.45833333 C13.2,4.29166667 13.2,4.03333333 13.0333333,3.86666667 L10.7083333,1.54166667 C10.45,1.28333333 10,1.46666667 10,1.84166667 L10,3.33333333 C6.31666667,3.33333333 3.33333333,6.31666667 3.33333333,10 C3.33333333,10.8666667 3.5,11.7 3.80833333,12.4583333 C4.03333333,13.0166667 4.75,13.1666667 5.175,12.7416667 C5.4,12.5166667 5.49166667,12.175 5.36666667,11.875 C5.125,11.3 5,10.6583333 5,10 C5,7.24166667 7.24166667,5 10,5 Z M14.825,7.25833333 C14.6,7.48333333 14.5083333,7.83333333 14.6333333,8.125 C14.8666667,8.70833333 15,9.34166667 15,10 C15,12.7583333 12.7583333,15 10,15 L10,13.5083333 C10,13.1333333 9.55,12.95 9.29166667,13.2166667 L6.96666667,15.5416667 C6.8,15.7083333 6.8,15.9666667 6.96666667,16.1333333 L9.29166667,18.4583333 C9.55,18.7166667 10,18.5333333 10,18.1666667 L10,16.6666667 C13.6833333,16.6666667 16.6666667,13.6833333 16.6666667,10 C16.6666667,9.13333333 16.5,8.3 16.1916667,7.54166667 C15.9666667,6.98333333 15.25,6.83333333 14.825,7.25833333 Z"/>
  </g>
</svg>
