<svg xmlns="http://www.w3.org/2000/svg" width="18" height="18" viewBox="0 0 18 18">
    <defs>
        <filter id="zk7f1k129a">
            <feColorMatrix in="SourceGraphic" values="0 0 0 0 0.227451 0 0 0 0 0.274510 0 0 0 0 0.411765 0 0 0 1.000000 0"/>
        </filter>
    </defs>
    <g fill="none" fill-rule="evenodd" filter="url(#zk7f1k129a)">
        <path fill="#000" fill-rule="nonzero" d="M9 15.4c-3.528 0-6.4-2.872-6.4-6.4 0-3.528 2.872-6.4 6.4-6.4 3.528 0 6.4 2.872 6.4 6.4 0 3.528-2.872 6.4-6.4 6.4M9 1C4.576 1 1 4.576 1 9c0 4.424 3.576 8 8 8 4.424 0 8-3.576 8-8 0-4.424-3.576-8-8-8m2.072 4.8L9 7.872 6.928 5.8 5.8 6.928 7.872 9 5.8 11.072 6.928 12.2 9 10.128l2.072 2.072 1.128-1.128L10.128 9 12.2 6.928 11.072 5.8z"/>
    </g>
</svg>
