<svg xmlns="http://www.w3.org/2000/svg" width="18" height="18" viewBox="0 0 18 18">
    <g fill="none" fill-rule="evenodd">
        <path d="M0 0L18 0 18 18 0 18z"/>
        <path fill="#3A4669" fill-rule="nonzero" d="M13.5 15H3V4.5h6.75V3H3c-.825 0-1.5.675-1.5 1.5V15c0 .825.675 1.5 1.5 1.5h10.5c.825 0 1.5-.675 1.5-1.5V8.25h-1.5V15zm-5.843-2.377l-1.47-1.77L4.126 13.5h8.25L9.72 9.967l-2.063 2.655zM15 3V.75h-1.5V3h-2.25c.008.007 0 1.5 0 1.5h2.25v2.242c.008.008 1.5 0 1.5 0V4.5h2.25V3H15z"/>
    </g>
</svg>
