<svg xmlns="http://www.w3.org/2000/svg" width="25" height="23" viewBox="0 0 25 23">
    <g fill="none" fill-rule="evenodd">
        <path fill="#3A4669" d="M11.5 5.719c.523 0 .947.424.947.947 0 .523-.424.947-.947.947-.522 0-.946-.424-.946-.947 0-.523.424-.947.946-.947m0-.631c-.871 0-1.578.706-1.578 1.578 0 .87.707 1.578 1.578 1.578.872 0 1.578-.707 1.578-1.578 0-.872-.706-1.578-1.578-1.578M8.976 4.14h.946l.632-.631h1.893l.63.63h.948c.349 0 .63.284.63.632V8.56c0 .348-.281.63-.63.63h-5.05c-.348 0-.631-.282-.631-.63V4.772c0-.348.283-.631.632-.631" transform="translate(1 1)"/>
        <path stroke="#3A4669" stroke-linejoin="round" stroke-width="1.2" d="M12.753 13.44L20.007 13.44 22.5 20.202 0.5 20.202 2.993 13.44 10.136 13.44" transform="translate(1 1)"/>
        <path stroke="#3A4669" stroke-linejoin="round" d="M6.159 13.44L9.966 18.633M5.233 20.202L20.62 15.102M16.387 16.505L19.13 20.202" transform="translate(1 1)"/>
        <path stroke="#3A4669" stroke-linejoin="round" stroke-width="1.2" d="M11.5.5c2.842 0 5.154 2.312 5.154 5.154 0 3.95-4.102 8.078-5.154 9.07-.106-.1-.247-.236-.41-.4-.035-.067-.09-.122-.157-.157-1.507-1.534-4.586-5.088-4.586-8.513C6.347 2.812 8.657.5 11.5.5z" transform="translate(1 1)"/>
    </g>
</svg>
