<svg xmlns="http://www.w3.org/2000/svg" width="18" height="18" viewBox="0 0 18 18">
    <path fill="#616674" fill-rule="evenodd" d="M13.667 12.602c-.591 0-1.12.226-1.525.58l-5.545-3.125c.039-.173.07-.346.07-.527 0-.18-.031-.354-.07-.527l5.483-3.095c.42.377.972.61 1.587.61C14.957 6.518 16 5.51 16 4.26S14.958 2 13.667 2c-1.291 0-2.334 1.009-2.334 2.259 0 .18.031.354.07.527L5.92 7.881c-.42-.376-.972-.61-1.587-.61C3.043 7.271 2 8.281 2 9.531c0 1.25 1.042 2.258 2.333 2.258.615 0 1.167-.233 1.587-.61l5.538 3.133c-.04.158-.062.324-.062.49 0 1.212 1.018 2.198 2.27 2.198 1.253 0 2.272-.986 2.272-2.199 0-1.212-1.02-2.199-2.271-2.199z"/>
</svg>
