<svg xmlns="http://www.w3.org/2000/svg" width="16" height="16" viewBox="0 0 16 16">
    <g fill="none" fill-rule="evenodd">
        <path d="M0 0L16 0 16 16 0 16z"/>
        <path fill="#A4A8B1" d="M11 8c.92 0 1.66-.747 1.66-1.667S11.92 4.667 11 4.667c-.92 0-1.667.746-1.667 1.666C9.333 7.253 10.08 8 11 8zm-5-.667c1.107 0 1.993-.893 1.993-2 0-1.106-.886-2-1.993-2-1.107 0-2 .894-2 2 0 1.107.893 2 2 2zm5 2c-1.22 0-3.667.614-3.667 1.834v1.5h7.334v-1.5c0-1.22-2.447-1.834-3.667-1.834zm-5-.666c-1.553 0-4.667.78-4.667 2.333v1.667H6v-1.5c0-.567.22-1.56 1.58-2.314C7 8.733 6.44 8.667 6 8.667z"/>
    </g>
</svg>
