<?xml version="1.0" encoding="UTF-8"?>
<svg width="22px" height="22px" viewBox="0 0 22 22" version="1.1" xmlns="http://www.w3.org/2000/svg" xmlns:xlink="http://www.w3.org/1999/xlink">
    <g id="All-Inspections" stroke="none" stroke-width="1" fill="none" fill-rule="evenodd">
        <g id="All-Inspections-All-Sites-View-in-list-Datepicker-2" transform="translate(-1305.000000, -609.000000)">
            <g id="Group-4-Copy" transform="translate(174.000000, 604.000000)">
                <g id="Button-/-Symbol-Small-/-Base" transform="translate(1126.000000, 0.000000)">
                    <g id="Icons-/-View-Profile" transform="translate(5.714286, 5.714286)">
                        <polygon id="Path" points="0 0 20.5714286 0 20.5714286 20.5714286 0 20.5714286"></polygon>
                        <path d="M17.3022778,6.3136194 L17.3118,6.30409717 L14.2742073,3.26650442 C13.9980625,2.99035963 13.5409952,2.99035963 13.2648505,3.26650442 C12.9887057,3.54264922 12.9887057,3.99971646 13.2648505,4.27586126 L14.7693635,5.78037428 C13.7695289,6.16126365 13.0934502,7.18014273 13.2648505,8.36089978 C13.4172062,9.40834556 14.3122962,10.2558244 15.359742,10.3700912 C15.807287,10.4177024 16.1976986,10.3415245 16.5690658,10.1796465 L16.5690658,17.0451775 C16.5690658,17.5689004 16.1405652,17.9974009 15.6168423,17.9974009 C15.0931194,17.9974009 14.6646189,17.5689004 14.6646189,17.0451775 L14.6646189,12.760172 C14.6646189,11.7127263 13.8076178,10.8557252 12.760172,10.8557252 L11.8079486,10.8557252 L11.8079486,4.19016115 C11.8079486,3.14271537 10.9509475,2.28571429 9.90350174,2.28571429 L4.19016115,2.28571429 C3.14271537,2.28571429 2.28571429,3.14271537 2.28571429,4.19016115 L2.28571429,18.4735126 C2.28571429,18.9972355 2.71421483,19.4257361 3.23793772,19.4257361 L10.8557252,19.4257361 C11.3794481,19.4257361 11.8079486,18.9972355 11.8079486,18.4735126 L11.8079486,12.2840603 L13.2362838,12.2840603 L13.2362838,16.9118662 C13.2362838,18.1592789 14.1313738,19.2924248 15.3692642,19.4162138 C16.7975994,19.5590473 17.9974009,18.4449459 17.9974009,17.0451775 L17.9974009,7.99905488 C17.9974009,7.34202071 17.7307783,6.74211995 17.3022778,6.3136194 Z M9.90350174,8.95127831 L4.19016115,8.95127831 L4.19016115,5.14238458 C4.19016115,4.61866169 4.61866169,4.19016115 5.14238458,4.19016115 L8.95127831,4.19016115 C9.4750012,4.19016115 9.90350174,4.61866169 9.90350174,5.14238458 L9.90350174,8.95127831 Z M15.6168423,8.95127831 C15.0931194,8.95127831 14.6646189,8.52277776 14.6646189,7.99905488 C14.6646189,7.47533199 15.0931194,7.04683144 15.6168423,7.04683144 C16.1405652,7.04683144 16.5690658,7.47533199 16.5690658,7.99905488 C16.5690658,8.52277776 16.1405652,8.95127831 15.6168423,8.95127831 Z" id="Shape" fill="#616674"></path>
                    </g>
                </g>
            </g>
        </g>
    </g>
</svg>