<?xml version="1.0" encoding="UTF-8"?>
<svg width="24px" height="24px" viewBox="0 0 24 24" version="1.1" xmlns="http://www.w3.org/2000/svg" xmlns:xlink="http://www.w3.org/1999/xlink">
    <title>BAB5A274-DD8D-42F7-8D53-D23ABA5DB4B0</title>
    <g id="Facility-Profile" stroke="none" stroke-width="1" fill="none" fill-rule="evenodd">
        <g id="Facility-profile---REDESIGN----Tags-new-option" transform="translate(-518.000000, -486.000000)">
            <g id="Group-12" transform="translate(174.000000, 475.000000)">
                <g id="Icon-/-Left-Nav-/-24-/-Remote-monitoring" transform="translate(344.000000, 11.000000)">
                    <polygon id="Path" points="0 0 24 0 24 24 0 24"></polygon>
                    <path d="M12,21.5 C6.75125,21.5 2.5,17.24875 2.5,12 C2.5,6.75125 6.75125,2.5 12,2.5 C17.24875,2.5 21.5,6.75125 21.5,12 C21.5,17.24875 17.24875,21.5 12,21.5 Z M12,4.28125 C7.7546875,4.28125 4.28125,7.7546875 4.28125,12 C4.28125,16.2453125 7.7546875,19.71875 12,19.71875 C16.2453125,19.71875 19.71875,16.2453125 19.71875,12 C19.71875,7.7546875 16.2453125,4.28125 12,4.28125 Z M18.8176471,12 C18.8176471,15.76675 15.76675,18.8176471 12,18.8176471 C8.23325,18.8176471 5.18235294,15.76675 5.18235294,12" id="Combined-Shape" fill="#A4A8B1"></path>
                </g>
            </g>
        </g>
    </g>
</svg>