<?xml version="1.0" encoding="UTF-8"?>
<svg width="24px" height="24px" viewBox="0 0 24 24" version="1.1" xmlns="http://www.w3.org/2000/svg" xmlns:xlink="http://www.w3.org/1999/xlink">
    <title>BD36E028-4F0A-442C-B3A6-1EBBE3E72642</title>
    <g id="Facility-Profile" stroke="none" stroke-width="1" fill="none" fill-rule="evenodd">
        <g id="Facility-profile---REDESIGN----Tags-new-option" transform="translate(-692.000000, -486.000000)">
            <g id="Group-12" transform="translate(174.000000, 475.000000)">
                <g id="Icon-/-Left-Nav-/-24-/-Contractors" transform="translate(518.000000, 11.000000)">
                    <polygon id="Path" points="0 0 24 0 24 24 0 24"></polygon>
                    <g id="Group-7-Copy-2" transform="translate(3.000000, 1.000000)">
                        <path d="M8.91640867,14.374613 C11.2025719,14.374613 13.275877,14.8250127 14.7747678,15.5744582 C15.455497,15.9148227 16.0124933,16.3122728 16.3876168,16.7652635 C16.6599161,17.094086 16.8328173,17.4496339 16.8328173,17.8328173 L16.8328173,20.0619195 L1.11455108,20.1764706 L1,17.8328173 C1,17.4496339 1.17290122,17.094086 1.44520049,16.7652635 C1.82032404,16.3122728 2.37732032,15.9148227 3.05804951,15.5744582 C4.55694034,14.8250127 6.63024547,14.374613 8.91640867,14.374613 Z" id="Path" stroke="#A4A8B1" stroke-width="2"></path>
                        <path d="M4.45820433,6.6873065 C4.45820433,9.14950477 6.4542104,11.1455108 8.91640867,11.1455108 C11.3786069,11.1455108 13.374613,9.14950477 13.374613,6.6873065" id="Path" stroke="#A4A8B1" stroke-width="2"></path>
                        <path d="M8.35913313,0 C8.0247678,0 7.80185759,0.234055728 7.80185759,0.557275542 L7.80185759,3.90092879 L6.6873065,3.90092879 L6.6873065,1.11455108 C6.6873065,1.11455108 4.17956656,2.07306502 4.17956656,5.29411765 C4.17956656,5.29411765 3.34365325,5.4501548 3.34365325,6.6873065 L14.4891641,6.6873065 C14.4334365,5.4501548 13.6532508,5.29411765 13.6532508,5.29411765 C13.6532508,2.07306502 11.1455108,1.11455108 11.1455108,1.11455108 L11.1455108,3.90092879 L10.0309598,3.90092879 L10.0309598,0.557275542 C10.0309598,0.234055728 9.81919505,0 9.47368421,0 L8.35913313,0 Z" id="Path" fill="#A4A8B1"></path>
                    </g>
                </g>
            </g>
        </g>
    </g>
</svg>