<?xml version="1.0" encoding="UTF-8"?>
<svg width="22px" height="22px" viewBox="0 0 22 22" version="1.1" xmlns="http://www.w3.org/2000/svg" xmlns:xlink="http://www.w3.org/1999/xlink">
    <g id="Vendors" stroke="none" stroke-width="1" fill="none" fill-rule="evenodd">
        <g id="Vendors-page" transform="translate(-1217.000000, -445.000000)" fill="#616674">
            <g id="Group-3" transform="translate(174.000000, 396.000000)">
                <g id="Group" transform="translate(0.000000, 44.000000)">
                    <g id="Group-6-Copy-2" transform="translate(882.000000, 0.000000)">
                        <g id="Button-/-Symbol-S-/-Base" transform="translate(156.000000, 0.000000)">
                            <g id="download" transform="translate(5.714286, 5.714286)">
                                <g id="trash-can-(1)" transform="translate(4.285714, 3.428571)">
                                    <path d="M3.75,0 L3.75,0.75 L0,0.75 L0,2.25 L0.75,2.25 L0.75,12 C0.75,12.8284271 1.42157288,13.5 2.25,13.5 L9.75,13.5 C10.5784271,13.5 11.25,12.8284271 11.25,12 L11.25,2.25 L12,2.25 L12,0.75 L8.25,0.75 L8.25,0 L3.75,0 M3.75,3.75 L5.25,3.75 L5.25,10.5 L3.75,10.5 L3.75,3.75 M6.75,3.75 L8.25,3.75 L8.25,10.5 L6.75,10.5 L6.75,3.75 Z" id="Shape"></path>
                                </g>
                            </g>
                        </g>
                    </g>
                </g>
            </g>
        </g>
    </g>
</svg>
