<svg width="32" height="32" viewBox="0 0 32 32" xmlns="http://www.w3.org/2000/svg">
    <g fill="none" fill-rule="evenodd">
        <rect fill="#F7F9FA" width="32" height="32" rx="4"/>
        <path d="M5.714 5.714h20.572v20.572H5.714z"/>
        <path d="M7.211 12.51a.698.698 0 0 1 0-1.397l.669-.001v-.523A1.339 1.339 0 0 1 9.22 9.25h12.165c.386 0 .698.313.698.698v.582h2.71a1.34 1.34 0 0 1 1.243.842l1.114 2.785.018.048.01.033.017.068.005.036.006.058v5.153a1.338 1.338 0 0 1-1.34 1.339h-.996a2.62 2.62 0 0 1-5.05 0h-4.554a2.62 2.62 0 0 1-5.05 0h-.997a1.338 1.338 0 0 1-1.338-1.34l-.001-5.18H5.348a.698.698 0 1 1 0-1.397h4.834a.698.698 0 0 1 0 1.397h-.905v1.28h11.409v-5.005H9.278l-.001.465h2.768a.698.698 0 0 1 0 1.398H7.21zm15.134 6.46a1.222 1.222 0 1 0 0 2.445 1.222 1.222 0 0 0 0-2.444zm-9.604 0a1.222 1.222 0 1 0 0 2.445 1.222 1.222 0 0 0 0-2.444zm7.945-1.921H9.277v2.446l.939-.001a2.62 2.62 0 0 1 5.05 0h4.554c.146-.528.454-.99.866-1.328V17.05zm5.123-1.92h-3.726v2.458a2.62 2.62 0 0 1 2.788 1.907h.938V15.13zm-1.056-3.201h-2.67v1.804h3.391l-.72-1.804z" fill="#A4A8B1" fill-rule="nonzero"/>
    </g>
</svg>
