<svg xmlns="http://www.w3.org/2000/svg" xmlns:xlink="http://www.w3.org/1999/xlink" width="18px" height="18px" viewBox="0 0 18 18" version="1.1">
  <g id="Issue-details" stroke="none" stroke-width="1" fill="none" fill-rule="evenodd">
    <g id="Issue-Details-page---ATG-(REDESIGN)-" transform="translate(-513.000000, -815.000000)">
      <g id="Issue-details" transform="translate(174.000000, 543.000000)">
        <g id="Group-5" transform="translate(58.000000, 261.000000)">
          <g id="Group-7" transform="translate(25.000000, 0.000000)">
            <g id="Button-/-Symbol-S-/-Base" transform="translate(249.000000, 4.000000)">
              <g id="Icon-/-View-state-forms" transform="translate(7.000000, 7.000000)">
                <rect id="Rectangle" fill="#D8D8D8" opacity="0" x="0" y="0" width="13.5" height="13.5" />
                <g id="add_comment_black_24dp" transform="translate(3.000000, 2.000000)" fill="#616674">
                  <path d="M7,0 L11.2,4.2 L11.2009267,5.24763305 C10.747494,5.12801269 10.271497,5.04678399 9.79949128,5.00300069 L9.8,4.9 L6.3,4.9 L6.3,1.4 L1.4,1.4 L1.4,12.6 L7.40635242,12.6004836 C7.48336344,12.6271298 7.56132912,12.6530069 7.6401995,12.678149 C8.30224867,12.8891958 8.53070868,12.9211277 9.66169762,12.9211277 C10.1633976,12.9211277 10.6743015,12.8541218 11.1944091,12.72011 C11.1343566,13.4335773 10.5301141,14 9.8,14 L1.393,14 C0.623,14 0,13.37 0,12.6 L0,1.4 C0,0.63 0.63,0 1.4,0 L7,0 Z M5.08822635,11.2013417 L2.8,11.2 L2.8,9.8 L4.32998962,9.80038584 C4.47444968,10.3484382 4.73479712,10.8102073 5.08822635,11.2013417 Z M4.21320673,8.39970699 L2.8,8.4 L2.8,7 L4.61601408,7.00041043 C4.39314825,7.40912011 4.25470954,7.87641288 4.21320673,8.39970699 Z" id="Combined-Shape" />
                </g>
                <g id="eye" transform="translate(8.000000, 8.000000)" fill="#616674">
                  <path d="M4.5,1.8 C3.82219599,1.8 3.27272727,2.3372583 3.27272727,3 C3.27272727,3.6627417 3.82219599,4.2 4.5,4.2 C5.17780401,4.2 5.72727273,3.6627417 5.72727273,3 C5.72727273,2.3372583 5.17780401,1.8 4.5,1.8 M4.5,5 C3.37032665,5 2.45454545,4.1045695 2.45454545,3 C2.45454545,1.8954305 3.37032665,1 4.5,1 C5.62967335,1 6.54545455,1.8954305 6.54545455,3 C6.54545455,4.1045695 5.62967335,5 4.5,5 M4.5,0 C2.45454545,0 0.707727273,1.244 0,3 C0.707727273,4.756 2.45454545,6 4.5,6 C6.54545455,6 8.29227273,4.756 9,3 C8.29227273,1.244 6.54545455,0 4.5,0 Z" id="Shape" />
                </g>
              </g>
            </g>
          </g>
        </g>
      </g>
    </g>
  </g>
</svg>
