<svg width="22px" height="22px" viewBox="0 0 22 22" version="1.1" xmlns="http://www.w3.org/2000/svg" xmlns:xlink="http://www.w3.org/1999/xlink">
    <g id="Work-Order-Details-" stroke="none" stroke-width="1" fill="none" fill-rule="evenodd">
        <g id="Work-order---Group-details-V3.2" transform="translate(-1245.000000, -734.000000)">
            <g id="Group-info" transform="translate(174.000000, 628.000000)">
                <g id="row" transform="translate(0.000000, 93.000000)">
                    <g id="Group-14" transform="translate(1026.000000, 8.000000)">
                        <g id="Button-/-Symbol-Small-/-Base" transform="translate(40.000000, 0.000000)">
                            <g id="Icon-/-View-report-WO" transform="translate(5.714286, 5.714286)">
                                <rect id="Rectangle" fill="#D8D8D8" opacity="0" x="0" y="0" width="20.5714286" height="20.5714286"></rect>
                                <g id="add_comment_black_24dp" transform="translate(3.428571, 2.285714)" fill="#616674">
                                    <path d="M8,0 L12.8,4.8 L12.7998635,7.46934281 C12.3888556,6.88575732 11.8395297,6.40660008 11.1995549,6.07954015 L11.2,5.6 L7.2,5.6 L7.2,1.6 L1.6,1.6 L1.6,14.4 L9.16396392,14.3998555 C9.17596456,14.3999518 9.18797665,14.4 9.2,14.4 L9.231,14.399 L11.2,14.4 L11.2,14.1665058 L12.4747642,15.3640858 C12.2144654,15.7069317 11.8195877,15.9427245 11.3707051,15.9908902 L11.2,16 L1.592,16 C0.760888889,16 0.0796296296,15.3577778 0.00649931413,14.5450892 L-2.84217094e-13,14.4 L-2.84217094e-13,1.6 C-2.84217094e-13,0.768888889 0.642222222,0.0804938272 1.45491084,0.00657064472 L1.6,0 L8,0 Z M9.2,6.4 C11.192,6.4 12.8,8.008 12.8,10 C12.8,10.6257778 12.6356543,11.2073086 12.3519122,11.722118 L12.24,11.912 L14.736,14.4 L13.6,15.536 L11.104,13.04 C10.552,13.392 9.896,13.6 9.192,13.6 C7.208,13.6 5.6,11.992 5.6,10 C5.6,8.008 7.208,6.4 9.2,6.4 Z M4.96549252,11.199528 C5.13347273,11.7936961 5.42313894,12.3367838 5.80586936,12.8001691 L3.2,12.8 L3.2,11.2 L4.96549252,11.199528 Z M9.2,8 C8.096,8 7.2,8.896 7.2,10 C7.2,11.104 8.096,12 9.2,12 C10.304,12 11.2,11.104 11.2,10 C11.2,8.896 10.304,8 9.2,8 Z M5.28005907,7.99943008 C5.03069833,8.48705406 4.86965047,9.02733526 4.81801138,9.59917778 L3.2,9.6 L3.2,8 L5.28005907,7.99943008 Z" id="Combined-Shape"></path>
                                </g>
                            </g>
                        </g>
                    </g>
                </g>
            </g>
        </g>
    </g>
</svg>
