<svg xmlns="http://www.w3.org/2000/svg" width="24" height="24" viewBox="0 0 24 24">
    <g fill="none" fill-rule="evenodd">
        <g>
            <g>
                <path d="M0 0L24 0 24 24 0 24z" transform="translate(-250.000000, -283.000000) translate(250.000000, 283.000000)"/>
                <path className="icon-atg-path" fill="#616674" d="M12 2c1.736 0 3.143 1.396 3.143 3.12 0 1.453-1.001 2.674-2.357 3.02v3.295c1.669.336 2.952 1.72 3.123 3.431h1.034c.466-1.143 1.595-1.95 2.914-1.95 1.737 0 3.143 1.396 3.143 3.12 0 1.723-1.406 3.119-3.143 3.119-1.603 0-2.925-1.19-3.118-2.73h-.99c-.411 1.3-1.488 2.305-2.834 2.624l.057.986c.242.116.458.296.62.533.485.714.295 1.684-.424 2.165-.72.482-1.696.293-2.182-.42-.485-.715-.295-1.684.424-2.166h.002l-.06-1.045c-1.03-.17-1.923-.735-2.517-1.535l-1.662.758c.074.264.113.542.113.83 0 1.723-1.407 3.119-3.143 3.119-1.737 0-3.143-1.396-3.143-3.12 0-1.722 1.406-3.118 3.143-3.118.878 0 1.671.356 2.241.932l1.792-.816c-.069-.288-.105-.588-.105-.896 0-.417.066-.819.188-1.195l-.969-.576c-.232.135-.502.211-.79.211-.868 0-1.571-.698-1.571-1.56 0-.86.703-1.559 1.571-1.559s1.571.699 1.571 1.56v-.006l.96.57c.557-.636 1.318-1.092 2.183-1.266V8.14c-1.356-.346-2.357-1.567-2.357-3.02C8.857 3.395 10.264 2 12 2zM4.143 17.595c-.864 0-1.572.702-1.572 1.56 0 .858.708 1.56 1.572 1.56.864 0 1.571-.702 1.571-1.56 0-.858-.707-1.56-1.571-1.56zM12 12.917c-1.296 0-2.357 1.052-2.357 2.339s1.06 2.34 2.357 2.34c1.296 0 2.357-1.053 2.357-2.34s-1.06-2.34-2.357-2.34zm7.857 1.56c-.864 0-1.571.701-1.571 1.559 0 .857.707 1.56 1.571 1.56s1.572-.703 1.572-1.56c0-.858-.708-1.56-1.572-1.56zM12 3.56c-.864 0-1.571.701-1.571 1.56 0 .857.707 1.559 1.571 1.559s1.571-.702 1.571-1.56c0-.858-.707-1.56-1.571-1.56z" transform="translate(-250.000000, -283.000000) translate(250.000000, 283.000000)"/>
            </g>
        </g>
    </g>
</svg>
