<?xml version="1.0" encoding="UTF-8"?>
<svg width="24px" height="24px" viewBox="0 0 24 24" version="1.1" xmlns="http://www.w3.org/2000/svg" xmlns:xlink="http://www.w3.org/1999/xlink">
    <g id="Elements" stroke="none" stroke-width="1" fill="none" fill-rule="evenodd">
        <g id="Sidebar-icons-V2" transform="translate(-61.000000, -571.000000)">
            <g id="ic_analytics" transform="translate(61.000000, 571.000000)">
                <rect id="Rectangle" x="0" y="0" width="24" height="24"></rect>
                <path d="M11,20 L14,20 L14,5 C14,4.44771525 13.5522847,4 13,4 L12,4 C11.4477153,4 11,4.44771525 11,5 L11,20 L11,20 Z M5,20 L8,20 L8,13 C8,12.4477153 7.55228475,12 7,12 L6,12 C5.44771525,12 5,12.4477153 5,13 L5,20 L5,20 Z M17,10 L17,20 L17,20 L20,20 L20,10 C20,9.44771525 19.5522847,9 19,9 L18,9 C17.4477153,9 17,9.44771525 17,10 Z" id="Shape" fill="#616674" fill-rule="nonzero"></path>
            </g>
        </g>
    </g>
</svg>