<?xml version="1.0" encoding="UTF-8"?>
<svg width="24px" height="24px" viewBox="0 0 24 24" version="1.1" xmlns="http://www.w3.org/2000/svg" xmlns:xlink="http://www.w3.org/1999/xlink">
    <g id="Elements" stroke="none" stroke-width="1" fill="none" fill-rule="evenodd">
        <g id="Sidebar-icons-V2" transform="translate(-61.000000, -619.000000)">
            <g id="ic_atg" transform="translate(61.000000, 619.000000)">
                <polygon id="Path" points="0 0 24 0 24 24 0 24"></polygon>
                <path d="M12,2 C13.7364286,2 15.1428571,3.39577528 15.1428571,5.1190509 C15.1428571,6.57296463 14.1417387,7.79375835 12.7859547,8.13987585 L12.7860211,11.4351223 C14.4545236,11.77106 15.7382862,13.1555962 15.9092019,14.8661391 L16.9425491,14.8660529 C17.4085622,13.7227475 18.5375639,12.9166782 19.8571429,12.9166782 C21.5935714,12.9166782 23,14.3124534 23,16.0357291 C23,17.7590047 21.5935714,19.15478 19.8571429,19.15478 C18.2537739,19.15478 16.9317681,17.9647207 16.7385766,16.4256345 L15.74884,16.4257789 C15.3380314,17.724694 14.2610723,18.7302586 12.914817,19.0486244 L12.9717923,20.0353885 C13.2144891,20.1512689 13.4303612,20.3306575 13.5918366,20.5682354 C14.0771385,21.2822928 13.8872886,22.2515877 13.1677923,22.73323 C12.4482849,23.2148558 11.4715918,23.0264439 10.9862735,22.3123977 C10.5009716,21.5983403 10.6908215,20.6290454 11.4103178,20.1474031 C11.4109739,20.1469639 11.4116303,20.1465252 11.412287,20.146087 L11.3520841,19.1020647 C10.3228482,18.9327315 9.42905876,18.3666807 8.83545957,17.5674084 L7.17335774,18.3248829 C7.24659782,18.5891032 7.28571429,18.8673873 7.28571429,19.15478 C7.28571429,20.8780556 5.87928571,22.2738309 4.14285714,22.2738309 C2.40642857,22.2738309 1,20.8780556 1,19.15478 C1,17.4315043 2.40642857,16.0357291 4.14285714,16.0357291 C5.02071262,16.0357291 5.81422565,16.3924657 6.38431023,16.9679064 L8.17561215,16.1521865 C8.10747315,15.8644532 8.07142857,15.5644064 8.07142857,15.2559663 C8.07142857,14.8390568 8.13728252,14.437482 8.25923543,14.060923 L7.29021805,13.4852087 C7.05806692,13.6195057 6.78808663,13.6964409 6.5,13.6964409 C5.63212396,13.6964409 4.92857143,12.9982175 4.92857143,12.1369154 C4.92857143,11.2756133 5.63212396,10.57739 6.5,10.57739 C7.36787604,10.57739 8.07142857,11.2756133 8.07142857,12.1369154 L8.071,12.131 L9.0313262,12.7016344 C9.58800202,12.0649029 10.3493294,11.6092116 11.2139789,11.4351223 L11.2140453,8.13987585 C9.85826131,7.79375835 8.85714286,6.57296463 8.85714286,5.1190509 C8.85714286,3.39577528 10.2635714,2 12,2 Z M4.14285714,17.5952545 C3.27857143,17.5952545 2.57142857,18.297041 2.57142857,19.15478 C2.57142857,20.0125189 3.27857143,20.7143054 4.14285714,20.7143054 C5.00714286,20.7143054 5.71428571,20.0125189 5.71428571,19.15478 C5.71428571,18.297041 5.00714286,17.5952545 4.14285714,17.5952545 Z M12,12.9166782 C10.7035714,12.9166782 9.64285714,13.9693578 9.64285714,15.2559663 C9.64285714,16.5425748 10.7035714,17.5952545 12,17.5952545 C13.2964286,17.5952545 14.3571429,16.5425748 14.3571429,15.2559663 C14.3571429,13.9693578 13.2964286,12.9166782 12,12.9166782 Z M19.8571429,14.4762036 C18.9928571,14.4762036 18.2857143,15.1779901 18.2857143,16.0357291 C18.2857143,16.893468 18.9928571,17.5952545 19.8571429,17.5952545 C20.7214286,17.5952545 21.4285714,16.893468 21.4285714,16.0357291 C21.4285714,15.1779901 20.7214286,14.4762036 19.8571429,14.4762036 Z M12,3.55952545 C11.1357143,3.55952545 10.4285714,4.2613119 10.4285714,5.1190509 C10.4285714,5.9767899 11.1357143,6.67857635 12,6.67857635 C12.8642857,6.67857635 13.5714286,5.9767899 13.5714286,5.1190509 C13.5714286,4.2613119 12.8642857,3.55952545 12,3.55952545 Z" id="Combined-Shape" fill="#616674"></path>
            </g>
        </g>
    </g>
</svg>