<?xml version="1.0" encoding="UTF-8"?>
<svg width="23px" height="22px" viewBox="0 0 23 22" version="1.1" xmlns="http://www.w3.org/2000/svg" xmlns:xlink="http://www.w3.org/1999/xlink">
    <g id="Elements" stroke="none" stroke-width="1" fill="none" fill-rule="evenodd">
        <g id="Sidebar-icons-V2" transform="translate(-62.000000, -477.000000)">
            <g id="ic_analytics_report" transform="translate(62.000000, 477.000000)">
                <path d="M10.2142857,1.67485073e-14 L1.57142857,1.67485073e-14 C0.707142857,1.67485073e-14 1.42362312e-13,0.707142857 1.42362312e-13,1.57142857 L1.42362312e-13,11.7857143 C1.42362312e-13,12.2178571 0.353571429,12.5714286 0.785714286,12.5714286 C1.21785714,12.5714286 1.57142857,12.2178571 1.57142857,11.7857143 L1.57142857,2.35714286 C1.57142857,1.925 1.925,1.57142857 2.35714286,1.57142857 L10.2142857,1.57142857 C10.6464286,1.57142857 11,1.21785714 11,0.785714286 C11,0.353571429 10.6464286,1.67485073e-14 10.2142857,1.67485073e-14 Z M15.4444444,3 C16.2524691,3 16.9217421,3.62438272 16.9936119,4.41449665 L17,4.55555556 L17.0004392,8.70208121 C16.7082295,8.66302155 16.410041,8.64285714 16.1071429,8.64285714 C15.883599,8.64285714 15.6626204,8.65384006 15.4447171,8.67529572 L15.4444444,4.55555556 L4.55555556,4.55555556 L4.55555556,15.4444444 L9.43,15.444 L9.43261015,15.5558925 C9.44977266,16.0533191 9.52133315,16.5369281 9.64152767,17.0009553 L4.55555556,17 C3.74753086,17 3.07825789,16.3756173 3.00638813,15.5855034 L3,15.4444444 L3,4.55555556 C3,3.74753086 3.62438272,3.07825789 4.41449665,3.00638813 L4.55555556,3 L15.4444444,3 Z M9.58268429,13.8883834 L6.88888889,13.8888889 C6.45933408,13.8888889 6.11111111,13.5406659 6.11111111,13.1111111 C6.11111111,12.6815563 6.45933408,12.3333333 6.88888889,12.3333333 L10.1326862,12.3333368 C9.88847765,12.8206625 9.70213949,13.3420156 9.58268429,13.8883834 Z M13.1111111,9.22222222 C13.1834493,9.22222222 13.253481,9.23209765 13.3199316,9.25057388 C12.5191963,9.61885948 11.8045555,10.1402282 11.2127897,10.7773109 L6.88888889,10.7777778 C6.45933408,10.7777778 6.11111111,10.4295548 6.11111111,10 C6.11111111,9.57044519 6.45933408,9.22222222 6.88888889,9.22222222 L13.1111111,9.22222222 Z M13.1111111,6.11111111 C13.5406659,6.11111111 13.8888889,6.45933408 13.8888889,6.88888889 C13.8888889,7.31844369 13.5406659,7.66666667 13.1111111,7.66666667 L6.88888889,7.66666667 C6.45933408,7.66666667 6.11111111,7.31844369 6.11111111,6.88888889 C6.11111111,6.45933408 6.45933408,6.11111111 6.88888889,6.11111111 L13.1111111,6.11111111 Z" id="Combined-Shape" fill="#616674"></path>
                <g id="pie_chart-24px" transform="translate(10.214286, 9.428571)">
                    <polygon id="Path" points="0 0 11.7857143 0 11.7857143 11.7857143 0 11.7857143"></polygon>
                    <path d="M5.40178571,1.56160714 L5.40178571,10.2241071 C5.40178571,10.5383929 5.11205357,10.7741071 4.80758929,10.7053571 C2.6125,10.2142857 0.982142857,8.24508929 0.982142857,5.89285714 C0.982142857,3.540625 2.6125,1.57142857 4.80758929,1.08035714 C5.11205357,1.01160714 5.40178571,1.24732143 5.40178571,1.56160714 Z M6.39866071,1.56160714 L6.39866071,4.90580357 C6.39866071,5.17589286 6.61964286,5.396875 6.88973214,5.396875 L10.2241071,5.396875 C10.5383929,5.396875 10.7741071,5.10714286 10.7053571,4.79776786 C10.2879464,2.95133929 8.83928571,1.49776786 6.99776786,1.08035714 C6.68839286,1.01160714 6.39866071,1.24732143 6.39866071,1.56160714 Z M6.39866071,6.87991071 L6.39866071,10.2241071 C6.39866071,10.5383929 6.68839286,10.7741071 6.99776786,10.7053571 C8.84419643,10.2879464 10.2928571,8.82946429 10.7102679,6.98303571 C10.7790179,6.67857143 10.5383929,6.38392857 10.2290179,6.38392857 L6.89464286,6.38392857 C6.61964286,6.38883929 6.39866071,6.60982143 6.39866071,6.87991071 Z" id="Shape" fill="#616674"></path>
                </g>
            </g>
        </g>
    </g>
</svg>