<?xml version="1.0" encoding="UTF-8"?>
<svg width="24px" height="24px" viewBox="0 0 24 24" version="1.1" xmlns="http://www.w3.org/2000/svg" xmlns:xlink="http://www.w3.org/1999/xlink">
    <g id="Elements" stroke="none" stroke-width="1" fill="none" fill-rule="evenodd">
        <g id="Sidebar-icons-V2" transform="translate(-61.000000, -811.000000)">
            <g id="ic_agencies" transform="translate(61.000000, 811.000000)">
                <polygon id="Path" points="0 0 24 0 24 24 0 24"></polygon>
                <path d="M4,11.5 L4,15.5 C4,16.33 4.55833333,17 5.25,17 C5.94166667,17 6.5,16.33 6.5,15.5 L6.5,11.5 C6.5,10.67 5.94166667,10 5.25,10 C4.55833333,10 4,10.67 4,11.5 Z" id="Path" fill="#616674"></path>
                <path d="M10,11.5 L10,15.5 C10,16.33 10.5583333,17 11.25,17 C11.9416667,17 12.5,16.33 12.5,15.5 L12.5,11.5 C12.5,10.67 11.9416667,10 11.25,10 C10.5583333,10 10,10.67 10,11.5 Z" id="Path" fill="#616674"></path>
                <path d="M3.5,21.5 L19.5,21.5 C20.33,21.5 21,20.9416667 21,20.25 C21,19.5583333 20.33,19 19.5,19 L3.5,19 C2.67,19 2,19.5583333 2,20.25 C2,20.9416667 2.67,21.5 3.5,21.5 Z" id="Path" fill="#616674"></path>
                <path d="M16,11.5 L16,15.5 C16,16.33 16.5583333,17 17.25,17 C17.9416667,17 18.5,16.33 18.5,15.5 L18.5,11.5 C18.5,10.67 17.9416667,10 17.25,10 C16.5583333,10 16,10.67 16,11.5 Z" id="Path" fill="#616674"></path>
                <path d="M11.0413773,2.37193167 C11.3274,2.21905743 11.6726,2.21905743 11.9640689,2.37482102 L11.9640689,2.37482102 L19.8711623,6.53855628 C19.9106907,6.55800641 19.9420053,6.58917998 19.9641089,6.62546948 C19.9866348,6.66245222 20,6.70535674 20,6.75 C20,6.81968803 19.9715064,6.8826683 19.9261666,6.92837373 C19.883475,6.97140956 19.825129,7 19.76,7 L19.76,7 L3.25,7 C3.181,7 3.11857944,6.97186588 3.07335678,6.92664322 C3.02813412,6.88142056 3,6.819 3,6.75 C3,6.70535674 3.01336524,6.66245222 3.03589109,6.62546948 L3.03589109,6.62546948 Z" id="Path" stroke="#616674" stroke-width="2"></path>
            </g>
        </g>
    </g>
</svg>