<?xml version="1.0" encoding="UTF-8"?>
<svg width="24px" height="24px" viewBox="0 0 24 24" version="1.1" xmlns="http://www.w3.org/2000/svg" xmlns:xlink="http://www.w3.org/1999/xlink">
    <g id="Elements" stroke="none" stroke-width="1" fill="none" fill-rule="evenodd">
        <g id="Sidebar-icons-V2" transform="translate(-61.000000, -763.000000)">
            <g id="ic_contractors" transform="translate(61.000000, 763.000000)">
                <polygon id="Path" points="0 0 24 0 24 24 0 24"></polygon>
                <g id="Group-7-Copy-2" transform="translate(3.000000, 1.000000)">
                    <path d="M8.91640867,14.4891641 C11.1822969,14.4891641 13.2377553,14.9340239 14.723539,15.6769158 C15.3880921,16.0091923 15.9330481,16.3959388 16.2993898,16.8383247 C16.5530535,17.1446432 16.7182663,17.4749425 16.7182663,17.8328173 L16.7182663,17.8328173 L16.7182663,20.0619195 L1.11455108,20.0619195 L1.11455108,17.8328173 C1.11455108,17.4749425 1.27976387,17.1446432 1.53342754,16.8383247 C1.89976923,16.3959388 2.44472521,16.0091923 3.10927831,15.6769158 C4.59506199,14.9340239 6.6505204,14.4891641 8.91640867,14.4891641 Z" id="Path" stroke="#616674" stroke-width="2.22910217"></path>
                    <path d="M4.45820433,6.6873065 C4.45820433,9.14950477 6.4542104,11.1455108 8.91640867,11.1455108 C11.3786069,11.1455108 13.374613,9.14950477 13.374613,6.6873065" id="Path" stroke="#616674" stroke-width="1.67182663"></path>
                    <path d="M8.35913313,0 C8.0247678,0 7.80185759,0.234055728 7.80185759,0.557275542 L7.80185759,3.90092879 L6.6873065,3.90092879 L6.6873065,1.11455108 C6.6873065,1.11455108 4.17956656,2.07306502 4.17956656,5.29411765 C4.17956656,5.29411765 3.34365325,5.4501548 3.34365325,6.6873065 L14.4891641,6.6873065 C14.4334365,5.4501548 13.6532508,5.29411765 13.6532508,5.29411765 C13.6532508,2.07306502 11.1455108,1.11455108 11.1455108,1.11455108 L11.1455108,3.90092879 L10.0309598,3.90092879 L10.0309598,0.557275542 C10.0309598,0.234055728 9.81919505,0 9.47368421,0 L8.35913313,0 Z" id="Path" fill="#616674"></path>
                </g>
            </g>
        </g>
    </g>
</svg>