<?xml version="1.0" encoding="UTF-8"?>
<svg width="24px" height="24px" viewBox="0 0 24 24" version="1.1" xmlns="http://www.w3.org/2000/svg" xmlns:xlink="http://www.w3.org/1999/xlink">
    <g id="Elements" stroke="none" stroke-width="1" fill="none" fill-rule="evenodd">
        <g id="Sidebar-icons-V2" transform="translate(-61.000000, -379.000000)">
            <g id="ic_issues" transform="translate(61.000000, 379.000000)">
                <polygon id="Path" points="0 0 24 0 24 24 0 24"></polygon>
                <path d="M4.0013712,21.0075 L19.0613712,21.0075 C20.6013712,21.0075 21.5613712,19.3375 20.7913712,18.0075 L13.2613712,4.9975 C12.4913712,3.6675 10.5713712,3.6675 9.8013712,4.9975 L2.2713712,18.0075 C1.5013712,19.3375 2.4613712,21.0075 4.0013712,21.0075 Z" id="Shape" stroke="#616674" stroke-width="1.5"></path>
                <path d="M12.5313712,16.0075 L12.5313712,18.0075 L10.5313712,18.0075 L10.5313712,16.0075 L12.5313712,16.0075 Z M11.5313712,10.0075 C12.0813712,10.0075 12.5313712,10.4575 12.5313712,11.0075 L12.5313712,13.0075 C12.5313712,13.5575 12.0813712,14.0075 11.5313712,14.0075 C10.9813712,14.0075 10.5313712,13.5575 10.5313712,13.0075 L10.5313712,11.0075 C10.5313712,10.4575 10.9813712,10.0075 11.5313712,10.0075 Z" id="Combined-Shape" fill="#616674"></path>
            </g>
        </g>
    </g>
</svg>