<svg xmlns="http://www.w3.org/2000/svg" xmlns:xlink="http://www.w3.org/1999/xlink" width="24px" height="24px" viewBox="0 0 24 24" version="1.1">
  <g id="Inventory-Managment" stroke="none" stroke-width="1" fill="none" fill-rule="evenodd">
    <g id="Inventory-Managment---Live---opt-1" transform="translate(-60.000000, -585.000000)">
      <g id="Group" transform="translate(24.000000, 220.000000)">
        <g id="Icon-/-Left-Nav-/-24-/-Inventory-Managment" transform="translate(36.000000, 365.000000)">
          <g id="Icon-/-Left-Nav-/-24-/-Remote-monitoring">
            <polygon id="Path" points="0 0 24 0 24 24 0 24" />
            <path d="M14.5,23 C9.80375,23 6,19.19625 6,14.5 C6,9.80375 9.80375,6 14.5,6 C19.19625,6 23,9.80375 23,14.5 C23,19.19625 19.19625,23 14.5,23 Z M14.5,7.59375 C10.7015625,7.59375 7.59375,10.7015625 7.59375,14.5 C7.59375,18.2984375 10.7015625,21.40625 14.5,21.40625 C18.2984375,21.40625 21.40625,18.2984375 21.40625,14.5 C21.40625,10.7015625 18.2984375,7.59375 14.5,7.59375 Z M20.6,14.5 C20.6,17.87025 17.87025,20.6 14.5,20.6 C11.12975,20.6 8.4,17.87025 8.4,14.5" id="Combined-Shape" fill="#616674" />
          </g>
          <g id="Managment" transform="translate(1.000000, 0.000000)">
            <path d="M5.89285714,0 C9.14739228,-5.97848405e-16 11.7857143,2.63832201 11.7857143,5.89285714 C11.7857143,9.14739228 9.14739228,11.7857143 5.89285714,11.7857143 C2.63832201,11.7857143 3.98565603e-16,9.14739228 0,5.89285714 C-3.98565603e-16,2.63832201 2.63832201,5.97848405e-16 5.89285714,0 Z" id="Path" fill="#FFFFFF" />
            <path d="M9.23404515,5.89 C9.23404515,5.69204409 9.20705116,5.51208417 9.18005717,5.32312625 L9.93588884,4.66627255 C10.0978528,4.52230461 10.1338447,4.28835671 10.0258688,4.0993988 L9.49498703,3.18160321 C9.38701108,2.99264529 9.16206118,2.91166333 8.96410527,2.98364729 L8.01031769,3.30757515 C7.72238182,3.06462926 7.39845397,2.87567134 7.03853413,2.7407014 L6.84057821,1.75991984 C6.79558823,1.55296593 6.61562831,1.4 6.39967641,1.4 L5.33791288,1.4 C5.12196098,1.4 4.94200106,1.55296593 4.89701108,1.75991984 L4.69905517,2.7407014 C4.33913533,2.87567134 4.01520747,3.06462926 3.7272716,3.30757515 L2.77348403,2.98364729 C2.56653012,2.91166333 2.35057821,3.00164329 2.24260226,3.18160321 L1.7117205,4.0993988 C1.60374455,4.28835671 1.63973653,4.52230461 1.80170046,4.66627255 L2.55753212,5.32312625 C2.53053813,5.51208417 2.50354415,5.69204409 2.50354415,5.89 C2.50354415,6.08795591 2.53053813,6.26791583 2.55753212,6.45687375 L1.80170046,7.11372745 C1.63973653,7.25769539 1.60374455,7.49164329 1.7117205,7.6806012 L2.24260226,8.59839679 C2.35057821,8.78735471 2.57552811,8.86833667 2.77348403,8.79635271 L3.7272716,8.47242485 C4.01520747,8.71537074 4.33913533,8.90432866 4.69905517,9.0392986 L4.89701108,10.0200802 C4.94200106,10.2270341 5.12196098,10.38 5.33791288,10.38 L6.39967641,10.38 C6.61562831,10.38 6.79558823,10.2270341 6.84057821,10.0200802 L7.03853413,9.0392986 C7.39845397,8.90432866 7.72238182,8.71537074 8.01031769,8.47242485 L8.96410527,8.79635271 C9.17105918,8.86833667 9.38701108,8.77835671 9.49498703,8.59839679 L10.0258688,7.6806012 C10.1338447,7.49164329 10.0978528,7.25769539 9.93588884,7.11372745 L9.18005717,6.45687375 C9.20705116,6.26791583 9.23404515,6.08795591 9.23404515,5.89 Z M5.85979665,7.6895992 C4.87001709,7.6895992 4.06019745,6.87977956 4.06019745,5.89 C4.06019745,4.90022044 4.87001709,4.0904008 5.85979665,4.0904008 C6.84957621,4.0904008 7.65939585,4.90022044 7.65939585,5.89 C7.65939585,6.87977956 6.84957621,7.6895992 5.85979665,7.6895992 Z" id="Shape" fill="#616674" />
          </g>
        </g>
      </g>
    </g>
  </g>
</svg>
