<?xml version="1.0" encoding="UTF-8"?>
<svg width="24px" height="24px" viewBox="0 0 24 24" version="1.1" xmlns="http://www.w3.org/2000/svg" xmlns:xlink="http://www.w3.org/1999/xlink">
    <g id="Elements" stroke="none" stroke-width="1" fill="none" fill-rule="evenodd">
        <g id="Sidebar-icons-V2" transform="translate(-61.000000, -331.000000)">
            <g id="ic_line_items" transform="translate(61.000000, 331.000000)">
                <rect id="Rectangle" x="0" y="0" width="24" height="24"></rect>
                <g id="Group" transform="translate(2.000000, 1.000000)" fill="#616674">
                    <path d="M19.67,17.17 L14.37,11.87 L13.38,11.87 L10.84,14.41 L10.84,15.4 L16.14,20.7 C16.53,21.09 17.16,21.09 17.55,20.7 L19.67,18.58 C20.06,18.2 20.06,17.56 19.67,17.17 Z M16.123426,18.7184415 L12.2651949,14.9149107 L12.2651949,14.9149107 L13.8952867,13.2743497 L17.73133,17.1103199 C18.1738033,17.5527847 18.1738265,18.2701638 17.7313818,18.7126573 C17.2880281,19.15606 16.5699584,19.1586431 16.123426,18.7184415 Z" id="Shape"></path>
                    <path d="M15.34,9.19 L16.75,7.78 L18.87,9.9 C20.04,8.73 20.04,6.83 18.87,5.66 L15.33,2.12 L13.92,3.53 L13.92,0.71 C13.5361328,0.320648974 12.9093156,0.316203462 12.5199645,0.70007067 C12.5182979,0.701713796 12.5166372,0.703362826 12.5149823,0.70501773 L10.3871068,2.83289322 C9.99658249,3.22341751 9.99658249,3.85658249 10.3871068,4.24710678 L10.39,4.25 L10.39,4.25 L13.22,4.25 L11.81,5.66 L12.87,6.72 L9.98,9.61 L5.85,5.48 L5.85,4.06 L3.53710678,1.74710678 C3.14658249,1.35658249 2.51341751,1.35658249 2.12289322,1.74710678 L0.707106781,3.16289322 C0.316582489,3.55341751 0.316582489,4.18658249 0.707106781,4.57710678 L3.03,6.9 L3.03,6.9 L4.44,6.9 L8.57,11.03 L7.72,11.88 L5.6,11.88 L0.3,17.18 C-0.09,17.57 -0.09,18.2 0.3,18.59 L2.42,20.71 C2.81,21.1 3.44,21.1 3.83,20.71 L9.13,15.41 L9.13,13.29 L14.28,8.14 L15.34,9.19 Z M2.53065305,18.9079744 L2.19552006,18.5356123 C1.84298796,18.1439183 1.854922,17.5458656 2.2227996,17.1685472 L6.14845963,13.1421437 L6.14845963,13.1421437 L7.99996208,14.9088398 L3.98265634,18.9444956 C3.59302293,19.3359087 2.9598596,19.3373515 2.56844645,18.9477181 C2.55548766,18.9348182 2.54288512,18.9215653 2.53065305,18.9079744 Z" id="Shape"></path>
                </g>
            </g>
        </g>
    </g>
</svg>