<?xml version="1.0" encoding="UTF-8"?>
<svg width="24px" height="24px" viewBox="0 0 24 24" version="1.1" xmlns="http://www.w3.org/2000/svg" xmlns:xlink="http://www.w3.org/1999/xlink">
    <g id="Elements" stroke="none" stroke-width="1" fill="none" fill-rule="evenodd">
        <g id="Sidebar-icons-V2" transform="translate(-61.000000, -715.000000)">
            <g id="ic_permits" transform="translate(61.000000, 715.000000)">
                <rect id="Rectangle" x="0" y="0" width="24" height="24"></rect>
                <g id="Group-5" transform="translate(2.000000, 3.000000)" fill="#616674">
                    <path d="M10.5882353,4.70588235 L1.17647059,4.70588235 C0.529411765,4.70588235 0,5.23529412 0,5.88235294 C0,6.52941176 0.529411765,7.05882353 1.17647059,7.05882353 L10.5882353,7.05882353 C11.2352941,7.05882353 11.7647059,6.52941176 11.7647059,5.88235294 C11.7647059,5.23529412 11.2352941,4.70588235 10.5882353,4.70588235 Z M12.9411765,0 L1.17647059,0 C0.529411765,0 0,0.529411765 0,1.17647059 C0,1.82352941 0.529411765,2.35294118 1.17647059,2.35294118 L12.9411765,2.35294118 C13.5882353,2.35294118 14.1176471,1.82352941 14.1176471,1.17647059 C14.1176471,0.529411765 13.5882353,0 12.9411765,0 Z M1.17647059,11.7647059 L7.05882353,11.7647059 C7.70588235,11.7647059 8.23529412,11.2352941 8.23529412,10.5882353 C8.23529412,9.94117647 7.70588235,9.41176471 7.05882353,9.41176471 L1.17647059,9.41176471 C0.529411765,9.41176471 0,9.94117647 0,10.5882353 C0,11.2352941 0.529411765,11.7647059 1.17647059,11.7647059 Z" id="Shape"></path>
                    <path d="M14.6405229,7.05882353 C13.5576116,7.05882353 12.6797386,7.93669657 12.6797386,9.01960784 C12.6797386,10.9803922 15.9477124,13.5947712 10.7189542,13.5947712 C9.9970134,13.5947712 9.41176471,14.1800199 9.41176471,14.9019608 L9.41176471,16.2091503 L19.869281,16.2091503 L19.869281,14.9019608 C19.869281,14.1800199 19.2840324,13.5947712 18.5620915,13.5947712 C13.3333333,13.5947712 16.6013072,10.9803922 16.6013072,9.01960784 C16.6013072,7.7124183 15.7254902,7.05882353 14.6405229,7.05882353 M10.7189542,17.5163399 L10.7189542,18.8235294 L18.5620915,18.8235294 L18.5620915,17.5163399 L10.7189542,17.5163399 Z" id="Shape"></path>
                </g>
            </g>
        </g>
    </g>
</svg>