<?xml version="1.0" encoding="UTF-8"?>
<svg width="24px" height="24px" viewBox="0 0 24 24" version="1.1" xmlns="http://www.w3.org/2000/svg" xmlns:xlink="http://www.w3.org/1999/xlink">
    <g id="Elements" stroke="none" stroke-width="1" fill="none" fill-rule="evenodd">
        <g id="Sidebar-icons---LMS,-CTIMS" transform="translate(-255.000000, -716.000000)">
            <g id="Group-4" transform="translate(218.000000, 156.000000)">
                <g id="ic_learning" transform="translate(37.000000, 560.000000)">
                    <polygon id="Path" points="0 0 24 0 24 24 0 24"></polygon>
                    <path d="M10.5211479,3.26119207 L1.61014618,8.12173845 C1.12529784,8.38620118 0.946640004,8.99363782 1.21110273,9.47848615 C1.3031052,9.64715733 1.4417504,9.78575397 1.61045381,9.87769732 L4,11.18 L4,11.18 L4,16.5865022 C4,16.9523747 4.19980941,17.2890388 4.52097216,17.4643019 L10.5209722,20.7385877 C10.8195418,20.9015214 11.1804582,20.9015214 11.4790278,20.7385877 L17.4790278,17.4643019 C17.8001906,17.2890388 18,16.9523747 18,16.5865022 L18,11.18 L18,11.18 L20,10.09 L20,16 C20,16.5522847 20.4477153,17 21,17 C21.5522847,17 22,16.5522847 22,16 L22,9.5936331 C22,9.22768888 21.8001129,8.8909707 21.4788521,8.71573753 L11.4788521,3.26119207 C11.1803746,3.09838617 10.8196254,3.09838617 10.5211479,3.26119207 Z M17.82,9 L11,12.72 L4.18,9 L11,5.28 L17.82,9 Z M16,15.99 L11,18.72 L6,15.99 L6,12.27 L10.5207789,14.7383453 C10.8194499,14.9014196 11.1805501,14.9014196 11.4792211,14.7383453 L16,12.27 L16,12.27 L16,15.99 Z" id="Shape" fill="#616674"></path>
                </g>
            </g>
        </g>
    </g>
</svg>