<svg xmlns="http://www.w3.org/2000/svg" width="24" height="24" viewBox="0 0 24 24" fill="none">
  <g id="Icon / unfixed">
    <g id="ic-permits-ead8">
      <path class="unlocked-icon" id="Shape" fill-rule="evenodd" clip-rule="evenodd" d="M17 8H18C19.1 8 20 8.9 20 10V20C20 21.1 19.1 22 18 22H6C4.9 22 4 21.1 4 20V10C4 8.9 4.9 8 6 8H15.1V6C15.1 4.29 13.71 2.9 12 2.9C10.5066 2.9 9.25731 3.96013 8.96475 5.36771L7.10016 5C7.56384 2.71865 9.58243 1 12 1C14.76 1 17 3.24 17 6V8ZM12 17C13.1 17 14 16.1 14 15C14 13.9 13.1 13 12 13C10.9 13 10 13.9 10 15C10 16.1 10.9 17 12 17ZM6 20H18V10H6V20Z" fill="#A4A8B1" />
    </g>
  </g>
</svg>
