<?xml version="1.0" encoding="UTF-8"?>
<svg width="699px" height="415px" viewBox="0 0 699 415" version="1.1" xmlns="http://www.w3.org/2000/svg" xmlns:xlink="http://www.w3.org/1999/xlink">
    <defs>
        <polygon id="path-1" points="0 0.5442 95.456 0.5442 95.456 96 0 96"></polygon>
        <polygon id="path-3" points="0.6785 0.339 107.1565 0.339 107.1565 133.7498 0.6785 133.7498"></polygon>
        <polygon id="path-5" points="0 0.777617829 173.028297 0.777617829 173.028297 133.181423 0 133.181423"></polygon>
        <polygon id="path-7" points="0.287945575 0.960096072 114.817328 0.960096072 114.817328 225 0.287945575 225"></polygon>
    </defs>
    <g id="Error-pages" stroke="none" stroke-width="1" fill="none" fill-rule="evenodd">
        <g id="400-Bad-request-page" transform="translate(-377.000000, -356.000000)">
            <g id="img_400-error" transform="translate(377.000000, 356.000000)">
                <g id="bg-" fill="#ECF0F9">
                    <circle id="Oval-Copy-11" cx="190.5" cy="224.5" r="190.5"></circle>
                    <circle id="Oval-Copy-13" cx="315.5" cy="184.5" r="178.5"></circle>
                    <circle id="Oval-Copy-15" cx="508.5" cy="190.5" r="190.5"></circle>
                    <circle id="Oval-Copy-16" cx="493.5" cy="227.5" r="162.5"></circle>
                    <circle id="Oval-Copy-17" cx="367.5" cy="376.5" r="13.5"></circle>
                    <circle id="Oval-Copy-20" cx="203" cy="24" r="6"></circle>
                    <circle id="Oval-Copy-21" cx="194" cy="11" r="3"></circle>
                    <circle id="Oval-Copy-18" cx="399.5" cy="391.5" r="4.5"></circle>
                </g>
                <g id="monitor" transform="translate(287.000000, 67.000000)">
                    <g id="display">
                        <polygon id="Rectangle" fill="#283049" points="141.946341 242.4 212.936585 242.4 216.8 272 137.6 272"></polygon>
                        <rect id="Rectangle" fill="#3A4669" x="0" y="0" width="354.4" height="258.4" rx="14.4"></rect>
                        <path d="M0,219.2 L354.4,219.2 L354.4,244 C354.4,251.9529 347.9529,258.4 340,258.4 L14.4,258.4 C6.4470996,258.4 8.07937676e-15,251.9529 0,244 L0,219.2 L0,219.2 Z" id="Rectangle" fill="#93A1C9"></path>
                        <path d="M110.4,272 L244,272 L243.25035,273.728796 C240.967539,278.993273 235.77707,282.4 230.038957,282.4 L124.361043,282.4 C118.62293,282.4 113.432461,278.993273 111.14965,273.728796 L110.4,272 L110.4,272 Z" id="Rectangle-Copy" fill="#93A1C9" transform="translate(177.200000, 277.200000) scale(1, -1) translate(-177.200000, -277.200000) "></path>
                        <rect id="Rectangle" fill="#FFFFFF" x="12.8" y="12.8" width="329.6" height="190.4"></rect>
                    </g>
                    <g id="web-page" opacity="0.400000006" transform="translate(19.000000, 17.800000)">
                        <rect id="Rectangle-Copy-9" stroke="#E1E7F4" stroke-width="3.2" fill="#FFFFFF" x="0" y="0.2" width="319" height="180" rx="8"></rect>
                        <rect id="Rectangle-Copy-16" fill="#E1E7F4" x="48" y="54.2" width="125" height="39.2" rx="6.4"></rect>
                        <rect id="Rectangle-Copy-12" fill="#E1E7F4" transform="translate(177.300000, 109.800000) rotate(-270.000000) translate(-177.300000, -109.800000) " x="169.3" y="-19.7" width="16" height="259" rx="3.2"></rect>
                        <rect id="Rectangle-Copy-14" fill="#E1E7F4" transform="translate(177.300000, 147.700000) rotate(-270.000000) translate(-177.300000, -147.700000) " x="152.8" y="18.2" width="49" height="259" rx="3.2"></rect>
                        <rect id="Rectangle-Copy-17" fill="#E1E7F4" x="180" y="54.2" width="125" height="39.2" rx="6.4"></rect>
                        <path d="M8,0.2 L311,0.2 C315.418278,0.2 319,3.781722 319,8.2 L319,17.2 L319,17.2 L0,17.2 L0,8.2 C-5.41083001e-16,3.781722 3.581722,0.2 8,0.2 Z" id="Rectangle-Copy-15" fill="#E1E7F4"></path>
                        <g id="Group-3-Copy-2" transform="translate(11.000000, 4.200000)" fill="#FFFFFF">
                            <circle id="Oval" cx="3.2" cy="3.2" r="3.2"></circle>
                            <circle id="Oval-Copy" cx="16" cy="3.2" r="3.2"></circle>
                            <circle id="Oval-Copy-2" cx="28.8" cy="3.2" r="3.2"></circle>
                        </g>
                        <rect id="Rectangle-Copy-11" fill="#E1E7F4" transform="translate(158.200000, 35.000000) rotate(-270.000000) translate(-158.200000, -35.000000) " x="146.6" y="-114" width="23.2" height="298" rx="3.2"></rect>
                        <rect id="Rectangle-Copy-10" fill="#E1E7F4" x="9" y="54.2" width="32" height="118" rx="3.2"></rect>
                    </g>
                </g>
                <g id="Group-16" transform="translate(416.000000, 118.000000)">
                    <path d="M47.7277,92.9563 C23.3407,92.9563 3.4997,73.1153 3.4997,48.7273 C3.4997,24.3413 23.3407,4.5003 47.7277,4.5003 C72.1157,4.5003 91.9567,24.3413 91.9567,48.7273 C91.9567,73.1153 72.1157,92.9563 47.7277,92.9563" id="Fill-1" fill="#D7E2F4"></path>
                    <g id="Group-5" transform="translate(0.000000, 0.456100)">
                        <mask id="mask-2" fill="white">
                            <use xlink:href="#path-1"></use>
                        </mask>
                        <g id="Clip-4"></g>
                        <path d="M47.7277,0.5442 C21.4107,0.5442 -0.0003,21.9542 -0.0003,48.2722 C-0.0003,74.5892 21.4107,96.0002 47.7277,96.0002 C74.0447,96.0002 95.4567,74.5892 95.4567,48.2722 C95.4567,21.9542 74.0447,0.5442 47.7277,0.5442 M47.7277,7.5442 C70.2217,7.5442 88.4567,25.7782 88.4567,48.2722 C88.4567,70.7652 70.2217,89.0002 47.7277,89.0002 C25.2347,89.0002 6.9997,70.7652 6.9997,48.2722 C6.9997,25.7782 25.2347,7.5442 47.7277,7.5442" id="Fill-3" fill="#6B76A0" mask="url(#mask-2)"></path>
                    </g>
                    <path d="M78.4767,75.3186 C83.1637,68.6956 85.9177,60.6166 85.9177,51.8876 C85.9177,29.4436 67.7337,11.2586 45.2887,11.2586 C32.9507,11.2586 21.8877,16.7646 14.4367,25.4536 C21.7887,15.0596 33.8977,8.2766 47.6037,8.2766 C70.0467,8.2766 88.2317,26.4706 88.2317,48.9046 C88.2317,58.9896 84.5507,68.2166 78.4767,75.3186" id="Fill-6" fill="#FFFFFF"></path>
                    <path d="M31.4152,65.8353 L31.4152,65.8353 C29.9512,64.3713 29.9512,61.9973 31.4152,60.5333 L59.9482,32.0013 C61.4122,30.5363 63.7862,30.5363 65.2502,32.0013 C66.7142,33.4653 66.7142,35.8393 65.2502,37.3033 L36.7182,65.8353 C35.2532,67.3003 32.8802,67.3003 31.4152,65.8353" id="Fill-8" fill="#606C91"></path>
                    <path d="M65.2501,65.8353 L65.2501,65.8353 C63.7861,67.3003 61.4121,67.3003 59.9481,65.8353 L31.4151,37.3033 C29.9511,35.8393 29.9511,33.4653 31.4151,32.0013 C32.8801,30.5363 35.2531,30.5363 36.7181,32.0013 L65.2501,60.5333 C66.7141,61.9973 66.7141,64.3713 65.2501,65.8353" id="Fill-10" fill="#606C91"></path>
                    <path d="M30.5421,64.9622 L30.5421,64.9622 C29.0781,63.4982 29.0781,61.1242 30.5421,59.6602 L59.0751,31.1272 C60.5391,29.6632 62.9131,29.6632 64.3771,31.1272 C65.8411,32.5922 65.8411,34.9652 64.3771,36.4302 L35.8451,64.9622 C34.3801,66.4262 32.0061,66.4262 30.5421,64.9622" id="Fill-12" fill="#6B76A0"></path>
                    <path d="M64.3771,64.9622 L64.3771,64.9622 C62.9131,66.4262 60.5391,66.4262 59.0751,64.9622 L30.5421,36.4302 C29.0781,34.9652 29.0781,32.5922 30.5421,31.1272 C32.0061,29.6632 34.3801,29.6632 35.8451,31.1272 L64.3771,59.6602 C65.8411,61.1242 65.8411,63.4982 64.3771,64.9622" id="Fill-14" fill="#6B76A0"></path>
                </g>
                <g id="Group-214" transform="translate(32.000000, 39.000000)">
                    <g id="Group-3" transform="translate(133.000000, 0.661000)">
                        <mask id="mask-4" fill="white">
                            <use xlink:href="#path-3"></use>
                        </mask>
                        <g id="Clip-2"></g>
                        <path d="M15.8495,133.7498 C-4.1725,118.6818 2.5525,99.0538 8.1385,93.2038 L7.9705,92.9378 C4.8295,85.2328 0.6785,76.2518 0.6785,66.1518 C0.6785,29.8048 19.4765,0.3388 53.9175,0.3388 C88.6205,0.3388 107.1565,29.8048 107.1565,66.1518 C107.1565,75.9278 103.1165,85.4008 100.1625,92.9378 L100.0975,93.2038 C105.6835,99.0538 112.4095,118.6818 92.3865,133.7498 L15.8495,133.7498 Z" id="Fill-1" fill="#828DB7" mask="url(#mask-4)"></path>
                        <g id="Group-2" mask="url(#mask-4)" fill="#FFFFFF">
                            <g transform="translate(7.000000, 8.339000)">
                                <path d="M5.263,73.108 L5.457,76.642 C2.996,70.707 -1.42108547e-14,59.501 -1.42108547e-14,51.8 C-1.42108547e-14,23.15 18.263,-8.52651283e-14 47.109,-8.52651283e-14 C60.027,-8.52651283e-14 70.292,4.728 77.674,12.547 C70.841,7.29 61.82,3.883 51.502,2.714 C23.701,-0.435 1.782,28.898 3.258,57.502 C3.502,62.23 5.263,73.108 5.263,73.108" id="Fill-5" opacity="0.049999997"></path>
                                <path d="M86.6439,99.3411 C86.6439,102.4411 85.0139,105.1511 82.5639,106.6711 C83.5339,105.2811 84.0929,103.6011 84.0929,101.7811 C84.0929,97.0011 80.2239,93.1311 75.4439,93.1311 C73.7739,93.1311 72.2129,93.6111 70.8829,94.4411 C72.4339,92.1811 75.0429,90.6911 78.0029,90.6911 C82.7739,90.6911 86.6439,94.5611 86.6439,99.3411" id="Fill-11" opacity="0.100000001"></path>
                                <path d="M28.6439,99.3411 C28.6439,102.4411 27.0139,105.1511 24.5639,106.6711 C25.5339,105.2811 26.0929,103.6011 26.0929,101.7811 C26.0929,97.0011 22.2239,93.1311 17.4439,93.1311 C15.7739,93.1311 14.2129,93.6111 12.8829,94.4411 C14.4339,92.1811 17.0429,90.6911 20.0029,90.6911 C24.7739,90.6911 28.6439,94.5611 28.6439,99.3411" id="Fill-11" opacity="0.100000001"></path>
                            </g>
                        </g>
                    </g>
                    <path d="M208.0965,109.8854 C208.0965,114.6594 211.9675,118.5314 216.7425,118.5314 C221.5175,118.5314 225.3875,114.6594 225.3875,109.8854 C225.3875,105.1104 221.5175,101.2394 216.7425,101.2394 C211.9675,101.2394 208.0965,105.1104 208.0965,109.8854" id="Fill-4" fill="#FFFFFF"></path>
                    <path d="M150.2889,109.8844 C150.2889,114.6594 154.1599,118.5304 158.9349,118.5304 C163.7099,118.5304 167.5809,114.6594 167.5809,109.8844 C167.5809,105.1104 163.7099,101.2384 158.9349,101.2384 C154.1599,101.2384 150.2889,105.1104 150.2889,109.8844" id="Fill-6" fill="#FFFFFF"></path>
                    <path d="M157.0487,110.5192 C157.3997,111.5612 158.5277,112.1222 159.5697,111.7712 C160.6117,111.4202 161.1717,110.2912 160.8207,109.2492 C160.4707,108.2082 159.3417,107.6482 158.3007,107.9982 C157.2587,108.3492 156.6977,109.4782 157.0487,110.5192" id="Fill-8" fill="#525F7F"></path>
                    <path d="M215.3348,111.2917 C216.1118,112.0687 217.3718,112.0687 218.1488,111.2917 C218.9268,110.5157 218.9268,109.2557 218.1488,108.4787 C217.3718,107.7007 216.1118,107.7007 215.3348,108.4787 C214.5588,109.2557 214.5588,110.5157 215.3348,111.2917" id="Fill-10" fill="#525F7F"></path>
                    <path d="M196.093962,139.777 C196.1286,142.819 196.3956,145.87 196.7096,148.892 C197.5526,157.003 198.8236,165.105 200.9376,172.987 C203.3906,182.137 206.9086,191.314 212.0076,199.328 C214.8236,203.753 218.1196,208.037 221.9566,211.63 C225.8066,215.233 230.2166,218.502 235.0396,220.685 C237.9736,222.013 240.9596,223.262 244.0836,224.068 C247.4146,224.928 250.8836,225.39 254.3056,225.668 C257.2446,225.906 260.1526,225.753 263.0916,225.63 C266.7116,225.478 270.3436,225.471 273.9596,225.715 C275.4506,225.816 276.9376,225.964 278.4186,226.16 C277.3556,226.016 276.2916,225.874 275.2286,225.731 C278.9006,226.235 282.5296,227.068 285.9556,228.502 C284.9996,228.098 284.0446,227.695 283.0886,227.292 C285.5336,228.332 287.8116,229.677 289.9166,231.297 C289.1076,230.672 288.2976,230.046 287.4886,229.421 C291.4306,232.477 294.8596,236.495 299.4266,238.651 C303.4676,240.557 307.1426,241.534 311.6556,241.705 C315.9456,241.867 320.3466,241.067 324.5056,240.073 C330.5126,238.636 336.3346,236.454 342.0546,234.153 C343.6156,233.782 344.9766,233.066 346.1346,232.006 C347.4416,231.159 348.4716,230.037 349.2256,228.638 C350.7316,226.066 351.3686,222.275 350.4356,219.391 C349.4956,216.488 347.6966,213.686 344.9206,212.22 C342.2536,210.81 338.6056,209.831 335.6736,211.01 C328.4536,213.915 320.9456,216.815 313.1876,217.871 C314.2506,217.727 315.3146,217.585 316.3776,217.442 C314.2326,217.721 312.0616,217.832 309.9086,217.561 C310.9726,217.704 312.0356,217.847 313.0996,217.99 C311.7756,217.811 310.4856,217.484 309.2496,216.974 C310.2046,217.378 311.1606,217.78 312.1156,218.183 C310.7526,217.606 309.5056,216.821 308.3336,215.922 C309.1436,216.547 309.9526,217.172 310.7626,217.797 C306.4446,214.452 302.6796,210.443 297.8156,207.819 C288.9626,203.043 278.8146,201.616 268.8706,201.528 C263.2416,201.477 257.6496,202.16 252.0396,201.424 C253.1036,201.568 254.1666,201.711 255.2306,201.853 C251.7866,201.381 248.4246,200.496 245.2156,199.158 C246.1706,199.561 247.1266,199.965 248.0816,200.368 C245.0316,199.074 242.1746,197.392 239.5446,195.376 C240.3546,196.002 241.1636,196.627 241.9736,197.253 C238.8906,194.861 236.1716,192.052 233.7836,188.97 C234.4086,189.78 235.0346,190.59 235.6596,191.399 C232.2006,186.895 229.4706,181.885 227.2576,176.666 C227.6606,177.621 228.0646,178.577 228.4666,179.532 C225.2776,171.958 223.1436,163.964 221.7086,155.881 C221.3656,153.947 221.0656,152.006 220.8016,150.059 C220.9446,151.123 221.0866,152.186 221.2306,153.25 C220.6646,149.041 220.2476,144.798 220.1146,140.552 C220.1056,140.295 220.0976,140.036 220.0946,139.777 C220.0606,136.679 218.7806,133.492 216.5796,131.293 C214.4986,129.211 211.0836,127.643 208.0946,127.777 C204.9906,127.917 201.7726,128.936 199.6096,131.293 C197.4676,133.626 196.0596,136.539 196.093962,139.777" id="Fill-12" fill="#6B76A0"></path>
                    <path d="M155.2147,150.3952 C155.5517,154.1532 155.7247,157.9302 155.8637,161.7002 C156.1937,170.5952 156.1737,179.5102 155.7177,188.4012 C155.4107,194.3872 154.9007,200.3642 154.1057,206.3052 C154.2477,205.2422 154.3917,204.1792 154.5337,203.1162 C153.5057,210.7342 152.0337,218.3362 149.6237,225.6482 C148.9847,227.5872 148.2737,229.5032 147.4807,231.3852 C147.8837,230.4302 148.2867,229.4742 148.6897,228.5192 C147.0737,232.3212 145.1127,235.9912 142.5867,239.2712 C143.2127,238.4612 143.8377,237.6522 144.4637,236.8422 C142.9257,238.8182 141.1907,240.6282 139.2137,242.1702 C140.0237,241.5442 140.8327,240.9192 141.6427,240.2932 C140.0317,241.5332 138.2877,242.5722 136.4167,243.3672 C137.3727,242.9642 138.3277,242.5612 139.2837,242.1582 C137.4627,242.9152 135.5607,243.4282 133.6077,243.7052 C134.6707,243.5612 135.7337,243.4182 136.7967,243.2762 C133.8697,243.6662 131.0657,243.3422 128.1417,243.1302 C123.3847,242.7852 118.4647,243.2102 113.8367,244.3462 C107.1787,245.9802 101.6057,249.5562 96.1467,253.5052 C93.7397,255.2462 91.2747,256.9132 88.5277,258.0752 C89.4837,257.6712 90.4397,257.2682 91.3947,256.8652 C89.6247,257.5962 87.7867,258.0962 85.8907,258.3612 C86.9527,258.2182 88.0167,258.0752 89.0797,257.9322 C86.7087,258.2392 84.3247,258.1752 81.9567,257.8742 C83.0197,258.0172 84.0827,258.1602 85.1467,258.3032 C80.7207,257.7042 76.4457,256.3342 72.3037,254.6972 C69.5887,253.6242 65.4687,254.4952 63.0567,255.9072 C60.5677,257.3632 58.1937,260.2172 57.5417,263.0782 C56.8427,266.1502 56.9937,269.5982 58.7517,272.3252 C59.3777,273.1342 60.0027,273.9442 60.6277,274.7532 C62.1257,276.2412 63.8907,277.2692 65.9237,277.8392 C74.9647,281.4142 84.9487,283.4332 94.5657,281.0702 C100.7297,279.5542 105.6957,276.0412 110.7427,272.4262 C113.2757,270.6132 115.8957,268.9372 118.7677,267.7102 C117.8127,268.1142 116.8567,268.5172 115.9017,268.9202 C118.3137,267.9122 120.8317,267.2442 123.4217,266.8862 C122.3587,267.0292 121.2947,267.1722 120.2317,267.3152 C123.8277,266.8492 127.3467,267.0842 130.9427,267.3972 C134.2157,267.6812 137.4397,267.2852 140.6737,266.7422 C146.7337,265.7252 152.0237,262.5492 156.7037,258.7272 C160.7667,255.4102 164.0487,250.9152 166.6117,246.3722 C169.5017,241.2492 171.6937,235.6452 173.4007,230.0242 C176.8717,218.5992 178.4077,206.5342 179.3187,194.6622 C180.0697,184.8782 180.2327,175.0502 179.9767,165.2442 C179.8487,160.3622 179.6577,155.4652 179.2327,150.5982 C179.2267,150.5312 179.2207,150.4622 179.2147,150.3952 C178.9247,147.1532 178.0707,144.2812 175.6997,141.9102 C173.6187,139.8292 170.2037,138.2612 167.2147,138.3952 C164.1107,138.5342 160.8927,139.5532 158.7297,141.9102 C156.6877,144.1342 154.9347,147.2632 155.2147,150.3952" id="Fill-14" fill="#6B76A0"></path>
                    <path d="M146.9618,132.6823 C146.4518,135.7633 145.5358,138.8133 144.5308,141.7623 C143.9728,143.4023 143.3568,145.0223 142.6858,146.6193 C143.0888,145.6633 143.4918,144.7083 143.8958,143.7523 C141.8738,148.5363 139.3438,153.1113 136.1798,157.2373 C136.8058,156.4273 137.4308,155.6183 138.0558,154.8083 C135.7698,157.7653 133.1648,160.4603 130.2168,162.7633 C131.0258,162.1373 131.8358,161.5123 132.6458,160.8863 C130.0868,162.8623 127.3048,164.5113 124.3308,165.7793 C125.2858,165.3753 126.2418,164.9723 127.1968,164.5693 C124.0788,165.8743 120.8108,166.7373 117.4618,167.1873 C118.5248,167.0433 119.5888,166.9013 120.6518,166.7583 C116.5738,167.2803 112.4608,167.1873 108.3908,166.6493 C109.4538,166.7923 110.5168,166.9353 111.5798,167.0783 C107.7258,166.5463 103.7778,165.7663 100.1678,164.2763 C101.1228,164.6793 102.0788,165.0823 103.0338,165.4863 C101.2968,164.7513 99.6548,163.8313 98.1568,162.6823 C98.9668,163.3083 99.7758,163.9333 100.5858,164.5593 C99.3298,163.5783 98.2068,162.4553 97.2248,161.2023 C97.8498,162.0113 98.4758,162.8213 99.1008,163.6303 C97.9188,162.0953 96.9758,160.4063 96.2228,158.6223 C96.6258,159.5783 97.0288,160.5343 97.4328,161.4893 C96.0608,158.1793 95.3478,154.6503 94.8668,151.1133 C95.0098,152.1763 95.1528,153.2393 95.2958,154.3023 C94.1578,145.7843 94.3558,136.9193 91.9308,128.6173 C90.4308,123.4803 87.9378,118.6513 84.1888,114.7903 C80.2288,110.7133 74.7528,107.8873 69.2228,106.6983 C60.5358,104.8293 51.9368,105.6253 43.2508,107.0473 C40.4638,107.5033 37.4448,110.2273 36.0788,112.5623 C34.5738,115.1343 33.9368,118.9253 34.8688,121.8083 C35.8098,124.7123 37.6078,127.5133 40.3838,128.9803 C41.3398,129.3833 42.2948,129.7863 43.2508,130.1903 C45.3778,130.7613 47.5038,130.7613 49.6308,130.1903 C50.5488,130.0393 51.4688,129.9003 52.3898,129.7733 C51.3258,129.9153 50.2638,130.0593 49.1998,130.2023 C53.9848,129.5603 58.8648,129.2383 63.6708,129.8613 C62.6078,129.7183 61.5438,129.5763 60.4808,129.4323 C62.6888,129.7353 64.8608,130.2453 66.9238,131.1003 C65.9678,130.6973 65.0128,130.2933 64.0578,129.8903 C65.4648,130.4883 66.7918,131.2383 68.0058,132.1703 C67.1968,131.5453 66.3878,130.9193 65.5778,130.2943 C66.6438,131.1303 67.5938,132.0883 68.4258,133.1583 C67.7998,132.3483 67.1748,131.5383 66.5488,130.7293 C67.5508,132.0423 68.3498,133.4843 68.9928,135.0033 C68.5898,134.0483 68.1868,133.0923 67.7828,132.1373 C69.0598,135.2053 69.7018,138.4883 70.1448,141.7683 C70.0018,140.7043 69.8588,139.6413 69.7158,138.5783 C70.2668,142.7323 70.4958,146.9193 70.9198,151.0863 C71.4278,156.0653 71.9718,161.2113 73.5808,165.9843 C75.4238,171.4503 78.2428,176.8073 82.6098,180.6953 C87.9948,185.4893 94.4448,188.1763 101.4658,189.5903 C109.9128,191.2923 118.2308,191.6003 126.6908,189.8493 C132.7168,188.6023 138.7438,185.9953 143.7318,182.3803 C146.4928,180.3793 149.1838,178.2563 151.5588,175.8023 C153.8468,173.4383 155.8768,170.8033 157.8038,168.1443 C160.3568,164.6203 162.4698,160.7873 164.2148,156.8053 C166.6838,151.1733 168.9408,145.3703 170.0628,139.2973 C170.0768,139.2193 170.0908,139.1413 170.1048,139.0623 C170.6048,137.4673 170.6758,135.8713 170.3178,134.2773 C170.2458,132.6803 169.7718,131.1933 168.8948,129.8153 C167.4378,127.3263 164.5838,124.9533 161.7228,124.3003 C158.6508,123.6013 155.2028,123.7523 152.4768,125.5103 C150.0078,127.1023 147.4618,129.6593 146.9618,132.6823" id="Fill-16" fill="#6B76A0"></path>
                    <path d="M203.2147,131.8903 C203.1667,133.4083 203.2607,134.9383 203.3767,136.4493 C203.7407,141.1703 204.4197,145.9183 205.5277,150.5263 C206.9347,156.3753 209.1457,162.1183 211.9457,167.4373 C213.2507,169.9143 214.7567,172.2753 216.4497,174.5043 C218.8597,177.6783 221.3217,180.7263 224.3187,183.3653 C230.9367,189.1913 238.5407,193.4003 246.9857,195.9673 C251.5917,197.3683 256.3927,198.1223 261.1727,198.6013 C265.1047,198.9943 268.8237,198.6793 272.7317,198.1213 C279.0007,197.2273 284.8507,194.1663 289.4597,189.8653 C294.0347,185.5933 296.7397,180.1283 299.0607,174.4403 C302.6507,165.6403 303.9407,156.1013 307.1107,147.1593 C307.5047,146.0483 307.9277,144.9493 308.3827,143.8633 C307.9797,144.8183 307.5767,145.7743 307.1737,146.7293 C308.4547,143.7023 310.0147,140.7923 312.0207,138.1803 C311.3957,138.9903 310.7697,139.7993 310.1447,140.6093 C311.5497,138.8013 313.1527,137.1703 314.9607,135.7653 C314.1517,136.3913 313.3417,137.0163 312.5317,137.6423 C314.3117,136.2813 316.2497,135.1673 318.3097,134.2873 C317.3537,134.6913 316.3987,135.0943 315.4427,135.4973 C318.1767,134.3533 321.0547,133.6423 323.9867,133.2373 C322.9237,133.3803 321.8607,133.5233 320.7967,133.6653 C323.4147,133.3203 326.0507,133.2153 328.6897,133.2733 C331.7237,133.3393 335.0447,131.8873 337.1747,129.7583 C339.2557,127.6773 340.8227,124.2623 340.6897,121.2733 C340.5497,118.1693 339.5297,114.9513 337.1747,112.7873 C334.7977,110.6063 331.9637,109.3453 328.6897,109.2733 C324.4757,109.1803 320.2977,109.5993 316.1457,110.3203 C312.5107,110.9503 309.1807,112.2263 305.8157,113.7293 C299.7757,116.4243 295.1037,121.0043 291.1857,126.2123 C287.9197,130.5523 285.7717,135.6933 283.9687,140.7793 C282.4147,145.1603 281.2867,149.6763 280.1367,154.1753 C278.8887,159.0573 277.6407,163.9753 275.6807,168.6303 C276.0837,167.6753 276.4867,166.7193 276.8907,165.7643 C275.8307,168.2543 274.5547,170.6543 272.9007,172.8033 C273.5267,171.9943 274.1517,171.1843 274.7767,170.3743 C273.7087,171.7433 272.4987,172.9823 271.1297,174.0503 C271.9397,173.4253 272.7487,172.7993 273.5587,172.1743 C272.2667,173.1633 270.8647,173.9793 269.3697,174.6203 C270.3257,174.2183 271.2807,173.8153 272.2357,173.4113 C270.3197,174.2143 268.3067,174.7163 266.2497,174.9933 C267.3137,174.8503 268.3767,174.7073 269.4407,174.5643 C266.1677,174.9803 262.8627,174.8393 259.5997,174.4173 C260.6627,174.5613 261.7267,174.7033 262.7897,174.8463 C257.8187,174.1783 252.9337,172.9373 248.3047,170.9953 C249.2597,171.3993 250.2157,171.8013 251.1707,172.2043 C247.5847,170.6753 244.2017,168.7343 241.1047,166.3663 C241.9137,166.9913 242.7237,167.6173 243.5327,168.2423 C240.5007,165.8953 237.7927,163.1753 235.4397,160.1483 C236.0647,160.9573 236.6907,161.7673 237.3157,162.5773 C234.5927,159.0383 232.3867,155.1453 230.6447,151.0373 C231.0477,151.9943 231.4507,152.9493 231.8547,153.9053 C229.6097,148.5563 228.1467,142.9023 227.3627,137.1593 C227.5067,138.2223 227.6497,139.2853 227.7917,140.3483 C227.4187,137.5643 227.1257,134.7063 227.2147,131.8903 C227.3097,128.8753 225.8087,125.5143 223.6997,123.4053 C221.6187,121.3243 218.2037,119.7563 215.2147,119.8903 C208.5427,120.1893 203.4277,125.1613 203.2147,131.8903" id="Fill-18" fill="#828DB7"></path>
                    <g id="Group-22" transform="translate(0.000000, 118.661000)">
                        <mask id="mask-6" fill="white">
                            <use xlink:href="#path-5"></use>
                        </mask>
                        <g id="Clip-21"></g>
                        <path d="M152.536,4.3016 C151.425,5.6986 150.382,7.0046 149.504,8.5356 C147.847,11.4266 146.585,14.5656 145.341,17.6436 C141.367,27.4766 139.084,38.0056 137.307,48.4276 C136.354,54.0106 135.586,59.6266 134.895,65.2476 C134.263,70.4066 133.932,75.6046 133.264,80.7566 C133.406,79.6936 133.55,78.6296 133.692,77.5666 C133.093,81.9996 131.968,86.3386 130.235,90.4676 C130.639,89.5126 131.042,88.5566 131.445,87.6016 C129.956,91.0896 128.054,94.3746 125.734,97.3766 C126.36,96.5676 126.985,95.7576 127.611,94.9476 C125.466,97.6916 123.003,100.1556 120.254,102.2926 C121.063,101.6666 121.873,101.0416 122.682,100.4156 C119.902,102.5516 116.872,104.3236 113.645,105.6966 C114.601,105.2926 115.557,104.8896 116.513,104.4866 C113.291,105.8336 109.919,106.7656 106.46,107.2476 C107.523,107.1056 108.587,106.9616 109.65,106.8196 C106.32,107.2636 102.956,107.2846 99.624,106.8576 C100.687,106.9996 101.75,107.1426 102.813,107.2856 C99.643,106.8586 96.55,106.0296 93.599,104.7906 C94.555,105.1946 95.511,105.5976 96.466,106.0006 C93.751,104.8406 91.201,103.3506 88.858,101.5536 C89.668,102.1796 90.477,102.8046 91.287,103.4306 C88.901,101.5746 86.774,99.4316 84.916,97.0506 C85.541,97.8606 86.167,98.6696 86.792,99.4796 C84.612,96.6476 82.848,93.5386 81.458,90.2496 C81.86,91.2056 82.264,92.1606 82.667,93.1156 C80.818,88.6696 79.046,84.4176 76.126,80.5676 C74.515,78.4446 72.91,76.3466 70.968,74.5176 C69.149,72.8056 67.135,71.2616 65.084,69.8446 C58.557,65.3356 50.154,63.0226 42.251,63.1316 C34.388,63.2396 26.194,65.5576 19.67,70.0086 C16.283,72.3196 13.094,74.9466 10.532,78.1596 C8.966,80.1236 7.414,82.1056 6.161,84.2876 C4.837,86.5926 3.811,89.0836 2.854,91.5536 C1.003,96.3276 0.23,101.6156 0.035,106.7036 C-0.192,112.6066 0.694,118.6536 2.132,124.3636 C2.859,127.2506 5.099,130.0446 7.647,131.5356 C10.219,133.0406 14.01,133.6786 16.893,132.7446 C23.193,130.7066 26.918,124.5086 25.275,117.9846 C24.75,115.8986 24.328,113.7916 24.03,111.6606 C24.173,112.7246 24.316,113.7876 24.459,114.8506 C23.93,110.8996 23.843,106.9056 24.352,102.9486 C24.21,104.0116 24.066,105.0746 23.924,106.1386 C24.348,103.0166 25.139,99.9656 26.351,97.0556 C25.948,98.0116 25.545,98.9666 25.141,99.9226 C26.211,97.4066 27.578,95.0416 29.244,92.8746 C28.619,93.6846 27.993,94.4936 27.368,95.3036 C28.962,93.2606 30.796,91.4316 32.846,89.8456 C32.036,90.4716 31.226,91.0966 30.417,91.7216 C32.473,90.1546 34.709,88.8556 37.089,87.8456 C36.134,88.2486 35.179,88.6526 34.223,89.0546 C36.703,88.0226 39.298,87.3176 41.96,86.9566 L38.769,87.3846 C41.36,87.0526 43.973,87.0506 46.561,87.3896 C45.498,87.2456 44.434,87.1036 43.371,86.9606 C45.922,87.3126 48.405,87.9906 50.778,88.9896 C49.823,88.5866 48.867,88.1836 47.912,87.7806 C50.161,88.7466 52.269,89.9866 54.213,91.4756 C53.403,90.8496 52.594,90.2246 51.784,89.5986 C53.843,91.1996 55.674,93.0536 57.278,95.1096 C56.653,94.2996 56.027,93.4896 55.402,92.6806 C57.321,95.1766 58.87,97.9166 60.1,100.8126 C59.697,99.8576 59.294,98.9016 58.89,97.9466 C60.107,100.8636 61.243,103.8166 62.777,106.5856 C64.002,108.7956 65.464,110.8096 67.007,112.8066 C70.284,117.0486 74.003,120.4966 78.463,123.5216 C85.961,128.6066 95.381,131.1556 104.396,131.1726 C123.547,131.2096 141.863,119.8706 150.668,102.9056 C153.405,97.6326 155.497,91.9326 156.512,86.0696 C157.903,78.0226 158.271,69.8006 159.349,61.7046 C159.207,62.7686 159.064,63.8316 158.921,64.8956 C160.569,52.6406 162.782,40.3026 166.795,28.5746 C167.435,26.6996 168.131,24.8436 168.899,23.0176 C168.496,23.9736 168.093,24.9286 167.689,25.8836 C168.698,23.4996 169.774,20.9286 171.371,18.8586 C170.746,19.6676 170.12,20.4776 169.495,21.2866 L169.507,21.2726 C170.677,20.1856 171.504,18.8986 171.988,17.4106 C172.739,15.9806 173.084,14.4396 173.021,12.7866 C173.021,9.8436 171.714,6.3276 169.507,4.3016 C167.22,2.2026 164.217,0.6446 161.021,0.7866 C158.053,0.9196 154.473,1.8666 152.536,4.3016" id="Fill-20" fill="#828DB7" mask="url(#mask-6)"></path>
                    </g>
                    <path d="M171.7215,137.4284 C171.7715,137.5424 171.8205,137.6574 171.8685,137.7724 C171.4655,136.8174 171.0625,135.8624 170.6595,134.9064 C174.4895,143.9844 177.3325,153.5604 179.4835,163.1624 C180.4865,167.6404 181.3075,172.1574 181.9245,176.7034 C181.7815,175.6404 181.6385,174.5764 181.4955,173.5134 C182.7785,183.1524 183.1285,192.9494 181.8465,202.6074 C181.9895,201.5434 182.1315,200.4814 182.2755,199.4174 C181.4835,205.1764 179.7385,210.6984 178.6845,216.4024 C177.5825,222.3614 176.8165,228.4744 176.9215,234.5464 C177.0925,244.3224 179.2065,254.2434 184.1085,262.7824 C188.0905,269.7194 194.2145,276.0284 201.4575,279.5574 C204.8965,281.2334 208.4915,282.6584 212.2835,283.2514 C214.6175,283.6164 217.0085,283.9734 219.3845,283.986694 C221.7655,283.9984 224.1255,283.6404 226.4765,283.2944 C234.6815,282.0864 242.7205,277.4434 248.2525,271.3244 C250.3835,268.9684 251.7675,266.0764 251.7675,262.8394 C251.7675,259.8964 250.4595,256.3804 248.2525,254.3544 C245.9655,252.2544 242.9635,250.6964 239.7675,250.8394 C236.6785,250.9784 233.4215,251.9894 231.2825,254.3544 C230.1105,255.6504 228.8335,256.8384 227.4515,257.9074 C228.2615,257.2824 229.0715,256.6574 229.8805,256.0324 C228.0365,257.4374 226.0355,258.6084 223.9035,259.5174 C224.8585,259.1144 225.8135,258.7104 226.7695,258.3074 C224.5715,259.2264 222.2725,259.8534 219.9115,260.1774 C220.9755,260.0344 222.0385,259.8914 223.1025,259.7484 C220.6895,260.0634 218.2555,260.0574 215.8445,259.7344 C216.9085,259.8764 217.9705,260.0204 219.0345,260.1624 C216.6515,259.8264 214.3305,259.1874 212.1105,258.2624 C213.0665,258.6654 214.0215,259.0694 214.9775,259.4714 C212.6805,258.4964 210.5315,257.2304 208.5555,255.7074 C209.3655,256.3324 210.1745,256.9584 210.9845,257.5834 C208.9515,255.9944 207.1395,254.1584 205.5525,252.1254 C206.1775,252.9354 206.8035,253.7444 207.4285,254.5544 C205.5635,252.1304 204.0475,249.4734 202.8475,246.6614 C203.2505,247.6174 203.6545,248.5734 204.0575,249.5294 C202.4955,245.8074 201.5115,241.8864 200.9705,237.8914 C201.1145,238.9544 201.2565,240.0184 201.3995,241.0814 C200.6595,235.3794 200.8245,229.6134 201.5675,223.9194 C201.4245,224.9834 201.2815,226.0464 201.1385,227.1104 C201.6835,223.0724 202.5225,219.0924 203.5605,215.1544 C204.8405,210.2944 205.5865,205.3214 206.1225,200.3264 C206.9885,192.2704 206.7455,184.1164 205.8165,176.0764 C204.2045,162.1534 201.1165,148.4924 196.4025,135.2884 C195.1995,131.9184 193.8765,128.5944 192.4455,125.3154 C191.3225,122.7454 187.8475,120.5094 185.2735,119.8004 C182.4015,119.0094 178.5755,119.3664 176.0265,121.0104 C173.4645,122.6614 171.2085,125.1214 170.5115,128.1824 C170.3685,129.2444 170.2265,130.3084 170.0825,131.3714 C170.0895,133.5374 170.6355,135.5574 171.7215,137.4284" id="Fill-23" fill="#6B76A0"></path>
                    <g id="Group-47" transform="translate(190.000000, 201.661000)" fill="#FFFFFF" opacity="0.100000001">
                        <path d="M6.8797,1.866 C7.0447,1.119 6.5737,0.38 5.8277,0.215 C5.0817,0.049 4.3427,0.519 4.1767,1.265 C4.0107,2.012 4.4817,2.752 5.2287,2.918 C5.9747,3.083 6.7137,2.612 6.8797,1.866" id="Fill-25"></path>
                        <path d="M4.0047,17.3025 C4.0357,16.4465 3.3677,15.7265 2.5127,15.6955 C1.6567,15.6625 0.9377,16.3305 0.9047,17.1865 C0.8727,18.0425 1.5407,18.7625 2.3977,18.7935 C3.2527,18.8255 3.9727,18.1575 4.0047,17.3025" id="Fill-27"></path>
                        <path d="M3.7118,30.616 C3.6098,29.65 2.7448,28.951 1.7798,29.053 C0.8148,29.154 0.1138,30.019 0.2168,30.984 C0.3178,31.95 1.1838,32.65 2.1488,32.548 C3.1138,32.446 3.8138,31.581 3.7118,30.616" id="Fill-29"></path>
                        <path d="M5.6581,41.7537 C5.4231,40.6797 4.3601,39.9987 3.2861,40.2347 C2.2111,40.4707 1.5311,41.5327 1.7661,42.6077 C2.0021,43.6827 3.0641,44.3617 4.1381,44.1267 C5.2141,43.8917 5.8941,42.8287 5.6581,41.7537" id="Fill-31"></path>
                        <path d="M9.4998,50.6648 C9.1308,49.4798 7.8708,48.8198 6.6868,49.1888 C5.5028,49.5588 4.8428,50.8178 5.2118,52.0028 C5.5808,53.1858 6.8408,53.8468 8.0238,53.4778 C9.2088,53.1078 9.8688,51.8488 9.4998,50.6648" id="Fill-33"></path>
                        <path d="M14.8934,57.2957 C14.3904,56.0017 12.9334,55.3607 11.6404,55.8637 C10.3464,56.3667 9.7064,57.8237 10.2084,59.1167 C10.7114,60.4107 12.1684,61.0517 13.4614,60.5487 C14.7554,60.0457 15.3964,58.5887 14.8934,57.2957" id="Fill-35"></path>
                        <path d="M21.494,61.5936 C20.857,60.1906 19.204,59.5696 17.801,60.2056 C16.397,60.8426 15.776,62.4966 16.414,63.8996 C17.051,65.3026 18.704,65.9236 20.107,65.2866 C21.51,64.6506 22.131,62.9956 21.494,61.5936" id="Fill-37"></path>
                        <path d="M28.9588,63.5066 C28.1878,61.9936 26.3378,61.3926 24.8248,62.1626 C23.3128,62.9336 22.7118,64.7846 23.4818,66.2966 C24.2528,67.8096 26.1038,68.4106 27.6158,67.6406 C29.1288,66.8696 29.7298,65.0186 28.9588,63.5066" id="Fill-39"></path>
                        <path d="M36.9442,62.9822 C36.0402,61.3602 33.9922,60.7782 32.3702,61.6832 C30.7482,62.5872 30.1672,64.6352 31.0712,66.2562 C31.9752,67.8782 34.0232,68.4612 35.6452,67.5562 C37.2672,66.6522 37.8482,64.6032 36.9442,62.9822" id="Fill-41"></path>
                        <path d="M45.1063,59.9676 C44.0683,58.2366 41.8233,57.6746 40.0913,58.7126 C38.3603,59.7506 37.7983,61.9956 38.8363,63.7276 C39.8753,65.4586 42.1203,66.0206 43.8513,64.9826 C45.5823,63.9446 46.1443,61.6986 45.1063,59.9676" id="Fill-43"></path>
                        <path d="M51.8895,59.866 C53.7305,58.694 54.2725,56.252 53.1005,54.412 C51.9285,52.571 49.4865,52.029 47.6455,53.201 C45.8045,54.373 45.2625,56.814 46.4345,58.655 C47.6065,60.496 50.0485,61.038 51.8895,59.866" id="Fill-45"></path>
                    </g>
                    <path d="M181.9657,139.8913 C183.2287,148.6643 184.7547,157.4063 186.3617,166.1203 C187.9507,174.7393 189.6687,183.3323 191.5527,191.8913 C193.0127,198.5193 194.5597,205.1023 197.1157,211.4093 C199.3387,216.8933 201.7947,222.2333 205.2537,227.0583 C208.2417,231.2253 211.5057,235.1743 215.4127,238.5093 C221.8857,244.0343 229.0307,248.1143 236.7317,251.6373 C243.0707,254.5383 249.5777,257.2303 255.3577,261.1863 C256.0817,261.6823 256.7927,262.1993 257.4907,262.7333 C256.6817,262.1083 255.8717,261.4823 255.0627,260.8573 C257.7997,262.9723 260.2687,265.3973 262.3867,268.1353 C261.7607,267.3263 261.1357,266.5163 260.5107,265.7063 C262.7207,268.5943 264.5047,271.7673 265.9277,275.1113 C265.5247,274.1563 265.1207,273.2003 264.7177,272.2453 C267.0377,277.7693 268.3707,283.6423 269.1807,289.5643 C269.0377,288.5013 268.8957,287.4383 268.7517,286.3743 C269.5107,292.0643 269.7877,297.8023 269.7947,303.5393 C269.7987,306.6193 271.1307,309.8463 273.3097,312.0253 C275.3917,314.1063 278.8057,315.6733 281.7947,315.5393 C288.2907,315.2483 293.8027,310.2673 293.794709,303.5393 C293.7827,292.9843 292.9637,282.0863 289.9967,271.9123 C287.6037,263.7033 283.7637,256.3163 278.2527,249.7953 C270.4527,240.5653 259.3817,235.7443 248.6747,230.8363 C242.8437,228.1633 237.1087,225.2423 232.0017,221.3223 C232.8117,221.9473 233.6207,222.5733 234.4307,223.1983 C231.0077,220.5503 227.9327,217.5013 225.2727,214.0873 C225.8977,214.8973 226.5237,215.7063 227.1487,216.5163 C224.0057,212.4443 221.4977,207.9413 219.4857,203.2133 C219.8887,204.1693 220.2907,205.1243 220.6947,206.0803 C218.8347,201.6653 217.3977,197.0873 216.2677,192.4343 C214.5837,185.4993 213.1547,178.4933 211.7587,171.4953 C209.6367,160.8573 207.7197,150.1763 206.0207,139.4623 C205.7057,137.4813 205.3947,135.4973 205.1087,133.5113 C204.7107,130.7493 201.8817,127.6783 199.5937,126.3393 C197.0217,124.8343 193.2317,124.1973 190.3477,125.1303 C187.4437,126.0703 184.6427,127.8693 183.1757,130.6453 C182.7727,131.6003 182.3687,132.5563 181.9657,133.5113 C181.3947,135.6383 181.3947,137.7653 181.9657,139.8913" id="Fill-48" fill="#828DB7"></path>
                    <g id="Group-52" transform="translate(81.000000, 113.661000)">
                        <mask id="mask-8" fill="white">
                            <use xlink:href="#path-7"></use>
                        </mask>
                        <g id="Clip-51"></g>
                        <path d="M91.0116,9.7303 C85.8836,23.2953 82.2546,37.3183 81.1556,51.8163 C80.1236,65.4003 81.9336,79.3553 86.1336,92.3033 C87.9726,97.9713 90.0696,103.4353 90.8846,109.3763 C90.7416,108.3133 90.5986,107.2503 90.4556,106.1863 C90.8966,109.5523 90.9766,112.9503 90.5316,116.3203 C90.6746,115.2563 90.8176,114.1943 90.9596,113.1303 C90.5776,115.8653 89.8536,118.5233 88.7896,121.0713 C89.1936,120.1163 89.5966,119.1613 89.9996,118.2053 C88.5996,121.5003 86.6766,124.5203 84.4966,127.3523 C85.1226,126.5423 85.7476,125.7333 86.3736,124.9233 C82.1796,130.3353 77.1946,135.0713 72.9716,140.4603 C70.2336,143.9563 67.5766,147.4793 65.6216,151.4843 C63.5026,155.8233 61.7566,160.3823 60.9976,165.1663 C60.4506,168.6153 60.0236,172.0723 60.0496,175.5673 C60.0706,178.2383 60.0046,180.8803 59.6576,183.5333 C59.7996,182.4693 59.9436,181.4063 60.0856,180.3433 C59.6196,183.7313 58.7716,187.0463 57.4616,190.2093 C57.8656,189.2533 58.2686,188.2973 58.6716,187.3423 C57.5386,190.0243 56.0916,192.5493 54.3176,194.8593 C54.9426,194.0493 55.5686,193.2403 56.1936,192.4303 C54.5676,194.5163 52.6996,196.3883 50.6136,198.0143 C51.4226,197.3883 52.2326,196.7633 53.0416,196.1373 C50.9166,197.7693 48.6026,199.1203 46.1386,200.1703 C47.0936,199.7673 48.0496,199.3643 49.0046,198.9603 C46.4706,200.0223 43.8196,200.7513 41.0976,201.1323 C42.1606,200.9903 43.2246,200.8463 44.2876,200.7043 C41.5476,201.0703 38.7796,201.0793 36.0386,200.7113 C37.1016,200.8543 38.1646,200.9973 39.2286,201.1403 C36.7846,200.7953 34.4016,200.1563 32.1206,199.2093 C33.0766,199.6123 34.0326,200.0153 34.9876,200.4183 C32.8906,199.5313 30.9186,198.3953 29.1066,197.0173 C29.9156,197.6423 30.7256,198.2673 31.5346,198.8933 C29.7336,197.5013 28.1266,195.8933 26.7336,194.0933 C27.3596,194.9033 27.9846,195.7123 28.6106,196.5223 C27.1846,194.6513 26.0156,192.6153 25.0876,190.4553 C25.4906,191.4103 25.8946,192.3653 26.2976,193.3213 C25.1546,190.5993 24.4166,187.7433 24.0056,184.8233 C24.1486,185.8863 24.2916,186.9503 24.4346,188.0123 C24.3996,187.7503 24.3656,187.4883 24.3346,187.2243 C24.3976,185.5723 24.0526,184.0313 23.3016,182.6013 C22.8176,181.1133 21.9906,179.8263 20.8206,178.7393 C18.7396,176.6583 15.3236,175.0903 12.3346,175.2243 C9.2316,175.3643 6.0126,176.3823 3.8496,178.7393 C1.8456,180.9213 -0.0344,184.1403 0.3346,187.2243 C0.6846,190.1423 1.0376,193.0723 1.8306,195.9093 C2.5716,198.5553 3.6616,201.1293 4.8306,203.6083 C6.5886,207.3373 9.1836,210.8313 12.1066,213.7213 C14.9446,216.5283 18.3246,219.0553 21.9616,220.7403 C24.2176,221.7853 26.5376,222.7903 28.9386,223.4673 C31.3566,224.1503 33.8476,224.4473 36.3366,224.7513 C44.4666,225.7433 52.7986,223.6893 60.0516,220.0653 C67.6136,216.2873 74.1806,209.6593 78.1056,202.1963 C80.5806,197.4903 82.3906,192.4033 83.1706,187.1393 C83.6816,183.6933 84.0946,180.2703 84.0666,176.7843 C84.0466,174.3083 84.1016,171.8603 84.4176,169.4013 C84.2756,170.4643 84.1316,171.5283 83.9896,172.5913 C84.4536,169.1563 85.3496,165.8103 86.6956,162.6143 C86.2916,163.5693 85.8886,164.5253 85.4856,165.4803 C87.0736,161.7713 89.2256,158.3643 91.6846,155.1743 C91.0596,155.9843 90.4336,156.7933 89.8086,157.6033 C95.8036,149.8783 103.2716,143.3423 108.3676,134.9123 C111.1706,130.2763 113.2976,125.0023 114.0866,119.6273 C114.6236,115.9683 115.0026,112.4063 114.7226,108.7133 C114.4136,104.6473 113.7786,100.5543 112.7536,96.6033 C111.6046,92.1753 109.8526,87.9453 108.5416,83.5663 C107.0726,78.6523 105.9766,73.6363 105.2796,68.5543 C105.4226,69.6183 105.5656,70.6813 105.7076,71.7453 C104.5586,63.0793 104.6516,54.3333 105.8046,45.6733 C105.6616,46.7373 105.5186,47.7993 105.3756,48.8633 C106.9186,37.6213 110.1496,26.7063 114.1556,16.1113 C115.1966,13.3563 114.3776,9.3133 112.9456,6.8643 C111.4886,4.3753 108.6346,2.0013 105.7736,1.3493 C102.7016,0.6503 99.2536,0.8013 96.5266,2.5593 C95.7176,3.1843 94.9076,3.8103 94.0986,4.4353 C92.6116,5.9323 91.5816,7.6983 91.0116,9.7303" id="Fill-50" fill="#828DB7" mask="url(#mask-8)"></path>
                    </g>
                    <g id="Group-75" transform="translate(219.000000, 230.661000)" fill="#FFFFFF" opacity="0.100000001">
                        <path d="M3.1483,2.6697 C3.3143,1.9227 2.8433,1.1837 2.0973,1.0177 C1.3503,0.8527 0.6113,1.3227 0.4453,2.0687 C0.2803,2.8157 0.7513,3.5557 1.4973,3.7207 C2.2443,3.8867 2.9833,3.4157 3.1483,2.6697" id="Fill-53"></path>
                        <path d="M11.9666,8.7928 C11.9976,7.9378 11.3296,7.2178 10.4746,7.1858 C9.6186,7.1538 8.8996,7.8218 8.8666,8.6778 C8.8346,9.5328 9.5026,10.2528 10.3596,10.2848 C11.2146,10.3168 11.9346,9.6488 11.9666,8.7928" id="Fill-55"></path>
                        <path d="M21.2225,13.3348 C21.1205,12.3698 20.2555,11.6698 19.2905,11.7718 C18.3255,11.8728 17.6245,12.7378 17.7275,13.7038 C17.8285,14.6688 18.6945,15.3688 19.6595,15.2678 C20.6245,15.1648 21.3245,14.2998 21.2225,13.3348" id="Fill-57"></path>
                        <path d="M30.2137,17.1082 C29.9787,16.0342 28.9157,15.3532 27.8407,15.5892 C26.7667,15.8252 26.0857,16.8872 26.3217,17.9622 C26.5577,19.0372 27.6187,19.7162 28.6937,19.4812 C29.7697,19.2462 30.4487,18.1832 30.2137,17.1082" id="Fill-59"></path>
                        <path d="M37.659,20.4744 C37.29,19.2894 36.03,18.6294 34.846,18.9984 C33.662,19.3684 33.002,20.6274 33.371,21.8114 C33.74,22.9954 35,23.6564 36.183,23.2874 C37.368,22.9174 38.028,21.6584 37.659,20.4744" id="Fill-61"></path>
                        <path d="M44.6229,24.5711 C44.1199,23.2771 42.6629,22.6361 41.3699,23.1391 C40.0759,23.6421 39.4359,25.0991 39.9379,26.3921 C40.4409,27.6861 41.8979,28.3271 43.1909,27.8241 C44.4849,27.3211 45.1259,25.8641 44.6229,24.5711" id="Fill-63"></path>
                        <path d="M50.8739,29.9334 C50.2369,28.5304 48.5839,27.9094 47.1809,28.5454 C45.7769,29.1824 45.1559,30.8364 45.7929,32.2394 C46.4309,33.6424 48.0839,34.2634 49.4869,33.6264 C50.8899,32.9904 51.5109,31.3354 50.8739,29.9334" id="Fill-65"></path>
                        <path d="M56.1815,37.0965 C55.4105,35.5835 53.5605,34.9825 52.0475,35.7525 C50.5355,36.5235 49.9345,38.3745 50.7045,39.8865 C51.4755,41.3995 53.3265,42.0005 54.8385,41.2305 C56.3515,40.4585 56.9525,38.6085 56.1815,37.0965" id="Fill-67"></path>
                        <path d="M60.3153,46.5945 C59.4113,44.9725 57.3633,44.3915 55.7413,45.2955 C54.1193,46.1995 53.5383,48.2475 54.4423,49.8695 C55.3463,51.4915 57.3943,52.0735 59.0163,51.1685 C60.6383,50.2645 61.2193,48.2165 60.3153,46.5945" id="Fill-69"></path>
                        <path d="M63.0438,58.9637 C62.0058,57.2327 59.7608,56.6707 58.0298,57.7087 C56.2988,58.7467 55.7358,60.9917 56.7748,62.7237 C57.8138,64.4547 60.0588,65.0167 61.7888,63.9787 C63.5208,62.9407 64.0828,60.6947 63.0438,58.9637" id="Fill-71"></path>
                        <path d="M62.9266,80.1932 C64.7676,79.0212 65.3096,76.5792 64.1376,74.7382 C62.9656,72.8982 60.5236,72.3552 58.6826,73.5282 C56.8416,74.7002 56.2996,77.1412 57.4716,78.9822 C58.6436,80.8232 61.0856,81.3652 62.9266,80.1932" id="Fill-73"></path>
                    </g>
                    <g id="Group-98" transform="translate(91.000000, 238.661000)" fill="#FFFFFF" opacity="0.100000001">
                        <path d="M83.0409,2.0271 C83.2069,1.2811 82.7359,0.5411 81.9889,0.3761 C81.2429,0.2101 80.5039,0.6801 80.3379,1.4261 C80.1719,2.1731 80.6429,2.9131 81.3899,3.0791 C82.1359,3.2441 82.8749,2.7731 83.0409,2.0271" id="Fill-76"></path>
                        <path d="M75.1649,12.5594 C75.1959,11.7044 74.5279,10.9844 73.6729,10.9524 C72.8159,10.9204 72.0979,11.5884 72.0649,12.4444 C72.0329,13.2994 72.7009,14.0194 73.5569,14.0514 C74.4129,14.0834 75.1329,13.4154 75.1649,12.5594" id="Fill-78"></path>
                        <path d="M66.9959,23.3689 C66.8939,22.4039 66.0289,21.7039 65.0639,21.8059 C64.0989,21.9079 63.3989,22.7729 63.5009,23.7379 C63.6019,24.7029 64.4679,25.4029 65.4329,25.3019 C66.3979,25.1999 67.0989,24.3349 66.9959,23.3689" id="Fill-80"></path>
                        <path d="M61.1043,36.5018 C60.8693,35.4278 59.8063,34.7468 58.7313,34.9818 C57.6573,35.2188 56.9763,36.2798 57.2113,37.3558 C57.4483,38.4298 58.5093,39.1098 59.5843,38.8748 C60.6593,38.6398 61.3393,37.5768 61.1043,36.5018" id="Fill-82"></path>
                        <path d="M59.6707,54.2147 C59.3017,53.0297 58.0417,52.3697 56.8577,52.7387 C55.6737,53.1087 55.0137,54.3677 55.3827,55.5527 C55.7517,56.7357 57.0117,57.3977 58.1947,57.0277 C59.3797,56.6577 60.0397,55.3987 59.6707,54.2147" id="Fill-84"></path>
                        <path d="M55.2918,70.9334 C54.7888,69.6394 53.3328,68.9984 52.0388,69.5014 C50.7458,70.0044 50.1048,71.4614 50.6078,72.7554 C51.1108,74.0484 52.5668,74.6894 53.8608,74.1864 C55.1538,73.6834 55.7958,72.2264 55.2918,70.9334" id="Fill-86"></path>
                        <path d="M46.0096,81.3856 C45.3726,79.9836 43.7196,79.3626 42.3166,79.9986 C40.9136,80.6356 40.2926,82.2886 40.9296,83.6926 C41.5666,85.0956 43.2196,85.7156 44.6226,85.0786 C46.0266,84.4426 46.6476,82.7886 46.0096,81.3856" id="Fill-88"></path>
                        <path d="M34.2088,85.5067 C33.4378,83.9937 31.5878,83.3927 30.0748,84.1627 C28.5628,84.9337 27.9618,86.7847 28.7318,88.2967 C29.5028,89.8097 31.3538,90.4107 32.8658,89.6407 C34.3788,88.8687 34.9798,87.0187 34.2088,85.5067" id="Fill-90"></path>
                        <path d="M22.2752,83.2293 C21.3712,81.6073 19.3232,81.0253 17.7012,81.9293 C16.0792,82.8343 15.4982,84.8823 16.4022,86.5033 C17.3062,88.1253 19.3542,88.7083 20.9762,87.8033 C22.5972,86.8983 23.1792,84.8503 22.2752,83.2293" id="Fill-92"></path>
                        <path d="M12.5926,74.4881 C11.5546,72.7571 9.3096,72.1951 7.5776,73.2331 C5.8476,74.2711 5.2846,76.5161 6.3226,78.2481 C7.3616,79.9791 9.6066,80.5411 11.3376,79.5031 C13.0696,78.4651 13.6306,76.2191 12.5926,74.4881" id="Fill-94"></path>
                        <path d="M6.3368,64.6727 C8.1778,63.5007 8.7198,61.0587 7.5478,59.2177 C6.3758,57.3767 3.9338,56.8347 2.0928,58.0067 C0.2518,59.1787 -0.2902,61.6207 0.8818,63.4617 C2.0538,65.3027 4.4958,65.8447 6.3368,64.6727" id="Fill-96"></path>
                    </g>
                    <g id="Group-121" transform="translate(2.000000, 186.661000)" fill="#FFFFFF" opacity="0.100000001">
                        <path d="M108.1239,45.1922 C108.2889,44.4452 107.8179,43.7062 107.0719,43.5402 C106.3259,43.3752 105.5859,43.8452 105.4209,44.5912 C105.2549,45.3382 105.7259,46.0782 106.4729,46.2432 C107.2189,46.4092 107.9579,45.9382 108.1239,45.1922" id="Fill-99"></path>
                        <path d="M93.5252,43.2068 C93.5572,42.3518 92.8892,41.6318 92.0332,41.5998 C91.1772,41.5668 90.4582,42.2348 90.4252,43.0918 C90.3932,43.9468 91.0612,44.6668 91.9182,44.6988 C92.7732,44.7308 93.4932,44.0628 93.5252,43.2068" id="Fill-101"></path>
                        <path d="M82.0848,36.2342 C81.9818,35.2692 81.1178,34.5692 80.1518,34.6712 C79.1878,34.7732 78.4868,35.6382 78.5888,36.6032 C78.6898,37.5682 79.5558,38.2682 80.5218,38.1672 C81.4858,38.0652 82.1868,37.2002 82.0848,36.2342" id="Fill-103"></path>
                        <path d="M72.7303,24.0994 C72.4953,23.0254 71.4323,22.3444 70.3573,22.5794 C69.2833,22.8164 68.6023,23.8774 68.8383,24.9534 C69.0743,26.0274 70.1363,26.7074 71.2103,26.4724 C72.2863,26.2364 72.9653,25.1744 72.7303,24.0994" id="Fill-105"></path>
                        <path d="M63.9334,10.5906 C63.5644,9.4056 62.3044,8.7456 61.1204,9.1146 C59.9364,9.4846 59.2764,10.7436 59.6454,11.9276 C60.0144,13.1116 61.2744,13.7726 62.4574,13.4036 C63.6424,13.0336 64.3024,11.7746 63.9334,10.5906" id="Fill-107"></path>
                        <path d="M51.3807,3.241 C50.8777,1.947 49.4207,1.306 48.1277,1.809 C46.8337,2.312 46.1937,3.769 46.6957,5.062 C47.1987,6.356 48.6557,6.997 49.9497,6.494 C51.2427,5.991 51.8837,4.534 51.3807,3.241" id="Fill-109"></path>
                        <path d="M36.8778,2.2508 C36.2408,0.8488 34.5878,0.2278 33.1848,0.8638 C31.7808,1.5008 31.1598,3.1538 31.7968,4.5578 C32.4348,5.9608 34.0878,6.5818 35.4908,5.9438 C36.8938,5.3078 37.5148,3.6538 36.8778,2.2508" id="Fill-111"></path>
                        <path d="M24.3856,7.0135 C23.6146,5.5005 21.7646,4.8995 20.2516,5.6705 C18.7396,6.4415 18.1386,8.2915 18.9086,9.8045 C19.6796,11.3165 21.5306,11.9175 23.0426,11.1475 C24.5546,10.3765 25.1566,8.5265 24.3856,7.0135" id="Fill-113"></path>
                        <path d="M14.5516,17.0379 C13.6476,15.4159 11.5996,14.8349 9.9776,15.7389 C8.3566,16.6429 7.7746,18.6909 8.6786,20.3129 C9.5826,21.9349 11.6306,22.5169 13.2526,21.6119 C14.8746,20.7079 15.4566,18.6599 14.5516,17.0379" id="Fill-115"></path>
                        <path d="M8.8836,32.0877 C7.8456,30.3567 5.6006,29.7947 3.8696,30.8327 C2.1386,31.8707 1.5756,34.1157 2.6146,35.8477 C3.6536,37.5787 5.8986,38.1407 7.6286,37.1027 C9.3606,36.0647 9.9226,33.8187 8.8836,32.0877" id="Fill-117"></path>
                        <path d="M6.9686,52.3045 C8.8096,51.1325 9.3516,48.6905 8.1796,46.8495 C7.0076,45.0085 4.5656,44.4665 2.7246,45.6385 C0.8836,46.8105 0.3416,49.2525 1.5136,51.0935 C2.6856,52.9345 5.1276,53.4765 6.9686,52.3045" id="Fill-119"></path>
                    </g>
                    <g id="Group-144" transform="translate(41.000000, 108.661000)" fill="#FFFFFF" opacity="0.100000001">
                        <path d="M76.4696,65.1151 C76.6356,64.3681 76.1646,63.6291 75.4176,63.4631 C74.6716,63.2981 73.9326,63.7681 73.7666,64.5141 C73.6006,65.2611 74.0716,66.0011 74.8186,66.1661 C75.5646,66.3321 76.3036,65.8611 76.4696,65.1151" id="Fill-122"></path>
                        <path d="M66.2323,63.326 C66.2643,62.471 65.5963,61.751 64.7403,61.719 C63.8843,61.687 63.1653,62.354 63.1323,63.211 C63.1003,64.066 63.7683,64.786 64.6253,64.818 C65.4803,64.85 66.2003,64.182 66.2323,63.326" id="Fill-124"></path>
                        <path d="M56.0584,58.6893 C55.9564,57.7233 55.0914,57.0243 54.1264,57.1263 C53.1614,57.2273 52.4604,58.0923 52.5634,59.0573 C52.6644,60.0233 53.5304,60.7233 54.4954,60.6213 C55.4604,60.5193 56.1614,59.6543 56.0584,58.6893" id="Fill-126"></path>
                        <path d="M49.8846,51.2234 C49.6496,50.1484 48.5866,49.4684 47.5126,49.7034 C46.4376,49.9394 45.7576,51.0014 45.9926,52.0764 C46.2286,53.1514 47.2906,53.8304 48.3646,53.5954 C49.4406,53.3604 50.1196,52.2974 49.8846,51.2234" id="Fill-128"></path>
                        <path d="M46.5575,41.9295 C46.1885,40.7445 44.9285,40.0845 43.7445,40.4535 C42.5605,40.8235 41.9005,42.0825 42.2695,43.2665 C42.6385,44.4505 43.8985,45.1115 45.0815,44.7425 C46.2665,44.3725 46.9265,43.1135 46.5575,41.9295" id="Fill-130"></path>
                        <path d="M44.6678,31.785 C44.1648,30.491 42.7088,29.85 41.4148,30.353 C40.1208,30.856 39.4808,32.313 39.9828,33.606 C40.4858,34.9 41.9428,35.541 43.2368,35.038 C44.5298,34.535 45.1708,33.078 44.6678,31.785" id="Fill-132"></path>
                        <path d="M42.8065,21.7674 C42.1685,20.3654 40.5155,19.7444 39.1125,20.3804 C37.7095,21.0174 37.0885,22.6704 37.7255,24.0744 C38.3625,25.4774 40.0155,26.0984 41.4185,25.4604 C42.8225,24.8244 43.4435,23.1704 42.8065,21.7674" id="Fill-134"></path>
                        <path d="M39.5623,12.8553 C38.7913,11.3433 36.9413,10.7423 35.4283,11.5123 C33.9163,12.2833 33.3153,14.1333 34.0853,15.6463 C34.8563,17.1593 36.7073,17.7603 38.2193,16.9893 C39.7323,16.2183 40.3333,14.3683 39.5623,12.8553" id="Fill-136"></path>
                        <path d="M33.5282,6.0262 C32.6242,4.4052 30.5752,3.8232 28.9542,4.7272 C27.3322,5.6312 26.7502,7.6792 27.6542,9.3012 C28.5592,10.9232 30.6072,11.5052 32.2282,10.6002 C33.8502,9.6962 34.4322,7.6482 33.5282,6.0262" id="Fill-138"></path>
                        <path d="M23.2918,2.2576 C22.2538,0.5266 20.0088,-0.0354 18.2778,1.0026 C16.5468,2.0406 15.9838,4.2856 17.0218,6.0176 C18.0618,7.7486 20.3068,8.3106 22.0368,7.2726 C23.7688,6.2346 24.3298,3.9886 23.2918,2.2576" id="Fill-140"></path>
                        <path d="M6.2352,7.9822 C8.0762,6.8092 8.6182,4.3682 7.4462,2.5272 C6.2742,0.6862 3.8322,0.1442 1.9922,1.3162 C0.1512,2.4882 -0.3908,4.9302 0.7812,6.7712 C1.9532,8.6112 4.3942,9.1542 6.2352,7.9822" id="Fill-142"></path>
                    </g>
                    <g id="Group-167" transform="translate(65.000000, 207.661000)" fill="#FFFFFF" opacity="0.100000001">
                        <path d="M94.0545,1.949 C94.2205,1.202 93.7495,0.463 93.0025,0.298 C92.2565,0.132 91.5175,0.602 91.3515,1.348 C91.1865,2.095 91.6575,2.835 92.4035,3 C93.1495,3.166 93.8895,2.695 94.0545,1.949" id="Fill-145"></path>
                        <path d="M92.4481,17.949 C92.4801,17.094 91.8121,16.374 90.9561,16.342 C90.1001,16.309 89.3811,16.977 89.3481,17.834 C89.3171,18.689 89.9851,19.409 90.8411,19.441 C91.6961,19.473 92.4161,18.805 92.4481,17.949" id="Fill-147"></path>
                        <path d="M90.5077,30.2137 C90.4057,29.2487 89.5407,28.5487 88.5757,28.6507 C87.6107,28.7527 86.9107,29.6167 87.0127,30.5827 C87.1137,31.5477 87.9797,32.2477 88.9447,32.1467 C89.9097,32.0447 90.6107,31.1797 90.5077,30.2137" id="Fill-149"></path>
                        <path d="M86.0565,38.1717 C85.8215,37.0967 84.7585,36.4167 83.6835,36.6517 C82.6095,36.8877 81.9285,37.9497 82.1645,39.0257 C82.4005,40.0997 83.4625,40.7797 84.5365,40.5437 C85.6125,40.3087 86.2915,39.2457 86.0565,38.1717" id="Fill-151"></path>
                        <path d="M76.9149,41.2508 C76.5459,40.0658 75.2869,39.4058 74.1019,39.7748 C72.9189,40.1448 72.2579,41.4038 72.6269,42.5888 C72.9969,43.7718 74.2559,44.4328 75.4399,44.0638 C76.6239,43.6938 77.2849,42.4348 76.9149,41.2508" id="Fill-153"></path>
                        <path d="M62.3739,40.6775 C61.8709,39.3845 60.4139,38.7425 59.1199,39.2465 C57.8269,39.7495 57.1869,41.2055 57.6889,42.4995 C58.1919,43.7935 59.6489,44.4345 60.9419,43.9315 C62.2359,43.4275 62.8769,41.9715 62.3739,40.6775" id="Fill-155"></path>
                        <path d="M50.6678,43.9646 C50.0308,42.5616 48.3778,41.9406 46.9748,42.5766 C45.5708,43.2136 44.9498,44.8676 45.5878,46.2706 C46.2248,47.6736 47.8778,48.2946 49.2808,47.6576 C50.6838,47.0216 51.3048,45.3666 50.6678,43.9646" id="Fill-157"></path>
                        <path d="M41.5243,49.6072 C40.7533,48.0952 38.9033,47.4942 37.3903,48.2642 C35.8783,49.0352 35.2773,50.8852 36.0473,52.3982 C36.8183,53.9112 38.6693,54.5122 40.1813,53.7412 C41.6943,52.9702 42.2953,51.1202 41.5243,49.6072" id="Fill-159"></path>
                        <path d="M32.7967,54.8016 C31.8927,53.1796 29.8447,52.5976 28.2227,53.5026 C26.6007,54.4066 26.0197,56.4546 26.9237,58.0766 C27.8277,59.6976 29.8757,60.2806 31.4977,59.3756 C33.1197,58.4716 33.7007,56.4236 32.7967,54.8016" id="Fill-161"></path>
                        <path d="M22.3377,56.7391 C21.2997,55.0081 19.0547,54.4461 17.3227,55.4841 C15.5917,56.5221 15.0297,58.7671 16.0677,60.4991 C17.1067,62.2301 19.3517,62.7921 21.0827,61.7541 C22.8137,60.7161 23.3757,58.4701 22.3377,56.7391" id="Fill-163"></path>
                        <path d="M6.7889,58.0691 C8.6289,56.8971 9.1719,54.4551 7.9989,52.6141 C6.8269,50.7731 4.3859,50.2311 2.5449,51.4031 C0.7039,52.5751 0.1619,55.0171 1.3339,56.8581 C2.5059,58.6991 4.9479,59.2411 6.7889,58.0691" id="Fill-165"></path>
                    </g>
                    <g id="Group-190" transform="translate(237.000000, 201.661000)" fill="#FFFFFF" opacity="0.100000001">
                        <path d="M1.6239,0.8856 C0.8689,0.7636 0.1579,1.2766 0.0359,2.0316 C-0.0861,2.7856 0.4269,3.4966 1.1819,3.6186 C1.9359,3.7406 2.6469,3.2286 2.7699,2.4736 C2.8919,1.7196 2.3789,1.0076 1.6239,0.8856" id="Fill-168"></path>
                        <path d="M10.7489,4.3455 C9.8929,4.3635 9.2119,5.0715 9.2289,5.9275 C9.2469,6.7835 9.9559,7.4635 10.8119,7.4465 C11.6679,7.4285 12.3489,6.7205 12.3309,5.8645 C12.3129,5.0075 11.6039,4.3275 10.7489,4.3455" id="Fill-170"></path>
                        <path d="M21.6151,4.827 C20.6571,4.984 20.0091,5.889 20.1661,6.846 C20.3231,7.804 21.2271,8.453 22.1851,8.295 C23.1421,8.138 23.7921,7.233 23.6351,6.276 C23.4771,5.318 22.5731,4.669 21.6151,4.827" id="Fill-172"></path>
                        <path d="M34.1815,3.5926 C33.1225,3.8906 32.5045,4.9896 32.8015,6.0496 C33.0995,7.1086 34.1995,7.7266 35.2585,7.4296 C36.3175,7.1316 36.9355,6.0316 36.6385,4.9726 C36.3405,3.9136 35.2415,3.2956 34.1815,3.5926" id="Fill-174"></path>
                        <path d="M43.7196,5.3094 C42.5586,5.7464 41.9716,7.0414 42.4086,8.2034 C42.8466,9.3634 44.1416,9.9504 45.3026,9.5124 C46.4626,9.0764 47.0496,7.7804 46.6136,6.6204 C46.1756,5.4584 44.8806,4.8724 43.7196,5.3094" id="Fill-176"></path>
                        <path d="M51.1873,8.9158 C49.9243,9.4928 49.3693,10.9838 49.9463,12.2468 C50.5233,13.5088 52.0143,14.0638 53.2773,13.4868 C54.5393,12.9108 55.0943,11.4198 54.5173,10.1568 C53.9413,8.8948 52.4503,8.3388 51.1873,8.9158" id="Fill-178"></path>
                        <path d="M57.825,13.2635 C56.462,13.9805 55.937,15.6665 56.654,17.0315 C57.371,18.3955 59.057,18.9195 60.422,18.2025 C61.785,17.4865 62.309,15.7985 61.593,14.4355 C60.876,13.0715 59.189,12.5465 57.825,13.2635" id="Fill-180"></path>
                        <path d="M64.8739,17.202 C63.4089,18.058 62.9149,19.941 63.7709,21.406 C64.6289,22.872 66.5109,23.365 67.9769,22.509 C69.4409,21.652 69.9359,19.769 69.0779,18.304 C68.2219,16.839 66.3399,16.346 64.8739,17.202" id="Fill-182"></path>
                        <path d="M73.5731,19.5809 C72.0061,20.5769 71.5441,22.6549 72.5401,24.2229 C73.5361,25.7889 75.6141,26.2519 77.1811,25.2549 C78.7481,24.2589 79.2111,22.1809 78.2141,20.6129 C77.2181,19.0469 75.1391,18.5839 73.5731,19.5809" id="Fill-184"></path>
                        <path d="M85.161,19.2508 C83.493,20.3868 83.061,22.6608 84.198,24.3288 C85.335,25.9978 87.608,26.4288 89.276,25.2928 C90.945,24.1558 91.377,21.8828 90.24,20.2138 C89.103,18.5458 86.83,18.1138 85.161,19.2508" id="Fill-186"></path>
                        <path d="M106.3963,15.9549 C105.1203,14.1849 102.6503,13.7849 100.8803,15.0609 C99.1103,16.3379 98.7093,18.8079 99.9863,20.5769 C101.2623,22.3479 103.7323,22.7469 105.5013,21.4709 C107.2723,20.1949 107.6723,17.7259 106.3963,15.9549" id="Fill-188"></path>
                    </g>
                    <g id="Group-213" transform="translate(255.000000, 110.661000)" fill="#FFFFFF" opacity="0.100000001">
                        <path d="M1.6893,65.2088 C0.9343,65.0858 0.2233,65.5988 0.1013,66.3538 C-0.0207,67.1078 0.4923,67.8188 1.2473,67.9408 C2.0013,68.0638 2.7123,67.5518 2.8353,66.7968 C2.9573,66.0418 2.4443,65.3308 1.6893,65.2088" id="Fill-191"></path>
                        <path d="M14.1532,65.1629 C13.2982,65.1809 12.6172,65.8889 12.6342,66.7449 C12.6522,67.6009 13.3612,68.2809 14.2162,68.2639 C15.0732,68.2459 15.7532,67.5379 15.7362,66.6819 C15.7182,65.8249 15.0092,65.1449 14.1532,65.1629" id="Fill-193"></path>
                        <path d="M22.6131,61.2879 C21.6561,61.4449 21.0071,62.3499 21.1641,63.3069 C21.3221,64.2649 22.2251,64.9139 23.1831,64.7559 C24.1411,64.5989 24.7901,63.6939 24.6331,62.7369 C24.4751,61.7789 23.5711,61.1299 22.6131,61.2879" id="Fill-195"></path>
                        <path d="M28.1014,54.491 C27.0424,54.788 26.4244,55.888 26.7224,56.947 C27.0194,58.007 28.1194,58.625 29.1784,58.327 C30.2384,58.03 30.8554,56.93 30.5584,55.871 C30.2604,54.811 29.1614,54.194 28.1014,54.491" id="Fill-197"></path>
                        <path d="M31.6512,45.6824 C30.4902,46.1194 29.9042,47.4144 30.3402,48.5754 C30.7782,49.7364 32.0732,50.3234 33.2342,49.8854 C34.3952,49.4494 34.9812,48.1534 34.5452,46.9924 C34.1072,45.8314 32.8122,45.2454 31.6512,45.6824" id="Fill-199"></path>
                        <path d="M34.2938,35.7684 C33.0318,36.3454 32.4768,37.8364 33.0538,39.0994 C33.6298,40.3614 35.1208,40.9164 36.3838,40.3394 C37.6468,39.7634 38.2018,38.2724 37.6248,37.0094 C37.0478,35.7474 35.5568,35.1924 34.2938,35.7684" id="Fill-201"></path>
                        <path d="M37.0633,25.66 C35.6993,26.377 35.1743,28.063 35.8913,29.428 C36.6083,30.791 38.2943,31.315 39.6593,30.598 C41.0233,29.882 41.5473,28.195 40.8313,26.831 C40.1143,25.468 38.4263,24.943 37.0633,25.66" id="Fill-203"></path>
                        <path d="M40.9911,16.2635 C39.5251,17.1195 39.0321,19.0025 39.8881,20.4675 C40.7451,21.9335 42.6281,22.4265 44.0931,21.5705 C45.5581,20.7135 46.0521,18.8305 45.1951,17.3655 C44.3391,15.9005 42.4561,15.4075 40.9911,16.2635" id="Fill-205"></path>
                        <path d="M47.1092,8.4881 C45.5432,9.4841 45.0802,11.5621 46.0772,13.1301 C47.0732,14.6961 49.1512,15.1591 50.7182,14.1621 C52.2852,13.1661 52.7482,11.0881 51.7512,9.5201 C50.7552,7.9541 48.6762,7.4911 47.1092,8.4881" id="Fill-207"></path>
                        <path d="M56.452,3.242 C54.784,4.379 54.352,6.652 55.489,8.321 C56.625,9.989 58.899,10.421 60.567,9.284 C62.236,8.148 62.667,5.874 61.531,4.206 C60.394,2.537 58.121,2.106 56.452,3.242" id="Fill-209"></path>
                        <path d="M75.5663,2.3289 C74.2903,0.5589 71.8213,0.1589 70.0503,1.4349 C68.2813,2.7109 67.8803,5.1809 69.1573,6.9509 C70.4333,8.7209 72.9033,9.1209 74.6723,7.8449 C76.4423,6.5679 76.8423,4.0989 75.5663,2.3289" id="Fill-211"></path>
                    </g>
                </g>
            </g>
        </g>
    </g>
</svg>
