<?xml version="1.0" encoding="UTF-8"?>
<svg width="729px" height="436px" viewBox="0 0 729 436" version="1.1" xmlns="http://www.w3.org/2000/svg" xmlns:xlink="http://www.w3.org/1999/xlink">
    <defs>
        <polygon id="path-1" points="0.12 0.9262 93.023 0.9262 93.023 83.8752 0.12 83.8752"></polygon>
        <polygon id="path-3" points="0 0.8489 52.7654484 0.8489 52.7654484 65.9999 0 65.9999"></polygon>
        <polygon id="path-5" points="0.0264755102 0.439013474 192.532 0.439013474 192.532 109.470503 0.0264755102 109.470503"></polygon>
    </defs>
    <g id="Error-pages" stroke="none" stroke-width="1" fill="none" fill-rule="evenodd">
        <g id="403-Forbiden-page" transform="translate(-356.000000, -345.000000)">
            <g id="img_403_page" transform="translate(356.000000, 345.000000)">
                <g id="bg-" fill="#ECF0F9">
                    <circle id="Oval-Copy-11" cx="181.5" cy="254.5" r="181.5"></circle>
                    <circle id="Oval-Copy-13" cx="385" cy="193" r="193"></circle>
                    <circle id="Oval-Copy-15" cx="406.5" cy="234.5" r="190.5"></circle>
                    <circle id="Oval-Copy-16" cx="566.5" cy="223.5" r="162.5"></circle>
                    <circle id="Oval-Copy-17" cx="542.5" cy="405.5" r="13.5"></circle>
                    <circle id="Oval-Copy-21" cx="166.5" cy="44.5" r="5.5"></circle>
                    <circle id="Oval-Copy-20" cx="216.5" cy="54.5" r="10.5"></circle>
                    <circle id="Oval-Copy-18" cx="590.5" cy="415.5" r="6.5"></circle>
                    <circle id="Oval-Copy-22" cx="627.5" cy="410.5" r="4.5"></circle>
                </g>
                <g id="Group-3" transform="translate(265.000000, 94.000000)">
                    <g id="monitor">
                        <g id="display">
                            <polygon id="Rectangle" fill="#283049" points="141.946341 242.4 212.936585 242.4 216.8 272 137.6 272"></polygon>
                            <rect id="Rectangle" fill="#3A4669" x="0" y="0" width="354.4" height="258.4" rx="14.4"></rect>
                            <path d="M0,219.2 L354.4,219.2 L354.4,244 C354.4,251.9529 347.9529,258.4 340,258.4 L14.4,258.4 C6.4470996,258.4 8.07937676e-15,251.9529 0,244 L0,219.2 L0,219.2 Z" id="Rectangle" fill="#93A1C9"></path>
                            <path d="M110.4,272 L244,272 L243.25035,273.728796 C240.967539,278.993273 235.77707,282.4 230.038957,282.4 L124.361043,282.4 C118.62293,282.4 113.432461,278.993273 111.14965,273.728796 L110.4,272 L110.4,272 Z" id="Rectangle-Copy" fill="#93A1C9" transform="translate(177.200000, 277.200000) scale(1, -1) translate(-177.200000, -277.200000) "></path>
                            <rect id="Rectangle" fill="#FFFFFF" x="12.8" y="12.8" width="329.6" height="190.4"></rect>
                        </g>
                        <g id="web-page" opacity="0.400000006" transform="translate(19.000000, 17.800000)">
                            <rect id="Rectangle-Copy-9" stroke="#E1E7F4" stroke-width="3.2" fill="#FFFFFF" x="0" y="0.2" width="319" height="180" rx="8"></rect>
                            <rect id="Rectangle-Copy-16" fill="#E1E7F4" x="48" y="54.2" width="125" height="39.2" rx="6.4"></rect>
                            <rect id="Rectangle-Copy-12" fill="#E1E7F4" transform="translate(177.300000, 109.800000) rotate(-270.000000) translate(-177.300000, -109.800000) " x="169.3" y="-19.7" width="16" height="259" rx="3.2"></rect>
                            <rect id="Rectangle-Copy-14" fill="#E1E7F4" transform="translate(177.300000, 147.700000) rotate(-270.000000) translate(-177.300000, -147.700000) " x="152.8" y="18.2" width="49" height="259" rx="3.2"></rect>
                            <rect id="Rectangle-Copy-17" fill="#E1E7F4" x="180" y="54.2" width="125" height="39.2" rx="6.4"></rect>
                            <path d="M8,0.2 L311,0.2 C315.418278,0.2 319,3.781722 319,8.2 L319,17.2 L319,17.2 L0,17.2 L0,8.2 C-5.41083001e-16,3.781722 3.581722,0.2 8,0.2 Z" id="Rectangle-Copy-15" fill="#E1E7F4"></path>
                            <g id="Group-3-Copy-2" transform="translate(11.000000, 4.200000)" fill="#FFFFFF">
                                <circle id="Oval" cx="3.2" cy="3.2" r="3.2"></circle>
                                <circle id="Oval-Copy" cx="16" cy="3.2" r="3.2"></circle>
                                <circle id="Oval-Copy-2" cx="28.8" cy="3.2" r="3.2"></circle>
                            </g>
                            <rect id="Rectangle-Copy-11" fill="#E1E7F4" transform="translate(158.200000, 35.000000) rotate(-270.000000) translate(-158.200000, -35.000000) " x="146.6" y="-114" width="23.2" height="298" rx="3.2"></rect>
                            <rect id="Rectangle-Copy-10" fill="#E1E7F4" x="9" y="54.2" width="32" height="118" rx="3.2"></rect>
                        </g>
                    </g>
                    <g id="Group-25" transform="translate(112.000000, 47.000000)">
                        <path d="M41.6309,43.4653 L41.6309,25.9413 C41.6309,11.6143 53.2449,0.0003 67.5719,0.0003 C81.8989,0.0003 93.5129,11.6143 93.5129,25.9413 L93.5129,43.4653" id="Stroke-1" stroke="#6B76A0" stroke-width="10" stroke-linecap="round" stroke-linejoin="round"></path>
                        <g id="Group-5" transform="translate(21.000000, 31.217000)">
                            <mask id="mask-2" fill="white">
                                <use xlink:href="#path-1"></use>
                            </mask>
                            <g id="Clip-4"></g>
                            <path d="M78.629,83.8752 L14.515,83.8752 C6.565,83.8752 0.12,77.4312 0.12,69.4802 L0.12,15.3202 C0.12,7.3702 6.565,0.9262 14.515,0.9262 L78.629,0.9262 C86.579,0.9262 93.024,7.3702 93.024,15.3202 L93.024,69.4802 C93.024,77.4312 86.579,83.8752 78.629,83.8752" id="Fill-3" fill="#D7E2F4" mask="url(#mask-2)"></path>
                        </g>
                        <path d="M60.7213,33.6909 L98.2333,33.6909 C105.8993,33.6909 112.1183,39.9009 112.1183,47.5669 L112.1183,99.7889 C112.1183,104.8989 109.3513,109.3639 105.2343,111.7739 C107.8463,109.2479 110.8163,106.2879 110.8163,102.3739 L109.4763,49.5719 C109.4763,41.9069 103.2573,35.6869 95.5913,35.6869 L53.3883,33.9679 L60.7213,33.6909 Z" id="Fill-6" fill="#FFFFFF"></path>
                        <path d="M75.293,61.3501 C75.293,65.6141 71.836,69.0711 67.572,69.0711 C63.308,69.0711 59.851,65.6141 59.851,61.3501 C59.851,57.0851 63.308,53.6291 67.572,53.6291 C71.836,53.6291 75.293,57.0851 75.293,61.3501" id="Fill-8" fill="#6B76A0"></path>
                        <path d="M75.2515,61.354 C75.2515,63.854 74.0615,66.083 72.2115,67.494 C73.4515,66.124 74.2115,64.304 74.2115,62.304 C74.2115,58.043 70.7615,54.583 66.4915,54.583 C64.7315,54.583 63.1115,55.173 61.8115,56.164 C63.2215,54.604 65.2615,53.633 67.5315,53.633 C71.7915,53.633 75.2515,57.083 75.2515,61.354" id="Fill-10" fill="#566384"></path>
                        <polygon id="Fill-12" fill="#6B76A0" points="67.5719 57.8237 58.2679 87.1357 76.8759 87.1357"></polygon>
                        <path d="M26.3819,122.2182 C25.9519,122.2182 25.5219,122.0792 25.1629,121.8042 C25.1459,121.7902 25.1279,121.7772 25.1109,121.7622 C24.1079,121.0332 17.0009,115.7682 10.6369,108.2352 C3.1309,99.3492 3.1979,87.4982 3.3969,84.0772 C3.6209,80.2302 3.2179,71.0982 2.4269,68.8882 C1.8149,67.1782 1.8549,65.7652 2.5449,64.6882 C3.1169,63.7942 4.0059,63.3752 4.7039,63.2682 C14.6759,61.1722 24.1949,61.0662 26.0069,61.0662 L26.7629,61.0702 C28.5739,61.0702 38.0929,61.1762 48.0609,63.2712 C48.7589,63.3782 49.6479,63.7972 50.2209,64.6912 C50.9109,65.7682 50.9499,67.1812 50.3379,68.8912 C49.5469,71.1012 49.1439,80.2332 49.3679,84.0802 C49.5679,87.5012 49.6349,99.3522 42.1289,108.2382 C35.4089,116.1922 27.8619,121.6182 27.5449,121.8462 C27.1959,122.0942 26.7889,122.2182 26.3819,122.2182" id="Fill-14" fill="#D7E2F4"></path>
                        <g id="Group-18" transform="translate(0.000000, 58.217000)">
                            <mask id="mask-4" fill="white">
                                <use xlink:href="#path-3"></use>
                            </mask>
                            <g id="Clip-17"></g>
                            <path d="M26.0054,0.8489 C24.1634,0.8489 14.4984,0.9569 4.3574,3.0799 C2.9444,3.3059 1.6554,4.1519 0.8604,5.3919 C0.1444,6.5099 -0.4926,8.4509 0.5444,11.3449 C1.1874,13.1419 1.6294,21.8199 1.4004,25.7439 C1.1904,29.3519 1.1254,41.8579 9.1094,51.3079 C15.6394,59.0379 22.9474,64.4479 23.9524,65.1759 C24.6684,65.7239 25.5254,65.9999 26.3844,65.9999 C27.1964,65.9999 28.0104,65.7529 28.7074,65.2549 C29.0334,65.0229 36.7764,59.4539 43.6564,51.3109 C51.6404,41.8609 51.5754,29.3549 51.3654,25.7469 C51.1364,21.8229 51.5774,13.1459 52.2214,11.3489 C53.2574,8.4529 52.6214,6.5129 51.9044,5.3949 C51.1094,4.1549 49.8204,3.3079 48.4084,3.0829 C38.2674,0.9599 28.6024,0.8529 26.7604,0.8529 L26.5004,0.8529 C26.4804,0.8529 26.4604,0.8519 26.4404,0.8519 C26.4404,0.8519 26.2894,0.8489 26.0054,0.8489 M26.0054,4.8489 C26.2524,4.8489 26.3834,4.8509 26.3834,4.8509 L26.3814,4.8549 C26.3814,4.8549 26.5124,4.8529 26.7604,4.8529 C28.7164,4.8529 37.9704,4.9679 47.7214,7.0269 C47.7214,7.0269 49.4654,7.1789 48.4554,9.9999 C47.4584,12.7849 47.1684,22.4929 47.3714,25.9799 C47.6244,30.3099 47.2364,40.8749 40.6014,48.7299 C33.9654,56.5839 26.3814,62.0009 26.3814,62.0009 L26.3834,61.9969 C26.3834,61.9969 18.7994,56.5809 12.1644,48.7269 C5.5284,40.8719 5.1414,30.3079 5.3934,25.9769 C5.5964,22.4899 5.3074,12.7819 4.3104,9.9969 C3.3004,7.1759 5.0434,7.0239 5.0434,7.0239 C14.7954,4.9649 24.0494,4.8489 26.0054,4.8489" id="Fill-16" fill="#959FC5" mask="url(#mask-4)"></path>
                        </g>
                        <path d="M13.3922,64.5346 C16.2952,63.7876 25.1972,63.6486 25.1972,63.6486 C25.1972,63.6486 35.5462,63.5086 46.5372,65.8286 C46.5372,65.8286 48.2772,65.9786 47.2672,68.7986 C46.2672,71.5786 45.9762,81.2886 46.1862,84.7786 C46.4362,89.1086 46.0462,99.6686 39.4162,107.5286 C37.5572,109.7286 35.6262,111.7386 33.8072,113.4886 C35.0662,112.2086 36.3472,110.8186 37.5862,109.3476 C44.2262,101.4986 44.6062,90.9286 44.3562,86.5976 C44.1572,83.1186 44.4472,73.4086 45.4362,70.6186 C46.4472,67.7986 44.7062,67.6486 44.7062,67.6486 C33.7262,65.3286 30.2112,64.6696 23.3602,64.3826 C18.0792,64.1616 13.3922,64.5346 13.3922,64.5346" id="Fill-19" fill="#FFFFFF" opacity="0.5"></path>
                        <path d="M39.3228,87.9262 C39.3228,95.2562 33.3808,101.1972 26.0508,101.1972 C18.7208,101.1972 12.7788,95.2562 12.7788,87.9262 C12.7788,80.5962 18.7208,74.6552 26.0508,74.6552 C33.3808,74.6552 39.3228,80.5962 39.3228,87.9262" id="Fill-21" fill="#959FC5"></path>
                        <polyline id="Stroke-23" stroke="#D7E2F4" stroke-width="2.538" stroke-linecap="round" stroke-linejoin="round" points="18.6109 86.7329 24.3659 92.4889 33.4909 83.3639"></polyline>
                    </g>
                </g>
                <g id="Group-256" transform="translate(49.000000, 94.000000)">
                    <path d="M48.7107,83.0924 C49.9577,83.1824 51.1907,83.1924 52.4207,83.3424 C52.4307,83.3424 52.4407,83.3424 52.4507,83.3524 C55.9207,83.7814 59.2607,84.7724 62.3607,86.3324 C64.6407,87.4724 66.7907,88.9124 68.7507,90.6724 C73.1907,94.6424 76.0907,100.5624 77.4907,106.2724 C78.8807,111.9024 79.2607,117.8624 79.0507,123.6424 C78.8207,129.8624 77.9607,136.0724 76.9907,142.2124 C76.2507,146.8024 75.2007,151.3524 74.4807,155.9424 C74.3007,157.8024 74.2607,159.6624 74.3907,161.5224 C74.5907,162.4924 74.8407,163.4514 75.1607,164.3924 L75.1607,164.4024 C75.5607,165.1724 75.9907,165.9124 76.4807,166.6324 C76.4807,166.6424 76.4907,166.6424 76.4907,166.6524 C77.3207,167.5724 78.2107,168.4324 79.1507,169.2324 C80.9707,170.5224 82.9107,171.6524 84.9207,172.6124 C85.7907,172.9024 86.6607,173.1324 87.5607,173.3124 C89.4507,173.4624 91.3407,173.4124 93.2307,173.2324 C96.8807,172.6024 100.4407,171.5524 103.8907,170.1924 C103.9007,170.1924 103.9007,170.1824 103.9107,170.1824 C107.2607,168.6624 110.4807,166.8624 113.4707,164.7224 C115.6507,162.8824 117.6207,160.8024 119.5707,158.7324 C122.0107,156.1124 124.3607,153.4124 126.5707,150.6024 C129.7007,146.4024 132.5307,141.9624 134.7207,137.2014 C135.4107,135.4024 135.9807,133.5624 136.4107,131.6724 C137.1007,128.6124 139.3707,126.1424 141.9307,124.4924 C144.6507,122.7424 148.1007,122.5824 151.1707,123.2814 C154.0307,123.9424 156.8907,126.3124 158.3407,128.8024 C159.9907,131.6124 160.2607,134.9224 159.5507,138.0524 C157.8907,145.4224 154.2707,152.5024 150.0907,158.7624 C145.8307,165.1324 140.9107,171.1214 135.6207,176.6624 C131.6707,180.8024 127.3707,184.5124 122.4707,187.5024 C117.1607,190.7424 111.2707,193.2914 105.3107,195.0524 C101.8507,196.0724 98.3507,196.6214 94.7707,197.0724 C92.3007,197.3824 89.8007,197.5224 87.3107,197.3124 C83.9707,197.0314 80.5107,196.5924 77.3707,195.3224 C74.2107,194.0524 71.1207,192.6214 68.2407,190.7724 C62.9507,187.3714 58.2007,183.0524 55.0007,177.5724 C51.8607,172.1824 50.3907,165.9624 50.3107,159.7624 C50.2307,154.2724 51.4907,148.8524 52.5007,143.4824 C52.9707,140.9724 53.4207,138.4624 53.8207,135.9324 C53.9907,134.9324 54.1407,133.9224 54.2807,132.9124 C54.2907,132.8924 54.2907,132.8714 54.2907,132.8524 C55.0207,126.9514 55.4307,120.9424 54.8407,115.0124 C54.5507,113.3714 54.1607,111.7424 53.6107,110.1624 C53.3407,109.6214 53.0507,109.0924 52.7207,108.5824 C52.5407,108.3824 52.3407,108.1824 52.1407,107.9924 C51.9007,107.8324 51.6607,107.6924 51.4207,107.5724 C50.8807,107.4024 50.3307,107.2624 49.7707,107.1424 L49.7507,107.1424 C48.6907,107.0824 47.6207,107.0824 46.5407,107.1214 C44.3007,107.2324 42.1507,106.4924 40.2707,105.3124 C39.4807,104.8124 38.5597,104.3644 37.9457,103.6704 C37.3777,103.0294 36.0537,100.8324 36.0537,100.8324 C35.1537,99.0824 34.7137,97.0824 34.6237,95.1214 C34.5137,92.5414 35.6737,89.6324 37.3337,87.5524 C37.3337,87.5524 40.7377,82.5194 48.7107,83.0924" id="Fill-1" fill="#6B76A0"></path>
                    <path d="M134.2986,133.4108 C114.2766,118.3428 121.0016,98.7158 126.5876,92.8658 L126.4196,92.5988 C123.2786,84.8948 119.1276,75.9138 119.1276,65.8128 C119.1276,29.4658 137.9246,0.0008 172.3666,0.0008 C207.0696,0.0008 225.6046,29.4658 225.6046,65.8128 C225.6046,75.5888 221.5646,85.0628 218.6116,92.5988 L218.5466,92.8658 C224.1316,98.7158 230.8576,118.3428 210.8356,133.4108 L134.2986,133.4108 Z" id="Fill-3" fill="#828DB7"></path>
                    <g id="Group-3" transform="translate(126.000000, 8.000000)" fill="#FFFFFF">
                        <path d="M5.263,73.108 L5.457,76.642 C2.996,70.707 -1.42108547e-14,59.501 -1.42108547e-14,51.8 C-1.42108547e-14,23.15 18.263,-8.52651283e-14 47.109,-8.52651283e-14 C60.027,-8.52651283e-14 70.292,4.728 77.674,12.547 C70.841,7.29 61.82,3.883 51.502,2.714 C23.701,-0.435 1.782,28.898 3.258,57.502 C3.502,62.23 5.263,73.108 5.263,73.108" id="Fill-5" opacity="0.049999997"></path>
                        <path d="M86.6439,99.3411 C86.6439,102.4411 85.0139,105.1511 82.5639,106.6711 C83.5339,105.2811 84.0929,103.6011 84.0929,101.7811 C84.0929,97.0011 80.2239,93.1311 75.4439,93.1311 C73.7739,93.1311 72.2129,93.6111 70.8829,94.4411 C72.4339,92.1811 75.0429,90.6911 78.0029,90.6911 C82.7739,90.6911 86.6439,94.5611 86.6439,99.3411" id="Fill-11" opacity="0.100000001"></path>
                        <path d="M28.6439,99.3411 C28.6439,102.4411 27.0139,105.1511 24.5639,106.6711 C25.5339,105.2811 26.0929,103.6011 26.0929,101.7811 C26.0929,97.0011 22.2239,93.1311 17.4439,93.1311 C15.7739,93.1311 14.2129,93.6111 12.8829,94.4411 C14.4339,92.1811 17.0429,90.6911 20.0029,90.6911 C24.7739,90.6911 28.6439,94.5611 28.6439,99.3411" id="Fill-11" opacity="0.100000001"></path>
                    </g>
                    <path d="M193.5452,108.8854 C193.5452,113.6604 197.4162,117.5314 202.1912,117.5314 C206.9662,117.5314 210.8372,113.6604 210.8372,108.8854 C210.8372,104.1114 206.9662,100.2394 202.1912,100.2394 C197.4162,100.2394 193.5452,104.1114 193.5452,108.8854" id="Fill-5" fill="#FFFFFF"></path>
                    <path d="M135.7381,108.8854 C135.7381,113.6594 139.6091,117.5314 144.3841,117.5314 C149.1591,117.5314 153.0301,113.6594 153.0301,108.8854 C153.0301,104.1104 149.1591,100.2394 144.3841,100.2394 C139.6091,100.2394 135.7381,104.1104 135.7381,108.8854" id="Fill-7" fill="#FFFFFF"></path>
                    <path d="M142.4978,109.5201 C142.8488,110.5611 143.9768,111.1221 145.0188,110.7711 C146.0608,110.4201 146.6208,109.2911 146.2698,108.2501 C145.9188,107.2081 144.7908,106.6491 143.7488,106.9991 C142.7078,107.3501 142.1468,108.4781 142.4978,109.5201" id="Fill-9" fill="#525F7F"></path>
                    <path d="M200.784,110.2926 C201.561,111.0696 202.821,111.0696 203.598,110.2926 C204.375,109.5156 204.375,108.2556 203.598,107.4786 C202.821,106.7016 201.561,106.7016 200.784,107.4786 C200.007,108.2556 200.007,109.5156 200.784,110.2926" id="Fill-11" fill="#525F7F"></path>
                    <g id="Group-15" transform="translate(181.000000, 126.331000)">
                        <mask id="mask-6" fill="white">
                            <use xlink:href="#path-5"></use>
                        </mask>
                        <g id="Clip-14"></g>
                        <path d="M0.5437,12.447 C-0.1123,17.955 -0.0563,23.611 0.2287,29.137 C0.5627,35.628 1.3617,42.136 2.6197,48.511 C4.0287,55.652 6.3387,62.419 9.2477,69.083 C15.4397,83.264 26.7067,95.757 40.8837,102.235 C45.4437,104.319 50.1067,106.1 54.9967,107.23 C60.2087,108.434 65.5997,109.142 70.9417,109.404 C75.0177,109.603 79.0197,109.342 83.0567,108.8 C86.5377,108.332 89.9437,107.712 93.2807,106.592 C99.0947,104.642 104.5407,101.857 109.6967,98.568 C113.7957,95.954 117.7837,93.147 122.1147,90.919 C123.2007,90.36 124.3067,89.84 125.4307,89.361 L122.5637,90.571 C125.9627,89.138 129.5177,88.157 133.1717,87.652 C132.1087,87.795 131.0457,87.937 129.9817,88.081 C134.7997,87.437 139.6727,87.604 144.4807,88.246 C143.4177,88.103 142.3547,87.961 141.2907,87.817 C152.4577,89.349 163.2307,93.194 173.5777,97.541 L170.7107,96.331 C171.9597,96.858 173.2047,97.395 174.4457,97.941 C175.8227,98.818 177.3107,99.293 178.9077,99.365 C180.5017,99.722 182.0977,99.651 183.6927,99.151 C186.4757,98.384 189.4927,96.232 190.8637,93.636 C192.3357,90.851 193.0727,87.477 192.0737,84.389 C191.1757,81.614 189.3517,78.445 186.5587,77.218 C176.3117,72.715 165.8347,68.468 154.8857,65.992 C147.4617,64.314 139.6077,63.173 131.9837,63.855 C128.4207,64.175 124.8117,64.665 121.3547,65.621 C118.1667,66.503 115.0867,67.805 112.0877,69.18 C108.0617,71.025 104.3437,73.439 100.6467,75.858 C96.3877,78.643 92.0957,81.385 87.3997,83.383 C88.3557,82.979 89.3107,82.576 90.2667,82.174 C86.4247,83.791 82.4007,84.881 78.2717,85.442 C79.3347,85.3 80.3987,85.157 81.4617,85.013 C75.8657,85.751 70.1907,85.558 64.6047,84.821 C65.6687,84.964 66.7317,85.107 67.7947,85.25 C62.2167,84.49 56.7387,83.108 51.5437,80.924 C52.4997,81.327 53.4557,81.73 54.4107,82.134 C50.2617,80.366 46.3517,78.104 42.7807,75.349 C43.5907,75.974 44.3997,76.6 45.2097,77.225 C41.7317,74.515 38.6267,71.374 35.9197,67.895 L37.7957,70.324 C34.4557,65.994 31.7667,61.21 29.6317,56.179 C30.0357,57.135 30.4387,58.091 30.8417,59.047 C27.6967,51.573 25.7697,43.64 24.6877,35.618 C24.8307,36.681 24.9737,37.745 25.1167,38.808 C24.0287,30.633 23.7217,22.281 24.3917,14.053 C24.4347,13.518 24.4807,12.981 24.5437,12.447 C24.8817,9.606 22.9597,5.892 21.0287,3.962 C18.9477,1.881 15.5327,0.313 12.5437,0.447 C9.4397,0.586 6.2217,1.605 4.0587,3.962 L2.1817,6.39 C1.0967,8.262 0.5507,10.281 0.5437,12.447" id="Fill-13" fill="#6B76A0" mask="url(#mask-6)"></path>
                    </g>
                    <path d="M191.0696,130.5075 C191.0066,131.9605 191.0876,133.4285 191.1896,134.8765 C191.5206,139.5655 192.1986,144.2865 193.3086,148.8575 C196.3076,161.2065 202.7476,173.2025 212.2186,181.7845 C219.0016,187.9315 226.7616,192.2985 235.3696,195.3475 C241.6026,197.5545 248.5076,198.6165 255.1136,198.1125 C262.5656,197.5435 269.6696,195.6675 276.2146,191.9845 C282.7496,188.3085 288.2046,182.9185 292.2496,176.6355 C296.8286,169.5235 298.9166,161.3205 299.7366,152.9955 C300.1176,149.1385 300.0376,145.2415 299.6176,141.3915 C299.0246,135.9525 297.8636,130.7595 296.7796,125.4195 C296.3466,123.2925 295.9856,121.1525 295.6956,119.0005 C295.8396,120.0645 295.9826,121.1275 296.1246,122.1915 C295.3536,116.2775 295.1546,110.2795 295.9426,104.3575 C295.7996,105.4205 295.6566,106.4845 295.5136,107.5475 C296.0276,103.8475 296.9286,100.2135 298.3776,96.7655 C297.9746,97.7215 297.5716,98.6765 297.1686,99.6315 C298.2116,97.1985 299.5176,94.8975 301.1346,92.7995 L299.2576,95.2285 C300.5976,93.5205 302.1226,91.9835 303.8366,90.6505 C303.0276,91.2765 302.2176,91.9015 301.4076,92.5275 C303.1016,91.2355 304.9386,90.1705 306.9006,89.3405 L304.0336,90.5505 C306.2056,89.6535 308.4726,89.0645 310.7986,88.7445 C309.7356,88.8885 308.6726,89.0305 307.6086,89.1735 C310.5526,88.7935 313.5196,88.8515 316.4606,89.2375 C315.3976,89.0945 314.3336,88.9515 313.2706,88.8095 C317.5096,89.3955 321.6136,90.6445 325.5516,92.3045 C324.5956,91.9015 323.6406,91.4975 322.6856,91.0945 C326.0376,92.5285 329.2496,94.2515 332.3436,96.1795 C334.9426,97.7975 338.6716,98.1925 341.5896,97.3885 C344.3736,96.6215 347.3896,94.4705 348.7616,91.8735 C351.8726,85.9865 350.1516,79.0035 344.4566,75.4555 C340.1106,72.7475 335.5476,70.5935 330.7946,68.6935 C327.5396,67.3915 324.1556,66.3815 320.6926,65.8205 C316.5946,65.1565 312.4546,64.6385 308.3076,65.0895 C305.9186,65.3495 303.4836,65.6345 301.1476,66.2365 C298.8736,66.8235 296.7316,67.7645 294.5836,68.7035 C287.7316,71.7015 281.9806,77.4805 278.2546,83.8915 C273.8176,91.5245 271.9476,100.3265 271.5116,109.0665 C271.2226,114.8565 271.8606,120.5765 272.6806,126.3015 C273.4726,131.8295 275.0466,137.1985 275.8186,142.7285 C275.6756,141.6645 275.5326,140.6025 275.3896,139.5385 C276.0576,144.5225 276.1996,149.5635 275.5576,154.5575 C275.7006,153.4935 275.8436,152.4305 275.9856,151.3665 C275.4906,155.0225 274.5776,158.5975 273.1526,162.0035 C273.5566,161.0475 273.9596,160.0925 274.3626,159.1365 C273.1946,161.8725 271.7146,164.4505 269.9106,166.8185 C270.5356,166.0085 271.1606,165.1985 271.7866,164.3895 C270.0186,166.6725 267.9786,168.7145 265.6956,170.4825 C266.5056,169.8575 267.3146,169.2315 268.1236,168.6065 C265.8236,170.3615 263.3206,171.8115 260.6616,172.9515 L263.5286,171.7415 C260.5026,173.0165 257.3286,173.8695 254.0766,174.3155 C255.1406,174.1725 256.2036,174.0295 257.2676,173.8865 C253.8246,174.3365 250.3486,174.3225 246.9086,173.8625 C247.9726,174.0055 249.0356,174.1485 250.0986,174.2915 C246.0916,173.7305 242.2526,172.5135 238.5256,170.9555 C239.4806,171.3595 240.4366,171.7625 241.3916,172.1655 C237.2396,170.4025 233.3176,168.1685 229.7356,165.4245 C230.5446,166.0505 231.3546,166.6755 232.1636,167.3015 C228.8816,164.7565 225.9406,161.8195 223.3876,158.5445 L225.2646,160.9735 C222.4516,157.3245 220.1566,153.3195 218.3546,149.0815 C218.7576,150.0365 219.1616,150.9925 219.5646,151.9475 C217.3846,146.7655 215.9396,141.2945 215.1786,135.7255 C215.3216,136.7885 215.4646,137.8525 215.6076,138.9155 C215.2366,136.1505 214.9486,133.3035 215.0696,130.5075 C215.1996,127.5165 213.6386,124.1075 211.5546,122.0235 C209.4736,119.9415 206.0586,118.3735 203.0696,118.5075 C196.3346,118.8095 191.3616,123.7805 191.0696,130.5075" id="Fill-16" fill="#828DB7"></path>
                    <path d="M138.6546,140.4313 C138.6886,140.6603 138.7196,140.8883 138.7506,141.1173 C138.6076,140.0533 138.4646,138.9903 138.3216,137.9273 C138.9476,142.5913 139.3576,147.2883 139.6636,151.9843 C140.2406,160.8173 140.3826,169.6863 140.0086,178.5313 C139.7596,184.4133 139.2746,190.2873 138.4966,196.1253 C138.6396,195.0623 138.7826,193.9983 138.9256,192.9353 C137.8116,201.2153 136.1146,209.4453 133.4546,217.3733 C132.7116,219.5883 131.8906,221.7753 130.9876,223.9293 C131.3906,222.9733 131.7946,222.0183 132.1976,221.0623 C129.8736,226.5653 126.9876,231.8353 123.3456,236.5813 C123.9706,235.7723 124.5966,234.9623 125.2216,234.1533 C122.5606,237.5953 119.5156,240.7243 116.0776,243.3973 C116.8876,242.7713 117.6966,242.1463 118.5066,241.5203 C115.3596,243.9463 111.9236,245.9563 108.2676,247.5123 C109.2226,247.1093 110.1786,246.7063 111.1336,246.3033 C106.9416,248.0653 102.5276,249.2033 98.0236,249.8113 C99.0866,249.6683 100.1506,249.5263 101.2136,249.3823 C96.8526,249.9523 92.3596,250.1623 87.9886,249.5823 C89.0526,249.7253 90.1156,249.8683 91.1786,250.0113 C88.8496,249.6853 86.5666,249.1153 84.3916,248.2113 C85.3476,248.6153 86.3026,249.0183 87.2586,249.4203 C85.5166,248.6803 83.8836,247.7373 82.3816,246.5843 C83.1916,247.2093 84.0006,247.8353 84.8096,248.4603 C83.2946,247.2773 81.9506,245.9063 80.7666,244.3913 L82.6426,246.8203 C80.8546,244.5023 79.4696,241.9163 78.3256,239.2293 C78.7286,240.1843 79.1326,241.1403 79.5356,242.0953 C75.9276,233.5323 74.5896,224.2373 71.6986,215.4403 C70.0496,210.4233 68.0436,205.2603 64.9616,200.9293 C61.3376,195.8373 56.8526,191.2783 51.0686,188.6743 C48.9626,187.7263 46.8136,186.7933 44.5786,186.1803 C42.1816,185.5233 39.7096,185.2343 37.2496,184.9243 C33.6756,184.4763 30.0796,184.5293 26.4986,184.8783 C23.2426,185.1963 20.4026,186.0033 18.0126,188.3933 C15.9316,190.4743 14.3646,193.8893 14.4986,196.8783 C14.6376,199.9823 15.6566,203.2013 18.0126,205.3633 C20.2266,207.3953 23.3796,209.1823 26.4986,208.8783 C30.1136,208.5253 33.7586,208.4623 37.3656,208.9403 C36.3016,208.7973 35.2386,208.6553 34.1756,208.5113 C36.6456,208.8553 39.0666,209.4563 41.3736,210.4133 C40.4176,210.0103 39.4626,209.6073 38.5066,209.2033 C40.3496,209.9863 42.0796,210.9833 43.6666,212.2043 C42.8566,211.5793 42.0476,210.9533 41.2376,210.3283 C42.8296,211.5753 44.2386,213.0193 45.4796,214.6153 L43.6026,212.1863 C45.4476,214.5933 46.8766,217.2753 48.0536,220.0643 C47.6506,219.1083 47.2476,218.1533 46.8436,217.1973 C49.8466,224.3813 51.2846,232.0883 53.3766,239.5583 C55.8336,248.3353 59.3266,257.3423 65.9926,263.8253 C74.3126,271.9173 85.7956,274.4973 97.1016,273.7833 C107.8116,273.1063 118.5126,270.3223 127.5776,264.4093 C135.9686,258.9353 142.7836,251.5483 147.9596,242.9923 C152.7846,235.0143 156.2086,226.0513 158.6026,217.0603 C161.0696,207.7943 162.4566,198.2233 163.3336,188.6873 C164.0556,180.8233 164.3016,172.9163 164.1866,165.0213 C164.0966,158.9033 163.7906,152.7853 163.2626,146.6893 C163.0916,144.7153 162.8976,142.7443 162.6726,140.7763 C162.4356,138.6993 162.2876,136.4673 161.8546,134.4523 C161.8256,134.3223 161.8176,134.1843 161.7976,134.0503 C161.3876,131.2843 158.5796,128.2233 156.2826,126.8793 C153.7106,125.3733 149.9196,124.7363 147.0356,125.6693 C144.1326,126.6093 141.3306,128.4093 139.8646,131.1843 C139.4616,132.1393 139.0576,133.0953 138.6546,134.0503 C138.0836,136.1773 138.0836,138.3043 138.6546,140.4313" id="Fill-18" fill="#6B76A0"></path>
                    <g id="Group-42" transform="translate(21.000000, 189.331000)" fill="#FFFFFF" opacity="0.100000001">
                        <path d="M112.7796,42.1247 C112.0246,42.0027 111.3136,42.5157 111.1916,43.2707 C111.0696,44.0247 111.5816,44.7357 112.3366,44.8577 C113.0916,44.9807 113.8026,44.4687 113.9246,43.7137 C114.0476,42.9587 113.5346,42.2477 112.7796,42.1247" id="Fill-20"></path>
                        <path d="M104.513,53.6315 C103.706,53.3445 102.819,53.7665 102.532,54.5725 C102.245,55.3795 102.666,56.2665 103.473,56.5535 C104.28,56.8405 105.167,56.4195 105.454,55.6115 C105.741,54.8055 105.32,53.9185 104.513,53.6315" id="Fill-22"></path>
                        <path d="M93.7478,62.5622 C92.8888,62.1102 91.8258,62.4402 91.3738,63.2992 C90.9218,64.1592 91.2518,65.2212 92.1118,65.6732 C92.9708,66.1252 94.0328,65.7942 94.4848,64.9362 C94.9368,64.0772 94.6068,63.0142 93.7478,62.5622" id="Fill-24"></path>
                        <path d="M78.0818,67.6725 C77.1708,67.0565 75.9328,67.2945 75.3158,68.2055 C74.6988,69.1165 74.9378,70.3565 75.8488,70.9725 C76.7608,71.5895 77.9988,71.3505 78.6158,70.4395 C79.2318,69.5275 78.9938,68.2895 78.0818,67.6725" id="Fill-26"></path>
                        <path d="M60.5003,66.7116 C59.5373,65.9306 58.1223,66.0776 57.3413,67.0406 C56.5603,68.0046 56.7073,69.4186 57.6703,70.1996 C58.6343,70.9816 60.0483,70.8336 60.8303,69.8706 C61.6113,68.9066 61.4633,67.4926 60.5003,66.7116" id="Fill-28"></path>
                        <path d="M50.4671,57.9928 C49.4511,57.0468 47.8611,57.1018 46.9151,58.1178 C45.9691,59.1338 46.0251,60.7228 47.0411,61.6698 C48.0561,62.6158 49.6471,62.5598 50.5921,61.5448 C51.5391,60.5288 51.4831,58.9378 50.4671,57.9928" id="Fill-30"></path>
                        <path d="M45.2161,44.3991 C44.1481,43.2881 42.3831,43.2531 41.2711,44.3201 C40.1601,45.3881 40.1261,47.1541 41.1931,48.2651 C42.2611,49.3761 44.0271,49.4111 45.1381,48.3431 C46.2491,47.2761 46.2841,45.5091 45.2161,44.3991" id="Fill-32"></path>
                        <path d="M41.531,28.9958 C40.411,27.7198 38.469,27.5938 37.194,28.7138 C35.918,29.8328 35.792,31.7748 36.911,33.0508 C38.031,34.3258 39.973,34.4528 41.249,33.3328 C42.525,32.2128 42.651,30.2708 41.531,28.9958" id="Fill-34"></path>
                        <path d="M36.1956,14.8483 C35.0236,13.4083 32.9056,13.1903 31.4656,14.3623 C30.0256,15.5343 29.8076,17.6513 30.9796,19.0913 C32.1516,20.5323 34.2686,20.7493 35.7096,19.5773 C37.1496,18.4063 37.3676,16.2883 36.1956,14.8483" id="Fill-36"></path>
                        <path d="M25.9934,5.0212 C24.7694,3.4172 22.4754,3.1072 20.8704,4.3322 C19.2654,5.5552 18.9564,7.8492 20.1804,9.4552 C21.4044,11.0592 23.6984,11.3692 25.3034,10.1442 C26.9084,8.9202 27.2174,6.6262 25.9934,5.0212" id="Fill-38"></path>
                        <path d="M7.7078,2.5817 C6.4318,0.8117 3.9618,0.4117 2.1918,1.6877 C0.4218,2.9647 0.0218,5.4337 1.2978,7.2037 C2.5748,8.9737 5.0438,9.3737 6.8138,8.0977 C8.5838,6.8207 8.9838,4.3527 7.7078,2.5817" id="Fill-40"></path>
                    </g>
                    <path d="M131.9407,128.7662 C131.2127,133.0972 130.0237,137.3812 128.8807,141.6152 C125.0587,155.7662 120.4137,169.6992 115.5127,183.5082 C111.1157,195.8982 106.6717,208.3562 101.5857,220.4812 C101.9887,219.5252 102.3917,218.5702 102.7947,217.6142 C101.2837,221.1562 99.2477,224.4392 96.9067,227.4912 C97.5317,226.6812 98.1577,225.8712 98.7827,225.0622 C95.2587,229.6142 91.0817,233.6202 86.5357,237.1392 C87.3447,236.5142 88.1547,235.8882 88.9637,235.2632 C83.4907,239.4702 77.4897,242.9662 71.1337,245.6612 L74.0007,244.4512 C68.2797,246.8522 62.2907,248.5912 56.1407,249.4432 C57.2037,249.3002 58.2667,249.1582 59.3307,249.0142 C54.4877,249.6632 49.5857,249.7482 44.7367,249.1162 C45.7997,249.2582 46.8637,249.4022 47.9267,249.5442 C43.9207,248.9992 40.0077,247.9632 36.2807,246.3942 L39.1477,247.6042 C35.8227,246.1792 32.7027,244.3502 29.8307,242.1522 C30.6397,242.7782 31.4497,243.4032 32.2587,244.0292 C29.0797,241.5632 26.2657,238.6892 23.7967,235.5152 L25.6737,237.9442 C24.4707,236.3762 23.3557,234.7502 22.3157,233.0702 C20.7047,230.4622 18.1277,228.3762 15.1447,227.5552 C12.2727,226.7642 8.4477,227.1212 5.8987,228.7652 C3.3357,230.4172 1.0807,232.8762 0.3837,235.9372 C-0.3243,239.0432 -0.1243,242.4052 1.5927,245.1832 C7.1067,254.1012 14.6937,262.0622 24.0737,266.9332 C32.7697,271.4482 42.4677,273.6882 52.2667,273.5512 C61.1517,273.4282 70.1657,271.6122 78.4397,268.3812 C83.0827,266.5692 87.6497,264.5362 91.9777,262.0552 C96.2067,259.6312 100.0957,256.7812 103.9307,253.7802 C110.4077,248.7102 116.1247,242.4882 120.4887,235.5052 C123.1377,231.2672 124.8637,226.5712 126.6757,221.9342 C129.0957,215.7412 131.4687,209.5292 133.7837,203.2962 C139.9277,186.7502 145.7527,170.0522 150.6087,153.0782 C152.2797,147.2352 153.9617,141.3282 155.0487,135.3402 C155.0607,135.2762 155.0727,135.2112 155.0837,135.1472 C155.6327,131.8762 155.6077,128.8622 153.8737,125.9002 C152.4177,123.4112 149.5627,121.0372 146.7017,120.3852 C143.6297,119.6852 140.1827,119.8362 137.4557,121.5952 C134.9827,123.1892 132.4487,125.7422 131.9407,128.7662" id="Fill-43" fill="#828DB7"></path>
                    <path d="M156.8455,141.9684 C159.6215,150.0214 161.6165,158.4084 163.2825,166.7504 C164.1635,171.1584 164.9095,175.5934 165.5125,180.0484 C165.3685,178.9854 165.2265,177.9224 165.0835,176.8594 C166.7025,189.0074 167.2865,201.4004 165.6585,213.5804 C165.8015,212.5174 165.9445,211.4534 166.0875,210.3904 C165.5825,214.0534 164.7845,217.6224 163.9285,221.2144 C163.0435,224.9304 162.4665,228.7014 162.0475,232.4974 C161.4905,237.5514 161.7635,242.9024 163.1585,247.8034 C165.4485,255.8474 170.7505,261.8474 176.8535,267.2634 C179.5845,269.6874 182.2695,272.1604 184.5175,275.0514 C183.8925,274.2414 183.2665,273.4324 182.6415,272.6224 C184.3885,274.8904 185.8325,277.3584 186.9545,279.9924 C186.5515,279.0364 186.1475,278.0814 185.7445,277.1254 C187.1955,280.5884 188.0735,284.2444 188.5775,287.9584 C188.4345,286.8954 188.2915,285.8314 188.1485,284.7684 C189.0275,291.4954 188.7405,298.3214 187.9985,305.0454 C187.6835,307.9054 189.5655,311.5824 191.5125,313.5304 C193.5945,315.6124 197.0095,317.1794 199.9985,317.0454 C203.1015,316.9064 206.3205,315.8874 208.4835,313.5304 L210.3605,311.1024 C211.4455,309.2304 211.9915,307.2114 211.9985,305.0454 C212.6995,298.6854 213.0045,292.2274 212.2825,285.8534 C211.9005,282.4844 211.4615,279.0864 210.5965,275.8004 C209.8255,272.8684 208.6635,270.0884 207.4355,267.3214 C204.4005,260.4784 199.1205,254.9924 193.5955,250.0904 C191.2315,247.9924 188.8575,245.8814 186.9115,243.3764 L188.7875,245.8054 C187.6515,244.3254 186.6915,242.7304 185.9565,241.0154 C186.3595,241.9704 186.7625,242.9264 187.1665,243.8814 C186.3905,242.0324 185.8935,240.0954 185.6155,238.1134 C185.7585,239.1764 185.9005,240.2384 186.0435,241.3024 C185.6035,237.9944 185.7575,234.6494 186.1875,231.3494 C186.0445,232.4124 185.9015,233.4754 185.7585,234.5384 C186.2055,231.2274 187.0045,228.0134 187.7665,224.7654 C188.9135,219.8754 189.6025,214.8614 190.0905,209.8654 C190.8855,201.7114 190.7345,193.4774 190.0235,185.3224 C188.7835,171.0914 186.1715,156.9364 182.3045,143.1864 C181.5885,140.6394 180.8505,138.0894 179.9885,135.5874 C178.9645,132.6154 177.2455,130.0384 174.4735,128.4164 C171.9015,126.9104 168.1105,126.2734 165.2265,127.2064 C162.3235,128.1464 159.5215,129.9464 158.0555,132.7214 C156.6005,135.4744 155.7955,138.9214 156.8455,141.9684" id="Fill-45" fill="#6B76A0"></path>
                    <path d="M153.2468,124.4528 C151.9578,129.4118 150.9698,134.4668 150.1478,139.5198 C149.2728,144.9028 148.5268,150.3358 148.1998,155.7818 C147.9058,160.6708 148.1428,165.5708 147.9838,170.4648 C147.8268,175.3198 147.4528,180.1668 146.8068,184.9808 C146.9498,183.9178 147.0918,182.8548 147.2348,181.7918 C146.2588,188.9318 144.5068,195.8738 142.8038,202.8638 C141.0078,210.2388 139.7218,217.8098 139.6768,225.4178 C139.6418,231.4078 140.4348,237.3068 141.2448,243.2308 C141.1018,242.1678 140.9588,241.1038 140.8158,240.0408 C141.9178,248.3048 142.2538,256.7048 141.1778,264.9888 C141.3208,263.9258 141.4638,262.8628 141.6068,261.7998 C140.9488,266.6848 139.7938,271.5008 137.8988,276.0588 C138.3018,275.1038 138.7048,274.1478 139.1078,273.1928 C137.8158,276.2488 136.1998,279.1498 134.1838,281.7898 L136.0598,279.3608 C134.4348,281.4568 132.5798,283.3488 130.4858,284.9778 C131.2948,284.3528 132.1048,283.7268 132.9138,283.1018 C130.9968,284.5688 128.9188,285.7888 126.7018,286.7418 C127.6568,286.3388 128.6128,285.9348 129.5678,285.5328 C127.0898,286.5748 124.4958,287.2648 121.8328,287.6308 C122.8968,287.4878 123.9598,287.3458 125.0228,287.2018 C121.8298,287.6178 118.6108,287.5648 115.4198,287.1528 C116.4828,287.2958 117.5468,287.4378 118.6098,287.5818 C114.7408,287.0568 110.9738,286.0148 107.3288,284.6248 C104.5828,283.5768 100.5228,284.4058 98.0818,285.8348 C95.5928,287.2908 93.2188,290.1448 92.5678,293.0058 C91.8678,296.0778 92.0188,299.5258 93.7768,302.2528 L95.6538,304.6818 C97.1508,306.1688 98.9158,307.1968 100.9488,307.7668 C114.2198,312.8338 129.9828,313.1708 142.4178,305.6168 C155.1978,297.8548 162.4958,283.6058 164.6158,269.1348 C165.3888,263.8628 165.8988,258.6238 165.8298,253.2938 C165.7518,247.2418 164.9928,241.2798 164.1718,235.2908 C164.3138,236.3538 164.4568,237.4178 164.6008,238.4808 C163.6188,231.1668 163.3198,223.7878 164.3048,216.4578 C164.1618,217.5208 164.0178,218.5848 163.8758,219.6478 C164.8198,212.7888 166.8218,206.1488 168.3368,199.4078 C170.6898,188.9418 171.8888,178.2008 172.0548,167.4798 C172.1088,163.9708 171.9718,160.4588 172.1368,156.9508 C172.2908,153.6868 172.6248,150.4338 173.0538,147.1958 C172.9108,148.2598 172.7678,149.3228 172.6248,150.3868 C173.5108,143.8198 174.7218,137.2498 176.3898,130.8338 C177.1798,127.7938 176.7748,124.3118 175.1798,121.5868 C173.7228,119.0978 170.8688,116.7238 168.0078,116.0718 C164.9358,115.3718 161.4878,115.5238 158.7618,117.2818 C156.1528,118.9638 154.0448,121.3818 153.2468,124.4528" id="Fill-47" fill="#828DB7"></path>
                    <g id="Group-71" transform="translate(238.000000, 193.331000)" fill="#FFFFFF" opacity="0.100000001">
                        <path d="M2.031,22.1364 C1.277,22.0144 0.565,22.5274 0.443,23.2824 C0.321,24.0364 0.833,24.7474 1.588,24.8694 C2.343,24.9914 3.054,24.4794 3.177,23.7244 C3.299,22.9704 2.786,22.2594 2.031,22.1364" id="Fill-49"></path>
                        <path d="M15.7361,23.3815 C14.9291,23.0945 14.0421,23.5155 13.7551,24.3215 C13.4681,25.1295 13.8891,26.0165 14.6961,26.3035 C15.5031,26.5905 16.3901,26.1685 16.6771,25.3615 C16.9651,24.5555 16.5431,23.6685 15.7361,23.3815" id="Fill-51"></path>
                        <path d="M28.323,21.9489 C27.464,21.4969 26.401,21.8269 25.949,22.6859 C25.497,23.5449 25.827,24.6079 26.687,25.0589 C27.546,25.5119 28.608,25.1809 29.06,24.3219 C29.512,23.4639 29.182,22.3999 28.323,21.9489" id="Fill-53"></path>
                        <path d="M38.3318,18.3542 C37.4208,17.7382 36.1828,17.9762 35.5658,18.8872 C34.9488,19.7982 35.1878,21.0382 36.0988,21.6542 C37.0098,22.2702 38.2488,22.0322 38.8658,21.1212 C39.4818,20.2092 39.2428,18.9702 38.3318,18.3542" id="Fill-55"></path>
                        <path d="M46.8206,13.5495 C45.8576,12.7685 44.4436,12.9155 43.6616,13.8795 C42.8806,14.8425 43.0276,16.2575 43.9906,17.0385 C44.9546,17.8195 46.3686,17.6725 47.1506,16.7085 C47.9316,15.7455 47.7836,14.3315 46.8206,13.5495" id="Fill-57"></path>
                        <path d="M54.8469,8.488 C53.8309,7.542 52.2409,7.598 51.2949,8.613 C50.3489,9.629 50.4049,11.219 51.4209,12.166 C52.4359,13.111 54.0259,13.055 54.9719,12.04 C55.9189,11.024 55.8619,9.434 54.8469,8.488" id="Fill-59"></path>
                        <path d="M63.4675,4.1198 C62.4005,3.0088 60.6345,2.9738 59.5235,4.0418 C58.4115,5.1088 58.3775,6.8748 59.4445,7.9858 C60.5125,9.0978 62.2785,9.1318 63.3895,8.0638 C64.5005,6.9968 64.5355,5.2298 63.4675,4.1198" id="Fill-61"></path>
                        <path d="M73.7405,1.3981 C72.6205,0.1221 70.6785,-0.0039 69.4035,1.1161 C68.1275,2.2351 68.0015,4.1771 69.1205,5.4531 C70.2405,6.7281 72.1825,6.8551 73.4585,5.7351 C74.7345,4.6151 74.8605,2.6731 73.7405,1.3981" id="Fill-63"></path>
                        <path d="M86.7234,1.2741 C85.5514,-0.1659 83.4334,-0.3839 81.9934,0.7881 C80.5534,1.9601 80.3354,4.0781 81.5074,5.5171 C82.6794,6.9581 84.7974,7.1751 86.2374,6.0031 C87.6784,4.8321 87.8954,2.7141 86.7234,1.2741" id="Fill-65"></path>
                        <path d="M103.4734,4.6999 C102.2494,3.0949 99.9554,2.7859 98.3504,4.0099 C96.7454,5.2339 96.4364,7.5269 97.6604,9.1329 C98.8844,10.7379 101.1784,11.0469 102.7834,9.8229 C104.3884,8.5979 104.6974,6.3049 103.4734,4.6999" id="Fill-67"></path>
                        <path d="M125.0481,12.6276 C123.7721,10.8576 121.3021,10.4576 119.5321,11.7336 C117.7621,13.0106 117.3621,15.4806 118.6381,17.2496 C119.9151,19.0196 122.3841,19.4196 124.1541,18.1436 C125.9241,16.8666 126.3241,14.3986 125.0481,12.6276" id="Fill-69"></path>
                    </g>
                    <path d="M92.5037,293.3121 C92.3937,294.1121 92.3437,294.9221 92.3437,295.7521 L92.3437,298.4221 C92.0637,296.7321 92.1537,294.9721 92.5037,293.3121" id="Fill-72" fill="#828DB7"></path>
                    <g id="Group-96" transform="translate(178.000000, 206.331000)" fill="#FFFFFF" opacity="0.100000001">
                        <path d="M5.5105,0.8766 C4.7555,0.7546 4.0445,1.2676 3.9225,2.0226 C3.8005,2.7766 4.3125,3.4876 5.0675,3.6096 C5.8225,3.7326 6.5335,3.2206 6.6555,2.4656 C6.7785,1.7106 6.2655,0.9996 5.5105,0.8766" id="Fill-74"></path>
                        <path d="M4.3347,11.2907 C3.5277,11.0037 2.6407,11.4247 2.3537,12.2307 C2.0667,13.0387 2.4877,13.9257 3.2947,14.2127 C4.1017,14.4997 4.9887,14.0777 5.2757,13.2707 C5.5637,12.4647 5.1417,11.5777 4.3347,11.2907" id="Fill-76"></path>
                        <path d="M2.8147,22.8971 C1.9557,22.4451 0.8927,22.7751 0.4407,23.6341 C-0.0113,24.4941 0.3187,25.5561 1.1787,26.0071 C2.0377,26.4601 3.0997,26.1291 3.5517,25.2701 C4.0037,24.4121 3.6737,23.3491 2.8147,22.8971" id="Fill-78"></path>
                        <path d="M3.9343,33.4645 C3.0223,32.8475 1.7843,33.0865 1.1673,33.9975 C0.5513,34.9085 0.7893,36.1475 1.7013,36.7645 C2.6123,37.3805 3.8513,37.1415 4.4673,36.2305 C5.0843,35.3185 4.8453,34.0805 3.9343,33.4645" id="Fill-80"></path>
                        <path d="M7.6287,41.5387 C6.6657,40.7577 5.2507,40.9047 4.4697,41.8687 C3.6887,42.8317 3.8357,44.2467 4.7987,45.0277 C5.7627,45.8097 7.1767,45.6617 7.9577,44.6977 C8.7397,43.7347 8.5917,42.3207 7.6287,41.5387" id="Fill-82"></path>
                        <path d="M12.9392,48.195 C11.9232,47.249 10.3332,47.305 9.3872,48.32 C8.4412,49.336 8.4972,50.926 9.5132,51.873 C10.5282,52.818 12.1182,52.762 13.0642,51.747 C14.0112,50.731 13.9542,49.141 12.9392,48.195" id="Fill-84"></path>
                        <path d="M18.907,54.5036 C17.84,53.3936 16.074,53.3576 14.963,54.4256 C13.852,55.4926 13.817,57.2596 14.884,58.3696 C15.952,59.4816 17.718,59.5166 18.829,58.4486 C19.94,57.3806 19.975,55.6146 18.907,54.5036" id="Fill-86"></path>
                        <path d="M24.574,61.5397 C23.454,60.2637 21.512,60.1377 20.237,61.2577 C18.961,62.3767 18.835,64.3187 19.954,65.5947 C21.074,66.8697 23.016,66.9967 24.292,65.8767 C25.567,64.7567 25.694,62.8147 24.574,61.5397" id="Fill-88"></path>
                        <path d="M28.9807,70.3737 C27.8087,68.9337 25.6907,68.7157 24.2507,69.8877 C22.8107,71.0597 22.5927,73.1777 23.7647,74.6177 C24.9367,76.0587 27.0547,76.2757 28.4947,75.1037 C29.9357,73.9327 30.1527,71.8137 28.9807,70.3737" id="Fill-90"></path>
                        <path d="M31.1692,82.0798 C29.9452,80.4758 27.6512,80.1658 26.0462,81.3908 C24.4412,82.6138 24.1322,84.9078 25.3562,86.5138 C26.5802,88.1178 28.8742,88.4278 30.4792,87.2028 C32.0842,85.9788 32.3932,83.6848 31.1692,82.0798" id="Fill-92"></path>
                        <path d="M30.1799,97.7311 C28.9039,95.9601 26.4339,95.5611 24.6639,96.8361 C22.8949,98.1131 22.4939,100.5831 23.7709,102.3521 C25.0469,104.1231 27.5159,104.5231 29.2859,103.2471 C31.0559,101.9701 31.4559,99.5011 30.1799,97.7311" id="Fill-94"></path>
                    </g>
                    <path d="M173.3884,137.2409 C173.0934,139.5669 172.9164,141.9119 172.7554,144.2509 C172.3414,150.2559 172.1854,156.2809 172.2624,162.2999 C172.3804,171.5559 173.1754,180.7339 174.4224,189.9039 C175.6544,198.9649 177.5504,207.9569 180.5004,216.6209 C183.7514,226.1689 188.0254,235.6089 194.1184,243.6989 C197.4464,248.1179 200.9384,252.3269 205.1474,255.9369 C209.4114,259.5949 214.0184,262.9279 219.0524,265.4469 C224.4134,268.1319 230.1094,270.2919 235.9714,271.5829 C242.4204,273.0019 249.1934,273.8049 255.8074,273.6849 C267.6934,273.4699 278.9264,269.2409 287.4294,260.8299 C294.2644,254.0679 298.8814,245.4409 302.8914,236.8119 C306.8184,228.3599 310.3704,219.6819 315.3194,211.7549 C316.5274,209.8179 317.8204,207.9359 319.2104,206.1269 C318.5854,206.9359 317.9604,207.7459 317.3344,208.5549 C319.9184,205.2179 322.8474,202.1649 326.1794,199.5649 C325.3704,200.1909 324.5604,200.8159 323.7514,201.4409 C326.7364,199.1369 329.9944,197.2359 333.4664,195.7619 L330.5994,196.9719 C334.7094,195.2539 339.0344,194.1599 343.4424,193.5489 C342.3794,193.6909 341.3164,193.8339 340.2524,193.9769 C342.7894,193.6369 345.3404,193.4529 347.8984,193.3939 C351.0194,193.3229 354.1584,192.1049 356.3844,189.8799 C358.4654,187.7989 360.0324,184.3839 359.8984,181.3939 C359.7594,178.2909 358.7404,175.0719 356.3844,172.9089 C354.0674,170.7819 351.1224,169.3199 347.8984,169.3939 C337.9504,169.6239 328.4084,171.6029 319.4284,175.9049 C312.8464,179.0569 306.8334,183.8829 302.1084,189.4309 C297.3814,194.9819 293.4744,201.0539 290.1734,207.5419 C287.2774,213.2309 284.7724,219.1049 282.0784,224.8899 C279.2774,230.9059 276.2704,236.9099 272.1994,242.1819 L274.0754,239.7539 C272.1124,242.2759 269.9044,244.5959 267.3824,246.5659 C268.1914,245.9409 269.0014,245.3149 269.8104,244.6899 C267.7054,246.3149 265.4164,247.6669 262.9684,248.7089 L265.8354,247.4989 C263.1544,248.6189 260.3424,249.3469 257.4674,249.7489 C258.5304,249.6059 259.5944,249.4639 260.6574,249.3199 C255.4474,250.0169 250.0844,249.7009 244.8884,249.0169 C245.9524,249.1599 247.0154,249.3029 248.0784,249.4459 C242.4064,248.6789 236.8394,247.2479 231.5604,245.0199 C232.5164,245.4239 233.4714,245.8269 234.4274,246.2299 C229.9924,244.3379 225.8154,241.9029 221.9924,238.9649 C222.8014,239.5899 223.6114,240.2159 224.4204,240.8409 C220.3094,237.6569 216.6594,233.9309 213.4734,229.8239 L215.3504,232.2529 C211.1344,226.7799 207.7764,220.7069 205.0854,214.3529 C205.4884,215.3089 205.8914,216.2639 206.2954,217.2199 C202.7564,208.8159 200.3654,199.9649 198.7414,191.0029 C198.2914,188.5189 197.9034,186.0249 197.5644,183.5239 C197.7074,184.5869 197.8504,185.6499 197.9934,186.7139 C196.7404,177.3669 196.2074,167.9279 196.2454,158.4999 C196.2704,152.4559 196.5144,146.4039 197.0624,140.3839 C197.1574,139.3349 197.2564,138.2859 197.3884,137.2409 C197.7464,134.4149 195.7884,130.6709 193.8734,128.7559 C191.7924,126.6749 188.3774,125.1069 185.3884,125.2409 C182.2844,125.3799 179.0664,126.3989 176.9034,128.7559 L175.0264,131.1839 C173.9414,133.0559 173.3954,135.0749 173.3884,137.2409" id="Fill-97" fill="#828DB7"></path>
                    <g id="Group-121" transform="translate(10.000000, 198.331000)" fill="#FFFFFF" opacity="0.100000001">
                        <path d="M106.7473,0.277 C105.9923,0.155 105.2813,0.668 105.1593,1.423 C105.0373,2.177 105.5493,2.888 106.3043,3.01 C107.0593,3.132 107.7703,2.62 107.8923,1.865 C108.0153,1.111 107.5023,0.399 106.7473,0.277" id="Fill-99"></path>
                        <path d="M102.8909,15.2926 C102.0839,15.0056 101.1969,15.4276 100.9099,16.2336 C100.6229,17.0406 101.0439,17.9286 101.8509,18.2156 C102.6579,18.5026 103.5449,18.0806 103.8319,17.2736 C104.1189,16.4666 103.6979,15.5796 102.8909,15.2926" id="Fill-101"></path>
                        <path d="M97.5628,25.0602 C96.7038,24.6092 95.6408,24.9392 95.1888,25.7972 C94.7378,26.6572 95.0678,27.7192 95.9268,28.1712 C96.7858,28.6232 97.8488,28.2932 98.2998,27.4342 C98.7518,26.5752 98.4218,25.5122 97.5628,25.0602" id="Fill-103"></path>
                        <path d="M88.5564,35.3395 C87.6454,34.7235 86.4074,34.9615 85.7904,35.8725 C85.1734,36.7835 85.4124,38.0235 86.3234,38.6395 C87.2354,39.2555 88.4734,39.0175 89.0904,38.1065 C89.7064,37.1945 89.4684,35.9565 88.5564,35.3395" id="Fill-105"></path>
                        <path d="M78.2673,44.1071 C77.3043,43.3261 75.8893,43.4731 75.1083,44.4371 C74.3273,45.4001 74.4743,46.8141 75.4373,47.5961 C76.4013,48.3781 77.8153,48.2301 78.5973,47.2661 C79.3783,46.3031 79.2303,44.8881 78.2673,44.1071" id="Fill-107"></path>
                        <path d="M66.9485,50.8659 C65.9325,49.9199 64.3435,49.9759 63.3965,50.9909 C62.4505,52.0069 62.5065,53.5969 63.5225,54.5439 C64.5375,55.4889 66.1285,55.4329 67.0735,54.4179 C68.0205,53.4019 67.9645,51.8119 66.9485,50.8659" id="Fill-109"></path>
                        <path d="M54.9739,55.0807 C53.9059,53.9697 52.1409,53.9347 51.0289,55.0027 C49.9179,56.0697 49.8839,57.8367 50.9509,58.9467 C52.0189,60.0587 53.7849,60.0937 54.8959,59.0247 C56.0069,57.9577 56.0419,56.1917 54.9739,55.0807" id="Fill-111"></path>
                        <path d="M42.7166,56.2184 C41.5966,54.9434 39.6546,54.8174 38.3796,55.9364 C37.1036,57.0564 36.9776,58.9974 38.0966,60.2744 C39.2166,61.5494 41.1586,61.6754 42.4346,60.5564 C43.7096,59.4364 43.8366,57.4944 42.7166,56.2184" id="Fill-113"></path>
                        <path d="M30.5496,53.7458 C29.3776,52.3058 27.2596,52.0878 25.8196,53.2598 C24.3786,54.4318 24.1616,56.5498 25.3336,57.9898 C26.5056,59.4308 28.6226,59.6478 30.0636,58.4748 C31.5036,57.3038 31.7216,55.1858 30.5496,53.7458" id="Fill-115"></path>
                        <path d="M18.846,47.1276 C17.622,45.5226 15.328,45.2136 13.723,46.4376 C12.118,47.6616 11.809,49.9546 13.034,51.5606 C14.258,53.1656 16.551,53.4746 18.156,52.2506 C19.762,51.0256 20.07,48.7326 18.846,47.1276" id="Fill-117"></path>
                        <path d="M7.9798,35.8307 C6.7038,34.0597 4.2338,33.6607 2.4638,34.9367 C0.6938,36.2127 0.2938,38.6827 1.5698,40.4527 C2.8468,42.2227 5.3158,42.6227 7.0858,41.3467 C8.8558,40.0697 9.2558,37.6007 7.9798,35.8307" id="Fill-119"></path>
                    </g>
                    <g id="Group-144" transform="translate(43.000000, 95.331000)" fill="#FFFFFF" opacity="0.100000001">
                        <path d="M45.4363,94.8952 C45.2193,94.1632 44.4483,93.7442 43.7153,93.9612 C42.9823,94.1792 42.5643,94.9502 42.7823,95.6822 C42.9993,96.4162 43.7693,96.8332 44.5023,96.6162 C45.2353,96.3992 45.6543,95.6282 45.4363,94.8952" id="Fill-122"></path>
                        <path d="M33.9675,92.5925 C33.8765,91.7405 33.1115,91.1245 32.2595,91.2165 C31.4085,91.3075 30.7925,92.0715 30.8845,92.9235 C30.9755,93.7755 31.7395,94.3915 32.5915,94.2995 C33.4435,94.2085 34.0595,93.4445 33.9675,92.5925" id="Fill-124"></path>
                        <path d="M25.3425,86.2194 C25.3765,85.2484 24.6175,84.4354 23.6475,84.4014 C22.6775,84.3664 21.8635,85.1244 21.8295,86.0954 C21.7955,87.0654 22.5535,87.8794 23.5235,87.9134 C24.4935,87.9484 25.3075,87.1894 25.3425,86.2194" id="Fill-126"></path>
                        <path d="M19.135,75.5983 C19.295,74.5093 18.542,73.4973 17.454,73.3373 C16.365,73.1773 15.353,73.9293 15.193,75.0183 C15.033,76.1073 15.785,77.1193 16.874,77.2793 C17.963,77.4393 18.975,76.6863 19.135,75.5983" id="Fill-128"></path>
                        <path d="M17.6267,63.6266 C17.9127,62.4196 17.1657,61.2096 15.9587,60.9236 C14.7517,60.6386 13.5417,61.3846 13.2557,62.5916 C12.9697,63.7986 13.7167,65.0086 14.9237,65.2946 C16.1307,65.5806 17.3407,64.8336 17.6267,63.6266" id="Fill-130"></path>
                        <path d="M19.6297,51.4304 C20.0417,50.1044 19.3007,48.6964 17.9747,48.2844 C16.6497,47.8724 15.2417,48.6144 14.8297,49.9394 C14.4177,51.2644 15.1587,52.6724 16.4837,53.0844 C17.8097,53.4954 19.2177,52.7554 19.6297,51.4304" id="Fill-132"></path>
                        <path d="M23.0266,39.5515 C23.5636,38.1075 22.8286,36.5005 21.3846,35.9635 C19.9416,35.4265 18.3346,36.1605 17.7976,37.6055 C17.2596,39.0485 17.9946,40.6555 19.4386,41.1935 C20.8826,41.7305 22.4886,40.9955 23.0266,39.5515" id="Fill-134"></path>
                        <path d="M25.7,28.5358 C26.363,26.9738 25.634,25.1688 24.072,24.5058 C22.509,23.8418 20.705,24.5708 20.042,26.1338 C19.378,27.6958 20.107,29.4998 21.67,30.1638 C23.232,30.8268 25.036,30.0978 25.7,28.5358" id="Fill-136"></path>
                        <path d="M25.5325,18.9265 C26.3215,17.2445 25.5985,15.2425 23.9175,14.4535 C22.2365,13.6645 20.2345,14.3875 19.4455,16.0685 C18.6565,17.7495 19.3795,19.7515 21.0595,20.5405 C22.7405,21.3295 24.7435,20.6075 25.5325,18.9265" id="Fill-138"></path>
                        <path d="M20.407,11.2673 C21.322,9.4683 20.605,7.2683 18.805,6.3533 C17.006,5.4383 14.805,6.1553 13.89,7.9543 C12.976,9.7533 13.693,11.9543 15.492,12.8703 C17.292,13.7843 19.492,13.0673 20.407,11.2673" id="Fill-140"></path>
                        <path d="M8.2063,6.1042 C9.2473,4.1862 8.5363,1.7882 6.6183,0.7482 C4.7003,-0.2928 2.3013,0.4172 1.2603,2.3352 C0.2203,4.2532 0.9313,6.6522 2.8493,7.6932 C4.7673,8.7332 7.1653,8.0222 8.2063,6.1042" id="Fill-142"></path>
                    </g>
                    <g id="Group-167" transform="translate(241.000000, 180.331000)" fill="#FFFFFF" opacity="0.100000001">
                        <path d="M0.7239,86.7155 C0.9409,85.9825 1.7119,85.5645 2.4449,85.7815 C3.1779,85.9985 3.5959,86.7695 3.3779,87.5025 C3.1609,88.2365 2.3909,88.6535 1.6579,88.4365 C0.9249,88.2195 0.5059,87.4485 0.7239,86.7155" id="Fill-145"></path>
                        <path d="M10.803,88.0309 C10.894,87.1789 11.659,86.5629 12.511,86.6549 C13.362,86.7469 13.978,87.5099 13.886,88.3619 C13.795,89.2139 13.031,89.8299 12.179,89.7389 C11.327,89.6469 10.711,88.8829 10.803,88.0309" id="Fill-147"></path>
                        <path d="M22.7932,87.3102 C22.7592,86.3402 23.5182,85.5262 24.4882,85.4922 C25.4582,85.4572 26.2722,86.2162 26.3062,87.1862 C26.3402,88.1572 25.5822,88.9702 24.6122,89.0042 C23.6422,89.0392 22.8282,88.2812 22.7932,87.3102" id="Fill-149"></path>
                        <path d="M36.1184,79.8522 C35.9584,78.7642 36.7114,77.7512 37.7994,77.5912 C38.8884,77.4312 39.9004,78.1842 40.0604,79.2732 C40.2204,80.3612 39.4684,81.3732 38.3794,81.5342 C37.2904,81.6942 36.2784,80.9412 36.1184,79.8522" id="Fill-151"></path>
                        <path d="M48.2576,64.3591 C47.9716,63.1521 48.7176,61.9421 49.9246,61.6561 C51.1326,61.3701 52.3426,62.1171 52.6286,63.3241 C52.9146,64.5311 52.1676,65.7411 50.9606,66.0271 C49.7536,66.3131 48.5436,65.5661 48.2576,64.3591" id="Fill-153"></path>
                        <path d="M55.1628,51.0934 C54.7508,49.7674 55.4918,48.3594 56.8178,47.9474 C58.1428,47.5354 59.5508,48.2774 59.9628,49.6024 C60.3748,50.9274 59.6338,52.3354 58.3088,52.7474 C56.9828,53.1584 55.5748,52.4184 55.1628,51.0934" id="Fill-155"></path>
                        <path d="M61.574,37.5759 C61.037,36.1329 61.772,34.5259 63.216,33.9879 C64.659,33.4509 66.266,34.1859 66.803,35.6299 C67.341,37.0739 66.606,38.6799 65.162,39.2179 C63.718,39.7549 62.112,39.0199 61.574,37.5759" id="Fill-157"></path>
                        <path d="M68.5266,25.0827 C67.8636,23.5207 68.5926,21.7167 70.1546,21.0527 C71.7166,20.3897 73.5216,21.1187 74.1846,22.6817 C74.8486,24.2437 74.1196,26.0477 72.5566,26.7107 C70.9946,27.3747 69.1906,26.6447 68.5266,25.0827" id="Fill-159"></path>
                        <path d="M77.0554,14.8874 C76.2664,13.2064 76.9894,11.2034 78.6704,10.4144 C80.3514,9.6254 82.3534,10.3494 83.1424,12.0304 C83.9314,13.7104 83.2084,15.7134 81.5284,16.5024 C79.8474,17.2914 77.8444,16.5684 77.0554,14.8874" id="Fill-161"></path>
                        <path d="M88.196,8.2643 C87.281,6.4643 87.998,4.2643 89.798,3.3493 C91.597,2.4343 93.798,3.1513 94.713,4.9513 C95.627,6.7503 94.91,8.9513 93.111,9.8663 C91.311,10.7813 89.111,10.0633 88.196,8.2643" id="Fill-163"></path>
                        <path d="M102.9836,6.487 C101.9426,4.569 102.6536,2.171 104.5716,1.13 C106.4896,0.089 108.8886,0.8 109.9286,2.718 C110.9696,4.636 110.2586,7.035 108.3406,8.075 C106.4226,9.116 104.0246,8.405 102.9836,6.487" id="Fill-165"></path>
                    </g>
                    <g id="Group-190" transform="translate(99.000000, 210.331000)" fill="#FFFFFF" opacity="0.100000001">
                        <path d="M47.0559,0.5534 C46.3019,0.4314 45.5909,0.9444 45.4679,1.6994 C45.3459,2.4534 45.8579,3.1644 46.6129,3.2864 C47.3679,3.4084 48.0789,2.8964 48.2019,2.1424 C48.3239,1.3874 47.8109,0.6764 47.0559,0.5534" id="Fill-168"></path>
                        <path d="M47.2058,10.3766 C46.3988,10.0896 45.5118,10.5116 45.2248,11.3176 C44.9378,12.1246 45.3588,13.0126 46.1658,13.2996 C46.9728,13.5866 47.8598,13.1646 48.1468,12.3576 C48.4348,11.5516 48.0128,10.6636 47.2058,10.3766" id="Fill-170"></path>
                        <path d="M48.3123,23.7546 C47.4533,23.3026 46.3903,23.6336 45.9383,24.4916 C45.4863,25.3516 45.8163,26.4136 46.6763,26.8656 C47.5353,27.3176 48.5983,26.9866 49.0493,26.1286 C49.5013,25.2696 49.1713,24.2066 48.3123,23.7546" id="Fill-172"></path>
                        <path d="M50.6365,36.1139 C49.7255,35.4979 48.4865,35.7359 47.8695,36.6469 C47.2535,37.5579 47.4925,38.7979 48.4035,39.4139 C49.3145,40.0299 50.5535,39.7919 51.1695,38.8809 C51.7865,37.9689 51.5475,36.7299 50.6365,36.1139" id="Fill-174"></path>
                        <path d="M52.2224,50.9626 C51.2594,50.1816 49.8454,50.3286 49.0634,51.2926 C48.2824,52.2556 48.4294,53.6706 49.3924,54.4516 C50.3564,55.2336 51.7704,55.0856 52.5524,54.1216 C53.3334,53.1586 53.1854,51.7446 52.2224,50.9626" id="Fill-176"></path>
                        <path d="M50.469,62.8737 C49.453,61.9277 47.863,61.9837 46.917,62.9997 C45.971,64.0147 46.027,65.6047 47.043,66.5517 C48.058,67.4967 49.648,67.4407 50.594,66.4257 C51.541,65.4097 51.484,63.8197 50.469,62.8737" id="Fill-178"></path>
                        <path d="M45.825,71.862 C44.757,70.751 42.992,70.716 41.88,71.784 C40.769,72.851 40.735,74.617 41.802,75.728 C42.87,76.839 44.636,76.874 45.747,75.806 C46.858,74.739 46.893,72.972 45.825,71.862" id="Fill-180"></path>
                        <path d="M38.741,77.943 C37.621,76.668 35.679,76.542 34.404,77.661 C33.128,78.781 33.002,80.722 34.121,81.999 C35.241,83.274 37.183,83.4 38.459,82.281 C39.735,81.161 39.861,79.218 38.741,77.943" id="Fill-182"></path>
                        <path d="M29.6668,81.1344 C28.4948,79.6944 26.3768,79.4764 24.9368,80.6484 C23.4968,81.8204 23.2788,83.9384 24.4508,85.3784 C25.6228,86.8194 27.7408,87.0364 29.1808,85.8634 C30.6218,84.6924 30.8388,82.5744 29.6668,81.1344" id="Fill-184"></path>
                        <path d="M19.0525,81.4509 C17.8285,79.8459 15.5345,79.5369 13.9295,80.7609 C12.3245,81.9849 12.0155,84.2789 13.2405,85.8839 C14.4645,87.4889 16.7575,87.7979 18.3625,86.5739 C19.9685,85.3489 20.2765,83.0559 19.0525,81.4509" id="Fill-186"></path>
                        <path d="M7.3484,78.9089 C6.0724,77.1389 3.6024,76.7389 1.8324,78.0149 C0.0624,79.2919 -0.3376,81.7609 0.9384,83.5309 C2.2154,85.3009 4.6844,85.7009 6.4544,84.4249 C8.2244,83.1479 8.6244,80.6789 7.3484,78.9089" id="Fill-188"></path>
                    </g>
                    <g id="Group-213" transform="translate(284.000000, 77.331000)" fill="#FFFFFF" opacity="0.100000001">
                        <path d="M5.7239,93.738 C4.9699,93.616 4.2579,94.129 4.1359,94.884 C4.0139,95.638 4.5259,96.349 5.2809,96.471 C6.0359,96.593 6.7469,96.081 6.8699,95.326 C6.9919,94.572 6.4789,93.86 5.7239,93.738" id="Fill-191"></path>
                        <path d="M9.3518,82.9831 C8.5448,82.6961 7.6578,83.1181 7.3708,83.9241 C7.0838,84.7311 7.5048,85.6181 8.3118,85.9051 C9.1188,86.1921 10.0058,85.7711 10.2928,84.9641 C10.5798,84.1571 10.1588,83.2701 9.3518,82.9831" id="Fill-193"></path>
                        <path d="M9.8914,71.5651 C9.0324,71.1141 7.9694,71.4441 7.5174,72.3021 C7.0654,73.1621 7.3954,74.2241 8.2554,74.6761 C9.1144,75.1281 10.1774,74.7971 10.6284,73.9391 C11.0804,73.0801 10.7504,72.0171 9.8914,71.5651" id="Fill-195"></path>
                        <path d="M7.1438,54.9011 C6.2328,54.2851 4.9938,54.5231 4.3778,55.4341 C3.7608,56.3451 3.9998,57.5851 4.9108,58.2011 C5.8218,58.8171 7.0608,58.5791 7.6778,57.6681 C8.2938,56.7561 8.0548,55.5171 7.1438,54.9011" id="Fill-197"></path>
                        <path d="M4.6555,35.8278 C3.6925,35.0468 2.2775,35.1938 1.4965,36.1568 C0.7155,37.1208 0.8625,38.5348 1.8255,39.3158 C2.7895,40.0978 4.2035,39.9498 4.9855,38.9868 C5.7665,38.0228 5.6185,36.6088 4.6555,35.8278" id="Fill-199"></path>
                        <path d="M6.8035,20.9431 C5.7875,19.9971 4.1975,20.0521 3.2515,21.0681 C2.3055,22.0841 2.3615,23.6731 3.3775,24.6201 C4.3925,25.5661 5.9825,25.5101 6.9285,24.4951 C7.8755,23.4791 7.8185,21.8881 6.8035,20.9431" id="Fill-201"></path>
                        <path d="M12.7712,10.2487 C11.7042,9.1387 9.9382,9.1027 8.8272,10.1707 C7.7152,11.2377 7.6812,13.0047 8.7482,14.1157 C9.8162,15.2267 11.5822,15.2617 12.6932,14.1937 C13.8042,13.1257 13.8392,11.3597 12.7712,10.2487" id="Fill-203"></path>
                        <path d="M21.7244,3.8034 C20.6044,2.5274 18.6624,2.4014 17.3874,3.5214 C16.1114,4.6404 15.9854,6.5824 17.1054,7.8584 C18.2244,9.1334 20.1664,9.2604 21.4424,8.1404 C22.7184,7.0204 22.8444,5.0784 21.7244,3.8034" id="Fill-205"></path>
                        <path d="M32.8279,1.6599 C31.6559,0.2199 29.5379,0.0029 28.0979,1.1749 C26.6579,2.3469 26.4399,4.4639 27.6119,5.9039 C28.7839,7.3449 30.9019,7.5619 32.3419,6.3899 C33.7829,5.2189 33.9999,3.0999 32.8279,1.6599" id="Fill-207"></path>
                        <path d="M45.2463,3.8766 C44.0223,2.2716 41.7283,1.9626 40.1233,3.1876 C38.5183,4.4106 38.2093,6.7046 39.4333,8.3096 C40.6573,9.9146 42.9513,10.2236 44.5563,8.9996 C46.1623,7.7746 46.4703,5.4816 45.2463,3.8766" id="Fill-209"></path>
                        <path d="M58.1448,10.5085 C56.8688,8.7375 54.3988,8.3385 52.6288,9.6135 C50.8598,10.8905 50.4588,13.3605 51.7358,15.1295 C53.0118,16.9005 55.4808,17.3005 57.2508,16.0245 C59.0208,14.7475 59.4208,12.2785 58.1448,10.5085" id="Fill-211"></path>
                    </g>
                    <path d="M37.7634,103.2428 L40.9434,103.2428 L40.9434,103.7018 C40.9434,104.3228 40.7234,104.8828 40.3534,105.3118 C39.8934,105.8328 39.2434,106.1518 38.5034,106.1518 C37.1434,106.1518 36.0534,105.0618 36.0534,103.7018 L36.0534,100.8328 C36.5034,101.7128 37.0634,102.5318 37.7634,103.2428" id="Fill-214" fill="#3A4669"></path>
                    <path d="M64.2835,94.3522 L64.2835,103.7022 C64.2835,103.8822 64.2635,104.0522 64.2235,104.2222 C64.1435,104.6122 63.9635,104.9622 63.7235,105.2622 C63.2735,105.8122 62.5935,106.1522 61.8335,106.1522 C60.7835,106.1522 59.8935,105.5022 59.5535,104.5732 C59.4535,104.3422 59.4035,104.1022 59.3935,103.8522 C59.3835,103.8022 59.3835,103.7522 59.3835,103.7022 L59.3835,94.3522 C59.3835,89.0822 56.4735,84.6422 52.5335,83.3522 C52.5235,83.3422 52.5135,83.3422 52.5035,83.3422 C51.7535,83.0922 50.9735,82.9622 50.1635,82.9622 C49.7035,82.9622 49.2435,83.0022 48.7935,83.0922 C48.0735,83.0732 47.3535,83.0922 46.6235,83.1222 C43.4635,83.2722 40.4235,84.3622 38.1435,86.6422 C37.8635,86.9222 37.5935,87.2322 37.3335,87.5522 C37.5935,86.8822 37.8935,86.2432 38.2335,85.6222 C39.2535,83.7822 40.5535,82.2122 42.1135,80.9622 C44.4835,79.0622 47.2635,78.0622 50.1635,78.0622 C55.4235,78.0622 60.0235,81.4022 62.4435,86.3322 C63.6135,88.7022 64.2835,91.4422 64.2835,94.3522" id="Fill-216" fill="#3A4669"></path>
                    <path d="M68.4734,108.1725 L68.4734,131.0025 C68.4734,133.7225 66.2634,135.9325 63.5434,135.9325 L36.7834,135.9325 C34.0634,135.9325 31.8634,133.7225 31.8634,131.0025 L31.8634,108.1725 C31.8634,105.7015 33.6734,103.6515 36.0534,103.3025 C36.2834,103.2625 36.5334,103.2425 36.7834,103.2425 L63.5434,103.2425 C63.7934,103.2425 64.0434,103.2625 64.2834,103.3025 C66.6534,103.6625 68.4734,105.7015 68.4734,108.1725" id="Fill-218" fill="#D7E2F4"></path>
                    <path d="M47.4671,103.8551 L62.2491,103.8551 C65.2691,103.8551 67.7201,106.3011 67.7201,109.3221 L67.7201,129.9001 C67.7201,131.9141 66.6301,133.6731 65.0071,134.6231 C66.0371,133.6271 67.2071,132.4611 67.2071,130.9181 L66.6791,110.1131 C66.6791,107.0911 64.2281,104.6411 61.2081,104.6411 L44.5771,103.9631 L47.4671,103.8551 Z" id="Fill-220" fill="#FFFFFF"></path>
                    <path d="M53.2092,114.7535 C53.2092,116.4345 51.8472,117.7955 50.1672,117.7955 C48.4862,117.7955 47.1242,116.4345 47.1242,114.7535 C47.1242,113.0725 48.4862,111.7115 50.1672,111.7115 C51.8472,111.7115 53.2092,113.0725 53.2092,114.7535" id="Fill-222" fill="#6B76A0"></path>
                    <path d="M53.1931,114.7545 C53.1931,115.7395 52.7241,116.6185 51.9951,117.1745 C52.4841,116.6345 52.7831,115.9175 52.7831,115.1295 C52.7831,113.4505 51.4231,112.0875 49.7411,112.0875 C49.0471,112.0875 48.4091,112.3195 47.8971,112.7095 C48.4521,112.0955 49.2561,111.7125 50.1511,111.7125 C51.8291,111.7125 53.1931,113.0715 53.1931,114.7545" id="Fill-224" fill="#566384"></path>
                    <polygon id="Fill-226" fill="#6B76A0" points="50.1668 113.3639 46.5008 124.9139 53.8328 124.9139"></polygon>
                    <path d="M95.6536,304.6822 C96.1136,305.1422 96.5936,305.5522 97.1036,305.9122 C96.7736,306.8712 95.8636,307.5622 94.7936,307.5622 C93.4436,307.5622 92.3436,306.4622 92.3436,305.1022 L92.3436,298.4222 C92.5636,299.7722 93.0236,301.0822 93.7736,302.2522 C94.4036,303.0622 95.0236,303.8712 95.6536,304.6822" id="Fill-228" fill="#3A4669"></path>
                    <path d="M120.5838,295.7526 L120.5838,305.1026 C120.5838,306.4626 119.4838,307.5626 118.1338,307.5626 C116.7728,307.5626 115.6838,306.4626 115.6838,305.1026 L115.6838,295.7526 C115.6838,291.5526 113.8338,287.8826 111.0838,285.9016 C109.7238,284.9226 108.1438,284.3616 106.4638,284.3616 L106.4338,284.3616 C103.7538,283.7526 100.2728,284.5526 98.0838,285.8326 C95.5938,287.2916 93.2238,290.1426 92.5628,293.0026 C92.5438,293.0926 92.5228,293.1826 92.5038,293.2726 C93.5438,285.4626 99.4038,279.4626 106.4638,279.4626 C111.6138,279.4626 116.1338,282.6626 118.5938,287.4326 C119.8638,289.8716 120.5838,292.7126 120.5838,295.7526" id="Fill-230" fill="#3A4669"></path>
                    <path d="M119.8411,337.3307 L93.0821,337.3307 C90.3621,337.3307 88.1571,335.1267 88.1571,332.4067 L88.1571,309.5687 C88.1571,306.8507 90.3621,304.6447 93.0821,304.6447 L119.8411,304.6447 C122.5611,304.6447 124.7651,306.8507 124.7651,309.5687 L124.7651,332.4067 C124.7651,335.1267 122.5611,337.3307 119.8411,337.3307" id="Fill-232" fill="#D7E2F4"></path>
                    <path d="M103.762,305.2555 L118.544,305.2555 C121.564,305.2555 124.015,307.7015 124.015,310.7225 L124.015,331.3005 C124.015,333.3145 122.925,335.0735 121.302,336.0245 C122.332,335.0275 123.502,333.8615 123.502,332.3185 L122.974,311.5135 C122.974,308.4925 120.523,306.0415 117.503,306.0415 L100.872,305.3635 L103.762,305.2555 Z" id="Fill-234" fill="#FFFFFF"></path>
                    <path d="M109.5037,316.1539 C109.5037,317.8349 108.1417,319.1969 106.4617,319.1969 C104.7807,319.1969 103.4197,317.8349 103.4197,316.1539 C103.4197,314.4739 104.7807,313.1119 106.4617,313.1119 C108.1417,313.1119 109.5037,314.4739 109.5037,316.1539" id="Fill-236" fill="#6B76A0"></path>
                    <path d="M109.4876,316.1559 C109.4876,317.1399 109.0186,318.0189 108.2896,318.5749 C108.7786,318.0349 109.0776,317.3179 109.0776,316.5299 C109.0776,314.8509 107.7186,313.4879 106.0356,313.4879 C105.3426,313.4879 104.7036,313.7199 104.1916,314.1099 C104.7476,313.4959 105.5506,313.1139 106.4456,313.1139 C108.1246,313.1139 109.4876,314.4729 109.4876,316.1559" id="Fill-238" fill="#566384"></path>
                    <polygon id="Fill-240" fill="#6B76A0" points="106.4617 314.7643 102.7947 326.3143 110.1277 326.3143"></polygon>
                    <path d="M356.3835,172.9127 C354.3035,171.0027 351.7235,169.6327 348.8935,169.4327 C347.4435,168.2527 345.7135,167.5727 343.8635,167.5727 C341.6035,167.5727 339.5335,168.5827 337.9235,170.2627 C335.9235,172.3517 334.6435,175.4727 334.6435,178.9627 L334.6435,188.3117 C334.6435,189.6627 333.5435,190.7627 332.1935,190.7627 C330.8435,190.7627 329.7435,189.6627 329.7435,188.3117 L329.7435,178.9627 C329.7435,176.3117 330.2935,173.8227 331.2635,171.6117 C333.5935,166.3117 338.3635,162.6727 343.8635,162.6727 C350.1035,162.6727 355.4135,167.3717 357.2735,173.8617 C357.0035,173.5217 356.7035,173.2127 356.3835,172.9127" id="Fill-242" fill="#3A4669"></path>
                    <path d="M357.9836,187.8522 L357.9836,188.3122 C357.9836,189.6632 356.8836,190.7622 355.5336,190.7622 C355.4836,190.7622 355.4436,190.7622 355.3936,190.7522 C355.7436,190.4822 356.0736,190.1922 356.3836,189.8822 C356.9636,189.3022 357.5136,188.6122 357.9836,187.8522" id="Fill-244" fill="#3A4669"></path>
                    <path d="M357.2415,220.5387 L330.4825,220.5387 C327.7625,220.5387 325.5575,218.3337 325.5575,215.6137 L325.5575,192.7767 C325.5575,190.0577 327.7625,187.8527 330.4825,187.8527 L357.2415,187.8527 C359.9615,187.8527 362.1655,190.0577 362.1655,192.7767 L362.1655,215.6137 C362.1655,218.3337 359.9615,220.5387 357.2415,220.5387" id="Fill-246" fill="#D7E2F4"></path>
                    <path d="M341.1624,188.4625 L355.9444,188.4625 C358.9644,188.4625 361.4154,190.9095 361.4154,193.9305 L361.4154,214.5085 C361.4154,216.5225 360.3254,218.2805 358.7024,219.2315 C359.7324,218.2355 360.9024,217.0685 360.9024,215.5265 L360.3744,194.7205 C360.3744,191.6995 357.9234,189.2495 354.9034,189.2495 L338.2724,188.5715 L341.1624,188.4625 Z" id="Fill-248" fill="#FFFFFF"></path>
                    <path d="M346.9045,199.3619 C346.9045,201.0419 345.5425,202.4039 343.8625,202.4039 C342.1815,202.4039 340.8195,201.0419 340.8195,199.3619 C340.8195,197.6809 342.1815,196.3189 343.8625,196.3189 C345.5425,196.3189 346.9045,197.6809 346.9045,199.3619" id="Fill-250" fill="#6B76A0"></path>
                    <path d="M346.8879,199.3629 C346.8879,200.3479 346.4189,201.2269 345.6899,201.7829 C346.1789,201.2429 346.4779,200.5259 346.4779,199.7379 C346.4779,198.0589 345.1189,196.6949 343.4359,196.6949 C342.7429,196.6949 342.1039,196.9279 341.5919,197.3179 C342.1479,196.7039 342.9509,196.3209 343.8459,196.3209 C345.5249,196.3209 346.8879,197.6799 346.8879,199.3629" id="Fill-252" fill="#566384"></path>
                    <polygon id="Fill-254" fill="#6B76A0" points="343.8621 197.9723 340.1951 209.5223 347.5281 209.5223"></polygon>
                </g>
            </g>
        </g>
    </g>
</svg>
