<svg width="762px" height="472px" viewBox="0 0 762 472" version="1.1" xmlns="http://www.w3.org/2000/svg" xmlns:xlink="http://www.w3.org/1999/xlink">
    <defs>
        <polygon id="path-1" points="0.454930832 0.880091541 179.62 0.880091541 179.62 129.020819 0.454930832 129.020819"></polygon>
        <polygon id="path-3" points="0.6573 0.652 107.1343 0.652 107.1343 134.0622 0.6573 134.0622"></polygon>
    </defs>
    <g id="Error-pages" stroke="none" stroke-width="1" fill="none" fill-rule="evenodd">
        <g id="404-Not-found" transform="translate(-365.000000, -309.000000)">
            <g id="Img_404_page" transform="translate(365.000000, 309.000000)">
                <g id="bg-" transform="translate(0.000000, 1.000000)" fill="#ECF0F9">
                    <circle id="Oval-Copy-9" cx="152" cy="438" r="32"></circle>
                    <circle id="Oval-Copy-10" cx="611.5" cy="204.5" r="150.5"></circle>
                    <circle id="Oval-Copy-11" cx="199" cy="199" r="199"></circle>
                    <circle id="Oval-Copy-12" cx="379.5" cy="235.5" r="235.5"></circle>
                    <circle id="Oval-Copy-13" cx="64" cy="401" r="12"></circle>
                    <circle id="Oval-Copy-14" cx="548" cy="42" r="12"></circle>
                </g>
                <g id="Group-5" transform="translate(110.000000, 0.000000)">
                    <g id="monitor" transform="translate(0.000000, 126.000000)">
                        <g id="display">
                            <polygon id="Rectangle" fill="#283049" points="141.946341 242.4 212.936585 242.4 216.8 272 137.6 272"></polygon>
                            <rect id="Rectangle" fill="#3A4669" x="0" y="0" width="354.4" height="258.4" rx="14.4"></rect>
                            <path d="M0,219.2 L354.4,219.2 L354.4,244 C354.4,251.9529 347.9529,258.4 340,258.4 L14.4,258.4 C6.4470996,258.4 8.07937676e-15,251.9529 0,244 L0,219.2 L0,219.2 Z" id="Rectangle" fill="#93A1C9"></path>
                            <path d="M110.4,272 L244,272 L243.25035,273.728796 C240.967539,278.993273 235.77707,282.4 230.038957,282.4 L124.361043,282.4 C118.62293,282.4 113.432461,278.993273 111.14965,273.728796 L110.4,272 L110.4,272 Z" id="Rectangle-Copy" fill="#93A1C9" transform="translate(177.200000, 277.200000) scale(1, -1) translate(-177.200000, -277.200000) "></path>
                            <rect id="Rectangle" fill="#FFFFFF" x="12.8" y="12.8" width="329.6" height="190.4"></rect>
                        </g>
                        <g id="web-page" opacity="0.400000006" transform="translate(19.000000, 17.800000)">
                            <rect id="Rectangle-Copy-9" stroke="#E1E7F4" stroke-width="3.2" fill="#FFFFFF" x="0" y="0.2" width="319" height="180" rx="8"></rect>
                            <rect id="Rectangle-Copy-16" fill="#E1E7F4" x="48" y="54.2" width="125" height="39.2" rx="6.4"></rect>
                            <rect id="Rectangle-Copy-12" fill="#E1E7F4" transform="translate(177.300000, 109.800000) rotate(-270.000000) translate(-177.300000, -109.800000) " x="169.3" y="-19.7" width="16" height="259" rx="3.2"></rect>
                            <rect id="Rectangle-Copy-14" fill="#E1E7F4" transform="translate(177.300000, 147.700000) rotate(-270.000000) translate(-177.300000, -147.700000) " x="152.8" y="18.2" width="49" height="259" rx="3.2"></rect>
                            <rect id="Rectangle-Copy-17" fill="#E1E7F4" x="180" y="54.2" width="125" height="39.2" rx="6.4"></rect>
                            <path d="M8,0.2 L311,0.2 C315.418278,0.2 319,3.781722 319,8.2 L319,17.2 L319,17.2 L0,17.2 L0,8.2 C-5.41083001e-16,3.781722 3.581722,0.2 8,0.2 Z" id="Rectangle-Copy-15" fill="#E1E7F4"></path>
                            <g id="Group-3-Copy-2" transform="translate(11.000000, 4.200000)" fill="#FFFFFF">
                                <circle id="Oval" cx="3.2" cy="3.2" r="3.2"></circle>
                                <circle id="Oval-Copy" cx="16" cy="3.2" r="3.2"></circle>
                                <circle id="Oval-Copy-2" cx="28.8" cy="3.2" r="3.2"></circle>
                            </g>
                            <rect id="Rectangle-Copy-11" fill="#E1E7F4" transform="translate(158.200000, 35.000000) rotate(-270.000000) translate(-158.200000, -35.000000) " x="146.6" y="-114" width="23.2" height="298" rx="3.2"></rect>
                            <rect id="Rectangle-Copy-10" fill="#E1E7F4" x="9" y="54.2" width="32" height="118" rx="3.2"></rect>
                        </g>
                        <text id="404" font-family="HiraKakuStdN-W8, Hiragino Kaku Gothic StdN" font-size="70" font-weight="600" letter-spacing="3.68421053" fill="#93A1C9">
                            <tspan x="90.6173684" y="112">404</tspan>
                        </text>
                    </g>
                    <g id="magnifier" transform="translate(163.000000, 228.000000)">
                        <path d="M83.7175,92.5899 L52.6425,61.5159 C50.6505,59.5229 50.6505,56.2919 52.6425,54.2989 C54.6355,52.3059 57.8665,52.3059 59.8595,54.2989 L90.9335,85.3729 C92.9265,87.3659 92.9265,90.5969 90.9335,92.5899 C88.9415,94.5829 85.7105,94.5829 83.7175,92.5899" id="Fill-44" fill="#6B76A0"></path>
                        <path d="M57.5022,70.1153 L50.9982,63.6113 C50.0052,62.6183 50.0052,61.0093 50.9982,60.0163 L58.3602,52.6543 C59.3532,51.6613 60.9622,51.6613 61.9552,52.6543 L68.4602,59.1583 C69.4522,60.1513 69.4522,61.7613 68.4602,62.7533 L61.0972,70.1153 C60.1042,71.1083 58.4952,71.1083 57.5022,70.1153" id="Fill-46" fill="#959FC5"></path>
                        <path d="M63.7614,33.726 C63.7614,50.2945901 50.3297577,63.726 33.7608808,63.726 C17.1920039,63.726 3.7614,50.2945901 3.7614,33.726 C3.7614,17.1574099 17.1920039,3.726 33.7608808,3.726 C50.3297577,3.726 63.7614,17.1574099 63.7614,33.726" id="Fill-54" fill="#D7E2F4"></path>
                        <circle id="Oval" stroke="#6B76A0" stroke-width="9" cx="34" cy="34" r="34"></circle>
                        <path d="M44.9655,53.7628 C44.4205,53.9718 43.8745,54.1548 43.3195,54.3148 C54.3255,49.1638 59.6355,36.2968 55.2245,24.7738 C50.8105,13.2428 38.2675,7.2188 26.6355,10.7358 C27.1555,10.4848 27.6845,10.2558 28.2285,10.0468 C40.3035,5.4238 53.8325,11.4618 58.4555,23.5368 C63.0745,35.6048 57.0405,49.1398 44.9655,53.7628" id="Fill-58" fill="#FFFFFF"></path>
                    </g>
                    <g id="Group-151" transform="translate(107.000000, 82.653000)" fill="#FFFFFF" opacity="0.100000001">
                        <path d="M1.8615,26.3901 C1.1905,27.0611 0.7795,27.9851 0.7795,29.0021 C0.7795,30.0201 1.1905,30.9441 1.8615,31.6151 C2.5315,32.2861 3.4565,32.6971 4.4735,32.6971 C5.4905,32.6971 6.4155,32.2861 7.0865,31.6151 C7.7565,30.9441 8.1685,30.0201 8.1685,29.0021 C8.1685,27.9851 7.7565,27.0611 7.0865,26.3901 C6.4155,25.7191 5.4905,25.3081 4.4735,25.3081 C3.4565,25.3081 2.5315,25.7191 1.8615,26.3901" id="Fill-131"></path>
                        <path d="M13.9724,13.7661 C13.3464,14.3921 12.9654,15.2531 12.9654,16.1971 C12.9654,17.1411 13.3464,18.0011 13.9724,18.6271 C14.5984,19.2541 15.4594,19.6341 16.4034,19.6341 C17.3474,19.6341 18.2074,19.2541 18.8334,18.6271 C19.4594,18.0011 19.8404,17.1411 19.8404,16.1971 C19.8404,15.2531 19.4594,14.3921 18.8334,13.7661 C18.2074,13.1401 17.3474,12.7591 16.4034,12.7591 C15.4594,12.7591 14.5984,13.1401 13.9724,13.7661" id="Fill-133"></path>
                        <path d="M30.5461,5.2338 C29.9641,5.8148 29.6141,6.6128 29.6141,7.4828 C29.6141,8.3528 29.9641,9.1508 30.5461,9.7318 C31.1281,10.3138 31.9251,10.6638 32.7951,10.6638 C33.6651,10.6638 34.4631,10.3138 35.0451,9.7318 C35.6261,9.1508 35.9761,8.3528 35.9761,7.4828 C35.9761,6.6128 35.6261,5.8148 35.0451,5.2338 C34.4631,4.6518 33.6651,4.3018 32.7951,4.3018 C31.9251,4.3018 31.1281,4.6518 30.5461,5.2338" id="Fill-135"></path>
                        <path d="M49.6252,1.1039 C49.0882,1.6409 48.7692,2.3749 48.7692,3.1709 C48.7692,3.9679 49.0882,4.7029 49.6252,5.2399 C50.1622,5.7769 50.8962,6.0959 51.6932,6.0959 C52.4892,6.0959 53.2242,5.7769 53.7612,5.2399 C54.2982,4.7029 54.6172,3.9679 54.6172,3.1709 C54.6172,2.3749 54.2982,1.6409 53.7612,1.1039 C53.2242,0.5669 52.4892,0.2479 51.6932,0.2479 C50.8962,0.2479 50.1622,0.5669 49.6252,1.1039" id="Fill-137"></path>
                        <path d="M69.2522,1.6879 C68.7592,2.1809 68.4712,2.8519 68.4712,3.5749 C68.4712,4.2969 68.7592,4.9679 69.2522,5.4609 C69.7452,5.9539 70.4162,6.2429 71.1392,6.2429 C71.8612,6.2429 72.5322,5.9539 73.0252,5.4609 C73.5182,4.9679 73.8062,4.2969 73.8062,3.5749 C73.8062,2.8519 73.5182,2.1809 73.0252,1.6879 C72.5322,1.1959 71.8612,0.9069 71.1392,0.9069 C70.4162,0.9069 69.7452,1.1959 69.2522,1.6879" id="Fill-139"></path>
                        <path d="M87.4694,7.2983 C87.0214,7.7463 86.7634,8.3553 86.7634,9.0033 C86.7634,9.6523 87.0214,10.2603 87.4694,10.7083 C87.9174,11.1563 88.5254,11.4143 89.1744,11.4143 C89.8234,11.4143 90.4314,11.1563 90.8794,10.7083 C91.3274,10.2603 91.5854,9.6523 91.5854,9.0033 C91.5854,8.3553 91.3274,7.7463 90.8794,7.2983 C90.4314,6.8503 89.8234,6.5923 89.1744,6.5923 C88.5254,6.5923 87.9174,6.8503 87.4694,7.2983" id="Fill-141"></path>
                        <path d="M102.3195,18.2465 C101.9155,18.6495 101.6885,19.1945 101.6885,19.7695 C101.6885,20.3455 101.9155,20.8895 102.3195,21.2935 C102.7235,21.6965 103.2675,21.9245 103.8425,21.9245 C104.4185,21.9245 104.9625,21.6965 105.3665,21.2935 C105.7705,20.8895 105.9975,20.3455 105.9975,19.7695 C105.9975,19.1945 105.7705,18.6495 105.3665,18.2465 C104.9625,17.8425 104.4185,17.6155 103.8425,17.6155 C103.2675,17.6155 102.7235,17.8425 102.3195,18.2465" id="Fill-143"></path>
                        <path d="M115.6814,38.1645 C115.3224,38.5235 115.1254,39.0045 115.1254,39.5065 C115.1254,40.0085 115.3224,40.4885 115.6814,40.8485 C116.0404,41.2075 116.5214,41.4035 117.0234,41.4035 C117.5244,41.4035 118.0054,41.2075 118.3654,40.8485 C118.7244,40.4885 118.9214,40.0085 118.9214,39.5065 C118.9214,39.0045 118.7244,38.5235 118.3654,38.1645 C118.0054,37.8055 117.5244,37.6085 117.0234,37.6085 C116.5214,37.6085 116.0404,37.8055 115.6814,38.1645" id="Fill-145"></path>
                        <path d="M123.3913,54.8862 C123.0773,55.2012 122.9113,55.6182 122.9113,56.0472 C122.9113,56.4752 123.0773,56.8932 123.3913,57.2072 C123.7063,57.5222 124.1233,57.6882 124.5523,57.6882 C124.9803,57.6882 125.3973,57.5222 125.7123,57.2072 C126.0273,56.8932 126.1933,56.4752 126.1933,56.0472 C126.1933,55.6182 126.0273,55.2012 125.7123,54.8862 C125.3973,54.5722 124.9803,54.4062 124.5523,54.4062 C124.1233,54.4062 123.7063,54.5722 123.3913,54.8862" id="Fill-147"></path>
                        <path d="M130.6052,68.7036 C130.8752,68.9746 131.2302,69.1086 131.5842,69.1086 C131.9382,69.1086 132.2922,68.9746 132.5632,68.7036 C132.8332,68.4326 132.9682,68.0786 132.9682,67.7246 C132.9682,67.3696 132.8332,67.0166 132.5632,66.7456 C132.2922,66.4746 131.9382,66.3406 131.5842,66.3406 C131.2302,66.3406 130.8752,66.4746 130.6052,66.7456 C130.3342,67.0166 130.1992,67.3696 130.1992,67.7246 C130.1992,68.0786 130.3342,68.4326 130.6052,68.7036" id="Fill-149"></path>
                    </g>
                    <g id="octopus" transform="translate(93.000000, 0.000000)">
                        <g id="Group-7" transform="translate(268.000000, 75.348000)">
                            <mask id="mask-2" fill="white">
                                <use xlink:href="#path-1"></use>
                            </mask>
                            <g id="Clip-6"></g>
                            <path d="M0.7743,64.5505 C3.4313,76.6555 6.1143,88.9205 11.8213,100.0315 C17.1233,110.3545 26.9743,118.7085 37.2293,123.9195 C46.0003,128.3755 55.4183,130.3185 65.1243,128.0995 C73.2393,126.2445 80.1363,121.2745 86.4303,116.0715 C92.5443,111.0195 98.0913,105.3265 104.2893,100.3675 C102.1403,102.0865 106.0773,99.1095 106.5913,98.7615 C108.2203,97.6615 109.8973,96.6305 111.6303,95.7035 C112.5043,95.2365 113.3963,94.8165 114.2863,94.3815 C111.7423,95.6235 114.6753,94.2435 115.1193,94.0865 C117.3873,93.2835 119.7143,92.6965 122.0853,92.2895 C142.3973,88.8055 165.4343,81.3045 175.4573,61.4905 C187.3913,37.8985 171.8193,15.4255 152.1203,2.5415 C146.6943,-1.0065 138.8563,1.4525 135.7013,6.8475 C132.2833,12.6915 134.5673,19.7085 140.0063,23.2655 C143.9843,25.8665 146.2763,27.5935 149.7763,31.3755 C150.3013,31.9435 150.8163,32.5245 151.3123,33.1175 C153.6223,35.8725 150.2183,31.3085 152.0923,34.2165 C152.4733,34.8075 152.8573,35.3915 153.2143,35.9975 C153.5043,36.4895 155.3213,40.3715 154.2173,37.6135 C154.8033,39.0765 155.0473,40.6525 155.5973,42.1095 C156.3023,43.9815 155.6513,42.2175 155.6023,41.6065 C155.6733,42.4975 155.7483,43.3795 155.7463,44.2755 C155.7453,45.0145 155.6843,45.7425 155.6423,46.4795 C155.5453,48.1775 156.5253,43.7195 155.6043,46.3375 C155.3693,47.0055 155.1933,47.7845 155.0303,48.4785 C154.3553,51.3395 155.8813,47.4345 154.7343,49.3775 C153.9343,50.7315 153.1983,52.0735 152.3393,53.3965 C153.8053,51.1375 151.0043,54.8715 150.3693,55.5075 C149.6263,56.2515 148.8473,56.9515 148.0553,57.6435 C146.3493,59.1335 147.5143,58.1005 147.9163,57.8015 C146.0513,59.1895 144.0633,60.4185 142.0263,61.5335 C134.5033,65.6545 124.8653,67.4575 115.1863,69.2385 C99.6823,72.0935 87.6613,82.6755 76.4033,92.9615 C74.1203,95.0475 71.8043,97.0845 69.4603,99.1015 C69.0343,99.4675 66.6023,101.2765 69.1033,99.4375 C68.5203,99.8655 67.9413,100.3005 67.3473,100.7145 C65.9623,101.6825 64.5373,102.5885 63.0493,103.3895 C62.4463,103.7135 61.8183,103.9905 61.2143,104.3125 C63.9913,102.8345 61.8743,104.0825 61.0703,104.3025 C59.7643,104.6595 58.4843,104.9945 57.1553,105.2665 C60.2693,104.6315 56.6353,104.9765 55.3753,105.0895 C53.4283,105.2655 55.3993,105.1225 55.9493,105.2315 C54.7163,104.9885 53.5243,104.6795 52.3073,104.3745 C51.6653,104.2135 51.0413,103.9465 50.4153,103.7315 C52.9303,104.5985 48.8123,102.9245 48.3233,102.6595 C46.0903,101.4515 43.9343,100.0685 41.8993,98.5515 C38.1553,95.7605 35.1813,92.7565 33.1803,89.1185 C28.3723,80.3785 26.2053,68.5955 23.9173,58.1695 C22.5263,51.8375 15.1683,48.1365 9.1553,49.7885 C2.6233,51.5835 -0.6207,58.1985 0.7743,64.5505" id="Fill-5" fill="#6B76A0" mask="url(#mask-2)"></path>
                        </g>
                        <g id="Group-10" transform="translate(197.000000, 0.348000)">
                            <mask id="mask-4" fill="white">
                                <use xlink:href="#path-3"></use>
                            </mask>
                            <g id="Clip-9"></g>
                            <path d="M91.9633,134.0622 C111.9853,118.9942 105.2603,99.3672 99.6743,93.5172 L99.8423,93.2502 C102.9833,85.5452 107.1343,76.5642 107.1343,66.4642 C107.1343,30.1172 88.3373,0.6512 53.8953,0.6512 C19.1923,0.6512 0.6573,30.1172 0.6573,66.4642 C0.6573,76.2402 4.6973,85.7142 7.6503,93.2502 L7.7153,93.5172 C2.1293,99.3672 -4.5957,118.9942 15.4263,134.0622 L91.9633,134.0622 Z" id="Fill-8" fill="#828DB7" mask="url(#mask-4)"></path>
                            <g id="Group-3" mask="url(#mask-4)" fill="#FFFFFF">
                                <g transform="translate(6.117100, 6.960900)">
                                    <path d="M5.263,73.108 L5.457,76.642 C2.996,70.707 -1.42108547e-14,59.501 -1.42108547e-14,51.8 C-1.42108547e-14,23.15 18.263,-8.52651283e-14 47.109,-8.52651283e-14 C60.027,-8.52651283e-14 70.292,4.728 77.674,12.547 C70.841,7.29 61.82,3.883 51.502,2.714 C23.701,-0.435 1.782,28.898 3.258,57.502 C3.502,62.23 5.263,73.108 5.263,73.108" id="Fill-5" opacity="0.049999997"></path>
                                    <path d="M86.6439,99.3411 C86.6439,102.4411 85.0139,105.1511 82.5639,106.6711 C83.5339,105.2811 84.0929,103.6011 84.0929,101.7811 C84.0929,97.0011 80.2239,93.1311 75.4439,93.1311 C73.7739,93.1311 72.2129,93.6111 70.8829,94.4411 C72.4339,92.1811 75.0429,90.6911 78.0029,90.6911 C82.7739,90.6911 86.6439,94.5611 86.6439,99.3411" id="Fill-11" opacity="0.100000001"></path>
                                    <path d="M28.6439,99.3411 C28.6439,102.4411 27.0139,105.1511 24.5639,106.6711 C25.5339,105.2811 26.0929,103.6011 26.0929,101.7811 C26.0929,97.0011 22.2239,93.1311 17.4439,93.1311 C15.7739,93.1311 14.2129,93.6111 12.8829,94.4411 C14.4339,92.1811 17.0429,90.6911 20.0029,90.6911 C24.7739,90.6911 28.6439,94.5611 28.6439,99.3411" id="Fill-11" opacity="0.100000001"></path>
                                </g>
                            </g>
                        </g>
                        <path d="M229.7182,108.5968 C229.7182,113.3708 225.8472,117.2428 221.0722,117.2428 C216.2972,117.2428 212.4262,113.3708 212.4262,108.5968 C212.4262,103.8218 216.2972,99.9508 221.0722,99.9508 C225.8472,99.9508 229.7182,103.8218 229.7182,108.5968" id="Fill-11" fill="#FFFFFF"></path>
                        <path d="M287.6752,108.5968 C287.6752,113.3708 283.8042,117.2428 279.0292,117.2428 C274.2552,117.2428 270.3832,113.3708 270.3832,108.5968 C270.3832,103.8218 274.2552,99.9508 279.0292,99.9508 C283.8042,99.9508 287.6752,103.8218 287.6752,108.5968" id="Fill-13" fill="#FFFFFF"></path>
                        <path d="M277.0819,112.5391 C276.7309,113.5801 275.6029,114.1411 274.5609,113.7901 C273.5199,113.4391 272.9599,112.3101 273.3109,111.2691 C273.6609,110.2271 274.7899,109.6681 275.8309,110.0181 C276.8729,110.3691 277.4329,111.4971 277.0819,112.5391" id="Fill-15" fill="#525F7F"></path>
                        <path d="M218.0331,113.3116 C217.2561,114.0886 215.9961,114.0886 215.2191,113.3116 C214.4421,112.5346 214.4421,111.2746 215.2191,110.4976 C215.9961,109.7206 217.2561,109.7206 218.0331,110.4976 C218.8101,111.2746 218.8101,112.5346 218.0331,113.3116" id="Fill-17" fill="#525F7F"></path>
                        <g id="Group-4" transform="translate(0.000296, 68.348982)">
                            <path d="M47.3757042,6.26451759 C65.5297042,-1.16748241 87.6717042,-2.44848241 106.063704,4.92851759 C115.440704,8.68951759 124.162704,14.1005176 130.661704,21.9705176 C138.890704,31.9355176 145.713704,43.0115176 152.286704,54.1055176 C154.512704,57.8625176 156.751704,61.5985176 159.217704,65.2045176 C159.308538,65.3374343 159.620204,65.7578509 159.870007,66.0962653 L159.911746,66.152 L160.384889,66.6804806 C160.557186,66.8809991 160.727223,67.083925 160.899519,67.284888 L161.427704,67.8775176 C162.044704,68.5345176 162.739704,69.1185176 163.355704,69.7735176 C163.398083,69.8184906 163.437763,69.8608368 163.474871,69.9006717 L163.546746,69.978 L164.171482,70.3770731 C164.46026,70.563962 164.748482,70.7517398 165.037926,70.937962 L165.911704,71.4895176 C166.023843,71.5582676 166.319629,71.7164605 166.63052,71.8811085 L166.776746,71.959 L166.79946,71.9674339 C167.011696,72.0478003 167.314162,72.1679642 167.620954,72.289951 L167.825179,72.3711289 C168.231142,72.5323578 168.610858,72.6818253 168.760704,72.7295176 C169.635704,73.0075176 170.523704,73.2495176 171.415704,73.4655176 C172.712704,73.7815176 174.024704,74.0145176 175.340704,74.2365176 L174.725746,74.131 L174.687039,74.1241444 C174.174032,74.0317309 174.803122,74.1200633 175.503406,74.2117802 L175.686999,74.2356665 L175.686999,74.2356665 L175.869598,74.2590067 C176.140638,74.2932574 176.394061,74.3233033 176.565704,74.3385176 C179.577704,74.6085176 182.614704,74.7205176 185.638704,74.7075176 C189.230704,74.6935176 190.965704,74.5765176 193.599704,73.9715176 C194.770704,73.7015176 195.933704,73.3825176 197.075704,73.0055176 C197.612704,72.8275176 198.143704,72.6325176 198.672704,72.4315176 L198.482746,72.502 L198.518698,72.4809173 C198.549703,72.4621922 198.584606,72.4415468 198.623682,72.4188554 L198.753704,72.3445176 C199.770704,71.7715176 200.789704,71.2305176 201.783704,70.6155176 C201.915704,70.5337676 202.046829,70.4487676 202.177048,70.3615176 L202.504746,70.135 L202.546877,70.0949858 L202.546877,70.0949858 L202.632704,70.0125176 C203.245704,69.4265176 203.881704,68.8725176 204.469704,68.2585176 C204.893154,67.8166176 205.287444,67.3295601 205.471235,67.1029783 L205.490746,67.078 L205.759223,66.6704065 C206.190167,66.0030731 206.602528,65.3282398 207.002556,64.6376565 L207.398704,63.9415176 C207.425329,63.8938926 207.546032,63.6633145 207.683716,63.3917969 L207.705746,63.347 L207.727741,63.2698485 L207.727741,63.2698485 L207.772704,63.1125176 C208.071704,62.0675176 208.449704,61.0475176 208.620704,59.9685176 C209.641704,53.5305176 217.674704,50.0185176 223.381704,51.5865176 C230.120704,53.4385176 232.777704,59.9545176 231.763704,66.3485176 C228.641704,86.0295176 208.210704,97.1025176 190.155704,98.5385176 C178.778704,99.4435176 166.348704,98.1905176 155.942704,93.2965176 C147.905704,89.5175176 142.082704,82.7645176 137.255704,75.4985176 C131.470704,66.7905176 126.596704,57.5165176 120.748704,48.8375176 C117.322704,43.7525176 114.651704,39.6075176 110.775704,35.7065176 C109.870704,34.7965176 108.875704,33.9885176 107.952704,33.1015176 C107.861676,33.014089 107.785184,32.9389804 107.721519,32.8748469 L107.654746,32.807 L107.633884,32.7945564 C107.59532,32.7710431 107.553332,32.745062 107.507707,32.7164449 L107.359704,32.6225176 C105.602704,31.4965176 103.907704,30.3215176 102.067704,29.3275176 C100.932704,28.7155176 99.7697042,28.1675176 98.6027042,27.6225176 L98.8887456,27.756 L98.7786301,27.7140361 C98.6273338,27.6549991 98.4761857,27.5957028 98.324445,27.5379991 L97.8667042,27.3715176 C95.8477042,26.6825176 93.8317042,26.0265176 91.7587042,25.5165176 C90.4717042,25.1995176 89.1737042,24.9265176 87.8697042,24.6925176 C87.690217,24.6603894 87.4804471,24.6276169 87.2695489,24.59675 L87.0891826,24.5708189 C86.6708564,24.5116795 86.2813359,24.463077 86.1538559,24.4454115 L86.1297456,24.442 L85.9975237,24.4292074 C84.5389125,24.2928556 83.0809681,24.1853185 81.6174681,24.1294111 L80.5187042,24.0975176 C78.1227042,24.0505176 75.7257042,24.1265176 73.3377042,24.3195176 C73.1078375,24.3379176 72.7285664,24.3771531 72.3411081,24.4183182 L72.1473504,24.438974 C71.4391983,24.5146595 70.7826358,24.5862394 71.0478482,24.5372136 L71.0637456,24.534 L70.8660005,24.5647768 C70.5231857,24.6192583 70.1807783,24.6761102 69.8387413,24.7352583 L68.8137042,24.9195176 C63.9907042,25.8225176 59.2997042,27.2255176 54.7317042,29.0085176 L55.3827456,28.758 L55.4414976,28.7383978 C55.7062701,28.6522602 53.8873004,29.4087227 53.3011405,29.6817182 L53.2527042,29.7045176 C52.1417042,30.2365176 51.0417042,30.7935176 49.9587042,31.3805176 C47.9447042,32.4735176 45.9847042,33.6645176 44.0877042,34.9495176 C43.7478903,35.1804943 42.6776015,35.954026 42.2602456,36.239078 L42.176153,36.2957187 C42.0930364,36.350588 42.0649614,36.364301 42.1189255,36.3167367 L42.1437456,36.295 L41.9370011,36.4595957 C41.4552198,36.848877 40.9811261,37.2479707 40.5125948,37.653002 L39.8137042,38.2645176 C38.0827042,39.7935176 36.4307042,41.4125176 34.8767042,43.1215176 C34.0347042,44.0475176 33.2217042,44.9995176 32.4377042,45.9755176 L32.5457456,45.842 L32.5149622,45.8887483 C32.4935417,45.9201449 32.469515,45.9550796 32.4426996,45.993794 L32.3537042,46.1215176 C32.0427042,46.5665176 31.7247042,47.0045176 31.4197042,47.4525176 C30.0847042,49.4185176 28.8677042,51.4635176 27.7767042,53.5735176 C27.1797042,54.7295176 26.6017042,55.9015176 26.0937042,57.0985176 L26.3207456,56.578 L26.3394529,56.5418458 C26.440954,56.3419892 26.2103074,56.9706539 25.9568877,57.6512768 L0.85774557,57.6510094 C6.91649071,33.7296746 24.7440338,15.5286098 47.3757042,6.26451759 Z" id="Fill-20" fill="#828DB7"></path>
                            <g id="Group-144" transform="translate(10.999704, 9.999018)" fill="#FFFFFF" opacity="0.100000001">
                                <path d="M1.40745678,47.6872123 L8.3248615,47.6872123 C8.6594205,46.9040165 8.8267,46.2725124 8.8267,45.7927 C8.8267,44.7017 8.3837,43.7147 7.6697,42.9987 C6.9547,42.2837 5.9667,41.8417 4.8757,41.8417 C3.7847,41.8417 2.7967,42.2837 2.0817,42.9987 C1.3667,43.7147 0.9247,44.7017 0.9247,45.7927 C0.9247,46.2502887 1.08561893,46.8817928 1.40745678,47.6872123 Z" id="Fill-122"></path>
                                <path d="M7.7719,26.5954 C7.1019,27.2654 6.6899,28.1904 6.6899,29.2074 C6.6899,30.2244 7.1019,31.1494 7.7719,31.8204 C8.4419,32.4904 9.3669,32.9024 10.3839,32.9024 C11.4019,32.9024 12.3259,32.4904 12.9969,31.8204 C13.6669,31.1494 14.0789,30.2244 14.0789,29.2074 C14.0789,28.1904 13.6669,27.2654 12.9969,26.5954 C12.3259,25.9244 11.4019,25.5134 10.3839,25.5134 C9.3669,25.5134 8.4419,25.9244 7.7719,26.5954" id="Fill-124"></path>
                                <path d="M19.8827,13.9714 C19.2567,14.5974 18.8757,15.4574 18.8757,16.4024 C18.8757,17.3454 19.2567,18.2064 19.8827,18.8324 C20.5087,19.4584 21.3697,19.8394 22.3137,19.8394 C23.2577,19.8394 24.1187,19.4584 24.7447,18.8324 C25.3707,18.2064 25.7517,17.3454 25.7517,16.4024 C25.7517,15.4574 25.3707,14.5974 24.7447,13.9714 C24.1187,13.3454 23.2577,12.9644 22.3137,12.9644 C21.3697,12.9644 20.5087,13.3454 19.8827,13.9714" id="Fill-126"></path>
                                <path d="M36.4564,5.4382 C35.8744,6.0202 35.5244,6.8182 35.5244,7.6882 C35.5244,8.5582 35.8744,9.3552 36.4564,9.9372 C37.0384,10.5182 37.8354,10.8692 38.7064,10.8692 C39.5764,10.8692 40.3734,10.5182 40.9554,9.9372 C41.5374,9.3552 41.8874,8.5582 41.8874,7.6882 C41.8874,6.8182 41.5374,6.0202 40.9554,5.4382 C40.3734,4.8572 39.5764,4.5062 38.7064,4.5062 C37.8354,4.5062 37.0384,4.8572 36.4564,5.4382" id="Fill-128"></path>
                                <path d="M55.536,1.3083 C54.999,1.8453 54.68,2.5793 54.68,3.3763 C54.68,4.1723 54.999,4.9073 55.536,5.4443 C56.073,5.9813 56.807,6.3003 57.604,6.3003 C58.4,6.3003 59.135,5.9813 59.672,5.4443 C60.209,4.9073 60.528,4.1723 60.528,3.3763 C60.528,2.5793 60.209,1.8453 59.672,1.3083 C59.135,0.7713 58.4,0.4523 57.604,0.4523 C56.807,0.4523 56.073,0.7713 55.536,1.3083" id="Fill-130"></path>
                                <path d="M75.163,1.8933 C74.67,2.3863 74.382,3.0573 74.382,3.7803 C74.382,4.5023 74.67,5.1733 75.163,5.6653 C75.656,6.1593 76.327,6.4473 77.049,6.4473 C77.772,6.4473 78.443,6.1593 78.936,5.6653 C79.429,5.1733 79.717,4.5023 79.717,3.7803 C79.717,3.0573 79.429,2.3863 78.936,1.8933 C78.443,1.4013 77.772,1.1123 77.049,1.1123 C76.327,1.1123 75.656,1.4013 75.163,1.8933" id="Fill-132"></path>
                                <path d="M93.3803,7.5036 C92.9323,7.9516 92.6743,8.5596 92.6743,9.2086 C92.6743,9.8576 92.9323,10.4656 93.3803,10.9136 C93.8283,11.3616 94.4363,11.6196 95.0853,11.6196 C95.7343,11.6196 96.3413,11.3616 96.7903,10.9136 C97.2383,10.4656 97.4963,9.8576 97.4963,9.2086 C97.4963,8.5596 97.2383,7.9516 96.7903,7.5036 C96.3413,7.0556 95.7343,6.7976 95.0853,6.7976 C94.4363,6.7976 93.8283,7.0556 93.3803,7.5036" id="Fill-134"></path>
                                <path d="M108.2299,18.4509 C107.8269,18.8549 107.5989,19.3989 107.5989,19.9739 C107.5989,20.5499 107.8269,21.0949 108.2299,21.4979 C108.6339,21.9019 109.1779,22.1289 109.7529,22.1289 C110.3289,22.1289 110.8739,21.9019 111.2769,21.4979 C111.6809,21.0949 111.9079,20.5499 111.9079,19.9739 C111.9079,19.3989 111.6809,18.8549 111.2769,18.4509 C110.8739,18.0479 110.3289,17.8199 109.7529,17.8199 C109.1779,17.8199 108.6339,18.0479 108.2299,18.4509" id="Fill-136"></path>
                                <path d="M121.5917,38.3689 C121.2327,38.7279 121.0357,39.2099 121.0357,39.7119 C121.0357,40.2129 121.2327,40.6939 121.5917,41.0539 C121.9507,41.4129 122.4317,41.6089 122.9337,41.6089 C123.4357,41.6089 123.9167,41.4129 124.2757,41.0539 C124.6347,40.6939 124.8317,40.2129 124.8317,39.7119 C124.8317,39.2099 124.6347,38.7279 124.2757,38.3689 C123.9167,38.0109 123.4357,37.8129 122.9337,37.8129 C122.4317,37.8129 121.9507,38.0109 121.5917,38.3689" id="Fill-138"></path>
                                <path d="M129.3021,55.0915 C128.9871,55.4055 128.8221,55.8235 128.8221,56.2515 C128.8221,56.6805 128.9871,57.0975 129.3021,57.4125 C129.6171,57.7275 130.0341,57.8935 130.4631,57.8935 C130.8901,57.8935 131.3081,57.7275 131.6231,57.4125 C131.9381,57.0975 132.1041,56.6805 132.1041,56.2515 C132.1041,55.8235 131.9381,55.4055 131.6231,55.0915 C131.3081,54.7775 130.8901,54.6115 130.4631,54.6115 C130.0341,54.6115 129.6171,54.7775 129.3021,55.0915" id="Fill-140"></path>
                                <path d="M136.5155,68.9079 C136.7865,69.1789 137.1405,69.3139 137.4945,69.3139 C137.8485,69.3139 138.2035,69.1789 138.4735,68.9079 C138.7445,68.6369 138.8795,68.2839 138.8795,67.9289 C138.8795,67.5749 138.7445,67.2209 138.4735,66.9499 C138.2035,66.6799 137.8485,66.5449 137.4945,66.5449 C137.1405,66.5449 136.7865,66.6799 136.5155,66.9499 C136.2455,67.2209 136.1105,67.5749 136.1105,67.9289 C136.1105,68.2839 136.2455,68.6369 136.5155,68.9079" id="Fill-142"></path>
                            </g>
                        </g>
                        <path d="M261.4648,135.0499 C254.1268,158.8349 249.9968,185.1579 251.2718,210.0089 C252.2238,228.5629 256.5568,247.6319 269.2448,261.8279 C283.9828,278.3199 308.9548,282.4909 329.7548,277.6789 C341.8408,274.8819 350.8178,267.3629 360.1058,259.6469 C361.0438,258.8669 361.9928,258.1009 362.9428,257.3349 C360.6998,259.1439 364.2228,256.4139 364.7478,256.0469 C367.2078,254.3279 369.7668,252.7569 372.4288,251.3699 C378.5398,248.1869 386.5628,246.0099 394.8778,244.5519 C401.2658,243.4309 404.8598,235.6119 403.2588,229.7899 C401.4058,223.0469 394.9038,220.2839 388.4978,221.4079 C375.4698,223.6949 362.6468,228.1289 351.8288,235.8949 C347.6438,238.8999 343.6998,242.2099 339.7568,245.5219 C338.8768,246.2609 337.9908,246.9919 337.1028,247.7239 C336.7738,247.9939 336.4358,248.2549 336.1028,248.5239 C334.8138,249.5619 337.8688,247.2649 336.5048,248.1979 C334.7248,249.4149 332.9928,250.6559 331.1018,251.7029 C330.1908,252.2069 329.2568,252.6599 328.3168,253.1069 C327.0998,253.6859 328.9748,252.8259 329.0598,252.7969 C328.4608,253.0089 327.8698,253.2569 327.2618,253.4449 C326.1398,253.7909 325.0218,254.1349 323.8808,254.4129 C323.2018,254.5779 319.8878,255.2059 320.6168,255.1019 C319.5398,255.2569 314.8818,255.4909 312.3038,255.4519 C311.2858,255.4369 310.2678,255.4019 309.2508,255.3409 C308.5368,255.2979 304.6378,254.8769 306.0328,255.0779 C307.5778,255.3019 304.5858,254.7999 303.9998,254.6789 C302.9928,254.4699 301.9928,254.2309 301.0008,253.9609 C300.0418,253.6999 299.0898,253.4129 298.1498,253.0919 C296.8978,252.6639 294.8238,251.6079 297.2038,252.7999 C295.5598,251.9759 293.9228,251.1939 292.3588,250.2169 C291.4928,249.6769 290.6838,249.0689 289.8378,248.5039 C291.9718,249.9299 290.3828,248.9299 289.3588,248.0119 C288.0618,246.8489 286.9088,245.5749 285.7268,244.3009 C285.4748,244.0299 285.2658,243.7189 285.0138,243.4489 C283.9548,242.3189 286.3828,245.4129 285.5268,244.1189 C284.9808,243.2909 284.3798,242.4999 283.8438,241.6629 C282.8978,240.1839 282.0368,238.6519 281.2508,237.0809 C280.8518,236.2849 280.5018,235.4679 280.1138,234.6679 C281.6148,237.7649 280.1838,234.7839 279.8798,233.9559 C278.5038,230.2239 277.4768,226.3649 276.7048,222.4649 C276.5198,221.5299 276.3508,220.5919 276.1938,219.6529 C275.9728,218.3189 275.7938,216.7659 276.0818,219.1719 C275.8338,217.1009 275.6108,215.0289 275.4558,212.9469 C274.8428,204.6909 275.0308,196.3829 275.6998,188.1359 C275.8548,186.2269 276.0358,184.3189 276.2418,182.4139 C276.3578,181.3449 276.4858,180.2789 276.6118,179.2109 C276.9728,176.1519 276.4568,180.0919 276.6968,178.4809 C277.2298,174.9059 277.7718,171.3389 278.4198,167.7829 C280.0328,158.9289 281.9508,150.0389 284.6078,141.4309 C289.1708,126.6379 266.0108,120.3129 261.4648,135.0499" id="Fill-21" fill="#6B76A0"></path>
                        <g id="Group-45" transform="translate(265.000000, 226.348000)" fill="#FFFFFF" opacity="0.100000001">
                            <path d="M127.5478,2.4206 C126.2718,0.6496 123.8018,0.2496 122.0318,1.5256 C120.2628,2.8026 119.8618,5.2726 121.1388,7.0416 C122.4138,8.8126 124.8838,9.2126 126.6538,7.9366 C128.4238,6.6596 128.8238,4.1906 127.5478,2.4206" id="Fill-23"></path>
                            <path d="M109.2392,7.8532 C108.0142,6.2482 105.7212,5.9392 104.1162,7.1632 C102.5102,8.3872 102.2022,10.6802 103.4272,12.2862 C104.6502,13.8912 106.9442,14.2002 108.5492,12.9752 C110.1542,11.7512 110.4632,9.4572 109.2392,7.8532" id="Fill-25"></path>
                            <path d="M95.8651,14.5935 C94.6931,13.1535 92.5751,12.9355 91.1351,14.1075 C89.6941,15.2805 89.4761,17.3975 90.6481,18.8375 C91.8201,20.2785 93.9381,20.4955 95.3791,19.3235 C96.8191,18.1525 97.0371,16.0335 95.8651,14.5935" id="Fill-27"></path>
                            <path d="M85.3817,21.7175 C84.2617,20.4425 82.3197,20.3165 81.0447,21.4355 C79.7687,22.5555 79.6427,24.4965 80.7627,25.7735 C81.8817,27.0485 83.8237,27.1745 85.0997,26.0555 C86.3747,24.9355 86.5017,22.9935 85.3817,21.7175" id="Fill-29"></path>
                            <path d="M75.747,28.3005 C74.679,27.1895 72.913,27.1545 71.802,28.2225 C70.691,29.2895 70.656,31.0555 71.724,32.1665 C72.791,33.2775 74.558,33.3125 75.668,32.2445 C76.779,31.1775 76.814,29.4105 75.747,28.3005" id="Fill-31"></path>
                            <path d="M64.9164,33.4167 C63.9004,32.4707 62.3104,32.5257 61.3644,33.5417 C60.4184,34.5577 60.4744,36.1477 61.4904,37.0937 C62.5054,38.0397 64.0964,37.9837 65.0414,36.9687 C65.9884,35.9527 65.9324,34.3627 64.9164,33.4167" id="Fill-33"></path>
                            <path d="M50.8481,36.1413 C49.8851,35.3603 48.4701,35.5073 47.6891,36.4703 C46.9071,37.4343 47.0551,38.8483 48.0181,39.6293 C48.9821,40.4113 50.3961,40.2633 51.1771,39.3003 C51.9591,38.3363 51.8111,36.9223 50.8481,36.1413" id="Fill-35"></path>
                            <path d="M33.767,35.4685 C32.856,34.8525 31.618,35.0905 31.001,36.0015 C30.384,36.9125 30.623,38.1525 31.534,38.7685 C32.445,39.3845 33.684,39.1465 34.301,38.2355 C34.917,37.3235 34.678,36.0845 33.767,35.4685" id="Fill-37"></path>
                            <path d="M19.891,30.945 C19.032,30.494 17.97,30.824 17.517,31.682 C17.066,32.542 17.396,33.604 18.255,34.056 C19.114,34.508 20.177,34.177 20.628,33.319 C21.08,32.46 20.75,31.397 19.891,30.945" id="Fill-39"></path>
                            <path d="M9.3788,23.1726 C8.5718,22.8856 7.6858,23.3066 7.3988,24.1126 C7.1108,24.9206 7.5328,25.8076 8.3388,26.0946 C9.1468,26.3816 10.0328,25.9596 10.3198,25.1526 C10.6078,24.3466 10.1858,23.4586 9.3788,23.1726" id="Fill-41"></path>
                            <path d="M1.8285,12.7976 C1.0735,12.6756 0.3625,13.1886 0.2405,13.9436 C0.1185,14.6966 0.6305,15.4086 1.3855,15.5306 C2.1405,15.6526 2.8515,15.1406 2.9735,14.3856 C3.0965,13.6306 2.5835,12.9196 1.8285,12.7976" id="Fill-43"></path>
                        </g>
                        <path d="M269.8407,130.213 C271.0667,141.433 273.2527,152.6 275.9777,163.543 C278.3657,173.133 281.2607,182.607 284.8197,191.829 C289.0107,202.69 293.8727,213.376 300.2017,223.172 C306.7077,233.24 314.5577,242.332 324.0377,249.695 C329.3697,253.837 334.8617,257.65 340.8257,260.833 C346.6167,263.923 352.7147,266.549 358.9277,268.66 C363.9857,270.38 369.1897,271.693 374.4747,272.478 C380.2917,273.341 386.1157,273.968 392.0007,273.561 C403.3367,272.776 414.3467,269.399 422.8217,261.541 C425.7167,258.858 428.2077,255.621 430.4247,252.376 C432.7237,249.01 434.4517,245.225 435.7767,241.38 C438.1297,234.549 438.2887,226.959 436.6537,219.954 C433.6147,206.933 423.1687,196.203 410.4717,192.317 C407.3747,191.369 404.0347,190.929 400.8077,190.862 C397.7707,190.8 394.4547,192.244 392.3217,194.377 C390.2407,196.458 388.6737,199.873 388.8077,202.862 C388.9457,205.966 389.9657,209.185 392.3217,211.348 C394.6967,213.528 397.5337,214.795 400.8077,214.862 C401.6697,214.88 402.5267,214.942 403.3827,215.046 C402.3197,214.902 401.2557,214.76 400.1927,214.617 C402.3687,214.91 404.4747,215.492 406.5007,216.338 C405.5447,215.936 404.5897,215.532 403.6337,215.129 C405.6587,216.003 407.5507,217.118 409.3047,218.456 C408.4947,217.83 407.6857,217.205 406.8757,216.579 C408.7137,218.013 410.3527,219.657 411.7817,221.497 C411.1557,220.688 410.5307,219.878 409.9047,219.068 C411.2787,220.876 412.4207,222.827 413.3197,224.912 C412.9167,223.957 412.5147,223.001 412.1117,222.046 C413.0107,224.199 413.6277,226.438 413.9557,228.748 C413.8137,227.685 413.6697,226.621 413.5277,225.558 C413.8297,227.884 413.8287,230.217 413.5407,232.544 C413.6837,231.481 413.8257,230.417 413.9697,229.354 C413.6097,232.002 412.8857,234.559 411.8567,237.024 C412.2597,236.067 412.6627,235.112 413.0667,234.156 C411.8077,237.077 410.1547,239.777 408.2167,242.296 C408.8427,241.486 409.4677,240.677 410.0937,239.867 C408.2947,242.156 406.3287,244.321 404.0277,246.113 C404.8367,245.488 405.6467,244.862 406.4557,244.237 C404.3767,245.827 402.0997,247.109 399.6907,248.129 C400.6467,247.726 401.6017,247.322 402.5577,246.919 C399.2267,248.301 395.7217,249.163 392.1537,249.652 C393.2167,249.509 394.2797,249.366 395.3437,249.224 C389.7807,249.954 384.1477,249.783 378.5957,249.039 C379.6587,249.182 380.7227,249.325 381.7857,249.468 C373.7997,248.364 366.0167,246.079 358.5907,242.961 C359.5467,243.364 360.5017,243.768 361.4577,244.171 C353.3037,240.714 345.6027,236.245 338.5797,230.848 C339.3887,231.474 340.1987,232.099 341.0077,232.725 C334.7567,227.884 329.1437,222.322 324.3007,216.073 C324.9257,216.883 325.5517,217.692 326.1767,218.502 C319.0277,209.215 313.4897,198.787 308.9427,188.014 C309.3447,188.969 309.7487,189.925 310.1517,190.88 C306.0527,181.119 302.7537,171.034 300.0537,160.801 C297.9937,152.993 296.2747,145.093 294.9077,137.135 C294.4607,134.529 294.0507,131.917 293.6977,129.298 C293.8407,130.361 293.9837,131.425 294.1267,132.488 C294.0247,131.731 293.9237,130.973 293.8407,130.213 C293.9027,128.561 293.5587,127.02 292.8077,125.59 C292.3237,124.102 291.4967,122.815 290.3257,121.728 C288.2447,119.647 284.8297,118.079 281.8407,118.213 C278.7367,118.352 275.5187,119.371 273.3557,121.728 C271.3387,123.925 269.5027,127.111 269.8407,130.213" id="Fill-46" fill="#828DB7"></path>
                        <path d="M247.7709,139.9239 C248.1379,143.7269 248.4479,147.5349 248.7449,151.3439 C249.4249,160.0759 250.1509,168.8519 250.3609,177.6109 C250.4639,181.9369 250.2709,186.2649 249.7039,190.5559 C249.8469,189.4919 249.9899,188.4289 250.1319,187.3649 C249.1119,194.8129 246.7849,201.8599 243.8789,208.7659 C244.2819,207.8109 244.6859,206.8549 245.0889,205.8999 C241.6879,213.9559 237.9309,221.9079 235.8819,230.4489 C233.3759,240.8959 232.8099,251.8549 233.7909,262.5349 C234.6209,271.5639 236.2309,280.5679 239.5229,289.0429 C241.1659,293.2709 242.9899,297.4549 245.2439,301.3969 C247.3999,305.1649 249.9669,308.6239 252.6639,312.0219 C261.5969,323.2739 274.1799,331.3189 287.6999,335.9149 C300.3599,340.2189 314.0099,340.9089 327.1219,338.5799 C333.1299,337.5129 338.9329,335.4369 344.3879,332.7139 C346.5349,331.6419 348.6009,330.3999 350.5329,328.9749 C353.1669,327.0319 355.7729,325.0219 357.9939,322.6059 C359.3949,321.0829 360.6369,319.4099 361.8799,317.7629 C363.6289,315.4439 363.8219,311.1749 363.0899,308.5159 C362.3229,305.7329 360.1709,302.7159 357.5749,301.3439 C354.7899,299.8719 351.4159,299.1349 348.3279,300.1339 C347.3729,300.5369 346.4169,300.9409 345.4619,301.3439 C343.6579,302.4109 342.2239,303.8459 341.1559,305.6499 C341.0579,305.7799 340.9569,305.9109 340.8559,306.0419 C341.4819,305.2329 342.1069,304.4229 342.7329,303.6129 C340.9779,305.8649 338.9289,307.8609 336.6759,309.6109 C337.4849,308.9859 338.2949,308.3609 339.1049,307.7349 C336.1549,310.0039 332.8979,311.8289 329.4739,313.2749 C330.4299,312.8719 331.3849,312.4689 332.3409,312.0659 C327.8269,313.9509 323.0639,315.1689 318.2219,315.8299 C319.2849,315.6879 320.3479,315.5439 321.4119,315.4019 C315.5439,316.1829 309.5919,316.1429 303.7269,315.3599 C304.7899,315.5019 305.8539,315.6459 306.9169,315.7879 C300.9699,314.9759 295.1469,313.3979 289.6119,311.0739 C290.5679,311.4779 291.5229,311.8809 292.4789,312.2839 C287.3459,310.1099 282.5039,307.3059 278.0839,303.9079 C278.8939,304.5329 279.7029,305.1579 280.5129,305.7839 C276.2459,302.4799 272.4199,298.6499 269.1119,294.3849 L270.9889,296.8139 C267.4159,292.1699 264.4969,287.0689 262.2159,281.6759 C262.6189,282.6309 263.0219,283.5869 263.4259,284.5419 C260.6269,277.8539 258.8359,270.7989 257.8489,263.6229 C257.9909,264.6869 258.1339,265.7499 258.2769,266.8139 C257.1269,258.2479 256.9499,249.4639 258.0969,240.8899 C257.9539,241.9529 257.8109,243.0169 257.6679,244.0799 C258.7479,236.2859 261.1749,228.9149 264.2239,221.6889 C263.8199,222.6439 263.4169,223.5999 263.0139,224.5549 C267.1979,214.6659 271.6819,204.9819 273.2049,194.2539 C273.7689,190.2819 274.2459,186.3279 274.3549,182.3169 C274.4579,178.5649 274.2649,174.8239 274.0599,171.0789 C273.6779,164.0999 273.2039,157.1259 272.6509,150.1569 C272.3809,146.7439 273.8749,137.3809 273.5459,133.9739 C273.2319,130.7189 272.4179,127.8739 270.0309,125.4879 C267.9499,123.4059 262.1569,126.0979 259.1679,126.2319 C256.0649,126.3699 253.4489,129.0819 251.2859,131.4389 C249.2519,133.6529 247.4699,136.8029 247.7709,139.9239" id="Fill-48" fill="#828DB7"></path>
                        <g id="Group-52" transform="translate(133.000000, 123.348000)" fill="#828DB7">
                            <path d="M102.0922,6.6697 C100.1552,9.5477 98.3842,12.5467 96.6492,15.5477 C92.2612,23.1347 88.2652,30.9507 84.6652,38.9407 C79.4432,50.5277 74.8372,62.4217 71.4932,74.6947 C67.8982,87.8927 65.6082,101.6807 65.5172,115.3767 C65.4682,122.7697 66.1952,130.1707 67.5132,137.4417 C68.8482,144.8057 71.2342,151.7447 74.1882,158.6047 C74.8092,160.0467 75.4602,161.4757 76.0712,162.9227 C75.6682,161.9667 75.2642,161.0117 74.8622,160.0557 C78.2402,168.1037 80.9922,176.4957 82.1862,185.1667 C82.0432,184.1037 81.9002,183.0397 81.7572,181.9767 C82.3812,186.6247 82.5412,191.3437 81.9252,196.0017 C82.0672,194.9387 82.2102,193.8747 82.3532,192.8127 C81.9302,195.9047 81.1622,198.9407 79.9582,201.8247 C80.3612,200.8687 80.7642,199.9137 81.1672,198.9577 C80.1732,201.3077 78.8982,203.5227 77.3412,205.5437 L79.2172,203.1147 C77.7272,205.0287 76.0032,206.7397 74.0872,208.2267 C74.8962,207.6017 75.7062,206.9757 76.5152,206.3507 C74.3382,208.0227 71.9472,209.3857 69.4232,210.4597 C70.3782,210.0567 71.3342,209.6527 72.2892,209.2497 C69.0082,210.6317 65.5432,211.5167 62.0192,211.9987 C63.0822,211.8567 64.1462,211.7127 65.2092,211.5697 C60.6202,212.1837 55.9632,212.1167 51.3782,211.5057 C52.4412,211.6487 53.5042,211.7907 54.5682,211.9347 C49.5502,211.2507 44.6292,209.9167 39.9592,207.9567 L42.8252,209.1667 C38.8522,207.4867 35.0712,205.3567 31.6512,202.7217 C32.4612,203.3467 33.2702,203.9727 34.0802,204.5977 C31.5172,202.6077 29.1752,200.3417 27.1842,197.7757 L29.0602,200.2047 C27.4592,198.1237 26.1072,195.8647 25.0832,193.4457 C25.4872,194.4007 25.8902,195.3567 26.2932,196.3127 C25.3882,194.1437 24.7622,191.8737 24.4422,189.5447 C24.5842,190.6077 24.7272,191.6717 24.8702,192.7347 C24.5532,190.3347 24.5662,187.9097 24.8762,185.5097 C24.7342,186.5727 24.5912,187.6367 24.4482,188.6997 C24.7752,186.2677 25.4012,183.8927 26.2562,181.5937 C27.2852,178.8247 26.4872,174.8107 25.0462,172.3477 C23.5892,169.8577 20.7352,167.4837 17.8742,166.8327 C14.8022,166.1327 11.3542,166.2837 8.6282,168.0417 C5.8722,169.8187 4.2562,172.1417 3.1132,175.2137 C1.8062,178.7287 1.2352,182.3117 0.8122,186.0327 C0.4182,189.5117 0.8232,192.8907 1.3582,196.3407 C1.8742,199.6677 3.0982,202.6687 4.4412,205.7477 C5.3692,207.8797 6.5332,209.8927 7.9162,211.7617 C9.9242,214.4767 12.0002,217.0937 14.4952,219.3727 C17.0282,221.6857 19.7952,223.7997 22.6752,225.6627 C27.7852,228.9687 33.5742,231.4457 39.3942,233.1827 C45.3222,234.9497 51.6412,235.8957 57.8222,235.9947 C61.4132,236.0527 64.9202,235.6327 68.4732,235.1317 C70.9242,234.7857 73.3462,234.2627 75.7032,233.4977 C82.2012,231.3887 88.0922,228.1287 93.1052,223.4607 C98.2382,218.6797 101.8062,212.4397 103.9912,205.8237 C105.2192,202.1077 105.7582,198.1617 106.1202,194.2807 C106.4332,190.9207 106.3592,187.5297 106.0182,184.1737 C105.0232,174.3637 102.5662,164.9727 98.8922,155.8327 C97.5662,152.5337 96.1052,149.2957 94.7132,146.0257 C95.1162,146.9817 95.5192,147.9377 95.9222,148.8927 C92.9542,141.8357 91.0202,134.4057 89.9882,126.8247 C90.1312,127.8887 90.2742,128.9517 90.4172,130.0157 C89.0562,119.7527 89.3312,109.3507 90.6992,99.1047 C90.5562,100.1677 90.4132,101.2317 90.2702,102.2947 C92.0712,89.0327 95.6492,76.0567 100.2962,63.5227 C101.5072,60.2567 102.7942,57.0207 104.1452,53.8107 C103.7422,54.7667 103.3392,55.7217 102.9362,56.6767 C108.1542,44.3217 114.2742,32.2617 121.4392,20.9137 C121.8902,20.1987 122.3432,19.4837 122.8152,18.7827 C124.4892,16.2977 124.8002,12.3507 124.0252,9.5367 C123.2592,6.7527 121.1062,3.7367 118.5102,2.3647 C115.7252,0.8937 112.3512,0.1557 109.2632,1.1547 C106.1812,2.1527 103.9102,3.9707 102.0922,6.6697" id="Fill-50"></path>
                        </g>
                        <g id="Group-75" transform="translate(146.000000, 262.348000)" fill="#FFFFFF" opacity="0.100000001">
                            <path d="M7.6542,38.4196 C6.3782,36.6496 3.9082,36.2496 2.1382,37.5256 C0.3682,38.8026 -0.0318,41.2726 1.2442,43.0416 C2.5212,44.8126 4.9902,45.2116 6.7602,43.9356 C8.5302,42.6596 8.9302,40.1906 7.6542,38.4196" id="Fill-53"></path>
                            <path d="M6.6854,56.0788 C5.0174,57.2148 4.5854,59.4888 5.7224,61.1568 C6.8584,62.8258 9.1324,63.2568 10.8004,62.1208 C12.4694,60.9838 12.9004,58.7108 11.7644,57.0418 C10.6274,55.3738 8.3534,54.9418 6.6854,56.0788" id="Fill-55"></path>
                            <path d="M17.035,68.9314 C15.468,69.9284 15.006,72.0064 16.002,73.5734 C16.999,75.1404 19.077,75.6024 20.644,74.6064 C22.211,73.6094 22.673,71.5324 21.677,69.9644 C20.68,68.3974 18.602,67.9354 17.035,68.9314" id="Fill-57"></path>
                            <path d="M30.8939,76.1433 C29.4289,76.9993 28.9359,78.8823 29.7919,80.3473 C30.6489,81.8133 32.5309,82.3063 33.9969,81.4503 C35.4619,80.5923 35.9559,78.7103 35.0989,77.2453 C34.2419,75.7803 32.3599,75.2863 30.8939,76.1433" id="Fill-59"></path>
                            <path d="M45.9696,77.7693 C44.6056,78.4863 44.0816,80.1723 44.7986,81.5373 C45.5146,82.9003 47.2016,83.4253 48.5656,82.7083 C49.9296,81.9923 50.4536,80.3043 49.7376,78.9413 C49.0206,77.5773 47.3336,77.0523 45.9696,77.7693" id="Fill-61"></path>
                            <path d="M59.9691,73.8679 C58.7061,74.4449 58.1511,75.9349 58.7281,77.1979 C59.3051,78.4609 60.7961,79.0159 62.0581,78.4389 C63.3211,77.8619 63.8761,76.3709 63.2991,75.1089 C62.7221,73.8469 61.2311,73.2909 59.9691,73.8679" id="Fill-63"></path>
                            <path d="M70.599,64.4958 C69.438,64.9328 68.851,66.2278 69.288,67.3888 C69.725,68.5498 71.021,69.1368 72.182,68.6988 C73.343,68.2628 73.93,66.9668 73.493,65.8058 C73.055,64.6448 71.76,64.0588 70.599,64.4958" id="Fill-65"></path>
                            <path d="M75.5668,49.7097 C74.5078,50.0067 73.8898,51.1057 74.1868,52.1657 C74.4838,53.2257 75.5838,53.8427 76.6438,53.5457 C77.7028,53.2487 78.3198,52.1477 78.0238,51.0897 C77.7258,50.0297 76.6268,49.4117 75.5668,49.7097" id="Fill-67"></path>
                            <path d="M72.6405,29.739 C71.6825,29.896 71.0345,30.801 71.1915,31.758 C71.3485,32.716 72.2525,33.365 73.2105,33.207 C74.1685,33.05 74.8175,32.146 74.6605,31.188 C74.5025,30.23 73.5985,29.582 72.6405,29.739" id="Fill-69"></path>
                            <path d="M65.5643,13.9343 C64.7083,13.9523 64.0283,14.6613 64.0453,15.5163 C64.0633,16.3723 64.7713,17.0523 65.6273,17.0363 C66.4843,17.0183 67.1643,16.3093 67.1463,15.4533 C67.1283,14.5973 66.4203,13.9163 65.5643,13.9343" id="Fill-71"></path>
                            <path d="M60.7445,0.5446 C59.9895,0.4216 59.2785,0.9346 59.1565,1.6896 C59.0345,2.4436 59.5465,3.1546 60.3015,3.2766 C61.0565,3.3996 61.7675,2.8876 61.8895,2.1326 C62.0125,1.3776 61.4995,0.6666 60.7445,0.5446" id="Fill-73"></path>
                        </g>
                        <g id="Group-98" transform="translate(255.000000, 283.348000)" fill="#FFFFFF" opacity="0.100000001">
                            <path d="M100.5732,25.8669 C99.2972,24.0959 96.8272,23.6959 95.0572,24.9719 C93.2872,26.2489 92.8862,28.7189 94.1632,30.4879 C95.4392,32.2589 97.9092,32.6579 99.6782,31.3829 C101.4492,30.1059 101.8482,27.6369 100.5732,25.8669" id="Fill-76"></path>
                            <path d="M87.7245,32.4763 C86.4995,30.8713 84.2065,30.5623 82.6015,31.7863 C80.9965,33.0103 80.6875,35.3043 81.9115,36.9093 C83.1355,38.5143 85.4295,38.8233 87.0345,37.5993 C88.6395,36.3743 88.9485,34.0813 87.7245,32.4763" id="Fill-78"></path>
                            <path d="M75.0834,36.8611 C73.9114,35.4211 71.7934,35.2031 70.3534,36.3751 C68.9134,37.5471 68.6954,39.6651 69.8674,41.1051 C71.0394,42.5461 73.1574,42.7631 74.5974,41.5911 C76.0384,40.4201 76.2554,38.3011 75.0834,36.8611" id="Fill-80"></path>
                            <path d="M62.8188,39.0935 C61.6988,37.8185 59.7568,37.6915 58.4818,38.8115 C57.2058,39.9315 57.0788,41.8725 58.1988,43.1485 C59.3188,44.4245 61.2608,44.5505 62.5368,43.4305 C63.8118,42.3115 63.9388,40.3685 62.8188,39.0935" id="Fill-82"></path>
                            <path d="M51.0976,39.2458 C50.0306,38.1358 48.2646,38.0998 47.1536,39.1678 C46.0426,40.2348 46.0076,42.0018 47.0746,43.1118 C48.1426,44.2238 49.9086,44.2588 51.0196,43.1898 C52.1306,42.1228 52.1656,40.3568 51.0976,39.2458" id="Fill-84"></path>
                            <path d="M40.0893,37.3913 C39.0743,36.4453 37.4843,36.5013 36.5373,37.5173 C35.5913,38.5333 35.6483,40.1223 36.6633,41.0693 C37.6783,42.0153 39.2693,41.9583 40.2153,40.9433 C41.1613,39.9273 41.1053,38.3373 40.0893,37.3913" id="Fill-86"></path>
                            <path d="M29.9618,33.6023 C28.9988,32.8213 27.5838,32.9683 26.8028,33.9323 C26.0218,34.8953 26.1688,36.3103 27.1318,37.0913 C28.0958,37.8733 29.5098,37.7253 30.2918,36.7613 C31.0728,35.7983 30.9248,34.3833 29.9618,33.6023" id="Fill-88"></path>
                            <path d="M20.8832,27.9519 C19.9722,27.3359 18.7332,27.5739 18.1172,28.4859 C17.5002,29.3969 17.7392,30.6359 18.6502,31.2519 C19.5612,31.8689 20.8002,31.6299 21.4162,30.7189 C22.0332,29.8069 21.7942,28.5689 20.8832,27.9519" id="Fill-90"></path>
                            <path d="M13.0219,20.5124 C12.1629,20.0614 11.0999,20.3914 10.6479,21.2494 C10.1969,22.1094 10.5269,23.1714 11.3859,23.6234 C12.2449,24.0754 13.3079,23.7454 13.7589,22.8864 C14.2109,22.0274 13.8809,20.9644 13.0219,20.5124" id="Fill-92"></path>
                            <path d="M6.5463,11.3571 C5.7393,11.0701 4.8523,11.4921 4.5653,12.2981 C4.2783,13.1051 4.6993,13.9921 5.5063,14.2791 C6.3133,14.5661 7.2003,14.1451 7.4873,13.3371 C7.7753,12.5311 7.3533,11.6441 6.5463,11.3571" id="Fill-94"></path>
                            <path d="M1.6244,0.5583 C0.8704,0.4353 0.1584,0.9483 0.0364,1.7033 C-0.0856,2.4573 0.4264,3.1683 1.1814,3.2903 C1.9364,3.4133 2.6474,2.9013 2.7704,2.1463 C2.8924,1.3913 2.3794,0.6803 1.6244,0.5583" id="Fill-96"></path>
                        </g>
                        <g id="Group-121" transform="translate(360.000000, 85.348000)" fill="#FFFFFF" opacity="0.100000001">
                            <path d="M59.9228,1.779 C58.6468,0.008 56.1778,-0.392 54.4068,0.884 C52.6378,2.161 52.2368,4.631 53.5138,6.4 C54.7898,8.171 57.2588,8.57 59.0288,7.295 C60.7988,6.018 61.1988,3.549 59.9228,1.779" id="Fill-99"></path>
                            <path d="M68.8964,10.364 C67.6714,8.759 65.3784,8.45 63.7734,9.674 C62.1674,10.898 61.8594,13.192 63.0834,14.797 C64.3074,16.402 66.6014,16.711 68.2064,15.487 C69.8114,14.262 70.1204,11.969 68.8964,10.364" id="Fill-101"></path>
                            <path d="M73.9189,19.7019 C72.7469,18.2619 70.6289,18.0439 69.1889,19.2159 C67.7479,20.3879 67.5299,22.5059 68.7019,23.9459 C69.8749,25.3869 71.9919,25.6039 73.4329,24.4319 C74.8729,23.2609 75.0909,21.1419 73.9189,19.7019" id="Fill-103"></path>
                            <path d="M75.0722,29.322 C73.9522,28.047 72.0102,27.92 70.7352,29.04 C69.4592,30.16 69.3332,32.101 70.4532,33.377 C71.5722,34.653 73.5142,34.779 74.7902,33.659 C76.0652,32.54 76.1922,30.597 75.0722,29.322" id="Fill-105"></path>
                            <path d="M72.4384,38.7527 C71.3714,37.6427 69.6054,37.6067 68.4944,38.6747 C67.3824,39.7417 67.3484,41.5087 68.4164,42.6187 C69.4834,43.7307 71.2504,43.7657 72.3604,42.6977 C73.4714,41.6297 73.5064,39.8637 72.4384,38.7527" id="Fill-107"></path>
                            <path d="M66.0995,47.5251 C65.0835,46.5791 63.4945,46.6341 62.5475,47.6501 C61.6015,48.6661 61.6585,50.2551 62.6735,51.2021 C63.6895,52.1481 65.2795,52.0921 66.2255,51.0771 C67.1715,50.0611 67.1155,48.4701 66.0995,47.5251" id="Fill-109"></path>
                            <path d="M56.1376,55.1658 C55.1746,54.3848 53.7596,54.5318 52.9786,55.4958 C52.1976,56.4588 52.3446,57.8738 53.3086,58.6548 C54.2716,59.4368 55.6866,59.2888 56.4676,58.3248 C57.2486,57.3618 57.1016,55.9478 56.1376,55.1658" id="Fill-111"></path>
                            <path d="M42.6347,61.2068 C41.7237,60.5908 40.4857,60.8288 39.8677,61.7398 C39.2517,62.6508 39.4897,63.8908 40.4017,64.5068 C41.3127,65.1238 42.5517,64.8848 43.1677,63.9738 C43.7847,63.0618 43.5457,61.8238 42.6347,61.2068" id="Fill-113"></path>
                            <path d="M25.6718,65.1765 C24.8128,64.7245 23.7498,65.0545 23.2988,65.9135 C22.8468,66.7725 23.1768,67.8345 24.0358,68.2865 C24.8948,68.7395 25.9568,68.4085 26.4088,67.5495 C26.8608,66.6905 26.5308,65.6275 25.6718,65.1765" id="Fill-115"></path>
                            <path d="M13.1093,68.6716 C12.3023,68.3846 11.4163,68.8056 11.1293,69.6116 C10.8413,70.4196 11.2623,71.3066 12.0693,71.5936 C12.8773,71.8806 13.7633,71.4586 14.0503,70.6516 C14.3383,69.8456 13.9163,68.9586 13.1093,68.6716" id="Fill-117"></path>
                            <path d="M2.5312,74.8562 C1.7762,74.7342 1.0652,75.2472 0.9432,76.0022 C0.8202,76.7562 1.3332,77.4672 2.0882,77.5892 C2.8432,77.7112 3.5532,77.1992 3.6762,76.4452 C3.7992,75.6902 3.2862,74.9792 2.5312,74.8562" id="Fill-119"></path>
                        </g>
                        <g id="Group-167" transform="translate(334.000000, 202.348000)" fill="#FFFFFF" opacity="0.100000001">
                            <path d="M70.4804,1.7419 C69.2044,-0.0291 66.7344,-0.4281 64.9644,0.8469 C63.1944,2.1239 62.7934,4.5939 64.0704,6.3629 C65.3464,8.1339 67.8164,8.5339 69.5854,7.2579 C71.3564,5.9809 71.7564,3.5119 70.4804,1.7419" id="Fill-145"></path>
                            <path d="M81.9521,5.5964 C80.7281,3.9914 78.4341,3.6814 76.8291,4.9064 C75.2241,6.1294 74.9151,8.4234 76.1401,10.0294 C77.3631,11.6334 79.6571,11.9434 81.2631,10.7184 C82.8671,9.4944 83.1771,7.2004 81.9521,5.5964" id="Fill-147"></path>
                            <path d="M89.6659,14.4577 C88.4939,13.0177 86.3769,12.7997 84.9369,13.9727 C83.4959,15.1447 83.2779,17.2617 84.4499,18.7017 C85.6219,20.1427 87.7399,20.3597 89.1809,19.1877 C90.6209,18.0167 90.8379,15.8977 89.6659,14.4577" id="Fill-149"></path>
                            <path d="M90.4237,27.9617 C89.3047,26.6857 87.3617,26.5597 86.0867,27.6797 C84.8117,28.7987 84.6847,30.7407 85.8047,32.0167 C86.9247,33.2917 88.8657,33.4187 90.1427,32.2987 C91.4177,31.1787 91.5437,29.2367 90.4237,27.9617" id="Fill-151"></path>
                            <path d="M82.163,44.1638 C81.095,43.0528 79.329,43.0178 78.218,44.0858 C77.107,45.1528 77.072,46.9198 78.14,48.0298 C79.208,49.1418 80.974,49.1768 82.085,48.1078 C83.195,47.0408 83.23,45.2748 82.163,44.1638" id="Fill-153"></path>
                            <path d="M72.994,51.1696 C71.978,50.2246 70.389,50.2796 69.442,51.2956 C68.496,52.3116 68.553,53.9006 69.568,54.8476 C70.583,55.7936 72.174,55.7366 73.12,54.7226 C74.066,53.7066 74.01,52.1156 72.994,51.1696" id="Fill-155"></path>
                            <path d="M60.6913,54.9089 C59.7273,54.1279 58.3133,54.2749 57.5323,55.2379 C56.7513,56.2019 56.8983,57.6159 57.8613,58.3969 C58.8253,59.1789 60.2393,59.0309 61.0203,58.0679 C61.8013,57.1039 61.6543,55.6899 60.6913,54.9089" id="Fill-157"></path>
                            <path d="M46.3349,55.447 C45.4239,54.83 44.1859,55.069 43.5679,55.98 C42.9519,56.891 43.1899,58.13 44.1019,58.747 C45.0129,59.363 46.2519,59.124 46.8679,58.213 C47.4849,57.301 47.2459,56.063 46.3349,55.447" id="Fill-159"></path>
                            <path d="M31.0058,52.8513 C30.1478,52.3993 29.0848,52.7293 28.6328,53.5883 C28.1808,54.4483 28.5108,55.5103 29.3698,55.9623 C30.2298,56.4143 31.2918,56.0833 31.7438,55.2253 C32.1948,54.3663 31.8648,53.3033 31.0058,52.8513" id="Fill-161"></path>
                            <path d="M15.786,47.1892 C14.979,46.9022 14.093,47.3242 13.806,48.1302 C13.518,48.9382 13.94,49.8252 14.747,50.1122 C15.554,50.3992 16.44,49.9772 16.727,49.1702 C17.015,48.3642 16.594,47.4762 15.786,47.1892" id="Fill-163"></path>
                            <path d="M1.7563,38.529 C1.0013,38.407 0.2903,38.92 0.1683,39.674 C0.0463,40.428 0.5583,41.139 1.3133,41.262 C2.0683,41.384 2.7793,40.872 2.9013,40.117 C3.0243,39.362 2.5113,38.651 1.7563,38.529" id="Fill-165"></path>
                        </g>
                    </g>
                </g>
            </g>
        </g>
    </g>
</svg>