<?xml version="1.0" encoding="UTF-8"?>
<svg width="750px" height="418px" viewBox="0 0 750 418" version="1.1" xmlns="http://www.w3.org/2000/svg" xmlns:xlink="http://www.w3.org/1999/xlink">
    <defs>
        <polygon id="path-1" points="0 0.212303967 24.4821 0.212303967 24.4821 2.8811 0 2.8811"></polygon>
        <polygon id="path-3" points="0.941009052 0.233496072 85.5447753 0.233496072 85.5447753 196 0.941009052 196"></polygon>
    </defs>
    <g id="Error-pages" stroke="none" stroke-width="1" fill="none" fill-rule="evenodd">
        <g id="500-Internal-Server-Error-page" transform="translate(-345.000000, -343.000000)">
            <g id="img_500-page" transform="translate(345.000000, 343.000000)">
                <g id="bg-" fill="#ECF0F9">
                    <circle id="Oval-Copy-11" cx="190.5" cy="227.5" r="190.5"></circle>
                    <circle id="Oval-Copy-13" cx="326.5" cy="203.5" r="178.5"></circle>
                    <circle id="Oval-Copy-15" cx="480.5" cy="190.5" r="190.5"></circle>
                    <circle id="Oval-Copy-16" cx="587.5" cy="237.5" r="162.5"></circle>
                    <circle id="Oval-Copy-17" cx="399.5" cy="389.5" r="13.5"></circle>
                    <circle id="Oval-Copy-20" cx="241" cy="32" r="6"></circle>
                    <circle id="Oval-Copy-21" cx="226" cy="24" r="3"></circle>
                    <circle id="Oval-Copy-18" cx="383.5" cy="404.5" r="4.5"></circle>
                </g>
                <g id="server" transform="translate(415.000000, 94.000000)">
                    <path d="M206.8035,50.2149 L88.2105,50.2149 C87.7455,50.2149 87.3685,49.8379 87.3685,49.3729 L87.3685,47.3529 C87.3685,46.8879 87.7455,46.5109 88.2105,46.5109 L206.8035,46.5109 C207.2685,46.5109 207.6455,46.8879 207.6455,47.3529 L207.6455,49.3729 C207.6455,49.8379 207.2685,50.2149 206.8035,50.2149" id="Fill-1" fill="#3D4666"></path>
                    <path d="M209.1365,46.7413 L85.8775,46.7413 C80.2795,46.7413 75.7415,42.2033 75.7415,36.6053 L75.7415,10.1363 C75.7415,4.5383 80.2795,0.0003 85.8775,0.0003 L209.1365,0.0003 C214.7345,0.0003 219.2725,4.5383 219.2725,10.1363 L219.2725,36.6053 C219.2725,42.2033 214.7345,46.7413 209.1365,46.7413" id="Fill-3" fill="#95A0C5"></path>
                    <path d="M90.6385,46.7413 L90.6385,43.7203 C90.6385,40.7363 93.7295,38.3173 97.5435,38.3173 L123.0585,38.3173 C126.8725,38.3173 129.9635,40.7363 129.9635,43.7203 L129.9635,46.7413 L90.6385,46.7413 Z" id="Fill-5" fill="#3D4666"></path>
                    <path d="M100.6101,14.754 C100.6101,16.67 99.0571,18.223 97.1411,18.223 C95.2261,18.223 93.6731,16.67 93.6731,14.754 C93.6731,12.839 95.2261,11.285 97.1411,11.285 C99.0571,11.285 100.6101,12.839 100.6101,14.754" id="Fill-7" fill="#3D4666"></path>
                    <path d="M113.7698,14.754 C113.7698,16.67 112.2168,18.223 110.3008,18.223 C108.3858,18.223 106.8328,16.67 106.8328,14.754 C106.8328,12.839 108.3858,11.285 110.3008,11.285 C112.2168,11.285 113.7698,12.839 113.7698,14.754" id="Fill-9" fill="#5C6587"></path>
                    <path d="M126.9295,14.754 C126.9295,16.67 125.3765,18.223 123.4605,18.223 C121.5455,18.223 119.9925,16.67 119.9925,14.754 C119.9925,12.839 121.5455,11.285 123.4605,11.285 C125.3765,11.285 126.9295,12.839 126.9295,14.754" id="Fill-11" fill="#5C6587"></path>
                    <path d="M209.0506,23.3702 C209.0506,26.5252 206.4926,29.0822 203.3386,29.0822 C200.1836,29.0822 197.6266,26.5252 197.6266,23.3702 C197.6266,20.2162 200.1836,17.6582 203.3386,17.6582 C206.4926,17.6582 209.0506,20.2162 209.0506,23.3702" id="Fill-13" fill="#3D4666"></path>
                    <path d="M152.9099,39.7227 L152.4319,39.7227 C151.8799,39.7227 151.4319,39.2757 151.4319,38.7227 L151.4319,8.0187 C151.4319,7.4657 151.8799,7.0187 152.4319,7.0187 L152.9099,7.0187 C153.4619,7.0187 153.9099,7.4657 153.9099,8.0187 L153.9099,38.7227 C153.9099,39.2757 153.4619,39.7227 152.9099,39.7227" id="Fill-15" fill="#3D4666"></path>
                    <path d="M161.9119,39.7227 L161.4339,39.7227 C160.8819,39.7227 160.4339,39.2757 160.4339,38.7227 L160.4339,8.0187 C160.4339,7.4657 160.8819,7.0187 161.4339,7.0187 L161.9119,7.0187 C162.4649,7.0187 162.9119,7.4657 162.9119,8.0187 L162.9119,38.7227 C162.9119,39.2757 162.4649,39.7227 161.9119,39.7227" id="Fill-17" fill="#3D4666"></path>
                    <path d="M170.9143,39.7227 L170.4363,39.7227 C169.8843,39.7227 169.4363,39.2757 169.4363,38.7227 L169.4363,8.0187 C169.4363,7.4657 169.8843,7.0187 170.4363,7.0187 L170.9143,7.0187 C171.4663,7.0187 171.9143,7.4657 171.9143,8.0187 L171.9143,38.7227 C171.9143,39.2757 171.4663,39.7227 170.9143,39.7227" id="Fill-19" fill="#3D4666"></path>
                    <path d="M179.9163,39.7227 L179.4383,39.7227 C178.8863,39.7227 178.4383,39.2757 178.4383,38.7227 L178.4383,8.0187 C178.4383,7.4657 178.8863,7.0187 179.4383,7.0187 L179.9163,7.0187 C180.4683,7.0187 180.9163,7.4657 180.9163,8.0187 L180.9163,38.7227 C180.9163,39.2757 180.4683,39.7227 179.9163,39.7227" id="Fill-21" fill="#3D4666"></path>
                    <path d="M206.8035,100.2052 L88.2105,100.2052 C87.7455,100.2052 87.3685,99.8282 87.3685,99.3632 L87.3685,97.3432 C87.3685,96.8782 87.7455,96.5012 88.2105,96.5012 L206.8035,96.5012 C207.2685,96.5012 207.6455,96.8782 207.6455,97.3432 L207.6455,99.3632 C207.6455,99.8282 207.2685,100.2052 206.8035,100.2052" id="Fill-23" fill="#3D4666"></path>
                    <path d="M209.1365,96.7325 L85.8775,96.7325 C80.2795,96.7325 75.7415,92.1935 75.7415,86.5955 L75.7415,60.1275 C75.7415,54.5285 80.2795,49.9905 85.8775,49.9905 L209.1365,49.9905 C214.7345,49.9905 219.2725,54.5285 219.2725,60.1275 L219.2725,86.5955 C219.2725,92.1935 214.7345,96.7325 209.1365,96.7325" id="Fill-25" fill="#95A0C5"></path>
                    <path d="M90.6385,96.7325 L90.6385,93.7115 C90.6385,90.7275 93.7295,88.3075 97.5435,88.3075 L123.0585,88.3075 C126.8725,88.3075 129.9635,90.7275 129.9635,93.7115 L129.9635,96.7325 L90.6385,96.7325 Z" id="Fill-27" fill="#3D4666"></path>
                    <path d="M100.6101,64.7452 C100.6101,66.6612 99.0571,68.2142 97.1411,68.2142 C95.2261,68.2142 93.6731,66.6612 93.6731,64.7452 C93.6731,62.8292 95.2261,61.2762 97.1411,61.2762 C99.0571,61.2762 100.6101,62.8292 100.6101,64.7452" id="Fill-29" fill="#3D4666"></path>
                    <path d="M113.7698,64.7452 C113.7698,66.6612 112.2168,68.2142 110.3008,68.2142 C108.3858,68.2142 106.8328,66.6612 106.8328,64.7452 C106.8328,62.8292 108.3858,61.2762 110.3008,61.2762 C112.2168,61.2762 113.7698,62.8292 113.7698,64.7452" id="Fill-31" fill="#5C6587"></path>
                    <path d="M126.9295,64.7452 C126.9295,66.6612 125.3765,68.2142 123.4605,68.2142 C121.5455,68.2142 119.9925,66.6612 119.9925,64.7452 C119.9925,62.8292 121.5455,61.2762 123.4605,61.2762 C125.3765,61.2762 126.9295,62.8292 126.9295,64.7452" id="Fill-33" fill="#5C6587"></path>
                    <path d="M209.0506,73.3614 C209.0506,76.5154 206.4926,79.0734 203.3386,79.0734 C200.1836,79.0734 197.6266,76.5154 197.6266,73.3614 C197.6266,70.2064 200.1836,67.6494 203.3386,67.6494 C206.4926,67.6494 209.0506,70.2064 209.0506,73.3614" id="Fill-35" fill="#3D4666"></path>
                    <path d="M152.9099,89.713 L152.4319,89.713 C151.8799,89.713 151.4319,89.266 151.4319,88.713 L151.4319,58.009 C151.4319,57.457 151.8799,57.009 152.4319,57.009 L152.9099,57.009 C153.4619,57.009 153.9099,57.457 153.9099,58.009 L153.9099,88.713 C153.9099,89.266 153.4619,89.713 152.9099,89.713" id="Fill-37" fill="#3D4666"></path>
                    <path d="M161.9119,89.713 L161.4339,89.713 C160.8819,89.713 160.4339,89.266 160.4339,88.713 L160.4339,58.009 C160.4339,57.457 160.8819,57.009 161.4339,57.009 L161.9119,57.009 C162.4649,57.009 162.9119,57.457 162.9119,58.009 L162.9119,88.713 C162.9119,89.266 162.4649,89.713 161.9119,89.713" id="Fill-39" fill="#3D4666"></path>
                    <path d="M170.9143,89.713 L170.4363,89.713 C169.8843,89.713 169.4363,89.266 169.4363,88.713 L169.4363,58.009 C169.4363,57.457 169.8843,57.009 170.4363,57.009 L170.9143,57.009 C171.4663,57.009 171.9143,57.457 171.9143,58.009 L171.9143,88.713 C171.9143,89.266 171.4663,89.713 170.9143,89.713" id="Fill-41" fill="#3D4666"></path>
                    <path d="M179.9163,89.713 L179.4383,89.713 C178.8863,89.713 178.4383,89.266 178.4383,88.713 L178.4383,58.009 C178.4383,57.457 178.8863,57.009 179.4383,57.009 L179.9163,57.009 C180.4683,57.009 180.9163,57.457 180.9163,58.009 L180.9163,88.713 C180.9163,89.266 180.4683,89.713 179.9163,89.713" id="Fill-43" fill="#3D4666"></path>
                    <path d="M206.8035,150.6388 L88.2105,150.6388 C87.7455,150.6388 87.3685,150.2618 87.3685,149.7968 L87.3685,147.7768 C87.3685,147.3118 87.7455,146.9348 88.2105,146.9348 L206.8035,146.9348 C207.2685,146.9348 207.6455,147.3118 207.6455,147.7768 L207.6455,149.7968 C207.6455,150.2618 207.2685,150.6388 206.8035,150.6388" id="Fill-45" fill="#3D4666"></path>
                    <path d="M209.1365,147.1651 L85.8775,147.1651 C80.2795,147.1651 75.7415,142.6271 75.7415,137.0291 L75.7415,110.5601 C75.7415,104.9621 80.2795,100.4241 85.8775,100.4241 L209.1365,100.4241 C214.7345,100.4241 219.2725,104.9621 219.2725,110.5601 L219.2725,137.0291 C219.2725,142.6271 214.7345,147.1651 209.1365,147.1651" id="Fill-47" fill="#95A0C5"></path>
                    <path d="M90.6385,147.1651 L90.6385,144.1441 C90.6385,141.1601 93.7295,138.7411 97.5435,138.7411 L123.0585,138.7411 C126.8725,138.7411 129.9635,141.1601 129.9635,144.1441 L129.9635,147.1651 L90.6385,147.1651 Z" id="Fill-49" fill="#3D4666"></path>
                    <path d="M100.6101,115.1778 C100.6101,117.0938 99.0571,118.6468 97.1411,118.6468 C95.2261,118.6468 93.6731,117.0938 93.6731,115.1778 C93.6731,113.2628 95.2261,111.7088 97.1411,111.7088 C99.0571,111.7088 100.6101,113.2628 100.6101,115.1778" id="Fill-51" fill="#3D4666"></path>
                    <path d="M113.7698,115.1778 C113.7698,117.0938 112.2168,118.6468 110.3008,118.6468 C108.3858,118.6468 106.8328,117.0938 106.8328,115.1778 C106.8328,113.2628 108.3858,111.7088 110.3008,111.7088 C112.2168,111.7088 113.7698,113.2628 113.7698,115.1778" id="Fill-53" fill="#5C6587"></path>
                    <path d="M126.9295,115.1778 C126.9295,117.0938 125.3765,118.6468 123.4605,118.6468 C121.5455,118.6468 119.9925,117.0938 119.9925,115.1778 C119.9925,113.2628 121.5455,111.7088 123.4605,111.7088 C125.3765,111.7088 126.9295,113.2628 126.9295,115.1778" id="Fill-55" fill="#5C6587"></path>
                    <path d="M209.0506,123.794 C209.0506,126.949 206.4926,129.506 203.3386,129.506 C200.1836,129.506 197.6266,126.949 197.6266,123.794 C197.6266,120.64 200.1836,118.082 203.3386,118.082 C206.4926,118.082 209.0506,120.64 209.0506,123.794" id="Fill-57" fill="#3D4666"></path>
                    <path d="M152.9099,140.1466 L152.4319,140.1466 C151.8799,140.1466 151.4319,139.6986 151.4319,139.1466 L151.4319,108.4426 C151.4319,107.8896 151.8799,107.4426 152.4319,107.4426 L152.9099,107.4426 C153.4619,107.4426 153.9099,107.8896 153.9099,108.4426 L153.9099,139.1466 C153.9099,139.6986 153.4619,140.1466 152.9099,140.1466" id="Fill-59" fill="#3D4666"></path>
                    <path d="M161.9119,140.1466 L161.4339,140.1466 C160.8819,140.1466 160.4339,139.6986 160.4339,139.1466 L160.4339,108.4426 C160.4339,107.8896 160.8819,107.4426 161.4339,107.4426 L161.9119,107.4426 C162.4649,107.4426 162.9119,107.8896 162.9119,108.4426 L162.9119,139.1466 C162.9119,139.6986 162.4649,140.1466 161.9119,140.1466" id="Fill-61" fill="#3D4666"></path>
                    <path d="M170.9143,140.1466 L170.4363,140.1466 C169.8843,140.1466 169.4363,139.6986 169.4363,139.1466 L169.4363,108.4426 C169.4363,107.8896 169.8843,107.4426 170.4363,107.4426 L170.9143,107.4426 C171.4663,107.4426 171.9143,107.8896 171.9143,108.4426 L171.9143,139.1466 C171.9143,139.6986 171.4663,140.1466 170.9143,140.1466" id="Fill-63" fill="#3D4666"></path>
                    <path d="M179.9163,140.1466 L179.4383,140.1466 C178.8863,140.1466 178.4383,139.6986 178.4383,139.1466 L178.4383,108.4426 C178.4383,107.8896 178.8863,107.4426 179.4383,107.4426 L179.9163,107.4426 C180.4683,107.4426 180.9163,107.8896 180.9163,108.4426 L180.9163,139.1466 C180.9163,139.6986 180.4683,140.1466 179.9163,140.1466" id="Fill-65" fill="#3D4666"></path>
                    <path d="M206.8035,201.0714 L88.2105,201.0714 C87.7455,201.0714 87.3685,200.6944 87.3685,200.2294 L87.3685,198.2094 C87.3685,197.7444 87.7455,197.3674 88.2105,197.3674 L206.8035,197.3674 C207.2685,197.3674 207.6455,197.7444 207.6455,198.2094 L207.6455,200.2294 C207.6455,200.6944 207.2685,201.0714 206.8035,201.0714" id="Fill-67" fill="#3D4666"></path>
                    <path d="M209.1365,197.5977 L85.8775,197.5977 C80.2795,197.5977 75.7415,193.0597 75.7415,187.4617 L75.7415,160.9927 C75.7415,155.3947 80.2795,150.8567 85.8775,150.8567 L209.1365,150.8567 C214.7345,150.8567 219.2725,155.3947 219.2725,160.9927 L219.2725,187.4617 C219.2725,193.0597 214.7345,197.5977 209.1365,197.5977" id="Fill-69" fill="#95A0C5"></path>
                    <path d="M90.6385,197.5977 L90.6385,194.5767 C90.6385,191.5937 93.7295,189.1737 97.5435,189.1737 L123.0585,189.1737 C126.8725,189.1737 129.9635,191.5937 129.9635,194.5767 L129.9635,197.5977 L90.6385,197.5977 Z" id="Fill-71" fill="#3D4666"></path>
                    <path d="M100.6101,165.6114 C100.6101,167.5264 99.0571,169.0804 97.1411,169.0804 C95.2261,169.0804 93.6731,167.5264 93.6731,165.6114 C93.6731,163.6954 95.2261,162.1424 97.1411,162.1424 C99.0571,162.1424 100.6101,163.6954 100.6101,165.6114" id="Fill-73" fill="#3D4666"></path>
                    <path d="M113.7698,165.6114 C113.7698,167.5264 112.2168,169.0804 110.3008,169.0804 C108.3858,169.0804 106.8328,167.5264 106.8328,165.6114 C106.8328,163.6954 108.3858,162.1424 110.3008,162.1424 C112.2168,162.1424 113.7698,163.6954 113.7698,165.6114" id="Fill-75" fill="#5C6587"></path>
                    <path d="M126.9295,165.6114 C126.9295,167.5264 125.3765,169.0804 123.4605,169.0804 C121.5455,169.0804 119.9925,167.5264 119.9925,165.6114 C119.9925,163.6954 121.5455,162.1424 123.4605,162.1424 C125.3765,162.1424 126.9295,163.6954 126.9295,165.6114" id="Fill-77" fill="#5C6587"></path>
                    <path d="M209.0506,174.2276 C209.0506,177.3816 206.4926,179.9396 203.3386,179.9396 C200.1836,179.9396 197.6266,177.3816 197.6266,174.2276 C197.6266,171.0726 200.1836,168.5156 203.3386,168.5156 C206.4926,168.5156 209.0506,171.0726 209.0506,174.2276" id="Fill-79" fill="#3D4666"></path>
                    <path d="M152.9099,190.5792 L152.4319,190.5792 C151.8799,190.5792 151.4319,190.1322 151.4319,189.5792 L151.4319,158.8752 C151.4319,158.3232 151.8799,157.8752 152.4319,157.8752 L152.9099,157.8752 C153.4619,157.8752 153.9099,158.3232 153.9099,158.8752 L153.9099,189.5792 C153.9099,190.1322 153.4619,190.5792 152.9099,190.5792" id="Fill-81" fill="#3D4666"></path>
                    <path d="M161.9119,190.5792 L161.4339,190.5792 C160.8819,190.5792 160.4339,190.1322 160.4339,189.5792 L160.4339,158.8752 C160.4339,158.3232 160.8819,157.8752 161.4339,157.8752 L161.9119,157.8752 C162.4649,157.8752 162.9119,158.3232 162.9119,158.8752 L162.9119,189.5792 C162.9119,190.1322 162.4649,190.5792 161.9119,190.5792" id="Fill-83" fill="#3D4666"></path>
                    <path d="M170.9143,190.5792 L170.4363,190.5792 C169.8843,190.5792 169.4363,190.1322 169.4363,189.5792 L169.4363,158.8752 C169.4363,158.3232 169.8843,157.8752 170.4363,157.8752 L170.9143,157.8752 C171.4663,157.8752 171.9143,158.3232 171.9143,158.8752 L171.9143,189.5792 C171.9143,190.1322 171.4663,190.5792 170.9143,190.5792" id="Fill-85" fill="#3D4666"></path>
                    <path d="M179.9163,190.5792 L179.4383,190.5792 C178.8863,190.5792 178.4383,190.1322 178.4383,189.5792 L178.4383,158.8752 C178.4383,158.3232 178.8863,157.8752 179.4383,157.8752 L179.9163,157.8752 C180.4683,157.8752 180.9163,158.3232 180.9163,158.8752 L180.9163,189.5792 C180.9163,190.1322 180.4683,190.5792 179.9163,190.5792" id="Fill-87" fill="#3D4666"></path>
                    <path d="M206.8035,251.4776 L88.2105,251.4776 C87.7455,251.4776 87.3685,251.1006 87.3685,250.6356 L87.3685,248.6156 C87.3685,248.1506 87.7455,247.7736 88.2105,247.7736 L206.8035,247.7736 C207.2685,247.7736 207.6455,248.1506 207.6455,248.6156 L207.6455,250.6356 C207.6455,251.1006 207.2685,251.4776 206.8035,251.4776" id="Fill-89" fill="#3D4666"></path>
                    <path d="M209.1365,248.005 L85.8775,248.005 C80.2795,248.005 75.7415,243.467 75.7415,237.868 L75.7415,211.4 C75.7415,205.801 80.2795,201.263 85.8775,201.263 L209.1365,201.263 C214.7345,201.263 219.2725,205.801 219.2725,211.4 L219.2725,237.868 C219.2725,243.467 214.7345,248.005 209.1365,248.005" id="Fill-91" fill="#95A0C5"></path>
                    <path d="M90.6385,248.005 L90.6385,244.984 C90.6385,242 93.7295,239.581 97.5435,239.581 L123.0585,239.581 C126.8725,239.581 129.9635,242 129.9635,244.984 L129.9635,248.005 L90.6385,248.005 Z" id="Fill-93" fill="#3D4666"></path>
                    <path d="M100.6101,216.0177 C100.6101,217.9337 99.0571,219.4867 97.1411,219.4867 C95.2261,219.4867 93.6731,217.9337 93.6731,216.0177 C93.6731,214.1017 95.2261,212.5487 97.1411,212.5487 C99.0571,212.5487 100.6101,214.1017 100.6101,216.0177" id="Fill-95" fill="#3D4666"></path>
                    <path d="M113.7698,216.0177 C113.7698,217.9337 112.2168,219.4867 110.3008,219.4867 C108.3858,219.4867 106.8328,217.9337 106.8328,216.0177 C106.8328,214.1017 108.3858,212.5487 110.3008,212.5487 C112.2168,212.5487 113.7698,214.1017 113.7698,216.0177" id="Fill-97" fill="#5C6587"></path>
                    <path d="M126.9295,216.0177 C126.9295,217.9337 125.3765,219.4867 123.4605,219.4867 C121.5455,219.4867 119.9925,217.9337 119.9925,216.0177 C119.9925,214.1017 121.5455,212.5487 123.4605,212.5487 C125.3765,212.5487 126.9295,214.1017 126.9295,216.0177" id="Fill-99" fill="#5C6587"></path>
                    <path d="M209.0506,224.6339 C209.0506,227.7879 206.4926,230.3459 203.3386,230.3459 C200.1836,230.3459 197.6266,227.7879 197.6266,224.6339 C197.6266,221.4799 200.1836,218.9219 203.3386,218.9219 C206.4926,218.9219 209.0506,221.4799 209.0506,224.6339" id="Fill-101" fill="#3D4666"></path>
                    <path d="M152.9099,240.9864 L152.4319,240.9864 C151.8799,240.9864 151.4319,240.5384 151.4319,239.9864 L151.4319,209.2814 C151.4319,208.7294 151.8799,208.2814 152.4319,208.2814 L152.9099,208.2814 C153.4619,208.2814 153.9099,208.7294 153.9099,209.2814 L153.9099,239.9864 C153.9099,240.5384 153.4619,240.9864 152.9099,240.9864" id="Fill-103" fill="#3D4666"></path>
                    <path d="M161.9119,240.9864 L161.4339,240.9864 C160.8819,240.9864 160.4339,240.5384 160.4339,239.9864 L160.4339,209.2814 C160.4339,208.7294 160.8819,208.2814 161.4339,208.2814 L161.9119,208.2814 C162.4649,208.2814 162.9119,208.7294 162.9119,209.2814 L162.9119,239.9864 C162.9119,240.5384 162.4649,240.9864 161.9119,240.9864" id="Fill-105" fill="#3D4666"></path>
                    <path d="M170.9143,240.9864 L170.4363,240.9864 C169.8843,240.9864 169.4363,240.5384 169.4363,239.9864 L169.4363,209.2814 C169.4363,208.7294 169.8843,208.2814 170.4363,208.2814 L170.9143,208.2814 C171.4663,208.2814 171.9143,208.7294 171.9143,209.2814 L171.9143,239.9864 C171.9143,240.5384 171.4663,240.9864 170.9143,240.9864" id="Fill-107" fill="#3D4666"></path>
                    <path d="M179.9163,240.9864 L179.4383,240.9864 C178.8863,240.9864 178.4383,240.5384 178.4383,239.9864 L178.4383,209.2814 C178.4383,208.7294 178.8863,208.2814 179.4383,208.2814 L179.9163,208.2814 C180.4683,208.2814 180.9163,208.7294 180.9163,209.2814 L180.9163,239.9864 C180.9163,240.5384 180.4683,240.9864 179.9163,240.9864" id="Fill-109" fill="#3D4666"></path>
                    <g id="Group-113" transform="translate(0.000000, 105.478000)" stroke="#3D4666" stroke-width="4">
                        <path d="M75.6497,131.7008 C48.6637,136.1248 28.3397,142.8798 16.5897,123.2958 C3.9817,102.2818 25.5157,86.0268 32.0737,58.4848 C38.7097,30.6138 37.3827,0.3088 -0.0003,0.3088" id="Stroke-111"></path>
                    </g>
                </g>
                <g id="Group-14" transform="translate(359.000000, 158.000000)">
                    <path d="M45.4161,41.1666 C40.7131,41.0126 33.0831,42.8736 25.1761,39.9496 C17.1031,36.9636 13.3971,30.1346 13.3421,23.3596" id="Stroke-1" stroke="#3D4666" stroke-width="4"></path>
                    <path d="M13.5636,27.5211 C13.3986,26.0381 13.3506,24.3241 13.3146,22.9591" id="Stroke-3" stroke="#3D4666" stroke-width="6"></path>
                    <path d="M22.1812,9.1657 L22.5622,15.9617 C22.8062,20.0817 19.6642,23.6197 15.5442,23.8627 L10.7022,24.1497 C6.5822,24.3947 3.0442,21.2517 2.8002,17.1317 L2.4192,10.3367 L22.1812,9.1657 Z" id="Fill-5" fill="#95A0C5"></path>
                    <g id="Group-3" transform="translate(2.000000, 9.000000)" fill="#FFFFFF" opacity="0.195476019">
                        <path d="M7.4898,14.9905 C4.0798,15.1895 1.0598,13.0705 -0.0002,9.9905 C1.3598,12.3895 3.9998,13.9395 6.9398,13.7695 L11.7798,13.4805 C15.8998,13.2405 18.5836929,10.5163047 18.3436929,6.39730471 L18.0380106,0.1098 L18.9698,0.0005 L19.3498,6.8005 C19.5898,10.9205 16.4498,14.4605 12.3298,14.6995 L7.4898,14.9905 Z" id="Fill-1"></path>
                    </g>
                    <g id="Group-9" transform="translate(0.000000, 7.609800)">
                        <mask id="mask-2" fill="white">
                            <use xlink:href="#path-1"></use>
                        </mask>
                        <g id="Clip-8"></g>
                        <path d="M0.0191,2.8811 L-3.2238563e-05,2.1151 C-0.0269,1.6521 4.0841,1.0321 9.1851,0.7311 L15.1791,0.3751 C20.2791,0.0731 24.4351,0.2031 24.4631,0.6671 L24.4821,1.4321 L0.0191,2.8811 Z" id="Fill-7" fill="#6B76A0" mask="url(#mask-2)"></path>
                    </g>
                    <path d="M7.525,9.3453 L7.171,9.3683 C6.669,9.4023 6.234,9.0213 6.201,8.5193 L5.745,1.6423 C5.711,1.1393 6.092,0.7043 6.595,0.6713 L6.948,0.6483 C7.451,0.6153 7.886,0.9943 7.919,1.4973 L8.375,8.3743 C8.409,8.8773 8.028,9.3123 7.525,9.3453" id="Fill-10" fill="#6B76A0"></path>
                    <path d="M17.2642,8.6998 L16.9102,8.7228 C16.4082,8.7568 15.9722,8.3758 15.9392,7.8728 L15.4832,0.9968 C15.4502,0.4938 15.8302,0.0588 16.3332,0.0248 L16.6872,0.0018 C17.1902,-0.0312 17.6242,0.3488 17.6582,0.8518 L18.1142,7.7278 C18.1472,8.2308 17.7672,8.6658 17.2642,8.6998" id="Fill-12" fill="#6B76A0"></path>
                </g>
                <g id="Octopus" transform="translate(62.000000, 70.000000)">
                    <path d="M49.3678,83.0917 C50.6148,83.1817 51.8478,83.1927 53.0778,83.3417 C53.0878,83.3417 53.0978,83.3417 53.1078,83.3527 C56.5778,83.7817 59.9178,84.7727 63.0178,86.3317 C65.2978,87.4727 67.4478,88.9117 69.4078,90.6717 C73.8478,94.6427 76.7478,100.5627 78.1478,106.2727 C79.5378,111.9027 79.9178,117.8627 79.7078,123.6427 C79.4778,129.8627 78.6178,136.0717 77.6478,142.2117 C76.9078,146.8027 75.8578,151.3527 75.1378,155.9427 C74.9578,157.8027 74.9178,159.6617 75.0478,161.5227 C75.2478,162.4917 75.4978,163.4517 75.8178,164.3927 L75.8178,164.4027 C76.2178,165.1717 76.6478,165.9117 77.1378,166.6317 C77.1378,166.6427 77.1478,166.6427 77.1478,166.6527 C77.9778,167.5717 78.8678,168.4327 79.8078,169.2327 C81.6278,170.5227 83.5678,171.6527 85.5778,172.6127 C86.4478,172.9027 87.3178,173.1317 88.2178,173.3127 C90.1078,173.4617 91.9978,173.4117 93.8878,173.2327 C97.5378,172.6027 101.0978,171.5527 104.5478,170.1927 C104.5578,170.1927 104.5578,170.1827 104.5678,170.1827 C107.9178,168.6617 111.1378,166.8627 114.1278,164.7227 C116.3078,162.8817 118.2778,160.8027 120.2278,158.7327 C122.6678,156.1127 125.0178,153.4117 127.2278,150.6027 C130.3578,146.4027 133.1878,141.9617 135.3778,137.2017 C136.0678,135.4027 136.6378,133.5627 137.0678,131.6717 C137.7578,128.6127 140.0278,126.1427 142.5878,124.4917 C145.3078,122.7417 148.7578,122.5817 151.8278,123.2817 C154.6878,123.9427 157.5478,126.3127 158.9978,128.8027 C160.6478,131.6127 160.9178,134.9217 160.2078,138.0527 C158.5478,145.4217 154.9278,152.5017 150.7478,158.7627 C146.4878,165.1317 141.5678,171.1217 136.2778,176.6617 C132.3278,180.8027 128.0278,184.5127 123.1278,187.5017 C117.8178,190.7417 111.9278,193.2917 105.9678,195.0527 C102.5078,196.0717 99.0078,196.6217 95.4278,197.0717 C92.9578,197.3817 90.4578,197.5227 87.9678,197.3127 C84.6278,197.0317 81.1678,196.5917 78.0278,195.3217 C74.8678,194.0527 71.7778,192.6217 68.8978,190.7727 C63.6078,187.3717 58.8578,183.0527 55.6578,177.5717 C52.5178,172.1827 51.0478,165.9617 50.9678,159.7627 C50.8878,154.2727 52.1478,148.8527 53.1578,143.4827 C53.6278,140.9727 54.0778,138.4617 54.4778,135.9327 C54.6478,134.9327 54.7978,133.9217 54.9378,132.9117 C54.9478,132.8927 54.9478,132.8717 54.9478,132.8527 C55.6778,126.9517 56.0878,120.9427 55.4978,115.0127 C55.2078,113.3717 54.8178,111.7417 54.2678,110.1617 C53.9978,109.6217 53.7078,109.0917 53.3778,108.5817 C53.1978,108.3817 52.9978,108.1827 52.7978,107.9917 C52.5578,107.8317 52.3178,107.6927 52.0778,107.5717 C51.5378,107.4027 50.9878,107.2627 50.4278,107.1427 L50.4078,107.1427 C49.3478,107.0817 48.2778,107.0817 47.1978,107.1217 C44.9578,107.2327 42.8078,106.4917 40.9278,105.3127 C40.1378,104.8127 39.2168,104.3647 38.6028,103.6707 C38.0348,103.0287 36.7108,100.8317 36.7108,100.8317 C35.8108,99.0817 35.3708,97.0817 35.2808,95.1217 C35.1708,92.5417 36.3308,89.6317 37.9908,87.5527 C37.9908,87.5527 41.3948,82.5187 49.3678,83.0917" id="Fill-1" fill="#6B76A0"></path>
                    <path d="M135.171,133.411 C115.149,118.343 121.875,98.716 127.46,92.866 L127.293,92.599 C124.151,84.894 120,75.913 120,65.813 C120,29.466 138.797,0 173.239,0 C207.942,0 226.478,29.466 226.478,65.813 C226.478,75.589 222.438,85.062 219.484,92.599 L219.419,92.866 C225.004,98.716 231.73,118.343 211.708,133.411 L135.171,133.411 Z" id="Fill-3" fill="#828DB7"></path>
                    <g id="Group-3" transform="translate(126.000000, 8.000000)" fill="#FFFFFF">
                        <path d="M5.263,73.108 L5.457,76.642 C2.996,70.707 -1.42108547e-14,59.501 -1.42108547e-14,51.8 C-1.42108547e-14,23.15 18.263,-8.52651283e-14 47.109,-8.52651283e-14 C60.027,-8.52651283e-14 70.292,4.728 77.674,12.547 C70.841,7.29 61.82,3.883 51.502,2.714 C23.701,-0.435 1.782,28.898 3.258,57.502 C3.502,62.23 5.263,73.108 5.263,73.108" id="Fill-5" opacity="0.049999997"></path>
                        <path d="M86.6439,99.3411 C86.6439,102.4411 85.0139,105.1511 82.5639,106.6711 C83.5339,105.2811 84.0929,103.6011 84.0929,101.7811 C84.0929,97.0011 80.2239,93.1311 75.4439,93.1311 C73.7739,93.1311 72.2129,93.6111 70.8829,94.4411 C72.4339,92.1811 75.0429,90.6911 78.0029,90.6911 C82.7739,90.6911 86.6439,94.5611 86.6439,99.3411" id="Fill-11" opacity="0.100000001"></path>
                        <path d="M28.6439,99.3411 C28.6439,102.4411 27.0139,105.1511 24.5639,106.6711 C25.5339,105.2811 26.0929,103.6011 26.0929,101.7811 C26.0929,97.0011 22.2239,93.1311 17.4439,93.1311 C15.7739,93.1311 14.2129,93.6111 12.8829,94.4411 C14.4339,92.1811 17.0429,90.6911 20.0029,90.6911 C24.7739,90.6911 28.6439,94.5611 28.6439,99.3411" id="Fill-11" opacity="0.100000001"></path>
                    </g>
                    <path d="M194.2027,108.8856 C194.2027,113.6596 198.0737,117.5316 202.8487,117.5316 C207.6227,117.5316 211.4947,113.6596 211.4947,108.8856 C211.4947,104.1106 207.6227,100.2396 202.8487,100.2396 C198.0737,100.2396 194.2027,104.1106 194.2027,108.8856" id="Fill-5" fill="#FFFFFF"></path>
                    <path d="M136.3951,108.8856 C136.3951,113.6596 140.2661,117.5316 145.0411,117.5316 C149.8161,117.5316 153.6871,113.6596 153.6871,108.8856 C153.6871,104.1106 149.8161,100.2396 145.0411,100.2396 C140.2661,100.2396 136.3951,104.1106 136.3951,108.8856" id="Fill-7" fill="#FFFFFF"></path>
                    <path d="M147.1554,109.5204 C147.5064,110.5614 148.6344,111.1224 149.6764,110.7714 C150.7174,110.4204 151.2774,109.2914 150.9264,108.2504 C150.5764,107.2084 149.4474,106.6484 148.4064,106.9994 C147.3644,107.3494 146.8044,108.4784 147.1554,109.5204" id="Fill-9" fill="#525F7F"></path>
                    <path d="M205.4415,110.2929 C206.2185,111.0689 207.4785,111.0689 208.2555,110.2929 C209.0325,109.5159 209.0325,108.2559 208.2555,107.4789 C207.4785,106.7009 206.2185,106.7009 205.4415,107.4789 C204.6645,108.2559 204.6645,109.5159 205.4415,110.2929" id="Fill-11" fill="#525F7F"></path>
                    <path d="M182.2008,138.7782 C182.1118,142.2292 182.2558,145.6982 182.4488,149.1432 C182.9548,158.1882 184.0588,167.2562 185.8388,176.1372 C187.8908,186.3822 191.1268,196.4902 195.9838,205.7662 C201.0328,215.4072 208.6398,224.4222 218.3858,229.5492 C224.5198,232.7752 230.7838,234.4002 237.6528,235.0342 C240.7678,235.3222 243.8488,235.1042 246.9668,234.9932 C251.0948,234.8442 255.2318,234.8922 259.3518,235.2032 C261.0828,235.3342 262.8098,235.5152 264.5318,235.7432 C263.4688,235.6002 262.4048,235.4582 261.3418,235.3142 C268.9948,236.3552 276.3068,238.5542 283.4098,241.5512 C282.4538,241.1482 281.4988,240.7452 280.5438,240.3412 C286.8908,243.0292 293.1708,246.3202 299.9588,247.7562 C308.7798,249.6212 317.6898,248.9262 326.2908,246.2822 C332.9658,244.2302 339.4118,241.2992 345.6258,238.1372 C348.2178,236.8182 350.3868,233.7052 351.1408,230.9662 C351.9318,228.0922 351.5748,224.2682 349.9308,221.7182 C348.2788,219.1562 345.8188,216.9012 342.7598,216.2042 C339.5058,215.4632 336.5028,215.8922 333.5128,217.4142 C330.6578,218.8662 327.7648,220.2412 324.8158,221.4902 C325.7708,221.0872 326.7268,220.6832 327.6818,220.2812 C322.5858,222.4192 317.2988,224.2142 311.8068,224.9812 C312.8708,224.8392 313.9338,224.6952 314.9978,224.5522 C311.8678,224.9712 308.7138,225.0242 305.5808,224.6072 C306.6438,224.7502 307.7078,224.8932 308.7708,225.0362 C304.5338,224.4472 300.5208,223.0052 296.5968,221.3492 L299.4628,222.5592 C292.8968,219.7802 286.4358,216.7102 279.5818,214.6862 C270.1178,211.8912 260.0428,210.8192 250.1968,210.9192 C245.4558,210.9662 240.7618,211.4732 236.0378,210.8512 C237.1018,210.9952 238.1648,211.1372 239.2288,211.2802 C236.1148,210.8512 233.0758,210.0422 230.1788,208.8232 C231.1338,209.2252 232.0888,209.6292 233.0448,210.0322 C230.3148,208.8642 227.7578,207.3522 225.4008,205.5482 C226.2098,206.1732 227.0198,206.7982 227.8288,207.4242 C224.9948,205.2282 222.4958,202.6482 220.2948,199.8222 L222.1718,202.2512 C218.8038,197.8882 216.1688,193.0152 214.0278,187.9482 C214.4308,188.9032 214.8338,189.8582 215.2378,190.8142 C211.9678,183.0172 209.8318,174.7782 208.3608,166.4652 C207.9748,164.2862 207.6378,162.0972 207.3408,159.9032 C207.4838,160.9662 207.6268,162.0302 207.7698,163.0932 C206.7558,155.5312 206.1758,147.8802 206.1858,140.2472 C206.1868,139.7572 206.1888,139.2672 206.2008,138.7782 C206.2788,135.7512 204.8078,132.4142 202.6858,130.2932 C200.6048,128.2112 197.1898,126.6442 194.2008,126.7782 C187.5608,127.0752 182.3748,132.0492 182.2008,138.7782" id="Fill-13" fill="#6B76A0"></path>
                    <path d="M188.6573,130.6698 C189.0213,136.1708 189.8953,141.6828 190.9333,147.0928 C192.9043,157.3598 196.0893,167.4128 200.7533,176.7878 C203.4113,182.1308 206.8153,187.1258 210.7963,191.5738 C214.6363,195.8618 219.4543,199.7178 224.7253,202.0808 C227.9273,203.5178 231.1283,204.8268 234.5903,205.4498 C238.3903,206.1338 242.2133,206.5358 246.0693,206.3078 C249.7583,206.0898 253.6023,205.6618 257.1283,204.4808 C261.2303,203.1058 264.3053,201.3238 267.6473,198.6838 C272.1613,195.1178 274.7513,189.9168 276.7753,184.6758 C278.1353,181.1518 278.9613,177.4528 280.1843,173.8838 C280.4893,172.9948 280.8193,172.1148 281.1823,171.2488 C280.7793,172.2048 280.3763,173.1598 279.9723,174.1148 C280.7533,172.2818 281.6993,170.5278 282.9063,168.9388 L281.0293,171.3668 C281.9773,170.1408 283.0613,169.0428 284.2823,168.0868 C283.4723,168.7118 282.6623,169.3378 281.8533,169.9628 C283.2393,168.8988 284.7553,168.0468 286.3603,167.3618 C285.4053,167.7658 284.4493,168.1678 283.4933,168.5708 C286.0543,167.5088 288.7593,166.8918 291.5013,166.5228 C290.4383,166.6658 289.3753,166.8088 288.3113,166.9508 C295.6373,166.0168 303.0773,166.8788 310.4423,166.5018 C314.3363,166.3028 318.2393,165.8608 322.0773,165.1768 C324.3433,164.7728 326.5773,164.1978 328.7193,163.3478 C330.5623,162.6138 332.4843,161.8598 334.2243,160.8678 C335.9033,159.9118 337.4633,158.6588 338.9453,157.4508 C341.1353,155.6658 342.9043,153.3918 344.4673,151.0528 C346.1533,148.5268 347.3223,145.5878 348.3013,142.7368 C349.0793,140.4708 349.6013,138.1208 349.9983,135.7598 C351.4123,127.3428 351.8083,118.8368 352.0113,110.3188 C352.0843,107.2888 350.6223,103.9598 348.4973,101.8338 C346.4153,99.7528 343.0013,98.1858 340.0113,98.3188 C333.3823,98.6158 328.1723,103.5908 328.0113,110.3188 C327.8533,116.9528 327.6533,123.6188 326.7823,130.2038 C326.9253,129.1408 327.0683,128.0768 327.2103,127.0148 C326.6993,130.7908 325.9583,134.5778 324.4923,138.1108 C324.8953,137.1558 325.2993,136.1998 325.7023,135.2448 C324.9843,136.9418 324.0943,138.5548 322.9673,140.0158 L324.8433,137.5868 C323.9653,138.7038 322.9643,139.7048 321.8453,140.5818 C322.6553,139.9558 323.4643,139.3308 324.2743,138.7048 C322.9043,139.7588 321.4003,140.5988 319.8113,141.2738 C320.7663,140.8708 321.7223,140.4678 322.6783,140.0648 C319.7223,141.2968 316.5743,141.9598 313.4103,142.3878 C314.4733,142.2448 315.5373,142.1018 316.6003,141.9588 C310.8693,142.7098 305.0553,142.7328 299.2853,142.6048 C295.9093,142.5288 292.5493,142.4728 289.1853,142.8458 C285.6233,143.2408 281.9873,143.6858 278.5813,144.8668 C273.1713,146.7448 267.8553,149.6498 264.2183,154.1908 C262.5213,156.3088 260.9313,158.3878 259.7703,160.8378 C258.6223,163.2588 257.6013,165.7658 256.7703,168.3158 C255.5863,171.9448 254.7333,175.6878 253.2613,179.2188 C253.6643,178.2638 254.0673,177.3078 254.4703,176.3528 C253.7473,178.0628 252.8733,179.7008 251.7493,181.1838 L253.6253,178.7548 C252.7673,179.8628 251.7853,180.8548 250.6763,181.7138 C251.4863,181.0878 252.2953,180.4628 253.1053,179.8368 C251.9663,180.6978 250.7313,181.3988 249.4213,181.9648 L252.2873,180.7548 C250.1893,181.6368 247.9753,182.1558 245.7243,182.4668 C246.7883,182.3238 247.8513,182.1808 248.9153,182.0378 C245.6953,182.4568 242.4233,182.5158 239.2003,182.1008 C240.2643,182.2428 241.3273,182.3858 242.3903,182.5288 C239.7043,182.1618 237.0893,181.4618 234.5873,180.4168 C235.5433,180.8188 236.4983,181.2228 237.4543,181.6258 C234.9373,180.5528 232.5883,179.1528 230.4193,177.4858 C231.2283,178.1118 232.0373,178.7368 232.8473,179.3628 C230.1533,177.2658 227.7853,174.7998 225.6913,172.1078 L227.5683,174.5358 C224.2233,170.1928 221.6103,165.3418 219.4723,160.3058 C219.8753,161.2618 220.2793,162.2168 220.6823,163.1728 C217.3333,155.2268 215.1163,146.8198 213.6413,138.3358 C213.3413,136.6098 213.0743,134.8788 212.8413,133.1438 C212.9843,134.2068 213.1263,135.2708 213.2693,136.3338 C213.0183,134.4528 212.7823,132.5638 212.6573,130.6698 C212.4453,127.4688 211.4623,124.5038 209.1423,122.1848 C207.0613,120.1038 203.6463,118.5358 200.6573,118.6698 C197.5533,118.8088 194.3353,119.8278 192.1723,122.1848 C190.0993,124.4418 188.4483,127.5038 188.6573,130.6698" id="Fill-15" fill="#828DB7"></path>
                    <g id="Group-24" transform="translate(258.000000, 107.000000)" fill="#FFFFFF" opacity="0.100000001">
                        <path d="M1.6063,71.3775 C0.8513,71.2555 0.1403,71.7675 0.0183,72.5225 C-0.1037,73.2765 0.4083,73.9875 1.1633,74.1105 C1.9183,74.2325 2.6283,73.7205 2.7513,72.9655 C2.8733,72.2105 2.3603,71.4995 1.6063,71.3775" id="Fill-1"></path>
                        <path d="M7.2884,60.687 C6.4814,60.4 5.5944,60.822 5.3074,61.628 C5.0204,62.436 5.4414,63.323 6.2484,63.61 C7.0554,63.897 7.9424,63.475 8.2294,62.668 C8.5164,61.862 8.0954,60.974 7.2884,60.687" id="Fill-3"></path>
                        <path d="M13.2547,51.4849 C12.3957,51.0329 11.3327,51.3629 10.8807,52.2219 C10.4287,53.0809 10.7587,54.1429 11.6187,54.5949 C12.4777,55.0479 13.5407,54.7169 13.9917,53.8579 C14.4437,52.9989 14.1137,51.9359 13.2547,51.4849" id="Fill-5"></path>
                        <path d="M22.9632,45.5122 C22.0522,44.8952 20.8132,45.1342 20.1962,46.0452 C19.5802,46.9562 19.8192,48.1952 20.7302,48.8122 C21.6412,49.4282 22.8802,49.1902 23.4962,48.2792 C24.1132,47.3662 23.8742,46.1282 22.9632,45.5122" id="Fill-7"></path>
                        <path d="M37.5384,43.1382 C36.5754,42.3562 35.1614,42.5042 34.3794,43.4672 C33.5984,44.4302 33.7454,45.8452 34.7084,46.6262 C35.6724,47.4082 37.0864,47.2602 37.8684,46.2972 C38.6494,45.3332 38.5014,43.9192 37.5384,43.1382" id="Fill-9"></path>
                        <path d="M51.9706,43.855 C50.9546,42.909 49.3656,42.964 48.4186,43.98 C47.4726,44.996 47.5286,46.585 48.5446,47.532 C49.5596,48.478 51.1506,48.422 52.0956,47.407 C53.0426,46.391 52.9866,44.8 51.9706,43.855" id="Fill-11"></path>
                        <path d="M63.6263,42.6763 C62.5593,41.5653 60.7933,41.5303 59.6823,42.5983 C58.5713,43.6653 58.5363,45.4323 59.6033,46.5423 C60.6713,47.6543 62.4373,47.6893 63.5483,46.6203 C64.6593,45.5533 64.6943,43.7873 63.6263,42.6763" id="Fill-13"></path>
                        <path d="M72.8465,38.6851 C71.7265,37.4091 69.7845,37.2831 68.5095,38.4031 C67.2335,39.5221 67.1075,41.4641 68.2265,42.7401 C69.3465,44.0151 71.2885,44.1421 72.5645,43.0221 C73.8405,41.9021 73.9665,39.9601 72.8465,38.6851" id="Fill-15"></path>
                        <path d="M79.4198,31.0611 C78.2478,29.6211 76.1298,29.4031 74.6898,30.5751 C73.2498,31.7471 73.0318,33.8651 74.2038,35.3051 C75.3758,36.7461 77.4928,36.9631 78.9338,35.7911 C80.3738,34.6191 80.5918,32.5011 79.4198,31.0611" id="Fill-17"></path>
                        <path d="M83.1341,18.9859 C81.9101,17.3809 79.6161,17.0719 78.0111,18.2959 C76.4061,19.5199 76.0971,21.8139 77.3211,23.4189 C78.5451,25.0239 80.8391,25.3329 82.4441,24.1089 C84.0491,22.8839 84.3581,20.5909 83.1341,18.9859" id="Fill-19"></path>
                        <path d="M83.7782,1.6402 C82.5022,-0.1298 80.0322,-0.5298 78.2622,0.7462 C76.4922,2.0232 76.0922,4.4932 77.3682,6.2622 C78.6452,8.0322 81.1142,8.4322 82.8842,7.1562 C84.6542,5.8792 85.0542,3.4112 83.7782,1.6402" id="Fill-21"></path>
                    </g>
                    <path d="M139.3121,140.4306 C139.3561,140.7256 139.3961,141.0206 139.4361,141.3166 C139.2931,140.2526 139.1501,139.1896 139.0071,138.1256 C139.6321,142.7766 140.0421,147.4586 140.3431,152.1406 C140.8951,160.7156 141.0211,169.3246 140.6461,177.9096 C140.3981,183.6016 139.9231,189.2836 139.1701,194.9316 C139.3131,193.8686 139.4561,192.8046 139.5991,191.7416 C138.4841,200.0206 136.7771,208.2466 134.1141,216.1746 C133.3601,218.4186 132.5261,220.6356 131.6081,222.8196 C132.0121,221.8636 132.4151,220.9086 132.8181,219.9516 C130.4461,225.5576 127.4971,230.9206 123.7871,235.7546 L125.6631,233.3266 C122.8911,236.9106 119.7171,240.1646 116.1331,242.9436 C116.9431,242.3176 117.7521,241.6926 118.5621,241.0666 C115.2571,243.6076 111.6491,245.7096 107.8111,247.3376 L110.6781,246.1276 C106.2581,247.9796 101.6061,249.1766 96.8611,249.8206 C97.9251,249.6776 98.9881,249.5346 100.0511,249.3916 C93.9331,250.1976 87.6881,250.1666 81.5741,249.3466 C82.6371,249.4896 83.7001,249.6326 84.7641,249.7756 C79.8971,249.0966 75.1251,247.8746 70.5891,245.9756 L73.4561,247.1856 C69.9961,245.7126 66.7171,243.8616 63.7251,241.5806 C64.5351,242.2056 65.3441,242.8316 66.1541,243.4566 C63.6561,241.5266 61.3961,239.3196 59.4581,236.8246 L61.3351,239.2526 C59.6911,237.1016 58.3121,234.7736 57.2551,232.2796 C57.6591,233.2346 58.0621,234.1906 58.4651,235.1456 C57.5281,232.8816 56.8741,230.5246 56.5361,228.0976 C56.6791,229.1606 56.8211,230.2246 56.9641,231.2876 C56.6581,228.9506 56.6511,226.5986 56.9461,224.2596 C56.8031,225.3236 56.6601,226.3866 56.5171,227.4506 C56.8531,224.9626 57.5221,222.5496 58.4941,220.2376 C58.0901,221.1926 57.6871,222.1486 57.2841,223.1036 C58.3481,220.6276 59.7331,218.3236 61.3741,216.1876 L59.4981,218.6166 C60.6821,217.1006 61.9791,215.6866 63.3731,214.3626 C65.5691,212.2766 66.8881,208.8736 66.8881,205.8766 C66.8881,202.9336 65.5811,199.4176 63.3731,197.3916 C61.0861,195.2916 58.0831,193.7336 54.8881,193.8766 C51.6581,194.0216 48.7771,195.1356 46.4021,197.3916 C37.4241,205.9216 31.4121,218.6036 32.9501,231.1756 C33.3481,234.4356 33.8041,237.5896 34.9781,240.6646 C36.1601,243.7616 37.4871,246.8256 39.3341,249.5876 C43.2491,255.4436 48.1561,260.1586 54.0371,264.0276 C59.7111,267.7616 66.3401,270.3986 72.9471,271.9246 C80.4061,273.6486 88.2651,274.3246 95.9081,273.8066 C106.8671,273.0636 117.7631,270.2496 127.1031,264.2996 C135.6631,258.8476 142.6271,251.4316 147.9941,242.8466 C152.9541,234.9116 156.4781,225.9406 158.9731,216.9426 C161.5331,207.7066 162.9681,198.1576 163.8971,188.6306 C164.6661,180.7596 164.9401,172.8426 164.8381,164.9376 C164.7601,158.8406 164.4591,152.7446 163.9301,146.6706 C163.7581,144.6906 163.5611,142.7116 163.3321,140.7376 C163.0951,138.6966 163.0171,136.3916 162.5131,134.4576 C162.4791,134.3276 162.4751,134.1846 162.4551,134.0506 C162.0371,131.2806 159.2431,128.2276 156.9401,126.8786 C154.3681,125.3736 150.5771,124.7366 147.6931,125.6696 C144.7901,126.6096 141.9881,128.4086 140.5211,131.1846 C140.1181,132.1396 139.7151,133.0956 139.3121,134.0506 C138.7401,136.1776 138.7401,138.3046 139.3121,140.4306" id="Fill-17" fill="#6B76A0"></path>
                    <g id="Group-41" transform="translate(45.000000, 202.048000)" fill="#FFFFFF" opacity="0.100000001">
                        <path d="M91.3995,24.6931 C90.6445,24.5701 89.9335,25.0831 89.8115,25.8381 C89.6895,26.5921 90.2015,27.3031 90.9565,27.4251 C91.7115,27.5481 92.4225,27.0361 92.5445,26.2811 C92.6675,25.5261 92.1545,24.8151 91.3995,24.6931" id="Fill-19"></path>
                        <path d="M83.5255,35.6726 C82.7185,35.3856 81.8315,35.8066 81.5445,36.6126 C81.2575,37.4206 81.6795,38.3076 82.4855,38.5946 C83.2935,38.8816 84.1795,38.4596 84.4665,37.6526 C84.7545,36.8466 84.3325,35.9586 83.5255,35.6726" id="Fill-21"></path>
                        <path d="M73.7237,44.8582 C72.8647,44.4062 71.8017,44.7362 71.3497,45.5952 C70.8977,46.4542 71.2277,47.5172 72.0877,47.9682 C72.9467,48.4212 74.0097,48.0902 74.4607,47.2312 C74.9127,46.3732 74.5827,45.3092 73.7237,44.8582" id="Fill-23"></path>
                        <path d="M61.9981,51.0261 C61.0871,50.4101 59.8491,50.6481 59.2321,51.5591 C58.6151,52.4701 58.8541,53.7101 59.7651,54.3261 C60.6761,54.9431 61.9151,54.7041 62.5321,53.7931 C63.1481,52.8811 62.9101,51.6431 61.9981,51.0261" id="Fill-25"></path>
                        <path d="M47.2184,53.1062 C46.2554,52.3252 44.8404,52.4722 44.0594,53.4362 C43.2784,54.3992 43.4254,55.8142 44.3884,56.5952 C45.3524,57.3772 46.7664,57.2292 47.5484,56.2652 C48.3294,55.3022 48.1814,53.8882 47.2184,53.1062" id="Fill-27"></path>
                        <path d="M31.1505,51.1824 C30.1345,50.2364 28.5445,50.2924 27.5985,51.3084 C26.6525,52.3244 26.7085,53.9134 27.7245,54.8604 C28.7395,55.8064 30.3295,55.7494 31.2755,54.7344 C32.2215,53.7184 32.1655,52.1284 31.1505,51.1824" id="Fill-29"></path>
                        <path d="M18.4767,45.7478 C17.4087,44.6378 15.6427,44.6018 14.5317,45.6698 C13.4207,46.7368 13.3857,48.5038 14.4537,49.6138 C15.5207,50.7258 17.2877,50.7608 18.3977,49.6918 C19.5097,48.6248 19.5437,46.8588 18.4767,45.7478" id="Fill-31"></path>
                        <path d="M9.9561,37.4753 C8.8361,36.1993 6.8941,36.0733 5.6191,37.1933 C4.3431,38.3123 4.2171,40.2543 5.3371,41.5303 C6.4561,42.8053 8.3981,42.9323 9.6741,41.8123 C10.9501,40.6923 11.0761,38.7503 9.9561,37.4753" id="Fill-33"></path>
                        <path d="M6.3487,27.0359 C5.1767,25.5959 3.0587,25.3779 1.6187,26.5499 C0.1787,27.7219 -0.0393,29.8399 1.1327,31.2799 C2.3047,32.7209 4.4227,32.9379 5.8627,31.7659 C7.3037,30.5949 7.5207,28.4759 6.3487,27.0359" id="Fill-35"></path>
                        <path d="M8.4132,15.1023 C7.1892,13.4983 4.8952,13.1883 3.2902,14.4133 C1.6852,15.6363 1.3762,17.9303 2.6002,19.5363 C3.8242,21.1403 6.1182,21.4503 7.7232,20.2253 C9.3282,19.0013 9.6372,16.7073 8.4132,15.1023" id="Fill-37"></path>
                        <path d="M16.9083,2.3474 C15.6323,0.5774 13.1623,0.1774 11.3923,1.4534 C9.6223,2.7304 9.2223,5.1994 10.4983,6.9694 C11.7753,8.7394 14.2443,9.1394 16.0143,7.8634 C17.7843,6.5864 18.1843,4.1184 16.9083,2.3474" id="Fill-39"></path>
                    </g>
                    <path d="M132.3351,132.454 C132.7601,136.393 132.3421,140.515 131.8201,144.416 C131.9631,143.352 132.1061,142.29 132.2491,141.226 C131.1681,149.177 128.9121,156.933 125.8061,164.324 C126.2101,163.369 126.6131,162.413 127.0161,161.458 C123.2801,170.275 118.3251,178.517 112.4981,186.107 C113.1231,185.298 113.7491,184.488 114.3741,183.679 C107.7981,192.189 100.1691,200.136 91.6761,206.752 C92.4851,206.126 93.2951,205.501 94.1051,204.875 C88.8131,208.963 83.0461,212.363 76.8891,214.974 C77.8451,214.57 78.8001,214.167 79.7551,213.764 C73.7701,216.276 67.5171,218.006 61.1771,219.361 C55.5431,220.565 49.8461,221.478 44.2461,222.84 C38.2311,224.303 32.1641,226.412 26.8601,229.64 C20.3021,233.629 14.9851,239.161 10.9061,245.637 C8.2591,249.839 6.2901,254.488 4.5701,259.13 C2.7311,264.092 1.4111,269.231 0.3491,274.41 C-0.3029,277.588 -0.1179,280.792 1.5591,283.657 C3.0151,286.146 5.8691,288.52 8.7301,289.172 C11.8021,289.871 15.2501,289.72 17.9771,287.962 C20.5051,286.332 22.8661,283.839 23.4921,280.79 C24.7691,274.562 26.4261,268.391 28.8971,262.522 C28.4931,263.477 28.0901,264.433 27.6871,265.389 C29.3471,261.499 31.3711,257.768 33.9601,254.415 L32.0841,256.844 C33.8801,254.549 35.9221,252.472 38.2191,250.677 C37.4101,251.302 36.6001,251.928 35.7911,252.553 C38.3261,250.599 41.1121,249.03 44.0551,247.779 C43.1001,248.183 42.1441,248.586 41.1891,248.989 C49.9471,245.315 59.5591,244.275 68.7681,242.24 C81.0891,239.518 93.1961,234.94 103.5321,227.595 C111.3671,222.025 118.5111,215.464 124.9401,208.326 C130.9861,201.614 136.5381,194.325 141.1591,186.555 C145.0131,180.074 148.1871,173.164 150.7651,166.081 C152.5221,161.254 153.9011,156.284 154.8181,151.227 C155.9091,145.213 156.8421,138.821 156.3551,132.673 C156.3491,132.6 156.3431,132.527 156.3351,132.454 C156.3971,130.802 156.0531,129.261 155.3021,127.831 C154.8181,126.343 153.9911,125.056 152.8201,123.969 C150.7391,121.888 147.3241,120.32 144.3351,120.454 C141.2311,120.594 138.0131,121.612 135.8501,123.969 C133.8311,126.168 132.0011,129.35 132.3351,132.454" id="Fill-42" fill="#828DB7"></path>
                    <path d="M157.503,141.9677 C162.089,152.8787 165.487,164.4357 168.137,175.9497 C169.428,181.5627 170.49,187.2277 171.259,192.9357 C171.116,191.8717 170.973,190.8087 170.83,189.7447 C172.114,199.4407 172.582,209.3167 171.295,219.0367 C171.438,217.9737 171.581,216.9097 171.724,215.8467 C171.043,220.8247 169.611,225.5977 168.541,230.4947 C167.267,236.3217 166.351,242.2857 165.981,248.2397 C165.664,253.3277 166.046,258.2827 166.8,263.3207 C167.441,267.5997 168.809,271.4637 170.531,275.4257 C176.041,288.1057 188.528,296.0157 201.573,299.1807 C208.061,300.7537 214.795,301.4217 221.45,301.8217 C224.409,301.9987 227.885,300.3567 229.935,298.3067 C232.016,296.2257 233.584,292.8107 233.45,289.8217 C233.311,286.7177 232.291,283.4987 229.935,281.3357 C227.509,279.1097 224.759,278.0207 221.45,277.8217 C218.323,277.6337 215.201,277.3767 212.096,276.9617 C213.16,277.1047 214.223,277.2467 215.287,277.3907 C210.227,276.7027 205.199,275.5947 200.479,273.6117 C201.434,274.0147 202.39,274.4167 203.345,274.8207 C200.623,273.6617 198.036,272.2127 195.691,270.4047 C196.5,271.0297 197.31,271.6547 198.119,272.2797 C196.239,270.8117 194.549,269.1307 193.084,267.2467 C193.71,268.0567 194.335,268.8657 194.96,269.6757 C193.437,267.6867 192.193,265.5147 191.211,263.2117 C191.614,264.1667 192.017,265.1217 192.42,266.0777 C191.145,263.0277 190.346,259.8177 189.887,256.5467 C190.03,257.6107 190.173,258.6737 190.316,259.7377 C189.544,253.9847 189.802,248.1537 190.558,242.4137 C190.416,243.4777 190.273,244.5407 190.129,245.6037 C190.816,240.5457 191.907,235.5677 193.206,230.6337 C194.49,225.7507 195.211,220.7107 195.673,215.6887 C196.468,207.0487 195.963,198.3307 194.83,189.7447 C192.769,174.1277 189.065,158.8637 183.828,144.0077 C182.832,141.1807 181.808,138.3527 180.646,135.5877 C180.274,134.0267 179.558,132.6657 178.498,131.5067 C177.651,130.1997 176.529,129.1697 175.131,128.4157 C172.559,126.9107 168.768,126.2737 165.884,127.2067 C162.981,128.1467 160.179,129.9457 158.712,132.7217 C157.317,135.3627 156.286,139.0727 157.503,141.9677" id="Fill-44" fill="#6B76A0"></path>
                    <g id="Group-48" transform="translate(93.000000, 118.048000)">
                        <mask id="mask-4" fill="white">
                            <use xlink:href="#path-3"></use>
                        </mask>
                        <g id="Clip-47"></g>
                        <path d="M62.0099,9.0037 C60.7209,13.9627 59.7329,19.0177 58.9109,24.0707 C58.0359,29.4537 57.2899,34.8867 56.9629,40.3337 C56.6699,45.2217 56.9059,50.1217 56.7469,55.0157 C56.5899,59.8707 56.2159,64.7177 55.5699,69.5317 C55.7129,68.4697 55.8559,67.4057 55.9989,66.3427 C55.0219,73.4827 53.2699,80.4247 51.5669,87.4147 C49.7709,94.7897 48.4849,102.3607 48.4399,109.9687 C48.4059,115.9587 49.1979,121.8577 50.0079,127.7817 C49.8649,126.7187 49.7219,125.6547 49.5799,124.5917 C50.6809,132.8557 51.0169,141.2557 49.9409,149.5397 C50.0839,148.4777 50.2269,147.4137 50.3699,146.3507 C49.7129,151.2357 48.5579,156.0517 46.6619,160.6097 C47.0649,159.6547 47.4679,158.6997 47.8709,157.7437 C46.5789,160.7997 44.9629,163.7007 42.9469,166.3407 L44.8229,163.9117 C43.1979,166.0077 41.3429,167.8997 39.2489,169.5287 C40.0579,168.9037 40.8679,168.2777 41.6769,167.6527 C39.7599,169.1197 37.6819,170.3397 35.4649,171.2927 C36.4209,170.8897 37.3759,170.4867 38.3309,170.0837 C35.8539,171.1257 33.2589,171.8157 30.5959,172.1817 C31.6599,172.0387 32.7229,171.8967 33.7869,171.7527 C30.5939,172.1687 27.3739,172.1167 24.1829,171.7037 C25.2469,171.8467 26.3099,171.9897 27.3729,172.1327 C23.5039,171.6077 19.7369,170.5667 16.0929,169.1757 C13.3459,168.1277 9.2869,168.9567 6.8449,170.3857 C4.3569,171.8417 1.9829,174.6957 1.3309,177.5567 C0.6309,180.6287 0.7819,184.0767 2.5409,186.8037 L4.4169,189.2327 C5.9139,190.7197 7.6789,191.7477 9.7119,192.3177 C22.9829,197.3847 38.7459,197.7217 51.1809,190.1677 C63.9609,182.4057 71.2589,168.1567 73.3799,153.6857 C74.1519,148.4137 74.6619,143.1747 74.5929,137.8447 C74.5159,131.7927 73.7569,125.8307 72.9349,119.8417 C73.0779,120.9047 73.2199,121.9687 73.3639,123.0317 C72.3829,115.7177 72.0839,108.3387 73.0679,101.0087 C72.9249,102.0717 72.7819,103.1357 72.6389,104.1987 C73.5839,97.3397 75.5849,90.6997 77.1009,83.9587 C79.4529,73.4927 80.6519,62.7517 80.8179,52.0307 C80.8729,48.5217 80.7349,45.0097 80.8999,41.5017 C81.0539,38.2377 81.3879,34.9847 81.8169,31.7467 C81.6739,32.8107 81.5309,33.8737 81.3879,34.9377 C82.2739,28.3707 83.4849,21.8007 85.1529,15.3847 C85.9429,12.3447 85.5379,8.8627 83.9429,6.1377 C82.4869,3.6487 79.6329,1.2747 76.7719,0.6227 C73.6999,-0.0763 70.2519,0.0747 67.5249,1.8327 C64.9159,3.5147 62.8089,5.9327 62.0099,9.0037" id="Fill-46" fill="#828DB7" mask="url(#mask-4)"></path>
                    </g>
                    <g id="Group-71" transform="translate(44.000000, 95.048000)" fill="#FFFFFF" opacity="0.100000001">
                        <path d="M45.0938,95.1785 C44.8768,94.4455 44.1058,94.0275 43.3728,94.2445 C42.6398,94.4615 42.2218,95.2325 42.4388,95.9655 C42.6558,96.6985 43.4268,97.1165 44.1598,96.8995 C44.8928,96.6815 45.3108,95.9105 45.0938,95.1785" id="Fill-49"></path>
                        <path d="M33.6251,92.8757 C33.5331,92.0237 32.7691,91.4077 31.9171,91.4987 C31.0661,91.5907 30.4501,92.3547 30.5411,93.2067 C30.6331,94.0587 31.3971,94.6747 32.2491,94.5827 C33.1011,94.4907 33.7161,93.7267 33.6251,92.8757" id="Fill-51"></path>
                        <path d="M24.9996,86.5017 C25.0336,85.5317 24.2756,84.7177 23.3056,84.6837 C22.3346,84.6487 21.5206,85.4077 21.4866,86.3777 C21.4526,87.3487 22.2106,88.1617 23.1816,88.1957 C24.1506,88.2307 24.9656,87.4727 24.9996,86.5017" id="Fill-53"></path>
                        <path d="M18.7921,75.8806 C18.9521,74.7926 18.2001,73.7796 17.1111,73.6196 C16.0221,73.4596 15.0101,74.2126 14.8501,75.3016 C14.6901,76.3896 15.4431,77.4016 16.5311,77.5626 C17.6201,77.7226 18.6321,76.9696 18.7921,75.8806" id="Fill-55"></path>
                        <path d="M17.2838,63.9099 C17.5698,62.7029 16.8238,61.4929 15.6168,61.2069 C14.4088,60.9209 13.1988,61.6679 12.9128,62.8749 C12.6268,64.0819 13.3738,65.2919 14.5808,65.5779 C15.7878,65.8639 16.9978,65.1169 17.2838,63.9099" id="Fill-57"></path>
                        <path d="M19.2867,51.7126 C19.6987,50.3876 18.9577,48.9796 17.6327,48.5666 C16.3067,48.1556 14.8987,48.8966 14.4867,50.2226 C14.0757,51.5476 14.8157,52.9556 16.1417,53.3676 C17.4667,53.7786 18.8747,53.0386 19.2867,51.7126" id="Fill-59"></path>
                        <path d="M22.6837,39.8347 C23.2217,38.3907 22.4867,36.7837 21.0417,36.2467 C19.5987,35.7087 17.9917,36.4437 17.4547,37.8877 C16.9167,39.3317 17.6517,40.9387 19.0957,41.4757 C20.5397,42.0137 22.1457,41.2777 22.6837,39.8347" id="Fill-61"></path>
                        <path d="M25.357,28.8181 C26.02,27.2561 25.292,25.4521 23.729,24.7881 C22.167,24.1251 20.362,24.8541 19.699,26.4171 C19.036,27.9781 19.764,29.7831 21.327,30.4461 C22.889,31.1101 24.694,30.3801 25.357,28.8181" id="Fill-63"></path>
                        <path d="M25.1895,19.2087 C25.9785,17.5277 25.2555,15.5247 23.5745,14.7357 C21.8935,13.9467 19.8915,14.6707 19.1025,16.3517 C18.3135,18.0317 19.0365,20.0347 20.7175,20.8237 C22.3975,21.6127 24.4005,20.8907 25.1895,19.2087" id="Fill-65"></path>
                        <path d="M20.0641,11.5505 C20.9791,9.7505 20.2621,7.5505 18.4621,6.6355 C16.6631,5.7215 14.4631,6.4385 13.5481,8.2375 C12.6331,10.0365 13.3501,12.2375 15.1491,13.1525 C16.9491,14.0675 19.1491,13.3505 20.0641,11.5505" id="Fill-67"></path>
                        <path d="M7.8634,6.3875 C8.9044,4.4695 8.1934,2.0715 6.2754,1.0305 C4.3574,-0.0095 1.9584,0.7005 0.9184,2.6185 C-0.1226,4.5365 0.5884,6.9355 2.5064,7.9755 C4.4244,9.0165 6.8224,8.3055 7.8634,6.3875" id="Fill-69"></path>
                    </g>
                    <g id="Group-94" transform="translate(239.000000, 213.048000)" fill="#FFFFFF" opacity="0.100000001">
                        <path d="M1.7496,0.9187 C0.9946,0.7967 0.2836,1.3097 0.1616,2.0637 C0.0396,2.8177 0.5516,3.5287 1.3066,3.6517 C2.0616,3.7737 2.7726,3.2617 2.8946,2.5067 C3.0176,1.7517 2.5046,1.0407 1.7496,0.9187" id="Fill-72"></path>
                        <path d="M14.9093,0.4548 C14.1023,0.1678 13.2153,0.5898 12.9283,1.3958 C12.6413,2.2038 13.0623,3.0908 13.8693,3.3778 C14.6763,3.6648 15.5633,3.2428 15.8503,2.4358 C16.1383,1.6298 15.7163,0.7418 14.9093,0.4548" id="Fill-74"></path>
                        <path d="M26.3033,1.9998 C25.4443,1.5478 24.3813,1.8778 23.9293,2.7368 C23.4773,3.5968 23.8073,4.6588 24.6673,5.1108 C25.5263,5.5628 26.5883,5.2318 27.0403,4.3738 C27.4923,3.5148 27.1623,2.4518 26.3033,1.9998" id="Fill-76"></path>
                        <path d="M36.3556,4.8923 C35.4436,4.2753 34.2056,4.5143 33.5886,5.4253 C32.9726,6.3363 33.2106,7.5753 34.1226,8.1923 C35.0336,8.8083 36.2726,8.5693 36.8886,7.6583 C37.5056,6.7463 37.2666,5.5083 36.3556,4.8923" id="Fill-78"></path>
                        <path d="M45.4898,8.4724 C44.5268,7.6914 43.1118,7.8384 42.3308,8.8014 C41.5498,9.7654 41.6968,11.1794 42.6598,11.9604 C43.6238,12.7424 45.0378,12.5944 45.8198,11.6314 C46.6008,10.6674 46.4528,9.2534 45.4898,8.4724" id="Fill-80"></path>
                        <path d="M54.1305,12.0798 C53.1145,11.1338 51.5245,11.1898 50.5785,12.2058 C49.6325,13.2218 49.6885,14.8108 50.7045,15.7578 C51.7195,16.7038 53.3105,16.6468 54.2555,15.6318 C55.2025,14.6158 55.1465,13.0258 54.1305,12.0798" id="Fill-82"></path>
                        <path d="M62.7013,15.0554 C61.6343,13.9454 59.8683,13.9094 58.7573,14.9774 C57.6463,16.0454 57.6113,17.8114 58.6783,18.9224 C59.7463,20.0334 61.5123,20.0684 62.6233,19.0004 C63.7343,17.9324 63.7693,16.1664 62.7013,15.0554" id="Fill-84"></path>
                        <path d="M71.627,16.74 C70.507,15.464 68.565,15.338 67.29,16.458 C66.014,17.577 65.887,19.519 67.007,20.795 C68.127,22.07 70.069,22.197 71.345,21.077 C72.62,19.957 72.747,18.015 71.627,16.74" id="Fill-86"></path>
                        <path d="M81.3307,16.4714 C80.1587,15.0314 78.0407,14.8134 76.6007,15.9854 C75.1607,17.1574 74.9427,19.2754 76.1147,20.7154 C77.2867,22.1564 79.4037,22.3734 80.8447,21.2014 C82.2847,20.0304 82.5027,17.9114 81.3307,16.4714" id="Fill-88"></path>
                        <path d="M92.2369,13.5916 C91.0129,11.9866 88.7189,11.6776 87.1139,12.9016 C85.5089,14.1256 85.1999,16.4196 86.4239,18.0246 C87.6479,19.6296 89.9419,19.9386 91.5469,18.7146 C93.1519,17.4896 93.4609,15.1966 92.2369,13.5916" id="Fill-90"></path>
                        <path d="M104.7696,7.4392 C103.4936,5.6692 101.0236,5.2692 99.2536,6.5452 C97.4836,7.8222 97.0836,10.2922 98.3596,12.0612 C99.6366,13.8322 102.1056,14.2312 103.8756,12.9552 C105.6456,11.6792 106.0456,9.2102 104.7696,7.4392" id="Fill-92"></path>
                    </g>
                    <g id="Group-117" transform="translate(179.000000, 214.048000)" fill="#FFFFFF" opacity="0.100000001">
                        <path d="M13.0309,0.1951 C12.2759,0.0731 11.5649,0.5861 11.4429,1.3411 C11.3209,2.0941 11.8329,2.8051 12.5879,2.9281 C13.3429,3.0501 14.0529,2.5381 14.1759,1.7831 C14.2979,1.0281 13.7849,0.3171 13.0309,0.1951" id="Fill-95"></path>
                        <path d="M7.4142,13.9294 C6.6072,13.6424 5.7202,14.0644 5.4332,14.8704 C5.1462,15.6774 5.5672,16.5654 6.3742,16.8524 C7.1812,17.1384 8.0682,16.7174 8.3552,15.9104 C8.6422,15.1034 8.2212,14.2164 7.4142,13.9294" id="Fill-97"></path>
                        <path d="M4.212,26.0847 C3.353,25.6327 2.29,25.9627 1.838,26.8217 C1.386,27.6807 1.716,28.7437 2.576,29.1947 C3.435,29.6477 4.497,29.3167 4.949,28.4577 C5.401,27.5997 5.071,26.5357 4.212,26.0847" id="Fill-99"></path>
                        <path d="M3.2906,36.698 C2.3796,36.082 1.1406,36.32 0.5236,37.232 C-0.0924,38.143 0.1456,39.382 1.0576,39.998 C1.9686,40.615 3.2076,40.376 3.8236,39.465 C4.4406,38.553 4.2016,37.315 3.2906,36.698" id="Fill-101"></path>
                        <path d="M4.5162,45.8103 C3.5532,45.0293 2.1382,45.1763 1.3572,46.1403 C0.5762,47.1033 0.7232,48.5173 1.6862,49.2993 C2.6502,50.0813 4.0642,49.9333 4.8462,48.9693 C5.6272,48.0063 5.4792,46.5913 4.5162,45.8103" id="Fill-103"></path>
                        <path d="M7.755,53.4597 C6.739,52.5147 5.15,52.5697 4.203,53.5857 C3.257,54.6017 3.314,56.1907 4.329,57.1377 C5.344,58.0837 6.935,58.0267 7.881,57.0117 C8.827,55.9967 8.771,54.4057 7.755,53.4597" id="Fill-105"></path>
                        <path d="M12.8736,59.6863 C11.8066,58.5753 10.0406,58.5403 8.9296,59.6083 C7.8176,60.6753 7.7836,62.4423 8.8506,63.5523 C9.9186,64.6643 11.6846,64.6993 12.7956,63.6303 C13.9066,62.5633 13.9416,60.7973 12.8736,59.6863" id="Fill-107"></path>
                        <path d="M19.7384,64.5281 C18.6184,63.2531 16.6764,63.1261 15.4014,64.2461 C14.1254,65.3661 13.9984,67.3071 15.1184,68.5841 C16.2384,69.8591 18.1804,69.9851 19.4564,68.8661 C20.7314,67.7461 20.8584,65.8031 19.7384,64.5281" id="Fill-109"></path>
                        <path d="M28.2149,68.0251 C27.0429,66.5851 24.9249,66.3671 23.4849,67.5391 C22.0449,68.7111 21.8269,70.8291 22.9989,72.2691 C24.1709,73.7101 26.2889,73.9271 27.7289,72.7551 C29.1699,71.5831 29.3869,69.4651 28.2149,68.0251" id="Fill-111"></path>
                        <path d="M38.17,70.2156 C36.946,68.6116 34.652,68.3016 33.047,69.5266 C31.442,70.7496 31.133,73.0436 32.358,74.6496 C33.582,76.2536 35.875,76.5636 37.48,75.3386 C39.086,74.1146 39.394,71.8206 38.17,70.2156" id="Fill-113"></path>
                        <path d="M49.4703,71.1404 C48.1943,69.3694 45.7243,68.9694 43.9543,70.2454 C42.1843,71.5224 41.7843,73.9924 43.0603,75.7614 C44.3373,77.5324 46.8063,77.9324 48.5763,76.6564 C50.3463,75.3794 50.7463,72.9104 49.4703,71.1404" id="Fill-115"></path>
                    </g>
                    <path d="M168.0719,138.8925 C169.9169,147.7325 171.2219,156.7075 172.5809,165.6305 C174.0679,175.3925 175.0449,185.3385 177.8189,194.8465 C178.9409,198.6955 180.4109,202.4855 182.1969,206.0735 C183.6259,208.9455 185.5089,211.4595 187.5219,213.9535 C189.9409,216.9475 193.0519,219.2875 195.4239,222.3185 L193.5479,219.8895 C194.8199,221.5385 195.8369,223.3445 196.6539,225.2585 C196.2499,224.3025 195.8469,223.3475 195.4439,222.3915 C197.6199,227.5865 198.1139,233.1475 199.4099,238.5775 C200.3389,242.4675 201.7369,246.1165 203.3219,249.7865 C204.3179,252.0925 205.5079,254.3175 206.9749,256.3615 C210.5559,261.3515 214.8219,265.6745 220.2779,268.6285 C224.5539,270.9455 229.2409,272.5735 234.0049,273.5225 C239.3589,274.5885 244.8119,275.0795 250.2179,275.8005 C249.1549,275.6585 248.0919,275.5145 247.0289,275.3715 C251.4019,275.9605 255.8079,276.7115 259.8959,278.4355 L257.0289,277.2255 C258.8529,278.0085 260.5789,278.9855 262.1549,280.1955 C261.3449,279.5705 260.5359,278.9445 259.7259,278.3195 C261.1189,279.4085 262.3599,280.6595 263.4479,282.0535 L261.5719,279.6245 C262.8789,281.3315 263.9259,283.2035 264.7759,285.1755 C264.3729,284.2195 263.9699,283.2645 263.5669,282.3085 C265.0549,285.8375 265.9009,289.5865 266.4229,293.3715 C266.2799,292.3085 266.1359,291.2455 265.9939,290.1815 C266.0219,290.3935 266.0499,290.6045 266.0759,290.8175 C266.0139,292.4685 266.3589,294.0095 267.1099,295.4405 C267.5939,296.9275 268.4209,298.2145 269.5909,299.3015 C271.6729,301.3835 275.0869,302.9515 278.0759,302.8175 C281.1799,302.6775 284.3989,301.6585 286.5619,299.3015 C288.5549,297.1295 290.4679,293.8885 290.0759,290.8175 C289.6419,287.4095 289.2159,283.9985 288.3259,280.6745 C287.5649,277.8295 286.4379,275.1055 285.2189,272.4255 C283.4829,268.6075 280.8349,264.9355 277.6869,262.1655 C271.6579,256.8625 264.3149,253.9535 256.4579,252.6765 C251.9329,251.9415 247.3709,251.4745 242.8289,250.8655 C243.8919,251.0075 244.9559,251.1505 246.0189,251.2935 C241.3039,250.6545 236.5789,249.8015 232.1659,247.9595 L235.0329,249.1695 C232.7839,248.2145 230.6609,247.0105 228.7249,245.5185 C229.5339,246.1445 230.3439,246.7695 231.1539,247.3955 C229.4149,246.0345 227.8679,244.4695 226.5049,242.7335 L228.3819,245.1625 C226.5509,242.7915 225.1059,240.1715 223.9379,237.4185 C224.3409,238.3745 224.7439,239.3305 225.1469,240.2865 C223.4729,236.2655 222.3849,232.0305 221.6409,227.7455 C221.0119,224.1165 220.3169,220.4985 219.0009,217.0445 C217.8059,213.9075 216.5049,210.7805 214.4959,208.0715 C212.7399,205.7045 210.9499,203.5685 208.8399,201.5385 C207.2059,199.9665 205.5879,198.3935 204.1919,196.6005 L206.0689,199.0295 C204.3369,196.7795 202.9839,194.2885 201.8769,191.6795 C202.2799,192.6345 202.6829,193.5905 203.0859,194.5455 C198.5419,183.6715 197.5939,171.5855 195.8449,160.0505 C194.6179,151.9585 193.3439,143.8705 191.8529,135.8235 C191.6479,134.7175 191.4449,133.6125 191.2149,132.5115 C190.6219,129.6725 188.1429,126.7695 185.6999,125.3405 C183.1279,123.8345 179.3369,123.1975 176.4529,124.1305 C173.5499,125.0705 170.7479,126.8705 169.2819,129.6455 C167.7189,132.6025 167.3849,135.6005 168.0719,138.8925" id="Fill-118" fill="#828DB7"></path>
                    <g id="Group-142" transform="translate(212.000000, 217.048000)" fill="#FFFFFF" opacity="0.100000001">
                        <path d="M2.3717,0.9558 C1.6167,0.8328 0.9057,1.3458 0.7837,2.1008 C0.6617,2.8548 1.1737,3.5658 1.9287,3.6878 C2.6837,3.8108 3.3947,3.2988 3.5167,2.5438 C3.6397,1.7888 3.1267,1.0778 2.3717,0.9558" id="Fill-120"></path>
                        <path d="M5.8927,11.198 C5.0857,10.911 4.1987,11.333 3.9117,12.139 C3.6247,12.947 4.0457,13.834 4.8527,14.121 C5.6597,14.408 6.5467,13.986 6.8337,13.179 C7.1217,12.373 6.6997,11.485 5.8927,11.198" id="Fill-122"></path>
                        <path d="M8.0948,22.28 C7.2358,21.829 6.1728,22.159 5.7208,23.017 C5.2698,23.877 5.5998,24.939 6.4588,25.391 C7.3178,25.843 8.3808,25.513 8.8318,24.654 C9.2838,23.795 8.9538,22.732 8.0948,22.28" id="Fill-124"></path>
                        <path d="M13.5328,30.2761 C12.6218,29.6601 11.3828,29.8981 10.7658,30.8091 C10.1498,31.7201 10.3888,32.9601 11.2998,33.5761 C12.2108,34.1921 13.4498,33.9541 14.0658,33.0431 C14.6828,32.1311 14.4438,30.8921 13.5328,30.2761" id="Fill-126"></path>
                        <path d="M21.6017,35.3503 C20.6387,34.5693 19.2247,34.7163 18.4427,35.6803 C17.6617,36.6433 17.8087,38.0573 18.7717,38.8383 C19.7357,39.6213 21.1497,39.4733 21.9317,38.5093 C22.7127,37.5463 22.5647,36.1313 21.6017,35.3503" id="Fill-128"></path>
                        <path d="M31.3868,38.655 C30.3718,37.709 28.7818,37.764 27.8348,38.78 C26.8888,39.796 26.9458,41.385 27.9608,42.332 C28.9758,43.278 30.5668,43.222 31.5128,42.207 C32.4588,41.191 32.4028,39.6 31.3868,38.655" id="Fill-130"></path>
                        <path d="M41.9737,41.3396 C40.9057,40.2296 39.1397,40.1936 38.0287,41.2616 C36.9177,42.3286 36.8827,44.0956 37.9507,45.2056 C39.0177,46.3176 40.7847,46.3526 41.8947,45.2836 C43.0057,44.2166 43.0407,42.4506 41.9737,41.3396" id="Fill-132"></path>
                        <path d="M52.4469,44.5574 C51.3269,43.2814 49.3849,43.1554 48.1099,44.2754 C46.8339,45.3944 46.7069,47.3364 47.8269,48.6124 C48.9469,49.8874 50.8889,50.0144 52.1649,48.8944 C53.4399,47.7754 53.5669,45.8324 52.4469,44.5574" id="Fill-134"></path>
                        <path d="M61.8917,49.4578 C60.7197,48.0178 58.6017,47.7998 57.1617,48.9718 C55.7207,50.1438 55.5037,52.2618 56.6757,53.7018 C57.8477,55.1428 59.9647,55.3598 61.4057,54.1878 C62.8457,53.0168 63.0637,50.8978 61.8917,49.4578" id="Fill-136"></path>
                        <path d="M69.3932,57.1931 C68.1692,55.5881 65.8752,55.2791 64.2702,56.5031 C62.6652,57.7271 62.3562,60.0211 63.5802,61.6261 C64.8042,63.2311 67.0982,63.5401 68.7032,62.3161 C70.3082,61.0911 70.6172,58.7981 69.3932,57.1931" id="Fill-138"></path>
                        <path d="M74.0367,68.9138 C72.7607,67.1438 70.2907,66.7438 68.5207,68.0198 C66.7507,69.2968 66.3507,71.7668 67.6277,73.5358 C68.9037,75.3058 71.3727,75.7058 73.1427,74.4298 C74.9127,73.1538 75.3127,70.6848 74.0367,68.9138" id="Fill-140"></path>
                    </g>
                    <g id="Group-165" transform="translate(103.000000, 214.048000)" fill="#FFFFFF" opacity="0.100000001">
                        <path d="M47.0318,0.6628 C46.2768,0.5408 45.5658,1.0538 45.4438,1.8088 C45.3218,2.5628 45.8338,3.2738 46.5888,3.3958 C47.3438,3.5178 48.0538,3.0058 48.1768,2.2508 C48.2988,1.4958 47.7858,0.7848 47.0318,0.6628" id="Fill-143"></path>
                        <path d="M47.1812,10.4861 C46.3742,10.1991 45.4872,10.6211 45.2012,11.4271 C44.9132,12.2341 45.3352,13.1211 46.1412,13.4081 C46.9492,13.6951 47.8352,13.2741 48.1222,12.4671 C48.4102,11.6601 47.9882,10.7731 47.1812,10.4861" id="Fill-145"></path>
                        <path d="M48.2877,23.864 C47.4287,23.412 46.3657,23.742 45.9137,24.601 C45.4627,25.461 45.7927,26.523 46.6517,26.975 C47.5107,27.427 48.5737,27.096 49.0247,26.238 C49.4767,25.379 49.1467,24.316 48.2877,23.864" id="Fill-147"></path>
                        <path d="M50.6119,36.2234 C49.7009,35.6064 48.4619,35.8454 47.8459,36.7564 C47.2289,37.6674 47.4679,38.9064 48.3789,39.5234 C49.2899,40.1394 50.5289,39.9014 51.1459,38.9904 C51.7619,38.0774 51.5229,36.8394 50.6119,36.2234" id="Fill-149"></path>
                        <path d="M52.1983,51.072 C51.2353,50.291 49.8203,50.438 49.0393,51.402 C48.2583,52.365 48.4053,53.779 49.3683,54.561 C50.3323,55.343 51.7463,55.195 52.5283,54.231 C53.3093,53.268 53.1613,51.853 52.1983,51.072" id="Fill-151"></path>
                        <path d="M50.4444,62.9832 C49.4284,62.0372 47.8384,62.0922 46.8924,63.1082 C45.9464,64.1242 46.0024,65.7142 47.0184,66.6602 C48.0334,67.6062 49.6244,67.5502 50.5694,66.5352 C51.5164,65.5192 51.4604,63.9292 50.4444,62.9832" id="Fill-153"></path>
                        <path d="M45.8004,71.9705 C44.7334,70.8605 42.9674,70.8245 41.8564,71.8925 C40.7454,72.9605 40.7104,74.7265 41.7774,75.8375 C42.8454,76.9485 44.6114,76.9835 45.7224,75.9155 C46.8334,74.8475 46.8684,73.0815 45.8004,71.9705" id="Fill-155"></path>
                        <path d="M38.7164,78.0525 C37.5964,76.7775 35.6544,76.6505 34.3794,77.7705 C33.1034,78.8905 32.9774,80.8315 34.0964,82.1075 C35.2164,83.3835 37.1584,83.5095 38.4344,82.3895 C39.7104,81.2705 39.8364,79.3275 38.7164,78.0525" id="Fill-157"></path>
                        <path d="M29.6427,81.2439 C28.4707,79.8039 26.3527,79.5859 24.9127,80.7579 C23.4717,81.9299 23.2547,84.0479 24.4267,85.4869 C25.5987,86.9279 27.7157,87.1449 29.1567,85.9729 C30.5967,84.8019 30.8147,82.6839 29.6427,81.2439" id="Fill-159"></path>
                        <path d="M19.0284,81.5603 C17.8044,79.9553 15.5104,79.6463 13.9054,80.8703 C12.3004,82.0943 11.9914,84.3873 13.2154,85.9933 C14.4394,87.5983 16.7334,87.9073 18.3384,86.6833 C19.9434,85.4583 20.2524,83.1643 19.0284,81.5603" id="Fill-161"></path>
                        <path d="M7.3238,79.0183 C6.0478,77.2473 3.5778,76.8483 1.8078,78.1233 C0.0378,79.4003 -0.3622,81.8703 0.9138,83.6393 C2.1908,85.4103 4.6598,85.8103 6.4298,84.5343 C8.1998,83.2573 8.5998,80.7883 7.3238,79.0183" id="Fill-163"></path>
                    </g>
                    <g id="Group-188" transform="translate(10.000000, 206.048000)" fill="#FFFFFF" opacity="0.100000001">
                        <path d="M107.6529,0.9509 C106.8979,0.8289 106.1869,1.3419 106.0649,2.0959 C105.9429,2.8499 106.4549,3.5609 107.2099,3.6839 C107.9649,3.8059 108.6759,3.2939 108.7979,2.5389 C108.9209,1.7839 108.4079,1.0729 107.6529,0.9509" id="Fill-166"></path>
                        <path d="M97.6432,10.1316 C96.8362,9.8446 95.9492,10.2666 95.6622,11.0726 C95.3752,11.8796 95.7962,12.7676 96.6032,13.0546 C97.4102,13.3406 98.2972,12.9196 98.5842,12.1126 C98.8722,11.3056 98.4502,10.4186 97.6432,10.1316" id="Fill-168"></path>
                        <path d="M86.0191,16.9001 C85.1601,16.4481 84.0971,16.7781 83.6451,17.6371 C83.1931,18.4971 83.5231,19.5591 84.3831,20.0111 C85.2421,20.4631 86.3051,20.1321 86.7561,19.2741 C87.2081,18.4151 86.8781,17.3521 86.0191,16.9001" id="Fill-170"></path>
                        <path d="M75.1734,21.7917 C74.2624,21.1757 73.0234,21.4147 72.4074,22.3257 C71.7904,23.2367 72.0294,24.4757 72.9404,25.0917 C73.8514,25.7087 75.0904,25.4697 75.7074,24.5587 C76.3234,23.6467 76.0844,22.4087 75.1734,21.7917" id="Fill-172"></path>
                        <path d="M62.4063,25.906 C61.4433,25.124 60.0283,25.271 59.2473,26.235 C58.4663,27.198 58.6133,28.613 59.5763,29.394 C60.5403,30.176 61.9543,30.028 62.7363,29.064 C63.5173,28.101 63.3693,26.687 62.4063,25.906" id="Fill-174"></path>
                        <path d="M50.3502,28.366 C49.3342,27.42 47.7452,27.476 46.7982,28.491 C45.8522,29.507 45.9082,31.097 46.9242,32.044 C47.9392,32.989 49.5302,32.933 50.4752,31.918 C51.4222,30.902 51.3662,29.312 50.3502,28.366" id="Fill-176"></path>
                        <path d="M39.2144,30.7341 C38.1464,29.6231 36.3804,29.5881 35.2694,30.6561 C34.1584,31.7231 34.1234,33.4901 35.1914,34.6001 C36.2584,35.7121 38.0254,35.7471 39.1354,34.6781 C40.2464,33.6111 40.2814,31.8451 39.2144,30.7341" id="Fill-178"></path>
                        <path d="M29.2076,34.572 C28.0876,33.296 26.1456,33.17 24.8706,34.29 C23.5946,35.409 23.4686,37.351 24.5876,38.627 C25.7076,39.902 27.6496,40.029 28.9256,38.909 C30.2016,37.789 30.3276,35.847 29.2076,34.572" id="Fill-180"></path>
                        <path d="M20.5396,41.4402 C19.3676,40.0002 17.2496,39.7822 15.8096,40.9542 C14.3686,42.1262 14.1516,44.2442 15.3236,45.6842 C16.4956,47.1252 18.6126,47.3422 20.0536,46.1692 C21.4936,44.9982 21.7116,42.8802 20.5396,41.4402" id="Fill-182"></path>
                        <path d="M13.419,52.9001 C12.195,51.2951 9.901,50.9861 8.296,52.2101 C6.691,53.4341 6.382,55.7271 7.606,57.3331 C8.83,58.9381 11.124,59.2471 12.729,58.0231 C14.335,56.7981 14.643,54.5051 13.419,52.9001" id="Fill-184"></path>
                        <path d="M8.0558,70.5134 C6.7798,68.7424 4.3098,68.3434 2.5398,69.6184 C0.7698,70.8954 0.3698,73.3654 1.6458,75.1354 C2.9228,76.9054 5.3918,77.3054 7.1618,76.0294 C8.9318,74.7524 9.3318,72.2834 8.0558,70.5134" id="Fill-186"></path>
                    </g>
                </g>
                <path d="M330.692015,68.4426405 L330.692015,67.3911699 C330.692015,66.9597977 330.770774,66.555386 330.928291,66.1779346 C331.085809,65.8004832 331.387718,65.369111 331.834019,64.8838169 C332.280321,64.3985228 332.647861,64.0210714 332.936645,63.751464 C333.225428,63.4818565 333.750487,63.010042 334.511824,62.3360228 C335.273161,61.6620036 335.811346,61.1901891 336.126382,60.9205816 C338.121609,59.1950918 339.604903,57.5370036 340.576263,55.9463169 C341.547623,54.3556302 342.033303,52.3740126 342.033303,50.001464 C342.033303,45.6338169 340.458124,42.1154346 337.307766,39.4463169 C334.157408,36.7771993 330.219461,35.4426405 325.493924,35.4426405 C321.450965,35.4426405 317.985571,36.5075918 315.097743,38.6374934 C312.209914,40.7673949 310.188435,43.9892095 309.033303,48.3029346 L320.059556,53.3176405 C321.529724,49.9205816 323.183662,48.2220522 325.02137,48.2220522 C325.913971,48.2220522 326.662181,48.4916596 327.266,49.0308757 C327.869819,49.5700918 328.171728,50.3519538 328.171728,51.376464 C328.171728,51.8617581 328.066717,52.2931302 327.856692,52.6705816 C327.646668,53.1558757 326.544043,54.2073463 324.548817,55.8249934 C323.183662,56.9034244 322.212301,57.7122479 321.634735,58.251464 C321.05717,58.7906801 320.374592,59.6534244 319.587003,60.8396993 C318.799413,62.0259742 318.405618,63.2122479 318.405618,64.3985228 C318.405618,65.5847977 318.720654,66.9328361 319.350726,68.4426405 L330.692015,68.4426405 Z M324.901002,90.9748572 C327.461002,90.9748572 329.581002,90.1177139 331.261002,88.4034286 C332.941002,86.6891433 333.781002,84.5462858 333.781002,81.9748572 C333.781002,79.4570005 332.941002,77.3275362 331.261002,75.5864643 C329.581002,73.8453925 327.461002,72.9748572 324.901002,72.9748572 C322.234336,72.9748572 320.047668,73.8453925 318.341002,75.5864643 C316.634336,77.3275362 315.781002,79.4570005 315.781002,81.9748572 C315.781002,84.5462858 316.634336,86.6891433 318.341002,88.4034286 C320.047668,90.1177139 322.234336,90.9748572 324.901002,90.9748572 Z" id="?" fill="#D7E2F4" fill-rule="nonzero" transform="translate(325.533303, 63.208749) rotate(42.000000) translate(-325.533303, -63.208749) "></path>
                <path d="M161.18335,125.179982 L161.18335,124.670179 C161.18335,124.461028 161.221536,124.26495 161.297908,124.081943 C161.374281,123.898936 161.520661,123.689786 161.737049,123.454492 C161.953438,123.219198 162.131639,123.036191 162.271655,122.905473 C162.411672,122.774754 162.666246,122.545995 163.035379,122.219198 C163.404512,121.892401 163.66545,121.663642 163.818195,121.532924 C164.785577,120.696323 165.50475,119.892401 165.975713,119.121159 C166.446675,118.349917 166.682157,117.389133 166.682157,116.238806 C166.682157,114.121159 165.918433,112.415277 164.390987,111.121159 C162.863541,109.827041 160.954233,109.179982 158.663064,109.179982 C156.702841,109.179982 155.02265,109.696323 153.622491,110.729002 C152.222331,111.761682 151.24222,113.323773 150.682157,115.415277 L156.028219,117.846649 C156.741027,116.19959 157.542936,115.376061 158.433947,115.376061 C158.866723,115.376061 159.229491,115.50678 159.522252,115.768218 C159.815013,116.029656 159.961393,116.40874 159.961393,116.905473 C159.961393,117.140767 159.910478,117.349917 159.808648,117.532924 C159.706818,117.768218 159.172212,118.278022 158.20483,119.062335 C157.542936,119.585211 157.071973,119.977368 156.791942,120.238806 C156.51191,120.500244 156.180963,120.918544 155.799102,121.493708 C155.41724,122.068872 155.226309,122.644035 155.226309,123.219198 C155.226309,123.794362 155.379054,124.447956 155.684543,125.179982 L161.18335,125.179982 Z M159.216669,134.772939 C160.354446,134.772939 161.296669,134.391986 162.043335,133.630082 C162.790002,132.868177 163.163335,131.915796 163.163335,130.772939 C163.163335,129.653892 162.790002,128.707463 162.043335,127.933653 C161.296669,127.159844 160.354446,126.772939 159.216669,126.772939 C158.031484,126.772939 157.059631,127.159844 156.301113,127.933653 C155.542595,128.707463 155.163335,129.653892 155.163335,130.772939 C155.163335,131.915796 155.542595,132.868177 156.301113,133.630082 C157.059631,134.391986 158.031484,134.772939 159.216669,134.772939 Z" id="?-copy" fill="#D7E2F4" fill-rule="nonzero" transform="translate(158.682157, 121.976461) rotate(-58.000000) translate(-158.682157, -121.976461) "></path>
                <path d="M339.868578,154.483837 L339.868578,154.133347 C339.868578,153.989556 339.894831,153.854752 339.947337,153.728935 C339.999843,153.603118 340.100479,153.459327 340.249246,153.297562 C340.398013,153.135798 340.520527,153.009981 340.616788,152.920111 C340.713049,152.830242 340.888069,152.672971 341.141848,152.448298 C341.395627,152.223625 341.575022,152.066353 341.680034,151.976484 C342.345109,151.401321 342.839541,150.848625 343.163327,150.318396 C343.487114,149.788167 343.649008,149.127628 343.649008,148.336778 C343.649008,146.880896 343.123948,145.708102 342.073829,144.818396 C341.023709,143.92869 339.71106,143.483837 338.135881,143.483837 C336.788228,143.483837 335.633097,143.838821 334.670487,144.548788 C333.707878,145.258755 333.034052,146.332693 332.649008,147.770602 L336.324425,149.44217 C336.814481,148.309817 337.365794,147.743641 337.978363,147.743641 C338.275897,147.743641 338.5253,147.83351 338.726573,148.013249 C338.927846,148.192987 339.028483,148.453608 339.028483,148.795111 C339.028483,148.956876 338.993479,149.100667 338.923471,149.226484 C338.853463,149.388249 338.485921,149.738739 337.820845,150.277955 C337.365794,150.637432 337.042007,150.907039 336.849485,151.086778 C336.656963,151.266517 336.429437,151.554098 336.166907,151.949523 C335.904378,152.344948 335.773113,152.740373 335.773113,153.135798 C335.773113,153.531223 335.878125,153.980569 336.088148,154.483837 L339.868578,154.483837 Z M338.554768,161.27718 C339.408101,161.27718 340.114768,160.991465 340.674768,160.420037 C341.234768,159.848608 341.514768,159.134322 341.514768,158.27718 C341.514768,157.437894 341.234768,156.728073 340.674768,156.147715 C340.114768,155.567358 339.408101,155.27718 338.554768,155.27718 C337.665879,155.27718 336.93699,155.567358 336.368101,156.147715 C335.799212,156.728073 335.514768,157.437894 335.514768,158.27718 C335.514768,159.134322 335.799212,159.848608 336.368101,160.420037 C336.93699,160.991465 337.665879,161.27718 338.554768,161.27718 Z" id="?-copy-2" fill="#D7E2F4" fill-rule="nonzero" transform="translate(338.149008, 152.380508) rotate(70.000000) translate(-338.149008, -152.380508) "></path>
            </g>
        </g>
    </g>
</svg>
